%FSLAX45Y45*%
G04 Gerber Fmt 4.5, Leading zero omitted, Abs format (unit mm)*
G04 Created by KiCad (PCBNEW 5.1.10) date 2021-12-30 11:48:07*
%MOMM*%
%LPD*%
G01*
G04 APERTURE LIST*
%TA.AperFunction,Profile*%
%ADD10C,0.050000*%
%TD*%
%ADD11C,0.200000*%
%ADD12C,0.300000*%
G04 APERTURE END LIST*
D10*
X8640000Y-6930000D02*
X20640000Y-6930000D01*
X20640000Y-11930000D02*
X8640000Y-11930000D01*
X20640000Y-6930000D02*
X20640000Y-11930000D01*
X8640000Y-6930000D02*
X8640000Y-11930000D01*
D11*
X18041000Y-9415000D02*
X18071000Y-9445000D01*
X18071000Y-9415000D02*
X18041000Y-9445000D01*
X18295000Y-9415000D02*
X18325000Y-9445000D01*
X18325000Y-9415000D02*
X18295000Y-9445000D01*
X18495000Y-9415000D02*
X18525000Y-9445000D01*
X18525000Y-9415000D02*
X18495000Y-9445000D01*
X18695000Y-9415000D02*
X18725000Y-9445000D01*
X18725000Y-9415000D02*
X18695000Y-9445000D01*
X18895000Y-9415000D02*
X18925000Y-9445000D01*
X18925000Y-9415000D02*
X18895000Y-9445000D01*
X18895000Y-9615000D02*
X18925000Y-9645000D01*
X18925000Y-9615000D02*
X18895000Y-9645000D01*
X18895000Y-9815000D02*
X18925000Y-9845000D01*
X18925000Y-9815000D02*
X18895000Y-9845000D01*
X18895000Y-10015000D02*
X18925000Y-10045000D01*
X18925000Y-10015000D02*
X18895000Y-10045000D01*
X18895000Y-10215000D02*
X18925000Y-10245000D01*
X18925000Y-10215000D02*
X18895000Y-10245000D01*
X18895000Y-10415000D02*
X18925000Y-10445000D01*
X18925000Y-10415000D02*
X18895000Y-10445000D01*
X18895000Y-10615000D02*
X18925000Y-10645000D01*
X18925000Y-10615000D02*
X18895000Y-10645000D01*
X18895000Y-10815000D02*
X18925000Y-10845000D01*
X18925000Y-10815000D02*
X18895000Y-10845000D01*
X18895000Y-11015000D02*
X18925000Y-11045000D01*
X18925000Y-11015000D02*
X18895000Y-11045000D01*
X18945000Y-11215000D02*
X18975000Y-11245000D01*
X18975000Y-11215000D02*
X18945000Y-11245000D01*
X19145000Y-11215000D02*
X19175000Y-11245000D01*
X19175000Y-11215000D02*
X19145000Y-11245000D01*
X19345000Y-11215000D02*
X19375000Y-11245000D01*
X19375000Y-11215000D02*
X19345000Y-11245000D01*
X19395000Y-7815000D02*
X19425000Y-7845000D01*
X19425000Y-7815000D02*
X19395000Y-7845000D01*
X19395000Y-8015000D02*
X19425000Y-8045000D01*
X19425000Y-8015000D02*
X19395000Y-8045000D01*
X19395000Y-8215000D02*
X19425000Y-8245000D01*
X19425000Y-8215000D02*
X19395000Y-8245000D01*
X19395000Y-8415000D02*
X19425000Y-8445000D01*
X19425000Y-8415000D02*
X19395000Y-8445000D01*
X19395000Y-8615000D02*
X19425000Y-8645000D01*
X19425000Y-8615000D02*
X19395000Y-8645000D01*
X19395000Y-8815000D02*
X19425000Y-8845000D01*
X19425000Y-8815000D02*
X19395000Y-8845000D01*
X19395000Y-9015000D02*
X19425000Y-9045000D01*
X19425000Y-9015000D02*
X19395000Y-9045000D01*
X19395000Y-9215000D02*
X19425000Y-9245000D01*
X19425000Y-9215000D02*
X19395000Y-9245000D01*
X19395000Y-9415000D02*
X19425000Y-9445000D01*
X19425000Y-9415000D02*
X19395000Y-9445000D01*
X19395000Y-9615000D02*
X19425000Y-9645000D01*
X19425000Y-9615000D02*
X19395000Y-9645000D01*
X19395000Y-9815000D02*
X19425000Y-9845000D01*
X19425000Y-9815000D02*
X19395000Y-9845000D01*
X19395000Y-10015000D02*
X19425000Y-10045000D01*
X19425000Y-10015000D02*
X19395000Y-10045000D01*
X19395000Y-10215000D02*
X19425000Y-10245000D01*
X19425000Y-10215000D02*
X19395000Y-10245000D01*
X19395000Y-10415000D02*
X19425000Y-10445000D01*
X19425000Y-10415000D02*
X19395000Y-10445000D01*
X19395000Y-10615000D02*
X19425000Y-10645000D01*
X19425000Y-10615000D02*
X19395000Y-10645000D01*
X19395000Y-10815000D02*
X19425000Y-10845000D01*
X19425000Y-10815000D02*
X19395000Y-10845000D01*
X19395000Y-11015000D02*
X19425000Y-11045000D01*
X19425000Y-11015000D02*
X19395000Y-11045000D01*
X19445000Y-7615000D02*
X19475000Y-7645000D01*
X19475000Y-7615000D02*
X19445000Y-7645000D01*
X19645000Y-7615000D02*
X19675000Y-7645000D01*
X19675000Y-7615000D02*
X19645000Y-7645000D01*
X19845000Y-7615000D02*
X19875000Y-7645000D01*
X19875000Y-7615000D02*
X19845000Y-7645000D01*
X19895000Y-7815000D02*
X19925000Y-7845000D01*
X19925000Y-7815000D02*
X19895000Y-7845000D01*
X19895000Y-8015000D02*
X19925000Y-8045000D01*
X19925000Y-8015000D02*
X19895000Y-8045000D01*
X19895000Y-8215000D02*
X19925000Y-8245000D01*
X19925000Y-8215000D02*
X19895000Y-8245000D01*
X19895000Y-8415000D02*
X19925000Y-8445000D01*
X19925000Y-8415000D02*
X19895000Y-8445000D01*
X19895000Y-8615000D02*
X19925000Y-8645000D01*
X19925000Y-8615000D02*
X19895000Y-8645000D01*
X19895000Y-8815000D02*
X19925000Y-8845000D01*
X19925000Y-8815000D02*
X19895000Y-8845000D01*
X19895000Y-9015000D02*
X19925000Y-9045000D01*
X19925000Y-9015000D02*
X19895000Y-9045000D01*
X19895000Y-9215000D02*
X19925000Y-9245000D01*
X19925000Y-9215000D02*
X19895000Y-9245000D01*
X19895000Y-9415000D02*
X19925000Y-9445000D01*
X19925000Y-9415000D02*
X19895000Y-9445000D01*
X19895000Y-9615000D02*
X19925000Y-9645000D01*
X19925000Y-9615000D02*
X19895000Y-9645000D01*
X19895000Y-9815000D02*
X19925000Y-9845000D01*
X19925000Y-9815000D02*
X19895000Y-9845000D01*
X19895000Y-10015000D02*
X19925000Y-10045000D01*
X19925000Y-10015000D02*
X19895000Y-10045000D01*
X19895000Y-10215000D02*
X19925000Y-10245000D01*
X19925000Y-10215000D02*
X19895000Y-10245000D01*
X19895000Y-10415000D02*
X19925000Y-10445000D01*
X19925000Y-10415000D02*
X19895000Y-10445000D01*
X19895000Y-10615000D02*
X19925000Y-10645000D01*
X19925000Y-10615000D02*
X19895000Y-10645000D01*
X19895000Y-10815000D02*
X19925000Y-10845000D01*
X19925000Y-10815000D02*
X19895000Y-10845000D01*
X19895000Y-11015000D02*
X19925000Y-11045000D01*
X19925000Y-11015000D02*
X19895000Y-11045000D01*
X19945000Y-11215000D02*
X19975000Y-11245000D01*
X19975000Y-11215000D02*
X19945000Y-11245000D01*
X20145000Y-11215000D02*
X20175000Y-11245000D01*
X20175000Y-11215000D02*
X20145000Y-11245000D01*
X20345000Y-11215000D02*
X20375000Y-11245000D01*
X20375000Y-11215000D02*
X20345000Y-11245000D01*
X20395000Y-7615000D02*
X20425000Y-7645000D01*
X20425000Y-7615000D02*
X20395000Y-7645000D01*
X20395000Y-7815000D02*
X20425000Y-7845000D01*
X20425000Y-7815000D02*
X20395000Y-7845000D01*
X20395000Y-8015000D02*
X20425000Y-8045000D01*
X20425000Y-8015000D02*
X20395000Y-8045000D01*
X20395000Y-8215000D02*
X20425000Y-8245000D01*
X20425000Y-8215000D02*
X20395000Y-8245000D01*
X20395000Y-8415000D02*
X20425000Y-8445000D01*
X20425000Y-8415000D02*
X20395000Y-8445000D01*
X20395000Y-8615000D02*
X20425000Y-8645000D01*
X20425000Y-8615000D02*
X20395000Y-8645000D01*
X20395000Y-8815000D02*
X20425000Y-8845000D01*
X20425000Y-8815000D02*
X20395000Y-8845000D01*
X20395000Y-9015000D02*
X20425000Y-9045000D01*
X20425000Y-9015000D02*
X20395000Y-9045000D01*
X20395000Y-9215000D02*
X20425000Y-9245000D01*
X20425000Y-9215000D02*
X20395000Y-9245000D01*
X20395000Y-9415000D02*
X20425000Y-9445000D01*
X20425000Y-9415000D02*
X20395000Y-9445000D01*
X20395000Y-9615000D02*
X20425000Y-9645000D01*
X20425000Y-9615000D02*
X20395000Y-9645000D01*
X20395000Y-9815000D02*
X20425000Y-9845000D01*
X20425000Y-9815000D02*
X20395000Y-9845000D01*
X20395000Y-10015000D02*
X20425000Y-10045000D01*
X20425000Y-10015000D02*
X20395000Y-10045000D01*
X20395000Y-10215000D02*
X20425000Y-10245000D01*
X20425000Y-10215000D02*
X20395000Y-10245000D01*
X20395000Y-10415000D02*
X20425000Y-10445000D01*
X20425000Y-10415000D02*
X20395000Y-10445000D01*
X20395000Y-10615000D02*
X20425000Y-10645000D01*
X20425000Y-10615000D02*
X20395000Y-10645000D01*
X20395000Y-10815000D02*
X20425000Y-10845000D01*
X20425000Y-10815000D02*
X20395000Y-10845000D01*
X20395000Y-11015000D02*
X20425000Y-11045000D01*
X20425000Y-11015000D02*
X20395000Y-11045000D01*
X13979906Y-8722502D02*
G75*
G03*
X13979906Y-8722502I-20000J0D01*
G01*
X13980000Y-8487500D02*
G75*
G03*
X13980000Y-8487500I-20000J0D01*
G01*
X14077014Y-8442499D02*
G75*
G03*
X14077014Y-8442499I-20000J0D01*
G01*
X14079907Y-8722502D02*
G75*
G03*
X14079907Y-8722502I-20000J0D01*
G01*
X14180000Y-8722502D02*
G75*
G03*
X14180000Y-8722502I-20000J0D01*
G01*
X14281265Y-8723767D02*
G75*
G03*
X14281265Y-8723767I-20000J0D01*
G01*
X14381257Y-8722502D02*
G75*
G03*
X14381257Y-8722502I-20000J0D01*
G01*
X14481258Y-8722502D02*
G75*
G03*
X14481258Y-8722502I-20000J0D01*
G01*
X14900000Y-7620000D02*
G75*
G03*
X14900000Y-7620000I-20000J0D01*
G01*
X14900000Y-7700000D02*
G75*
G03*
X14900000Y-7700000I-20000J0D01*
G01*
X15030000Y-8660000D02*
G75*
G03*
X15030000Y-8660000I-20000J0D01*
G01*
X15150000Y-8660000D02*
G75*
G03*
X15150000Y-8660000I-20000J0D01*
G01*
X15400000Y-8670000D02*
G75*
G03*
X15400000Y-8670000I-20000J0D01*
G01*
X15460000Y-7730000D02*
G75*
G03*
X15460000Y-7730000I-20000J0D01*
G01*
X15460000Y-7930000D02*
G75*
G03*
X15460000Y-7930000I-20000J0D01*
G01*
X15460000Y-8130000D02*
G75*
G03*
X15460000Y-8130000I-20000J0D01*
G01*
X15460000Y-8330000D02*
G75*
G03*
X15460000Y-8330000I-20000J0D01*
G01*
X15460000Y-8530000D02*
G75*
G03*
X15460000Y-8530000I-20000J0D01*
G01*
X15470000Y-9830000D02*
G75*
G03*
X15470000Y-9830000I-20000J0D01*
G01*
X15470000Y-9910000D02*
G75*
G03*
X15470000Y-9910000I-20000J0D01*
G01*
X15530000Y-8670000D02*
G75*
G03*
X15530000Y-8670000I-20000J0D01*
G01*
X15660000Y-7730000D02*
G75*
G03*
X15660000Y-7730000I-20000J0D01*
G01*
X15660000Y-7930000D02*
G75*
G03*
X15660000Y-7930000I-20000J0D01*
G01*
X15660000Y-8130000D02*
G75*
G03*
X15660000Y-8130000I-20000J0D01*
G01*
X15660000Y-8330000D02*
G75*
G03*
X15660000Y-8330000I-20000J0D01*
G01*
X15660000Y-8530000D02*
G75*
G03*
X15660000Y-8530000I-20000J0D01*
G01*
X15860000Y-7730000D02*
G75*
G03*
X15860000Y-7730000I-20000J0D01*
G01*
X15860000Y-7930000D02*
G75*
G03*
X15860000Y-7930000I-20000J0D01*
G01*
X15860000Y-8130000D02*
G75*
G03*
X15860000Y-8130000I-20000J0D01*
G01*
X15860000Y-8330000D02*
G75*
G03*
X15860000Y-8330000I-20000J0D01*
G01*
X15860000Y-8530000D02*
G75*
G03*
X15860000Y-8530000I-20000J0D01*
G01*
X16060000Y-7730000D02*
G75*
G03*
X16060000Y-7730000I-20000J0D01*
G01*
X16060000Y-7930000D02*
G75*
G03*
X16060000Y-7930000I-20000J0D01*
G01*
X16060000Y-8130000D02*
G75*
G03*
X16060000Y-8130000I-20000J0D01*
G01*
X16060000Y-8330000D02*
G75*
G03*
X16060000Y-8330000I-20000J0D01*
G01*
X16060000Y-8530000D02*
G75*
G03*
X16060000Y-8530000I-20000J0D01*
G01*
X16070000Y-8820000D02*
G75*
G03*
X16070000Y-8820000I-20000J0D01*
G01*
X16070000Y-8900000D02*
G75*
G03*
X16070000Y-8900000I-20000J0D01*
G01*
X16128000Y-8960000D02*
G75*
G03*
X16128000Y-8960000I-20000J0D01*
G01*
X16128000Y-9040000D02*
G75*
G03*
X16128000Y-9040000I-20000J0D01*
G01*
X16128000Y-9129412D02*
G75*
G03*
X16128000Y-9129412I-20000J0D01*
G01*
X16160000Y-9800000D02*
G75*
G03*
X16160000Y-9800000I-20000J0D01*
G01*
X16160000Y-9900000D02*
G75*
G03*
X16160000Y-9900000I-20000J0D01*
G01*
X16160000Y-10000000D02*
G75*
G03*
X16160000Y-10000000I-20000J0D01*
G01*
X16169743Y-9220257D02*
G75*
G03*
X16169743Y-9220257I-20000J0D01*
G01*
X16239743Y-9290257D02*
G75*
G03*
X16239743Y-9290257I-20000J0D01*
G01*
X16260000Y-7730000D02*
G75*
G03*
X16260000Y-7730000I-20000J0D01*
G01*
X16260000Y-7930000D02*
G75*
G03*
X16260000Y-7930000I-20000J0D01*
G01*
X16260000Y-8130000D02*
G75*
G03*
X16260000Y-8130000I-20000J0D01*
G01*
X16260000Y-8330000D02*
G75*
G03*
X16260000Y-8330000I-20000J0D01*
G01*
X16260000Y-8530000D02*
G75*
G03*
X16260000Y-8530000I-20000J0D01*
G01*
X16309743Y-9360257D02*
G75*
G03*
X16309743Y-9360257I-20000J0D01*
G01*
X16355000Y-8960000D02*
G75*
G03*
X16355000Y-8960000I-20000J0D01*
G01*
X16355000Y-9040000D02*
G75*
G03*
X16355000Y-9040000I-20000J0D01*
G01*
X16379743Y-9430257D02*
G75*
G03*
X16379743Y-9430257I-20000J0D01*
G01*
X16385257Y-9114743D02*
G75*
G03*
X16385257Y-9114743I-20000J0D01*
G01*
X16410000Y-8820000D02*
G75*
G03*
X16410000Y-8820000I-20000J0D01*
G01*
X16410000Y-8900000D02*
G75*
G03*
X16410000Y-8900000I-20000J0D01*
G01*
X16449743Y-9500257D02*
G75*
G03*
X16449743Y-9500257I-20000J0D01*
G01*
X16455257Y-9184743D02*
G75*
G03*
X16455257Y-9184743I-20000J0D01*
G01*
X16525257Y-9254743D02*
G75*
G03*
X16525257Y-9254743I-20000J0D01*
G01*
X16540000Y-9543500D02*
G75*
G03*
X16540000Y-9543500I-20000J0D01*
G01*
X16610000Y-9316500D02*
G75*
G03*
X16610000Y-9316500I-20000J0D01*
G01*
X16640000Y-9543500D02*
G75*
G03*
X16640000Y-9543500I-20000J0D01*
G01*
X16710000Y-9316500D02*
G75*
G03*
X16710000Y-9316500I-20000J0D01*
G01*
X16740000Y-9543500D02*
G75*
G03*
X16740000Y-9543500I-20000J0D01*
G01*
X16810000Y-9316500D02*
G75*
G03*
X16810000Y-9316500I-20000J0D01*
G01*
X16840000Y-9543500D02*
G75*
G03*
X16840000Y-9543500I-20000J0D01*
G01*
X16910000Y-9316500D02*
G75*
G03*
X16910000Y-9316500I-20000J0D01*
G01*
X16940000Y-9543500D02*
G75*
G03*
X16940000Y-9543500I-20000J0D01*
G01*
X17010000Y-9316500D02*
G75*
G03*
X17010000Y-9316500I-20000J0D01*
G01*
X17040000Y-9543500D02*
G75*
G03*
X17040000Y-9543500I-20000J0D01*
G01*
X17110000Y-9316500D02*
G75*
G03*
X17110000Y-9316500I-20000J0D01*
G01*
X17140000Y-9543500D02*
G75*
G03*
X17140000Y-9543500I-20000J0D01*
G01*
X17210000Y-9316500D02*
G75*
G03*
X17210000Y-9316500I-20000J0D01*
G01*
X17240000Y-9543500D02*
G75*
G03*
X17240000Y-9543500I-20000J0D01*
G01*
X17310000Y-9316500D02*
G75*
G03*
X17310000Y-9316500I-20000J0D01*
G01*
X17340000Y-9543500D02*
G75*
G03*
X17340000Y-9543500I-20000J0D01*
G01*
X17410000Y-9316500D02*
G75*
G03*
X17410000Y-9316500I-20000J0D01*
G01*
X17440000Y-9543500D02*
G75*
G03*
X17440000Y-9543500I-20000J0D01*
G01*
X17510000Y-9316500D02*
G75*
G03*
X17510000Y-9316500I-20000J0D01*
G01*
X17540000Y-9543500D02*
G75*
G03*
X17540000Y-9543500I-20000J0D01*
G01*
X17540000Y-9630000D02*
G75*
G03*
X17540000Y-9630000I-20000J0D01*
G01*
X17610000Y-9316500D02*
G75*
G03*
X17610000Y-9316500I-20000J0D01*
G01*
X17630000Y-9650000D02*
G75*
G03*
X17630000Y-9650000I-20000J0D01*
G01*
X17710000Y-9316500D02*
G75*
G03*
X17710000Y-9316500I-20000J0D01*
G01*
X17720000Y-9560000D02*
G75*
G03*
X17720000Y-9560000I-20000J0D01*
G01*
X17810000Y-9316500D02*
G75*
G03*
X17810000Y-9316500I-20000J0D01*
G01*
X17820000Y-9560000D02*
G75*
G03*
X17820000Y-9560000I-20000J0D01*
G01*
X17920000Y-7125000D02*
G75*
G03*
X17920000Y-7125000I-20000J0D01*
G01*
X17920000Y-7325000D02*
G75*
G03*
X17920000Y-7325000I-20000J0D01*
G01*
X17920000Y-7525000D02*
G75*
G03*
X17920000Y-7525000I-20000J0D01*
G01*
X17920000Y-7725000D02*
G75*
G03*
X17920000Y-7725000I-20000J0D01*
G01*
X17920000Y-7925000D02*
G75*
G03*
X17920000Y-7925000I-20000J0D01*
G01*
X17920000Y-8125000D02*
G75*
G03*
X17920000Y-8125000I-20000J0D01*
G01*
X17920000Y-8325000D02*
G75*
G03*
X17920000Y-8325000I-20000J0D01*
G01*
X17920000Y-8525000D02*
G75*
G03*
X17920000Y-8525000I-20000J0D01*
G01*
X17920000Y-8725000D02*
G75*
G03*
X17920000Y-8725000I-20000J0D01*
G01*
X17920000Y-8925000D02*
G75*
G03*
X17920000Y-8925000I-20000J0D01*
G01*
X17920000Y-9125000D02*
G75*
G03*
X17920000Y-9125000I-20000J0D01*
G01*
X17920000Y-9225000D02*
G75*
G03*
X17920000Y-9225000I-20000J0D01*
G01*
X17920000Y-9310000D02*
G75*
G03*
X17920000Y-9310000I-20000J0D01*
G01*
X17920000Y-9650000D02*
G75*
G03*
X17920000Y-9650000I-20000J0D01*
G01*
X17920000Y-9755000D02*
G75*
G03*
X17920000Y-9755000I-20000J0D01*
G01*
X17920000Y-9955000D02*
G75*
G03*
X17920000Y-9955000I-20000J0D01*
G01*
X17920000Y-10155000D02*
G75*
G03*
X17920000Y-10155000I-20000J0D01*
G01*
X17920000Y-10355000D02*
G75*
G03*
X17920000Y-10355000I-20000J0D01*
G01*
X17920000Y-10555000D02*
G75*
G03*
X17920000Y-10555000I-20000J0D01*
G01*
X17920000Y-10755000D02*
G75*
G03*
X17920000Y-10755000I-20000J0D01*
G01*
X17920000Y-10955000D02*
G75*
G03*
X17920000Y-10955000I-20000J0D01*
G01*
X17920000Y-11155000D02*
G75*
G03*
X17920000Y-11155000I-20000J0D01*
G01*
X17920000Y-11355000D02*
G75*
G03*
X17920000Y-11355000I-20000J0D01*
G01*
X17920000Y-11555000D02*
G75*
G03*
X17920000Y-11555000I-20000J0D01*
G01*
X17920000Y-11755000D02*
G75*
G03*
X17920000Y-11755000I-20000J0D01*
G01*
X8827728Y-8090368D02*
X8827728Y-8170368D01*
X8787728Y-8130368D02*
X8867728Y-8130368D01*
X8828000Y-10630000D02*
X8828000Y-10710000D01*
X8788000Y-10670000D02*
X8868000Y-10670000D01*
X9081728Y-8090368D02*
X9081728Y-8170368D01*
X9041728Y-8130368D02*
X9121728Y-8130368D01*
X9082000Y-10630000D02*
X9082000Y-10710000D01*
X9042000Y-10670000D02*
X9122000Y-10670000D01*
X9335728Y-8090368D02*
X9335728Y-8170368D01*
X9295728Y-8130368D02*
X9375728Y-8130368D01*
X9335728Y-10630368D02*
X9335728Y-10710368D01*
X9295728Y-10670368D02*
X9375728Y-10670368D01*
X9589728Y-8090368D02*
X9589728Y-8170368D01*
X9549728Y-8130368D02*
X9629728Y-8130368D01*
X9589728Y-10630368D02*
X9589728Y-10710368D01*
X9549728Y-10670368D02*
X9629728Y-10670368D01*
X9843728Y-8090368D02*
X9843728Y-8170368D01*
X9803728Y-8130368D02*
X9883728Y-8130368D01*
X9843728Y-10630368D02*
X9843728Y-10710368D01*
X9803728Y-10670368D02*
X9883728Y-10670368D01*
X10097728Y-8090368D02*
X10097728Y-8170368D01*
X10057728Y-8130368D02*
X10137728Y-8130368D01*
X10097728Y-10630368D02*
X10097728Y-10710368D01*
X10057728Y-10670368D02*
X10137728Y-10670368D01*
X10351728Y-8090368D02*
X10351728Y-8170368D01*
X10311728Y-8130368D02*
X10391728Y-8130368D01*
X10351728Y-10630368D02*
X10351728Y-10710368D01*
X10311728Y-10670368D02*
X10391728Y-10670368D01*
X10605728Y-8090368D02*
X10605728Y-8170368D01*
X10565728Y-8130368D02*
X10645728Y-8130368D01*
X10605728Y-10630368D02*
X10605728Y-10710368D01*
X10565728Y-10670368D02*
X10645728Y-10670368D01*
X10859728Y-8090368D02*
X10859728Y-8170368D01*
X10819728Y-8130368D02*
X10899728Y-8130368D01*
X10859728Y-10630368D02*
X10859728Y-10710368D01*
X10819728Y-10670368D02*
X10899728Y-10670368D01*
X11113728Y-8090368D02*
X11113728Y-8170368D01*
X11073728Y-8130368D02*
X11153728Y-8130368D01*
X11113728Y-10630368D02*
X11113728Y-10710368D01*
X11073728Y-10670368D02*
X11153728Y-10670368D01*
X11367728Y-8090368D02*
X11367728Y-8170368D01*
X11327728Y-8130368D02*
X11407728Y-8130368D01*
X11367728Y-10630368D02*
X11367728Y-10710368D01*
X11327728Y-10670368D02*
X11407728Y-10670368D01*
X11621728Y-8090368D02*
X11621728Y-8170368D01*
X11581728Y-8130368D02*
X11661728Y-8130368D01*
X11621728Y-10630368D02*
X11621728Y-10710368D01*
X11581728Y-10670368D02*
X11661728Y-10670368D01*
X11875728Y-8090368D02*
X11875728Y-8170368D01*
X11835728Y-8130368D02*
X11915728Y-8130368D01*
X11875728Y-10630368D02*
X11875728Y-10710368D01*
X11835728Y-10670368D02*
X11915728Y-10670368D01*
X12129728Y-8090368D02*
X12129728Y-8170368D01*
X12089728Y-8130368D02*
X12169728Y-8130368D01*
X12129728Y-10630368D02*
X12129728Y-10710368D01*
X12089728Y-10670368D02*
X12169728Y-10670368D01*
X12383728Y-8090368D02*
X12383728Y-8170368D01*
X12343728Y-8130368D02*
X12423728Y-8130368D01*
X12383728Y-10630368D02*
X12383728Y-10710368D01*
X12343728Y-10670368D02*
X12423728Y-10670368D01*
X12637728Y-8090368D02*
X12637728Y-8170368D01*
X12597728Y-8130368D02*
X12677728Y-8130368D01*
X12637728Y-10630368D02*
X12637728Y-10710368D01*
X12597728Y-10670368D02*
X12677728Y-10670368D01*
X12891728Y-8090368D02*
X12891728Y-8170368D01*
X12851728Y-8130368D02*
X12931728Y-8130368D01*
X12891728Y-10630368D02*
X12891728Y-10710368D01*
X12851728Y-10670368D02*
X12931728Y-10670368D01*
X13145728Y-8090368D02*
X13145728Y-8170368D01*
X13105728Y-8130368D02*
X13185728Y-8130368D01*
X13145728Y-10630368D02*
X13145728Y-10710368D01*
X13105728Y-10670368D02*
X13185728Y-10670368D01*
X13399728Y-8090368D02*
X13399728Y-8170368D01*
X13359728Y-8130368D02*
X13439728Y-8130368D01*
X13399728Y-10630368D02*
X13399728Y-10710368D01*
X13359728Y-10670368D02*
X13439728Y-10670368D01*
X10419356Y-7285356D02*
X10419356Y-7214644D01*
X10348644Y-7214644D01*
X10348644Y-7285356D01*
X10419356Y-7285356D01*
X10419356Y-7539356D02*
X10419356Y-7468644D01*
X10348644Y-7468644D01*
X10348644Y-7539356D01*
X10419356Y-7539356D01*
X10673356Y-7285356D02*
X10673356Y-7214644D01*
X10602644Y-7214644D01*
X10602644Y-7285356D01*
X10673356Y-7285356D01*
X10673356Y-7539356D02*
X10673356Y-7468644D01*
X10602644Y-7468644D01*
X10602644Y-7539356D01*
X10673356Y-7539356D01*
X10757356Y-11675356D02*
X10757356Y-11604644D01*
X10686644Y-11604644D01*
X10686644Y-11675356D01*
X10757356Y-11675356D01*
X10927356Y-7285356D02*
X10927356Y-7214644D01*
X10856644Y-7214644D01*
X10856644Y-7285356D01*
X10927356Y-7285356D01*
X10927356Y-7539356D02*
X10927356Y-7468644D01*
X10856644Y-7468644D01*
X10856644Y-7539356D01*
X10927356Y-7539356D01*
X11011356Y-11675356D02*
X11011356Y-11604644D01*
X10940644Y-11604644D01*
X10940644Y-11675356D01*
X11011356Y-11675356D01*
X11181356Y-7285356D02*
X11181356Y-7214644D01*
X11110644Y-7214644D01*
X11110644Y-7285356D01*
X11181356Y-7285356D01*
X11181356Y-7539356D02*
X11181356Y-7468644D01*
X11110644Y-7468644D01*
X11110644Y-7539356D01*
X11181356Y-7539356D01*
X11265356Y-11675356D02*
X11265356Y-11604644D01*
X11194644Y-11604644D01*
X11194644Y-11675356D01*
X11265356Y-11675356D01*
X11435356Y-7285356D02*
X11435356Y-7214644D01*
X11364644Y-7214644D01*
X11364644Y-7285356D01*
X11435356Y-7285356D01*
X11435356Y-7539356D02*
X11435356Y-7468644D01*
X11364644Y-7468644D01*
X11364644Y-7539356D01*
X11435356Y-7539356D01*
X11519356Y-11675356D02*
X11519356Y-11604644D01*
X11448644Y-11604644D01*
X11448644Y-11675356D01*
X11519356Y-11675356D01*
X11773356Y-11675356D02*
X11773356Y-11604644D01*
X11702644Y-11604644D01*
X11702644Y-11675356D01*
X11773356Y-11675356D01*
X12921356Y-7285356D02*
X12921356Y-7214644D01*
X12850644Y-7214644D01*
X12850644Y-7285356D01*
X12921356Y-7285356D01*
X13175356Y-7285356D02*
X13175356Y-7214644D01*
X13104644Y-7214644D01*
X13104644Y-7285356D01*
X13175356Y-7285356D01*
X16775356Y-10144356D02*
X16775356Y-10073644D01*
X16704644Y-10073644D01*
X16704644Y-10144356D01*
X16775356Y-10144356D01*
X16775356Y-10398356D02*
X16775356Y-10327644D01*
X16704644Y-10327644D01*
X16704644Y-10398356D01*
X16775356Y-10398356D01*
X16775356Y-10652356D02*
X16775356Y-10581644D01*
X16704644Y-10581644D01*
X16704644Y-10652356D01*
X16775356Y-10652356D01*
X16775356Y-10906356D02*
X16775356Y-10835644D01*
X16704644Y-10835644D01*
X16704644Y-10906356D01*
X16775356Y-10906356D01*
D12*
X8923928Y-12398214D02*
X8923928Y-12098214D01*
X8995357Y-12098214D01*
X9038214Y-12112500D01*
X9066786Y-12141071D01*
X9081071Y-12169643D01*
X9095357Y-12226786D01*
X9095357Y-12269643D01*
X9081071Y-12326786D01*
X9066786Y-12355357D01*
X9038214Y-12383929D01*
X8995357Y-12398214D01*
X8923928Y-12398214D01*
X9223928Y-12398214D02*
X9223928Y-12198214D01*
X9223928Y-12255357D02*
X9238214Y-12226786D01*
X9252500Y-12212500D01*
X9281071Y-12198214D01*
X9309643Y-12198214D01*
X9409643Y-12398214D02*
X9409643Y-12198214D01*
X9409643Y-12098214D02*
X9395357Y-12112500D01*
X9409643Y-12126786D01*
X9423928Y-12112500D01*
X9409643Y-12098214D01*
X9409643Y-12126786D01*
X9595357Y-12398214D02*
X9566786Y-12383929D01*
X9552500Y-12355357D01*
X9552500Y-12098214D01*
X9752500Y-12398214D02*
X9723928Y-12383929D01*
X9709643Y-12355357D01*
X9709643Y-12098214D01*
X10095357Y-12398214D02*
X10095357Y-12098214D01*
X10195357Y-12312500D01*
X10295357Y-12098214D01*
X10295357Y-12398214D01*
X10566786Y-12398214D02*
X10566786Y-12241071D01*
X10552500Y-12212500D01*
X10523928Y-12198214D01*
X10466786Y-12198214D01*
X10438214Y-12212500D01*
X10566786Y-12383929D02*
X10538214Y-12398214D01*
X10466786Y-12398214D01*
X10438214Y-12383929D01*
X10423928Y-12355357D01*
X10423928Y-12326786D01*
X10438214Y-12298214D01*
X10466786Y-12283929D01*
X10538214Y-12283929D01*
X10566786Y-12269643D01*
X10709643Y-12198214D02*
X10709643Y-12498214D01*
X10709643Y-12212500D02*
X10738214Y-12198214D01*
X10795357Y-12198214D01*
X10823928Y-12212500D01*
X10838214Y-12226786D01*
X10852500Y-12255357D01*
X10852500Y-12341071D01*
X10838214Y-12369643D01*
X10823928Y-12383929D01*
X10795357Y-12398214D01*
X10738214Y-12398214D01*
X10709643Y-12383929D01*
X10981071Y-12369643D02*
X10995357Y-12383929D01*
X10981071Y-12398214D01*
X10966786Y-12383929D01*
X10981071Y-12369643D01*
X10981071Y-12398214D01*
X10981071Y-12212500D02*
X10995357Y-12226786D01*
X10981071Y-12241071D01*
X10966786Y-12226786D01*
X10981071Y-12212500D01*
X10981071Y-12241071D01*
X8607500Y-12877500D02*
X8637500Y-12907500D01*
X8637500Y-12877500D02*
X8607500Y-12907500D01*
X8981071Y-12728214D02*
X9009643Y-12728214D01*
X9038214Y-12742500D01*
X9052500Y-12756786D01*
X9066786Y-12785357D01*
X9081071Y-12842500D01*
X9081071Y-12913929D01*
X9066786Y-12971071D01*
X9052500Y-12999643D01*
X9038214Y-13013929D01*
X9009643Y-13028214D01*
X8981071Y-13028214D01*
X8952500Y-13013929D01*
X8938214Y-12999643D01*
X8923928Y-12971071D01*
X8909643Y-12913929D01*
X8909643Y-12842500D01*
X8923928Y-12785357D01*
X8938214Y-12756786D01*
X8952500Y-12742500D01*
X8981071Y-12728214D01*
X9209643Y-12999643D02*
X9223928Y-13013929D01*
X9209643Y-13028214D01*
X9195357Y-13013929D01*
X9209643Y-12999643D01*
X9209643Y-13028214D01*
X9323928Y-12728214D02*
X9509643Y-12728214D01*
X9409643Y-12842500D01*
X9452500Y-12842500D01*
X9481071Y-12856786D01*
X9495357Y-12871071D01*
X9509643Y-12899643D01*
X9509643Y-12971071D01*
X9495357Y-12999643D01*
X9481071Y-13013929D01*
X9452500Y-13028214D01*
X9366786Y-13028214D01*
X9338214Y-13013929D01*
X9323928Y-12999643D01*
X9695357Y-12728214D02*
X9723928Y-12728214D01*
X9752500Y-12742500D01*
X9766786Y-12756786D01*
X9781071Y-12785357D01*
X9795357Y-12842500D01*
X9795357Y-12913929D01*
X9781071Y-12971071D01*
X9766786Y-12999643D01*
X9752500Y-13013929D01*
X9723928Y-13028214D01*
X9695357Y-13028214D01*
X9666786Y-13013929D01*
X9652500Y-12999643D01*
X9638214Y-12971071D01*
X9623928Y-12913929D01*
X9623928Y-12842500D01*
X9638214Y-12785357D01*
X9652500Y-12756786D01*
X9666786Y-12742500D01*
X9695357Y-12728214D01*
X9981071Y-12728214D02*
X10009643Y-12728214D01*
X10038214Y-12742500D01*
X10052500Y-12756786D01*
X10066786Y-12785357D01*
X10081071Y-12842500D01*
X10081071Y-12913929D01*
X10066786Y-12971071D01*
X10052500Y-12999643D01*
X10038214Y-13013929D01*
X10009643Y-13028214D01*
X9981071Y-13028214D01*
X9952500Y-13013929D01*
X9938214Y-12999643D01*
X9923928Y-12971071D01*
X9909643Y-12913929D01*
X9909643Y-12842500D01*
X9923928Y-12785357D01*
X9938214Y-12756786D01*
X9952500Y-12742500D01*
X9981071Y-12728214D01*
X10209643Y-13028214D02*
X10209643Y-12828214D01*
X10209643Y-12856786D02*
X10223928Y-12842500D01*
X10252500Y-12828214D01*
X10295357Y-12828214D01*
X10323928Y-12842500D01*
X10338214Y-12871071D01*
X10338214Y-13028214D01*
X10338214Y-12871071D02*
X10352500Y-12842500D01*
X10381071Y-12828214D01*
X10423928Y-12828214D01*
X10452500Y-12842500D01*
X10466786Y-12871071D01*
X10466786Y-13028214D01*
X10609643Y-13028214D02*
X10609643Y-12828214D01*
X10609643Y-12856786D02*
X10623928Y-12842500D01*
X10652500Y-12828214D01*
X10695357Y-12828214D01*
X10723928Y-12842500D01*
X10738214Y-12871071D01*
X10738214Y-13028214D01*
X10738214Y-12871071D02*
X10752500Y-12842500D01*
X10781071Y-12828214D01*
X10823928Y-12828214D01*
X10852500Y-12842500D01*
X10866786Y-12871071D01*
X10866786Y-13028214D01*
X11452500Y-12713929D02*
X11195357Y-13099643D01*
X11838214Y-12728214D02*
X11866786Y-12728214D01*
X11895357Y-12742500D01*
X11909643Y-12756786D01*
X11923928Y-12785357D01*
X11938214Y-12842500D01*
X11938214Y-12913929D01*
X11923928Y-12971071D01*
X11909643Y-12999643D01*
X11895357Y-13013929D01*
X11866786Y-13028214D01*
X11838214Y-13028214D01*
X11809643Y-13013929D01*
X11795357Y-12999643D01*
X11781071Y-12971071D01*
X11766786Y-12913929D01*
X11766786Y-12842500D01*
X11781071Y-12785357D01*
X11795357Y-12756786D01*
X11809643Y-12742500D01*
X11838214Y-12728214D01*
X12066786Y-12999643D02*
X12081071Y-13013929D01*
X12066786Y-13028214D01*
X12052500Y-13013929D01*
X12066786Y-12999643D01*
X12066786Y-13028214D01*
X12266786Y-12728214D02*
X12295357Y-12728214D01*
X12323928Y-12742500D01*
X12338214Y-12756786D01*
X12352500Y-12785357D01*
X12366786Y-12842500D01*
X12366786Y-12913929D01*
X12352500Y-12971071D01*
X12338214Y-12999643D01*
X12323928Y-13013929D01*
X12295357Y-13028214D01*
X12266786Y-13028214D01*
X12238214Y-13013929D01*
X12223928Y-12999643D01*
X12209643Y-12971071D01*
X12195357Y-12913929D01*
X12195357Y-12842500D01*
X12209643Y-12785357D01*
X12223928Y-12756786D01*
X12238214Y-12742500D01*
X12266786Y-12728214D01*
X12652500Y-13028214D02*
X12481071Y-13028214D01*
X12566786Y-13028214D02*
X12566786Y-12728214D01*
X12538214Y-12771071D01*
X12509643Y-12799643D01*
X12481071Y-12813929D01*
X12938214Y-13028214D02*
X12766786Y-13028214D01*
X12852500Y-13028214D02*
X12852500Y-12728214D01*
X12823928Y-12771071D01*
X12795357Y-12799643D01*
X12766786Y-12813929D01*
X13109643Y-12856786D02*
X13081071Y-12842500D01*
X13066786Y-12828214D01*
X13052500Y-12799643D01*
X13052500Y-12785357D01*
X13066786Y-12756786D01*
X13081071Y-12742500D01*
X13109643Y-12728214D01*
X13166786Y-12728214D01*
X13195357Y-12742500D01*
X13209643Y-12756786D01*
X13223928Y-12785357D01*
X13223928Y-12799643D01*
X13209643Y-12828214D01*
X13195357Y-12842500D01*
X13166786Y-12856786D01*
X13109643Y-12856786D01*
X13081071Y-12871071D01*
X13066786Y-12885357D01*
X13052500Y-12913929D01*
X13052500Y-12971071D01*
X13066786Y-12999643D01*
X13081071Y-13013929D01*
X13109643Y-13028214D01*
X13166786Y-13028214D01*
X13195357Y-13013929D01*
X13209643Y-12999643D01*
X13223928Y-12971071D01*
X13223928Y-12913929D01*
X13209643Y-12885357D01*
X13195357Y-12871071D01*
X13166786Y-12856786D01*
X13338214Y-12728214D02*
X13338214Y-12785357D01*
X13452500Y-12728214D02*
X13452500Y-12785357D01*
X13895357Y-13142500D02*
X13881071Y-13128214D01*
X13852500Y-13085357D01*
X13838214Y-13056786D01*
X13823928Y-13013929D01*
X13809643Y-12942500D01*
X13809643Y-12885357D01*
X13823928Y-12813929D01*
X13838214Y-12771071D01*
X13852500Y-12742500D01*
X13881071Y-12699643D01*
X13895357Y-12685357D01*
X13981071Y-12728214D02*
X14181071Y-12728214D01*
X14052500Y-13028214D01*
X14423928Y-12828214D02*
X14423928Y-13028214D01*
X14352500Y-12713929D02*
X14281071Y-12928214D01*
X14466786Y-12928214D01*
X14809643Y-13028214D02*
X14809643Y-12728214D01*
X14938214Y-13028214D02*
X14938214Y-12871071D01*
X14923928Y-12842500D01*
X14895357Y-12828214D01*
X14852500Y-12828214D01*
X14823928Y-12842500D01*
X14809643Y-12856786D01*
X15123928Y-13028214D02*
X15095357Y-13013929D01*
X15081071Y-12999643D01*
X15066786Y-12971071D01*
X15066786Y-12885357D01*
X15081071Y-12856786D01*
X15095357Y-12842500D01*
X15123928Y-12828214D01*
X15166786Y-12828214D01*
X15195357Y-12842500D01*
X15209643Y-12856786D01*
X15223928Y-12885357D01*
X15223928Y-12971071D01*
X15209643Y-12999643D01*
X15195357Y-13013929D01*
X15166786Y-13028214D01*
X15123928Y-13028214D01*
X15395357Y-13028214D02*
X15366786Y-13013929D01*
X15352500Y-12985357D01*
X15352500Y-12728214D01*
X15623928Y-13013929D02*
X15595357Y-13028214D01*
X15538214Y-13028214D01*
X15509643Y-13013929D01*
X15495357Y-12985357D01*
X15495357Y-12871071D01*
X15509643Y-12842500D01*
X15538214Y-12828214D01*
X15595357Y-12828214D01*
X15623928Y-12842500D01*
X15638214Y-12871071D01*
X15638214Y-12899643D01*
X15495357Y-12928214D01*
X15752500Y-13013929D02*
X15781071Y-13028214D01*
X15838214Y-13028214D01*
X15866786Y-13013929D01*
X15881071Y-12985357D01*
X15881071Y-12971071D01*
X15866786Y-12942500D01*
X15838214Y-12928214D01*
X15795357Y-12928214D01*
X15766786Y-12913929D01*
X15752500Y-12885357D01*
X15752500Y-12871071D01*
X15766786Y-12842500D01*
X15795357Y-12828214D01*
X15838214Y-12828214D01*
X15866786Y-12842500D01*
X15981071Y-13142500D02*
X15995357Y-13128214D01*
X16023928Y-13085357D01*
X16038214Y-13056786D01*
X16052500Y-13013929D01*
X16066786Y-12942500D01*
X16066786Y-12885357D01*
X16052500Y-12813929D01*
X16038214Y-12771071D01*
X16023928Y-12742500D01*
X15995357Y-12699643D01*
X15981071Y-12685357D01*
X8637500Y-13288500D02*
G75*
G03*
X8637500Y-13288500I-20000J0D01*
G01*
X8981071Y-13124214D02*
X9009643Y-13124214D01*
X9038214Y-13138500D01*
X9052500Y-13152786D01*
X9066786Y-13181357D01*
X9081071Y-13238500D01*
X9081071Y-13309929D01*
X9066786Y-13367071D01*
X9052500Y-13395643D01*
X9038214Y-13409929D01*
X9009643Y-13424214D01*
X8981071Y-13424214D01*
X8952500Y-13409929D01*
X8938214Y-13395643D01*
X8923928Y-13367071D01*
X8909643Y-13309929D01*
X8909643Y-13238500D01*
X8923928Y-13181357D01*
X8938214Y-13152786D01*
X8952500Y-13138500D01*
X8981071Y-13124214D01*
X9209643Y-13395643D02*
X9223928Y-13409929D01*
X9209643Y-13424214D01*
X9195357Y-13409929D01*
X9209643Y-13395643D01*
X9209643Y-13424214D01*
X9481071Y-13224214D02*
X9481071Y-13424214D01*
X9409643Y-13109929D02*
X9338214Y-13324214D01*
X9523928Y-13324214D01*
X9695357Y-13124214D02*
X9723928Y-13124214D01*
X9752500Y-13138500D01*
X9766786Y-13152786D01*
X9781071Y-13181357D01*
X9795357Y-13238500D01*
X9795357Y-13309929D01*
X9781071Y-13367071D01*
X9766786Y-13395643D01*
X9752500Y-13409929D01*
X9723928Y-13424214D01*
X9695357Y-13424214D01*
X9666786Y-13409929D01*
X9652500Y-13395643D01*
X9638214Y-13367071D01*
X9623928Y-13309929D01*
X9623928Y-13238500D01*
X9638214Y-13181357D01*
X9652500Y-13152786D01*
X9666786Y-13138500D01*
X9695357Y-13124214D01*
X9981071Y-13124214D02*
X10009643Y-13124214D01*
X10038214Y-13138500D01*
X10052500Y-13152786D01*
X10066786Y-13181357D01*
X10081071Y-13238500D01*
X10081071Y-13309929D01*
X10066786Y-13367071D01*
X10052500Y-13395643D01*
X10038214Y-13409929D01*
X10009643Y-13424214D01*
X9981071Y-13424214D01*
X9952500Y-13409929D01*
X9938214Y-13395643D01*
X9923928Y-13367071D01*
X9909643Y-13309929D01*
X9909643Y-13238500D01*
X9923928Y-13181357D01*
X9938214Y-13152786D01*
X9952500Y-13138500D01*
X9981071Y-13124214D01*
X10209643Y-13424214D02*
X10209643Y-13224214D01*
X10209643Y-13252786D02*
X10223928Y-13238500D01*
X10252500Y-13224214D01*
X10295357Y-13224214D01*
X10323928Y-13238500D01*
X10338214Y-13267071D01*
X10338214Y-13424214D01*
X10338214Y-13267071D02*
X10352500Y-13238500D01*
X10381071Y-13224214D01*
X10423928Y-13224214D01*
X10452500Y-13238500D01*
X10466786Y-13267071D01*
X10466786Y-13424214D01*
X10609643Y-13424214D02*
X10609643Y-13224214D01*
X10609643Y-13252786D02*
X10623928Y-13238500D01*
X10652500Y-13224214D01*
X10695357Y-13224214D01*
X10723928Y-13238500D01*
X10738214Y-13267071D01*
X10738214Y-13424214D01*
X10738214Y-13267071D02*
X10752500Y-13238500D01*
X10781071Y-13224214D01*
X10823928Y-13224214D01*
X10852500Y-13238500D01*
X10866786Y-13267071D01*
X10866786Y-13424214D01*
X11452500Y-13109929D02*
X11195357Y-13495643D01*
X11838214Y-13124214D02*
X11866786Y-13124214D01*
X11895357Y-13138500D01*
X11909643Y-13152786D01*
X11923928Y-13181357D01*
X11938214Y-13238500D01*
X11938214Y-13309929D01*
X11923928Y-13367071D01*
X11909643Y-13395643D01*
X11895357Y-13409929D01*
X11866786Y-13424214D01*
X11838214Y-13424214D01*
X11809643Y-13409929D01*
X11795357Y-13395643D01*
X11781071Y-13367071D01*
X11766786Y-13309929D01*
X11766786Y-13238500D01*
X11781071Y-13181357D01*
X11795357Y-13152786D01*
X11809643Y-13138500D01*
X11838214Y-13124214D01*
X12066786Y-13395643D02*
X12081071Y-13409929D01*
X12066786Y-13424214D01*
X12052500Y-13409929D01*
X12066786Y-13395643D01*
X12066786Y-13424214D01*
X12266786Y-13124214D02*
X12295357Y-13124214D01*
X12323928Y-13138500D01*
X12338214Y-13152786D01*
X12352500Y-13181357D01*
X12366786Y-13238500D01*
X12366786Y-13309929D01*
X12352500Y-13367071D01*
X12338214Y-13395643D01*
X12323928Y-13409929D01*
X12295357Y-13424214D01*
X12266786Y-13424214D01*
X12238214Y-13409929D01*
X12223928Y-13395643D01*
X12209643Y-13367071D01*
X12195357Y-13309929D01*
X12195357Y-13238500D01*
X12209643Y-13181357D01*
X12223928Y-13152786D01*
X12238214Y-13138500D01*
X12266786Y-13124214D01*
X12652500Y-13424214D02*
X12481071Y-13424214D01*
X12566786Y-13424214D02*
X12566786Y-13124214D01*
X12538214Y-13167071D01*
X12509643Y-13195643D01*
X12481071Y-13209929D01*
X12923928Y-13124214D02*
X12781071Y-13124214D01*
X12766786Y-13267071D01*
X12781071Y-13252786D01*
X12809643Y-13238500D01*
X12881071Y-13238500D01*
X12909643Y-13252786D01*
X12923928Y-13267071D01*
X12938214Y-13295643D01*
X12938214Y-13367071D01*
X12923928Y-13395643D01*
X12909643Y-13409929D01*
X12881071Y-13424214D01*
X12809643Y-13424214D01*
X12781071Y-13409929D01*
X12766786Y-13395643D01*
X13038214Y-13124214D02*
X13238214Y-13124214D01*
X13109643Y-13424214D01*
X13338214Y-13124214D02*
X13338214Y-13181357D01*
X13452500Y-13124214D02*
X13452500Y-13181357D01*
X13895357Y-13538500D02*
X13881071Y-13524214D01*
X13852500Y-13481357D01*
X13838214Y-13452786D01*
X13823928Y-13409929D01*
X13809643Y-13338500D01*
X13809643Y-13281357D01*
X13823928Y-13209929D01*
X13838214Y-13167071D01*
X13852500Y-13138500D01*
X13881071Y-13095643D01*
X13895357Y-13081357D01*
X14166786Y-13424214D02*
X13995357Y-13424214D01*
X14081071Y-13424214D02*
X14081071Y-13124214D01*
X14052500Y-13167071D01*
X14023928Y-13195643D01*
X13995357Y-13209929D01*
X14452500Y-13424214D02*
X14281071Y-13424214D01*
X14366786Y-13424214D02*
X14366786Y-13124214D01*
X14338214Y-13167071D01*
X14309643Y-13195643D01*
X14281071Y-13209929D01*
X14709643Y-13224214D02*
X14709643Y-13424214D01*
X14638214Y-13109929D02*
X14566786Y-13324214D01*
X14752500Y-13324214D01*
X15095357Y-13424214D02*
X15095357Y-13124214D01*
X15223928Y-13424214D02*
X15223928Y-13267071D01*
X15209643Y-13238500D01*
X15181071Y-13224214D01*
X15138214Y-13224214D01*
X15109643Y-13238500D01*
X15095357Y-13252786D01*
X15409643Y-13424214D02*
X15381071Y-13409929D01*
X15366786Y-13395643D01*
X15352500Y-13367071D01*
X15352500Y-13281357D01*
X15366786Y-13252786D01*
X15381071Y-13238500D01*
X15409643Y-13224214D01*
X15452500Y-13224214D01*
X15481071Y-13238500D01*
X15495357Y-13252786D01*
X15509643Y-13281357D01*
X15509643Y-13367071D01*
X15495357Y-13395643D01*
X15481071Y-13409929D01*
X15452500Y-13424214D01*
X15409643Y-13424214D01*
X15681071Y-13424214D02*
X15652500Y-13409929D01*
X15638214Y-13381357D01*
X15638214Y-13124214D01*
X15909643Y-13409929D02*
X15881071Y-13424214D01*
X15823928Y-13424214D01*
X15795357Y-13409929D01*
X15781071Y-13381357D01*
X15781071Y-13267071D01*
X15795357Y-13238500D01*
X15823928Y-13224214D01*
X15881071Y-13224214D01*
X15909643Y-13238500D01*
X15923928Y-13267071D01*
X15923928Y-13295643D01*
X15781071Y-13324214D01*
X16038214Y-13409929D02*
X16066786Y-13424214D01*
X16123928Y-13424214D01*
X16152500Y-13409929D01*
X16166786Y-13381357D01*
X16166786Y-13367071D01*
X16152500Y-13338500D01*
X16123928Y-13324214D01*
X16081071Y-13324214D01*
X16052500Y-13309929D01*
X16038214Y-13281357D01*
X16038214Y-13267071D01*
X16052500Y-13238500D01*
X16081071Y-13224214D01*
X16123928Y-13224214D01*
X16152500Y-13238500D01*
X16266786Y-13538500D02*
X16281071Y-13524214D01*
X16309643Y-13481357D01*
X16323928Y-13452786D01*
X16338214Y-13409929D01*
X16352500Y-13338500D01*
X16352500Y-13281357D01*
X16338214Y-13209929D01*
X16323928Y-13167071D01*
X16309643Y-13138500D01*
X16281071Y-13095643D01*
X16266786Y-13081357D01*
X8597500Y-13644500D02*
X8597500Y-13724500D01*
X8557500Y-13684500D02*
X8637500Y-13684500D01*
X8981071Y-13520214D02*
X9009643Y-13520214D01*
X9038214Y-13534500D01*
X9052500Y-13548786D01*
X9066786Y-13577357D01*
X9081071Y-13634500D01*
X9081071Y-13705929D01*
X9066786Y-13763071D01*
X9052500Y-13791643D01*
X9038214Y-13805929D01*
X9009643Y-13820214D01*
X8981071Y-13820214D01*
X8952500Y-13805929D01*
X8938214Y-13791643D01*
X8923928Y-13763071D01*
X8909643Y-13705929D01*
X8909643Y-13634500D01*
X8923928Y-13577357D01*
X8938214Y-13548786D01*
X8952500Y-13534500D01*
X8981071Y-13520214D01*
X9209643Y-13791643D02*
X9223928Y-13805929D01*
X9209643Y-13820214D01*
X9195357Y-13805929D01*
X9209643Y-13791643D01*
X9209643Y-13820214D01*
X9395357Y-13648786D02*
X9366786Y-13634500D01*
X9352500Y-13620214D01*
X9338214Y-13591643D01*
X9338214Y-13577357D01*
X9352500Y-13548786D01*
X9366786Y-13534500D01*
X9395357Y-13520214D01*
X9452500Y-13520214D01*
X9481071Y-13534500D01*
X9495357Y-13548786D01*
X9509643Y-13577357D01*
X9509643Y-13591643D01*
X9495357Y-13620214D01*
X9481071Y-13634500D01*
X9452500Y-13648786D01*
X9395357Y-13648786D01*
X9366786Y-13663071D01*
X9352500Y-13677357D01*
X9338214Y-13705929D01*
X9338214Y-13763071D01*
X9352500Y-13791643D01*
X9366786Y-13805929D01*
X9395357Y-13820214D01*
X9452500Y-13820214D01*
X9481071Y-13805929D01*
X9495357Y-13791643D01*
X9509643Y-13763071D01*
X9509643Y-13705929D01*
X9495357Y-13677357D01*
X9481071Y-13663071D01*
X9452500Y-13648786D01*
X9695357Y-13520214D02*
X9723928Y-13520214D01*
X9752500Y-13534500D01*
X9766786Y-13548786D01*
X9781071Y-13577357D01*
X9795357Y-13634500D01*
X9795357Y-13705929D01*
X9781071Y-13763071D01*
X9766786Y-13791643D01*
X9752500Y-13805929D01*
X9723928Y-13820214D01*
X9695357Y-13820214D01*
X9666786Y-13805929D01*
X9652500Y-13791643D01*
X9638214Y-13763071D01*
X9623928Y-13705929D01*
X9623928Y-13634500D01*
X9638214Y-13577357D01*
X9652500Y-13548786D01*
X9666786Y-13534500D01*
X9695357Y-13520214D01*
X9981071Y-13520214D02*
X10009643Y-13520214D01*
X10038214Y-13534500D01*
X10052500Y-13548786D01*
X10066786Y-13577357D01*
X10081071Y-13634500D01*
X10081071Y-13705929D01*
X10066786Y-13763071D01*
X10052500Y-13791643D01*
X10038214Y-13805929D01*
X10009643Y-13820214D01*
X9981071Y-13820214D01*
X9952500Y-13805929D01*
X9938214Y-13791643D01*
X9923928Y-13763071D01*
X9909643Y-13705929D01*
X9909643Y-13634500D01*
X9923928Y-13577357D01*
X9938214Y-13548786D01*
X9952500Y-13534500D01*
X9981071Y-13520214D01*
X10209643Y-13820214D02*
X10209643Y-13620214D01*
X10209643Y-13648786D02*
X10223928Y-13634500D01*
X10252500Y-13620214D01*
X10295357Y-13620214D01*
X10323928Y-13634500D01*
X10338214Y-13663071D01*
X10338214Y-13820214D01*
X10338214Y-13663071D02*
X10352500Y-13634500D01*
X10381071Y-13620214D01*
X10423928Y-13620214D01*
X10452500Y-13634500D01*
X10466786Y-13663071D01*
X10466786Y-13820214D01*
X10609643Y-13820214D02*
X10609643Y-13620214D01*
X10609643Y-13648786D02*
X10623928Y-13634500D01*
X10652500Y-13620214D01*
X10695357Y-13620214D01*
X10723928Y-13634500D01*
X10738214Y-13663071D01*
X10738214Y-13820214D01*
X10738214Y-13663071D02*
X10752500Y-13634500D01*
X10781071Y-13620214D01*
X10823928Y-13620214D01*
X10852500Y-13634500D01*
X10866786Y-13663071D01*
X10866786Y-13820214D01*
X11452500Y-13505929D02*
X11195357Y-13891643D01*
X11838214Y-13520214D02*
X11866786Y-13520214D01*
X11895357Y-13534500D01*
X11909643Y-13548786D01*
X11923928Y-13577357D01*
X11938214Y-13634500D01*
X11938214Y-13705929D01*
X11923928Y-13763071D01*
X11909643Y-13791643D01*
X11895357Y-13805929D01*
X11866786Y-13820214D01*
X11838214Y-13820214D01*
X11809643Y-13805929D01*
X11795357Y-13791643D01*
X11781071Y-13763071D01*
X11766786Y-13705929D01*
X11766786Y-13634500D01*
X11781071Y-13577357D01*
X11795357Y-13548786D01*
X11809643Y-13534500D01*
X11838214Y-13520214D01*
X12066786Y-13791643D02*
X12081071Y-13805929D01*
X12066786Y-13820214D01*
X12052500Y-13805929D01*
X12066786Y-13791643D01*
X12066786Y-13820214D01*
X12266786Y-13520214D02*
X12295357Y-13520214D01*
X12323928Y-13534500D01*
X12338214Y-13548786D01*
X12352500Y-13577357D01*
X12366786Y-13634500D01*
X12366786Y-13705929D01*
X12352500Y-13763071D01*
X12338214Y-13791643D01*
X12323928Y-13805929D01*
X12295357Y-13820214D01*
X12266786Y-13820214D01*
X12238214Y-13805929D01*
X12223928Y-13791643D01*
X12209643Y-13763071D01*
X12195357Y-13705929D01*
X12195357Y-13634500D01*
X12209643Y-13577357D01*
X12223928Y-13548786D01*
X12238214Y-13534500D01*
X12266786Y-13520214D01*
X12466786Y-13520214D02*
X12652500Y-13520214D01*
X12552500Y-13634500D01*
X12595357Y-13634500D01*
X12623928Y-13648786D01*
X12638214Y-13663071D01*
X12652500Y-13691643D01*
X12652500Y-13763071D01*
X12638214Y-13791643D01*
X12623928Y-13805929D01*
X12595357Y-13820214D01*
X12509643Y-13820214D01*
X12481071Y-13805929D01*
X12466786Y-13791643D01*
X12938214Y-13820214D02*
X12766786Y-13820214D01*
X12852500Y-13820214D02*
X12852500Y-13520214D01*
X12823928Y-13563071D01*
X12795357Y-13591643D01*
X12766786Y-13605929D01*
X13209643Y-13520214D02*
X13066786Y-13520214D01*
X13052500Y-13663071D01*
X13066786Y-13648786D01*
X13095357Y-13634500D01*
X13166786Y-13634500D01*
X13195357Y-13648786D01*
X13209643Y-13663071D01*
X13223928Y-13691643D01*
X13223928Y-13763071D01*
X13209643Y-13791643D01*
X13195357Y-13805929D01*
X13166786Y-13820214D01*
X13095357Y-13820214D01*
X13066786Y-13805929D01*
X13052500Y-13791643D01*
X13338214Y-13520214D02*
X13338214Y-13577357D01*
X13452500Y-13520214D02*
X13452500Y-13577357D01*
X13895357Y-13934500D02*
X13881071Y-13920214D01*
X13852500Y-13877357D01*
X13838214Y-13848786D01*
X13823928Y-13805929D01*
X13809643Y-13734500D01*
X13809643Y-13677357D01*
X13823928Y-13605929D01*
X13838214Y-13563071D01*
X13852500Y-13534500D01*
X13881071Y-13491643D01*
X13895357Y-13477357D01*
X13981071Y-13520214D02*
X14166786Y-13520214D01*
X14066786Y-13634500D01*
X14109643Y-13634500D01*
X14138214Y-13648786D01*
X14152500Y-13663071D01*
X14166786Y-13691643D01*
X14166786Y-13763071D01*
X14152500Y-13791643D01*
X14138214Y-13805929D01*
X14109643Y-13820214D01*
X14023928Y-13820214D01*
X13995357Y-13805929D01*
X13981071Y-13791643D01*
X14338214Y-13648786D02*
X14309643Y-13634500D01*
X14295357Y-13620214D01*
X14281071Y-13591643D01*
X14281071Y-13577357D01*
X14295357Y-13548786D01*
X14309643Y-13534500D01*
X14338214Y-13520214D01*
X14395357Y-13520214D01*
X14423928Y-13534500D01*
X14438214Y-13548786D01*
X14452500Y-13577357D01*
X14452500Y-13591643D01*
X14438214Y-13620214D01*
X14423928Y-13634500D01*
X14395357Y-13648786D01*
X14338214Y-13648786D01*
X14309643Y-13663071D01*
X14295357Y-13677357D01*
X14281071Y-13705929D01*
X14281071Y-13763071D01*
X14295357Y-13791643D01*
X14309643Y-13805929D01*
X14338214Y-13820214D01*
X14395357Y-13820214D01*
X14423928Y-13805929D01*
X14438214Y-13791643D01*
X14452500Y-13763071D01*
X14452500Y-13705929D01*
X14438214Y-13677357D01*
X14423928Y-13663071D01*
X14395357Y-13648786D01*
X14809643Y-13820214D02*
X14809643Y-13520214D01*
X14938214Y-13820214D02*
X14938214Y-13663071D01*
X14923928Y-13634500D01*
X14895357Y-13620214D01*
X14852500Y-13620214D01*
X14823928Y-13634500D01*
X14809643Y-13648786D01*
X15123928Y-13820214D02*
X15095357Y-13805929D01*
X15081071Y-13791643D01*
X15066786Y-13763071D01*
X15066786Y-13677357D01*
X15081071Y-13648786D01*
X15095357Y-13634500D01*
X15123928Y-13620214D01*
X15166786Y-13620214D01*
X15195357Y-13634500D01*
X15209643Y-13648786D01*
X15223928Y-13677357D01*
X15223928Y-13763071D01*
X15209643Y-13791643D01*
X15195357Y-13805929D01*
X15166786Y-13820214D01*
X15123928Y-13820214D01*
X15395357Y-13820214D02*
X15366786Y-13805929D01*
X15352500Y-13777357D01*
X15352500Y-13520214D01*
X15623928Y-13805929D02*
X15595357Y-13820214D01*
X15538214Y-13820214D01*
X15509643Y-13805929D01*
X15495357Y-13777357D01*
X15495357Y-13663071D01*
X15509643Y-13634500D01*
X15538214Y-13620214D01*
X15595357Y-13620214D01*
X15623928Y-13634500D01*
X15638214Y-13663071D01*
X15638214Y-13691643D01*
X15495357Y-13720214D01*
X15752500Y-13805929D02*
X15781071Y-13820214D01*
X15838214Y-13820214D01*
X15866786Y-13805929D01*
X15881071Y-13777357D01*
X15881071Y-13763071D01*
X15866786Y-13734500D01*
X15838214Y-13720214D01*
X15795357Y-13720214D01*
X15766786Y-13705929D01*
X15752500Y-13677357D01*
X15752500Y-13663071D01*
X15766786Y-13634500D01*
X15795357Y-13620214D01*
X15838214Y-13620214D01*
X15866786Y-13634500D01*
X15981071Y-13934500D02*
X15995357Y-13920214D01*
X16023928Y-13877357D01*
X16038214Y-13848786D01*
X16052500Y-13805929D01*
X16066786Y-13734500D01*
X16066786Y-13677357D01*
X16052500Y-13605929D01*
X16038214Y-13563071D01*
X16023928Y-13534500D01*
X15995357Y-13491643D01*
X15981071Y-13477357D01*
X8622856Y-14115856D02*
X8622856Y-14045144D01*
X8552144Y-14045144D01*
X8552144Y-14115856D01*
X8622856Y-14115856D01*
X9081071Y-14216214D02*
X8909643Y-14216214D01*
X8995357Y-14216214D02*
X8995357Y-13916214D01*
X8966786Y-13959071D01*
X8938214Y-13987643D01*
X8909643Y-14001929D01*
X9209643Y-14187643D02*
X9223928Y-14201929D01*
X9209643Y-14216214D01*
X9195357Y-14201929D01*
X9209643Y-14187643D01*
X9209643Y-14216214D01*
X9409643Y-13916214D02*
X9438214Y-13916214D01*
X9466786Y-13930500D01*
X9481071Y-13944786D01*
X9495357Y-13973357D01*
X9509643Y-14030500D01*
X9509643Y-14101929D01*
X9495357Y-14159071D01*
X9481071Y-14187643D01*
X9466786Y-14201929D01*
X9438214Y-14216214D01*
X9409643Y-14216214D01*
X9381071Y-14201929D01*
X9366786Y-14187643D01*
X9352500Y-14159071D01*
X9338214Y-14101929D01*
X9338214Y-14030500D01*
X9352500Y-13973357D01*
X9366786Y-13944786D01*
X9381071Y-13930500D01*
X9409643Y-13916214D01*
X9695357Y-13916214D02*
X9723928Y-13916214D01*
X9752500Y-13930500D01*
X9766786Y-13944786D01*
X9781071Y-13973357D01*
X9795357Y-14030500D01*
X9795357Y-14101929D01*
X9781071Y-14159071D01*
X9766786Y-14187643D01*
X9752500Y-14201929D01*
X9723928Y-14216214D01*
X9695357Y-14216214D01*
X9666786Y-14201929D01*
X9652500Y-14187643D01*
X9638214Y-14159071D01*
X9623928Y-14101929D01*
X9623928Y-14030500D01*
X9638214Y-13973357D01*
X9652500Y-13944786D01*
X9666786Y-13930500D01*
X9695357Y-13916214D01*
X9981071Y-13916214D02*
X10009643Y-13916214D01*
X10038214Y-13930500D01*
X10052500Y-13944786D01*
X10066786Y-13973357D01*
X10081071Y-14030500D01*
X10081071Y-14101929D01*
X10066786Y-14159071D01*
X10052500Y-14187643D01*
X10038214Y-14201929D01*
X10009643Y-14216214D01*
X9981071Y-14216214D01*
X9952500Y-14201929D01*
X9938214Y-14187643D01*
X9923928Y-14159071D01*
X9909643Y-14101929D01*
X9909643Y-14030500D01*
X9923928Y-13973357D01*
X9938214Y-13944786D01*
X9952500Y-13930500D01*
X9981071Y-13916214D01*
X10209643Y-14216214D02*
X10209643Y-14016214D01*
X10209643Y-14044786D02*
X10223928Y-14030500D01*
X10252500Y-14016214D01*
X10295357Y-14016214D01*
X10323928Y-14030500D01*
X10338214Y-14059071D01*
X10338214Y-14216214D01*
X10338214Y-14059071D02*
X10352500Y-14030500D01*
X10381071Y-14016214D01*
X10423928Y-14016214D01*
X10452500Y-14030500D01*
X10466786Y-14059071D01*
X10466786Y-14216214D01*
X10609643Y-14216214D02*
X10609643Y-14016214D01*
X10609643Y-14044786D02*
X10623928Y-14030500D01*
X10652500Y-14016214D01*
X10695357Y-14016214D01*
X10723928Y-14030500D01*
X10738214Y-14059071D01*
X10738214Y-14216214D01*
X10738214Y-14059071D02*
X10752500Y-14030500D01*
X10781071Y-14016214D01*
X10823928Y-14016214D01*
X10852500Y-14030500D01*
X10866786Y-14059071D01*
X10866786Y-14216214D01*
X11452500Y-13901929D02*
X11195357Y-14287643D01*
X11838214Y-13916214D02*
X11866786Y-13916214D01*
X11895357Y-13930500D01*
X11909643Y-13944786D01*
X11923928Y-13973357D01*
X11938214Y-14030500D01*
X11938214Y-14101929D01*
X11923928Y-14159071D01*
X11909643Y-14187643D01*
X11895357Y-14201929D01*
X11866786Y-14216214D01*
X11838214Y-14216214D01*
X11809643Y-14201929D01*
X11795357Y-14187643D01*
X11781071Y-14159071D01*
X11766786Y-14101929D01*
X11766786Y-14030500D01*
X11781071Y-13973357D01*
X11795357Y-13944786D01*
X11809643Y-13930500D01*
X11838214Y-13916214D01*
X12066786Y-14187643D02*
X12081071Y-14201929D01*
X12066786Y-14216214D01*
X12052500Y-14201929D01*
X12066786Y-14187643D01*
X12066786Y-14216214D01*
X12266786Y-13916214D02*
X12295357Y-13916214D01*
X12323928Y-13930500D01*
X12338214Y-13944786D01*
X12352500Y-13973357D01*
X12366786Y-14030500D01*
X12366786Y-14101929D01*
X12352500Y-14159071D01*
X12338214Y-14187643D01*
X12323928Y-14201929D01*
X12295357Y-14216214D01*
X12266786Y-14216214D01*
X12238214Y-14201929D01*
X12223928Y-14187643D01*
X12209643Y-14159071D01*
X12195357Y-14101929D01*
X12195357Y-14030500D01*
X12209643Y-13973357D01*
X12223928Y-13944786D01*
X12238214Y-13930500D01*
X12266786Y-13916214D01*
X12466786Y-13916214D02*
X12652500Y-13916214D01*
X12552500Y-14030500D01*
X12595357Y-14030500D01*
X12623928Y-14044786D01*
X12638214Y-14059071D01*
X12652500Y-14087643D01*
X12652500Y-14159071D01*
X12638214Y-14187643D01*
X12623928Y-14201929D01*
X12595357Y-14216214D01*
X12509643Y-14216214D01*
X12481071Y-14201929D01*
X12466786Y-14187643D01*
X12795357Y-14216214D02*
X12852500Y-14216214D01*
X12881071Y-14201929D01*
X12895357Y-14187643D01*
X12923928Y-14144786D01*
X12938214Y-14087643D01*
X12938214Y-13973357D01*
X12923928Y-13944786D01*
X12909643Y-13930500D01*
X12881071Y-13916214D01*
X12823928Y-13916214D01*
X12795357Y-13930500D01*
X12781071Y-13944786D01*
X12766786Y-13973357D01*
X12766786Y-14044786D01*
X12781071Y-14073357D01*
X12795357Y-14087643D01*
X12823928Y-14101929D01*
X12881071Y-14101929D01*
X12909643Y-14087643D01*
X12923928Y-14073357D01*
X12938214Y-14044786D01*
X13195357Y-14016214D02*
X13195357Y-14216214D01*
X13123928Y-13901929D02*
X13052500Y-14116214D01*
X13238214Y-14116214D01*
X13338214Y-13916214D02*
X13338214Y-13973357D01*
X13452500Y-13916214D02*
X13452500Y-13973357D01*
X13895357Y-14330500D02*
X13881071Y-14316214D01*
X13852500Y-14273357D01*
X13838214Y-14244786D01*
X13823928Y-14201929D01*
X13809643Y-14130500D01*
X13809643Y-14073357D01*
X13823928Y-14001929D01*
X13838214Y-13959071D01*
X13852500Y-13930500D01*
X13881071Y-13887643D01*
X13895357Y-13873357D01*
X13995357Y-13944786D02*
X14009643Y-13930500D01*
X14038214Y-13916214D01*
X14109643Y-13916214D01*
X14138214Y-13930500D01*
X14152500Y-13944786D01*
X14166786Y-13973357D01*
X14166786Y-14001929D01*
X14152500Y-14044786D01*
X13981071Y-14216214D01*
X14166786Y-14216214D01*
X14452500Y-14216214D02*
X14281071Y-14216214D01*
X14366786Y-14216214D02*
X14366786Y-13916214D01*
X14338214Y-13959071D01*
X14309643Y-13987643D01*
X14281071Y-14001929D01*
X14809643Y-14216214D02*
X14809643Y-13916214D01*
X14938214Y-14216214D02*
X14938214Y-14059071D01*
X14923928Y-14030500D01*
X14895357Y-14016214D01*
X14852500Y-14016214D01*
X14823928Y-14030500D01*
X14809643Y-14044786D01*
X15123928Y-14216214D02*
X15095357Y-14201929D01*
X15081071Y-14187643D01*
X15066786Y-14159071D01*
X15066786Y-14073357D01*
X15081071Y-14044786D01*
X15095357Y-14030500D01*
X15123928Y-14016214D01*
X15166786Y-14016214D01*
X15195357Y-14030500D01*
X15209643Y-14044786D01*
X15223928Y-14073357D01*
X15223928Y-14159071D01*
X15209643Y-14187643D01*
X15195357Y-14201929D01*
X15166786Y-14216214D01*
X15123928Y-14216214D01*
X15395357Y-14216214D02*
X15366786Y-14201929D01*
X15352500Y-14173357D01*
X15352500Y-13916214D01*
X15623928Y-14201929D02*
X15595357Y-14216214D01*
X15538214Y-14216214D01*
X15509643Y-14201929D01*
X15495357Y-14173357D01*
X15495357Y-14059071D01*
X15509643Y-14030500D01*
X15538214Y-14016214D01*
X15595357Y-14016214D01*
X15623928Y-14030500D01*
X15638214Y-14059071D01*
X15638214Y-14087643D01*
X15495357Y-14116214D01*
X15752500Y-14201929D02*
X15781071Y-14216214D01*
X15838214Y-14216214D01*
X15866786Y-14201929D01*
X15881071Y-14173357D01*
X15881071Y-14159071D01*
X15866786Y-14130500D01*
X15838214Y-14116214D01*
X15795357Y-14116214D01*
X15766786Y-14101929D01*
X15752500Y-14073357D01*
X15752500Y-14059071D01*
X15766786Y-14030500D01*
X15795357Y-14016214D01*
X15838214Y-14016214D01*
X15866786Y-14030500D01*
X15981071Y-14330500D02*
X15995357Y-14316214D01*
X16023928Y-14273357D01*
X16038214Y-14244786D01*
X16052500Y-14201929D01*
X16066786Y-14130500D01*
X16066786Y-14073357D01*
X16052500Y-14001929D01*
X16038214Y-13959071D01*
X16023928Y-13930500D01*
X15995357Y-13887643D01*
X15981071Y-13873357D01*
M02*
