M48
; DRILL file {KiCad 5.1.10} date Thu Dec 30 11:48:08 2021
; FORMAT={-:-/ absolute / metric / decimal}
; #@! TF.CreationDate,2021-12-30T11:48:08+01:00
; #@! TF.GenerationSoftware,Kicad,Pcbnew,5.1.10
; #@! TF.FileFunction,Plated,1,2,PTH
FMAT,2
METRIC
T1C0.300
T2C0.400
T3C0.800
T4C1.000
%
G90
G05
T1
X180.56Y-94.3
X183.1Y-94.3
X185.1Y-94.3
X187.1Y-94.3
X189.1Y-94.3
X189.1Y-96.3
X189.1Y-98.3
X189.1Y-100.3
X189.1Y-102.3
X189.1Y-104.3
X189.1Y-106.3
X189.1Y-108.3
X189.1Y-110.3
X189.6Y-112.3
X191.6Y-112.3
X193.6Y-112.3
X194.1Y-78.3
X194.1Y-80.3
X194.1Y-82.3
X194.1Y-84.3
X194.1Y-86.3
X194.1Y-88.3
X194.1Y-90.3
X194.1Y-92.3
X194.1Y-94.3
X194.1Y-96.3
X194.1Y-98.3
X194.1Y-100.3
X194.1Y-102.3
X194.1Y-104.3
X194.1Y-106.3
X194.1Y-108.3
X194.1Y-110.3
X194.6Y-76.3
X196.6Y-76.3
X198.6Y-76.3
X199.1Y-78.3
X199.1Y-80.3
X199.1Y-82.3
X199.1Y-84.3
X199.1Y-86.3
X199.1Y-88.3
X199.1Y-90.3
X199.1Y-92.3
X199.1Y-94.3
X199.1Y-96.3
X199.1Y-98.3
X199.1Y-100.3
X199.1Y-102.3
X199.1Y-104.3
X199.1Y-106.3
X199.1Y-108.3
X199.1Y-110.3
X199.6Y-112.3
X201.6Y-112.3
X203.6Y-112.3
X204.1Y-76.3
X204.1Y-78.3
X204.1Y-80.3
X204.1Y-82.3
X204.1Y-84.3
X204.1Y-86.3
X204.1Y-88.3
X204.1Y-90.3
X204.1Y-92.3
X204.1Y-94.3
X204.1Y-96.3
X204.1Y-98.3
X204.1Y-100.3
X204.1Y-102.3
X204.1Y-104.3
X204.1Y-106.3
X204.1Y-108.3
X204.1Y-110.3
T2
X139.599Y-87.225
X139.6Y-84.875
X140.57Y-84.425
X140.599Y-87.225
X141.6Y-87.225
X142.613Y-87.238
X143.613Y-87.225
X144.613Y-87.225
X148.8Y-76.2
X148.8Y-77.0
X150.1Y-86.6
X151.3Y-86.6
X153.8Y-86.7
X154.4Y-77.3
X154.4Y-79.3
X154.4Y-81.3
X154.4Y-83.3
X154.4Y-85.3
X154.5Y-98.3
X154.5Y-99.1
X155.1Y-86.7
X156.4Y-77.3
X156.4Y-79.3
X156.4Y-81.3
X156.4Y-83.3
X156.4Y-85.3
X158.4Y-77.3
X158.4Y-79.3
X158.4Y-81.3
X158.4Y-83.3
X158.4Y-85.3
X160.4Y-77.3
X160.4Y-79.3
X160.4Y-81.3
X160.4Y-83.3
X160.4Y-85.3
X160.5Y-88.2
X160.5Y-89.0
X161.08Y-89.6
X161.08Y-90.4
X161.08Y-91.294
X161.4Y-98.0
X161.4Y-99.0
X161.4Y-100.0
X161.497Y-92.203
X162.197Y-92.903
X162.4Y-77.3
X162.4Y-79.3
X162.4Y-81.3
X162.4Y-83.3
X162.4Y-85.3
X162.897Y-93.603
X163.35Y-89.6
X163.35Y-90.4
X163.597Y-94.303
X163.653Y-91.147
X163.9Y-88.2
X163.9Y-89.0
X164.297Y-95.003
X164.353Y-91.847
X165.053Y-92.547
X165.2Y-95.435
X165.9Y-93.165
X166.2Y-95.435
X166.9Y-93.165
X167.2Y-95.435
X167.9Y-93.165
X168.2Y-95.435
X168.9Y-93.165
X169.2Y-95.435
X169.9Y-93.165
X170.2Y-95.435
X170.9Y-93.165
X171.2Y-95.435
X171.9Y-93.165
X172.2Y-95.435
X172.9Y-93.165
X173.2Y-95.435
X173.9Y-93.165
X174.2Y-95.435
X174.9Y-93.165
X175.2Y-95.435
X175.2Y-96.3
X175.9Y-93.165
X176.1Y-96.5
X176.9Y-93.165
X177.0Y-95.6
X177.9Y-93.165
X178.0Y-95.6
X179.0Y-71.25
X179.0Y-73.25
X179.0Y-75.25
X179.0Y-77.25
X179.0Y-79.25
X179.0Y-81.25
X179.0Y-83.25
X179.0Y-85.25
X179.0Y-87.25
X179.0Y-89.25
X179.0Y-91.25
X179.0Y-92.25
X179.0Y-93.1
X179.0Y-96.5
X179.0Y-97.55
X179.0Y-99.55
X179.0Y-101.55
X179.0Y-103.55
X179.0Y-105.55
X179.0Y-107.55
X179.0Y-109.55
X179.0Y-111.55
X179.0Y-113.55
X179.0Y-115.55
X179.0Y-117.55
T3
X88.277Y-81.304
X88.28Y-106.7
X90.817Y-81.304
X90.82Y-106.7
X93.357Y-81.304
X93.357Y-106.704
X95.897Y-81.304
X95.897Y-106.704
X98.437Y-81.304
X98.437Y-106.704
X100.977Y-81.304
X100.977Y-106.704
X103.517Y-81.304
X103.517Y-106.704
X106.057Y-81.304
X106.057Y-106.704
X108.597Y-81.304
X108.597Y-106.704
X111.137Y-81.304
X111.137Y-106.704
X113.677Y-81.304
X113.677Y-106.704
X116.217Y-81.304
X116.217Y-106.704
X118.757Y-81.304
X118.757Y-106.704
X121.297Y-81.304
X121.297Y-106.704
X123.837Y-81.304
X123.837Y-106.704
X126.377Y-81.304
X126.377Y-106.704
X128.917Y-81.304
X128.917Y-106.704
X131.457Y-81.304
X131.457Y-106.704
X133.997Y-81.304
X133.997Y-106.704
T4
X103.84Y-72.5
X103.84Y-75.04
X106.38Y-72.5
X106.38Y-75.04
X107.22Y-116.4
X108.92Y-72.5
X108.92Y-75.04
X109.76Y-116.4
X111.46Y-72.5
X111.46Y-75.04
X112.3Y-116.4
X114.0Y-72.5
X114.0Y-75.04
X114.84Y-116.4
X117.38Y-116.4
X128.86Y-72.5
X131.4Y-72.5
X167.4Y-101.09
X167.4Y-103.63
X167.4Y-106.17
X167.4Y-108.71
T0
M30
