G04 #@! TF.GenerationSoftware,KiCad,Pcbnew,5.1.10*
G04 #@! TF.CreationDate,2021-12-30T11:48:04+01:00*
G04 #@! TF.ProjectId,meshtastic_jtag,6d657368-7461-4737-9469-635f6a746167,1.1*
G04 #@! TF.SameCoordinates,Original*
G04 #@! TF.FileFunction,Soldermask,Top*
G04 #@! TF.FilePolarity,Negative*
%FSLAX46Y46*%
G04 Gerber Fmt 4.6, Leading zero omitted, Abs format (unit mm)*
G04 Created by KiCad (PCBNEW 5.1.10) date 2021-12-30 11:48:04*
%MOMM*%
%LPD*%
G01*
G04 APERTURE LIST*
%ADD10R,1.000000X1.500000*%
%ADD11C,1.700000*%
%ADD12R,1.524000X1.700000*%
%ADD13R,1.700000X1.700000*%
%ADD14O,1.200000X2.000000*%
%ADD15R,0.500000X1.800000*%
%ADD16C,3.200000*%
%ADD17O,1.700000X1.700000*%
G04 APERTURE END LIST*
D10*
X158400000Y-103400000D03*
X159700000Y-103400000D03*
X157100000Y-103400000D03*
X158400000Y-98700000D03*
X159700000Y-98700000D03*
X157100000Y-98700000D03*
D11*
X167400000Y-108710000D03*
X167400000Y-106170000D03*
X167400000Y-103630000D03*
D12*
X167400000Y-101090000D03*
D11*
X107220000Y-116400000D03*
X109760000Y-116400000D03*
X112300000Y-116400000D03*
X114840000Y-116400000D03*
D13*
X117380000Y-116400000D03*
G36*
G01*
X129900000Y-77350002D02*
X129900000Y-76449998D01*
G75*
G02*
X130149998Y-76200000I249998J0D01*
G01*
X130675002Y-76200000D01*
G75*
G02*
X130925000Y-76449998I0J-249998D01*
G01*
X130925000Y-77350002D01*
G75*
G02*
X130675002Y-77600000I-249998J0D01*
G01*
X130149998Y-77600000D01*
G75*
G02*
X129900000Y-77350002I0J249998D01*
G01*
G37*
G36*
G01*
X128075000Y-77350002D02*
X128075000Y-76449998D01*
G75*
G02*
X128324998Y-76200000I249998J0D01*
G01*
X128850002Y-76200000D01*
G75*
G02*
X129100000Y-76449998I0J-249998D01*
G01*
X129100000Y-77350002D01*
G75*
G02*
X128850002Y-77600000I-249998J0D01*
G01*
X128324998Y-77600000D01*
G75*
G02*
X128075000Y-77350002I0J249998D01*
G01*
G37*
G36*
G01*
X104300000Y-113850002D02*
X104300000Y-112949998D01*
G75*
G02*
X104549998Y-112700000I249998J0D01*
G01*
X105075002Y-112700000D01*
G75*
G02*
X105325000Y-112949998I0J-249998D01*
G01*
X105325000Y-113850002D01*
G75*
G02*
X105075002Y-114100000I-249998J0D01*
G01*
X104549998Y-114100000D01*
G75*
G02*
X104300000Y-113850002I0J249998D01*
G01*
G37*
G36*
G01*
X102475000Y-113850002D02*
X102475000Y-112949998D01*
G75*
G02*
X102724998Y-112700000I249998J0D01*
G01*
X103250002Y-112700000D01*
G75*
G02*
X103500000Y-112949998I0J-249998D01*
G01*
X103500000Y-113850002D01*
G75*
G02*
X103250002Y-114100000I-249998J0D01*
G01*
X102724998Y-114100000D01*
G75*
G02*
X102475000Y-113850002I0J249998D01*
G01*
G37*
G36*
G01*
X100912500Y-113856250D02*
X100912500Y-112943750D01*
G75*
G02*
X101156250Y-112700000I243750J0D01*
G01*
X101643750Y-112700000D01*
G75*
G02*
X101887500Y-112943750I0J-243750D01*
G01*
X101887500Y-113856250D01*
G75*
G02*
X101643750Y-114100000I-243750J0D01*
G01*
X101156250Y-114100000D01*
G75*
G02*
X100912500Y-113856250I0J243750D01*
G01*
G37*
G36*
G01*
X99037500Y-113856250D02*
X99037500Y-112943750D01*
G75*
G02*
X99281250Y-112700000I243750J0D01*
G01*
X99768750Y-112700000D01*
G75*
G02*
X100012500Y-112943750I0J-243750D01*
G01*
X100012500Y-113856250D01*
G75*
G02*
X99768750Y-114100000I-243750J0D01*
G01*
X99281250Y-114100000D01*
G75*
G02*
X99037500Y-113856250I0J243750D01*
G01*
G37*
G36*
G01*
X134597280Y-106003680D02*
X134597280Y-107403680D01*
G75*
G02*
X134297280Y-107703680I-300000J0D01*
G01*
X133697280Y-107703680D01*
G75*
G02*
X133397280Y-107403680I0J300000D01*
G01*
X133397280Y-106003680D01*
G75*
G02*
X133697280Y-105703680I300000J0D01*
G01*
X134297280Y-105703680D01*
G75*
G02*
X134597280Y-106003680I0J-300000D01*
G01*
G37*
D14*
X131457280Y-106703680D03*
X128917280Y-106703680D03*
X126377280Y-106703680D03*
X123837280Y-106703680D03*
X121297280Y-106703680D03*
X118757280Y-106703680D03*
X116217280Y-106703680D03*
X113677280Y-106703680D03*
X111137280Y-106703680D03*
X108597280Y-106703680D03*
X106057280Y-106703680D03*
X103517280Y-106703680D03*
X100977280Y-106703680D03*
X98437280Y-106703680D03*
X95897280Y-106703680D03*
X93357280Y-106703680D03*
X90820000Y-106700000D03*
X88280000Y-106700000D03*
X88277280Y-81303680D03*
X90817280Y-81303680D03*
X93357280Y-81303680D03*
X95897280Y-81303680D03*
X98437280Y-81303680D03*
G36*
G01*
X101577280Y-80603680D02*
X101577280Y-82003680D01*
G75*
G02*
X101277280Y-82303680I-300000J0D01*
G01*
X100677280Y-82303680D01*
G75*
G02*
X100377280Y-82003680I0J300000D01*
G01*
X100377280Y-80603680D01*
G75*
G02*
X100677280Y-80303680I300000J0D01*
G01*
X101277280Y-80303680D01*
G75*
G02*
X101577280Y-80603680I0J-300000D01*
G01*
G37*
X103517280Y-81303680D03*
X106057280Y-81303680D03*
X108597280Y-81303680D03*
X111137280Y-81303680D03*
X113677280Y-81303680D03*
X116217280Y-81303680D03*
X118757280Y-81303680D03*
X121297280Y-81303680D03*
X123837280Y-81303680D03*
X126377280Y-81303680D03*
X128917280Y-81303680D03*
X131457280Y-81303680D03*
X133997280Y-81303680D03*
D15*
X163200000Y-88200000D03*
X162200000Y-88200000D03*
X161200000Y-88200000D03*
X155090000Y-88200000D03*
X153820000Y-88200000D03*
X152550000Y-88200000D03*
X151280000Y-88200000D03*
X150010000Y-88200000D03*
X148740000Y-88200000D03*
X147470000Y-88200000D03*
X146200000Y-88200000D03*
X146200000Y-74200000D03*
X147470000Y-74200000D03*
X148740000Y-74200000D03*
X150010000Y-74200000D03*
X151280000Y-74200000D03*
X152550000Y-74200000D03*
X153820000Y-74200000D03*
X155090000Y-74200000D03*
X160660000Y-74200000D03*
X161930000Y-74200000D03*
X163200000Y-74200000D03*
D16*
X91400000Y-74300000D03*
X173400000Y-74300000D03*
X173400000Y-114300000D03*
X91400000Y-114300000D03*
D17*
X103840000Y-75040000D03*
X103840000Y-72500000D03*
X106380000Y-75040000D03*
X106380000Y-72500000D03*
X108920000Y-75040000D03*
X108920000Y-72500000D03*
X111460000Y-75040000D03*
X111460000Y-72500000D03*
X114000000Y-75040000D03*
D13*
X114000000Y-72500000D03*
D17*
X128860000Y-72500000D03*
D13*
X131400000Y-72500000D03*
G36*
G01*
X147600000Y-72050000D02*
X147600000Y-72550000D01*
G75*
G02*
X147375000Y-72775000I-225000J0D01*
G01*
X146925000Y-72775000D01*
G75*
G02*
X146700000Y-72550000I0J225000D01*
G01*
X146700000Y-72050000D01*
G75*
G02*
X146925000Y-71825000I225000J0D01*
G01*
X147375000Y-71825000D01*
G75*
G02*
X147600000Y-72050000I0J-225000D01*
G01*
G37*
G36*
G01*
X149150000Y-72050000D02*
X149150000Y-72550000D01*
G75*
G02*
X148925000Y-72775000I-225000J0D01*
G01*
X148475000Y-72775000D01*
G75*
G02*
X148250000Y-72550000I0J225000D01*
G01*
X148250000Y-72050000D01*
G75*
G02*
X148475000Y-71825000I225000J0D01*
G01*
X148925000Y-71825000D01*
G75*
G02*
X149150000Y-72050000I0J-225000D01*
G01*
G37*
G36*
G01*
X151350000Y-72550000D02*
X151350000Y-72050000D01*
G75*
G02*
X151575000Y-71825000I225000J0D01*
G01*
X152025000Y-71825000D01*
G75*
G02*
X152250000Y-72050000I0J-225000D01*
G01*
X152250000Y-72550000D01*
G75*
G02*
X152025000Y-72775000I-225000J0D01*
G01*
X151575000Y-72775000D01*
G75*
G02*
X151350000Y-72550000I0J225000D01*
G01*
G37*
G36*
G01*
X149800000Y-72550000D02*
X149800000Y-72050000D01*
G75*
G02*
X150025000Y-71825000I225000J0D01*
G01*
X150475000Y-71825000D01*
G75*
G02*
X150700000Y-72050000I0J-225000D01*
G01*
X150700000Y-72550000D01*
G75*
G02*
X150475000Y-72775000I-225000J0D01*
G01*
X150025000Y-72775000D01*
G75*
G02*
X149800000Y-72550000I0J225000D01*
G01*
G37*
G36*
G01*
X177700000Y-94470000D02*
X177700000Y-94130000D01*
G75*
G02*
X177840000Y-93990000I140000J0D01*
G01*
X178120000Y-93990000D01*
G75*
G02*
X178260000Y-94130000I0J-140000D01*
G01*
X178260000Y-94470000D01*
G75*
G02*
X178120000Y-94610000I-140000J0D01*
G01*
X177840000Y-94610000D01*
G75*
G02*
X177700000Y-94470000I0J140000D01*
G01*
G37*
G36*
G01*
X176740000Y-94470000D02*
X176740000Y-94130000D01*
G75*
G02*
X176880000Y-93990000I140000J0D01*
G01*
X177160000Y-93990000D01*
G75*
G02*
X177300000Y-94130000I0J-140000D01*
G01*
X177300000Y-94470000D01*
G75*
G02*
X177160000Y-94610000I-140000J0D01*
G01*
X176880000Y-94610000D01*
G75*
G02*
X176740000Y-94470000I0J140000D01*
G01*
G37*
G36*
G01*
X178730000Y-95320000D02*
X179070000Y-95320000D01*
G75*
G02*
X179210000Y-95460000I0J-140000D01*
G01*
X179210000Y-95740000D01*
G75*
G02*
X179070000Y-95880000I-140000J0D01*
G01*
X178730000Y-95880000D01*
G75*
G02*
X178590000Y-95740000I0J140000D01*
G01*
X178590000Y-95460000D01*
G75*
G02*
X178730000Y-95320000I140000J0D01*
G01*
G37*
G36*
G01*
X178730000Y-94360000D02*
X179070000Y-94360000D01*
G75*
G02*
X179210000Y-94500000I0J-140000D01*
G01*
X179210000Y-94780000D01*
G75*
G02*
X179070000Y-94920000I-140000J0D01*
G01*
X178730000Y-94920000D01*
G75*
G02*
X178590000Y-94780000I0J140000D01*
G01*
X178590000Y-94500000D01*
G75*
G02*
X178730000Y-94360000I140000J0D01*
G01*
G37*
G36*
G01*
X175930000Y-95300000D02*
X176270000Y-95300000D01*
G75*
G02*
X176410000Y-95440000I0J-140000D01*
G01*
X176410000Y-95720000D01*
G75*
G02*
X176270000Y-95860000I-140000J0D01*
G01*
X175930000Y-95860000D01*
G75*
G02*
X175790000Y-95720000I0J140000D01*
G01*
X175790000Y-95440000D01*
G75*
G02*
X175930000Y-95300000I140000J0D01*
G01*
G37*
G36*
G01*
X175930000Y-94340000D02*
X176270000Y-94340000D01*
G75*
G02*
X176410000Y-94480000I0J-140000D01*
G01*
X176410000Y-94760000D01*
G75*
G02*
X176270000Y-94900000I-140000J0D01*
G01*
X175930000Y-94900000D01*
G75*
G02*
X175790000Y-94760000I0J140000D01*
G01*
X175790000Y-94480000D01*
G75*
G02*
X175930000Y-94340000I140000J0D01*
G01*
G37*
M02*
