%FSLAX45Y45*%
G04 Gerber Fmt 4.5, Leading zero omitted, Abs format (unit mm)*
G04 Created by KiCad (PCBNEW 5.1.10) date 2021-12-30 11:48:07*
%MOMM*%
%LPD*%
G01*
G04 APERTURE LIST*
%TA.AperFunction,Profile*%
%ADD10C,0.050000*%
%TD*%
%ADD11C,0.200000*%
%ADD12C,0.300000*%
G04 APERTURE END LIST*
D10*
X8640000Y-6930000D02*
X20640000Y-6930000D01*
X20640000Y-11930000D02*
X8640000Y-11930000D01*
X20640000Y-6930000D02*
X20640000Y-11930000D01*
X8640000Y-6930000D02*
X8640000Y-11930000D01*
D11*
X8980000Y-7270000D02*
X9300000Y-7590000D01*
X9300000Y-7270000D02*
X8980000Y-7590000D01*
X8980000Y-11270000D02*
X9300000Y-11590000D01*
X9300000Y-11270000D02*
X8980000Y-11590000D01*
X17180000Y-7270000D02*
X17500000Y-7590000D01*
X17500000Y-7270000D02*
X17180000Y-7590000D01*
X17180000Y-11270000D02*
X17500000Y-11590000D01*
X17500000Y-11270000D02*
X17180000Y-11590000D01*
D12*
X8923928Y-12398214D02*
X8923928Y-12098214D01*
X8995357Y-12098214D01*
X9038214Y-12112500D01*
X9066786Y-12141071D01*
X9081071Y-12169643D01*
X9095357Y-12226786D01*
X9095357Y-12269643D01*
X9081071Y-12326786D01*
X9066786Y-12355357D01*
X9038214Y-12383929D01*
X8995357Y-12398214D01*
X8923928Y-12398214D01*
X9223928Y-12398214D02*
X9223928Y-12198214D01*
X9223928Y-12255357D02*
X9238214Y-12226786D01*
X9252500Y-12212500D01*
X9281071Y-12198214D01*
X9309643Y-12198214D01*
X9409643Y-12398214D02*
X9409643Y-12198214D01*
X9409643Y-12098214D02*
X9395357Y-12112500D01*
X9409643Y-12126786D01*
X9423928Y-12112500D01*
X9409643Y-12098214D01*
X9409643Y-12126786D01*
X9595357Y-12398214D02*
X9566786Y-12383929D01*
X9552500Y-12355357D01*
X9552500Y-12098214D01*
X9752500Y-12398214D02*
X9723928Y-12383929D01*
X9709643Y-12355357D01*
X9709643Y-12098214D01*
X10095357Y-12398214D02*
X10095357Y-12098214D01*
X10195357Y-12312500D01*
X10295357Y-12098214D01*
X10295357Y-12398214D01*
X10566786Y-12398214D02*
X10566786Y-12241071D01*
X10552500Y-12212500D01*
X10523928Y-12198214D01*
X10466786Y-12198214D01*
X10438214Y-12212500D01*
X10566786Y-12383929D02*
X10538214Y-12398214D01*
X10466786Y-12398214D01*
X10438214Y-12383929D01*
X10423928Y-12355357D01*
X10423928Y-12326786D01*
X10438214Y-12298214D01*
X10466786Y-12283929D01*
X10538214Y-12283929D01*
X10566786Y-12269643D01*
X10709643Y-12198214D02*
X10709643Y-12498214D01*
X10709643Y-12212500D02*
X10738214Y-12198214D01*
X10795357Y-12198214D01*
X10823928Y-12212500D01*
X10838214Y-12226786D01*
X10852500Y-12255357D01*
X10852500Y-12341071D01*
X10838214Y-12369643D01*
X10823928Y-12383929D01*
X10795357Y-12398214D01*
X10738214Y-12398214D01*
X10709643Y-12383929D01*
X10981071Y-12369643D02*
X10995357Y-12383929D01*
X10981071Y-12398214D01*
X10966786Y-12383929D01*
X10981071Y-12369643D01*
X10981071Y-12398214D01*
X10981071Y-12212500D02*
X10995357Y-12226786D01*
X10981071Y-12241071D01*
X10966786Y-12226786D01*
X10981071Y-12212500D01*
X10981071Y-12241071D01*
X8317500Y-12732500D02*
X8637500Y-13052500D01*
X8637500Y-12732500D02*
X8317500Y-13052500D01*
X8895357Y-12728214D02*
X9081071Y-12728214D01*
X8981071Y-12842500D01*
X9023928Y-12842500D01*
X9052500Y-12856786D01*
X9066786Y-12871071D01*
X9081071Y-12899643D01*
X9081071Y-12971071D01*
X9066786Y-12999643D01*
X9052500Y-13013929D01*
X9023928Y-13028214D01*
X8938214Y-13028214D01*
X8909643Y-13013929D01*
X8895357Y-12999643D01*
X9209643Y-12999643D02*
X9223928Y-13013929D01*
X9209643Y-13028214D01*
X9195357Y-13013929D01*
X9209643Y-12999643D01*
X9209643Y-13028214D01*
X9338214Y-12756786D02*
X9352500Y-12742500D01*
X9381071Y-12728214D01*
X9452500Y-12728214D01*
X9481071Y-12742500D01*
X9495357Y-12756786D01*
X9509643Y-12785357D01*
X9509643Y-12813929D01*
X9495357Y-12856786D01*
X9323928Y-13028214D01*
X9509643Y-13028214D01*
X9695357Y-12728214D02*
X9723928Y-12728214D01*
X9752500Y-12742500D01*
X9766786Y-12756786D01*
X9781071Y-12785357D01*
X9795357Y-12842500D01*
X9795357Y-12913929D01*
X9781071Y-12971071D01*
X9766786Y-12999643D01*
X9752500Y-13013929D01*
X9723928Y-13028214D01*
X9695357Y-13028214D01*
X9666786Y-13013929D01*
X9652500Y-12999643D01*
X9638214Y-12971071D01*
X9623928Y-12913929D01*
X9623928Y-12842500D01*
X9638214Y-12785357D01*
X9652500Y-12756786D01*
X9666786Y-12742500D01*
X9695357Y-12728214D01*
X9981071Y-12728214D02*
X10009643Y-12728214D01*
X10038214Y-12742500D01*
X10052500Y-12756786D01*
X10066786Y-12785357D01*
X10081071Y-12842500D01*
X10081071Y-12913929D01*
X10066786Y-12971071D01*
X10052500Y-12999643D01*
X10038214Y-13013929D01*
X10009643Y-13028214D01*
X9981071Y-13028214D01*
X9952500Y-13013929D01*
X9938214Y-12999643D01*
X9923928Y-12971071D01*
X9909643Y-12913929D01*
X9909643Y-12842500D01*
X9923928Y-12785357D01*
X9938214Y-12756786D01*
X9952500Y-12742500D01*
X9981071Y-12728214D01*
X10209643Y-13028214D02*
X10209643Y-12828214D01*
X10209643Y-12856786D02*
X10223928Y-12842500D01*
X10252500Y-12828214D01*
X10295357Y-12828214D01*
X10323928Y-12842500D01*
X10338214Y-12871071D01*
X10338214Y-13028214D01*
X10338214Y-12871071D02*
X10352500Y-12842500D01*
X10381071Y-12828214D01*
X10423928Y-12828214D01*
X10452500Y-12842500D01*
X10466786Y-12871071D01*
X10466786Y-13028214D01*
X10609643Y-13028214D02*
X10609643Y-12828214D01*
X10609643Y-12856786D02*
X10623928Y-12842500D01*
X10652500Y-12828214D01*
X10695357Y-12828214D01*
X10723928Y-12842500D01*
X10738214Y-12871071D01*
X10738214Y-13028214D01*
X10738214Y-12871071D02*
X10752500Y-12842500D01*
X10781071Y-12828214D01*
X10823928Y-12828214D01*
X10852500Y-12842500D01*
X10866786Y-12871071D01*
X10866786Y-13028214D01*
X11452500Y-12713929D02*
X11195357Y-13099643D01*
X11838214Y-12728214D02*
X11866786Y-12728214D01*
X11895357Y-12742500D01*
X11909643Y-12756786D01*
X11923928Y-12785357D01*
X11938214Y-12842500D01*
X11938214Y-12913929D01*
X11923928Y-12971071D01*
X11909643Y-12999643D01*
X11895357Y-13013929D01*
X11866786Y-13028214D01*
X11838214Y-13028214D01*
X11809643Y-13013929D01*
X11795357Y-12999643D01*
X11781071Y-12971071D01*
X11766786Y-12913929D01*
X11766786Y-12842500D01*
X11781071Y-12785357D01*
X11795357Y-12756786D01*
X11809643Y-12742500D01*
X11838214Y-12728214D01*
X12066786Y-12999643D02*
X12081071Y-13013929D01*
X12066786Y-13028214D01*
X12052500Y-13013929D01*
X12066786Y-12999643D01*
X12066786Y-13028214D01*
X12366786Y-13028214D02*
X12195357Y-13028214D01*
X12281071Y-13028214D02*
X12281071Y-12728214D01*
X12252500Y-12771071D01*
X12223928Y-12799643D01*
X12195357Y-12813929D01*
X12481071Y-12756786D02*
X12495357Y-12742500D01*
X12523928Y-12728214D01*
X12595357Y-12728214D01*
X12623928Y-12742500D01*
X12638214Y-12756786D01*
X12652500Y-12785357D01*
X12652500Y-12813929D01*
X12638214Y-12856786D01*
X12466786Y-13028214D01*
X12652500Y-13028214D01*
X12909643Y-12728214D02*
X12852500Y-12728214D01*
X12823928Y-12742500D01*
X12809643Y-12756786D01*
X12781071Y-12799643D01*
X12766786Y-12856786D01*
X12766786Y-12971071D01*
X12781071Y-12999643D01*
X12795357Y-13013929D01*
X12823928Y-13028214D01*
X12881071Y-13028214D01*
X12909643Y-13013929D01*
X12923928Y-12999643D01*
X12938214Y-12971071D01*
X12938214Y-12899643D01*
X12923928Y-12871071D01*
X12909643Y-12856786D01*
X12881071Y-12842500D01*
X12823928Y-12842500D01*
X12795357Y-12856786D01*
X12781071Y-12871071D01*
X12766786Y-12899643D01*
X13123928Y-12728214D02*
X13152500Y-12728214D01*
X13181071Y-12742500D01*
X13195357Y-12756786D01*
X13209643Y-12785357D01*
X13223928Y-12842500D01*
X13223928Y-12913929D01*
X13209643Y-12971071D01*
X13195357Y-12999643D01*
X13181071Y-13013929D01*
X13152500Y-13028214D01*
X13123928Y-13028214D01*
X13095357Y-13013929D01*
X13081071Y-12999643D01*
X13066786Y-12971071D01*
X13052500Y-12913929D01*
X13052500Y-12842500D01*
X13066786Y-12785357D01*
X13081071Y-12756786D01*
X13095357Y-12742500D01*
X13123928Y-12728214D01*
X13338214Y-12728214D02*
X13338214Y-12785357D01*
X13452500Y-12728214D02*
X13452500Y-12785357D01*
X13895357Y-13142500D02*
X13881071Y-13128214D01*
X13852500Y-13085357D01*
X13838214Y-13056786D01*
X13823928Y-13013929D01*
X13809643Y-12942500D01*
X13809643Y-12885357D01*
X13823928Y-12813929D01*
X13838214Y-12771071D01*
X13852500Y-12742500D01*
X13881071Y-12699643D01*
X13895357Y-12685357D01*
X14138214Y-12828214D02*
X14138214Y-13028214D01*
X14066786Y-12713929D02*
X13995357Y-12928214D01*
X14181071Y-12928214D01*
X14523928Y-13028214D02*
X14523928Y-12728214D01*
X14652500Y-13028214D02*
X14652500Y-12871071D01*
X14638214Y-12842500D01*
X14609643Y-12828214D01*
X14566786Y-12828214D01*
X14538214Y-12842500D01*
X14523928Y-12856786D01*
X14838214Y-13028214D02*
X14809643Y-13013929D01*
X14795357Y-12999643D01*
X14781071Y-12971071D01*
X14781071Y-12885357D01*
X14795357Y-12856786D01*
X14809643Y-12842500D01*
X14838214Y-12828214D01*
X14881071Y-12828214D01*
X14909643Y-12842500D01*
X14923928Y-12856786D01*
X14938214Y-12885357D01*
X14938214Y-12971071D01*
X14923928Y-12999643D01*
X14909643Y-13013929D01*
X14881071Y-13028214D01*
X14838214Y-13028214D01*
X15109643Y-13028214D02*
X15081071Y-13013929D01*
X15066786Y-12985357D01*
X15066786Y-12728214D01*
X15338214Y-13013929D02*
X15309643Y-13028214D01*
X15252500Y-13028214D01*
X15223928Y-13013929D01*
X15209643Y-12985357D01*
X15209643Y-12871071D01*
X15223928Y-12842500D01*
X15252500Y-12828214D01*
X15309643Y-12828214D01*
X15338214Y-12842500D01*
X15352500Y-12871071D01*
X15352500Y-12899643D01*
X15209643Y-12928214D01*
X15466786Y-13013929D02*
X15495357Y-13028214D01*
X15552500Y-13028214D01*
X15581071Y-13013929D01*
X15595357Y-12985357D01*
X15595357Y-12971071D01*
X15581071Y-12942500D01*
X15552500Y-12928214D01*
X15509643Y-12928214D01*
X15481071Y-12913929D01*
X15466786Y-12885357D01*
X15466786Y-12871071D01*
X15481071Y-12842500D01*
X15509643Y-12828214D01*
X15552500Y-12828214D01*
X15581071Y-12842500D01*
X15695357Y-13142500D02*
X15709643Y-13128214D01*
X15738214Y-13085357D01*
X15752500Y-13056786D01*
X15766786Y-13013929D01*
X15781071Y-12942500D01*
X15781071Y-12885357D01*
X15766786Y-12813929D01*
X15752500Y-12771071D01*
X15738214Y-12742500D01*
X15709643Y-12699643D01*
X15695357Y-12685357D01*
X16238214Y-13142500D02*
X16223928Y-13128214D01*
X16195357Y-13085357D01*
X16181071Y-13056786D01*
X16166786Y-13013929D01*
X16152500Y-12942500D01*
X16152500Y-12885357D01*
X16166786Y-12813929D01*
X16181071Y-12771071D01*
X16195357Y-12742500D01*
X16223928Y-12699643D01*
X16238214Y-12685357D01*
X16352500Y-12828214D02*
X16352500Y-13028214D01*
X16352500Y-12856786D02*
X16366786Y-12842500D01*
X16395357Y-12828214D01*
X16438214Y-12828214D01*
X16466786Y-12842500D01*
X16481071Y-12871071D01*
X16481071Y-13028214D01*
X16666786Y-13028214D02*
X16638214Y-13013929D01*
X16623928Y-12999643D01*
X16609643Y-12971071D01*
X16609643Y-12885357D01*
X16623928Y-12856786D01*
X16638214Y-12842500D01*
X16666786Y-12828214D01*
X16709643Y-12828214D01*
X16738214Y-12842500D01*
X16752500Y-12856786D01*
X16766786Y-12885357D01*
X16766786Y-12971071D01*
X16752500Y-12999643D01*
X16738214Y-13013929D01*
X16709643Y-13028214D01*
X16666786Y-13028214D01*
X16852500Y-12828214D02*
X16966786Y-12828214D01*
X16895357Y-12728214D02*
X16895357Y-12985357D01*
X16909643Y-13013929D01*
X16938214Y-13028214D01*
X16966786Y-13028214D01*
X17295357Y-12828214D02*
X17295357Y-13128214D01*
X17295357Y-12842500D02*
X17323928Y-12828214D01*
X17381071Y-12828214D01*
X17409643Y-12842500D01*
X17423928Y-12856786D01*
X17438214Y-12885357D01*
X17438214Y-12971071D01*
X17423928Y-12999643D01*
X17409643Y-13013929D01*
X17381071Y-13028214D01*
X17323928Y-13028214D01*
X17295357Y-13013929D01*
X17609643Y-13028214D02*
X17581071Y-13013929D01*
X17566786Y-12985357D01*
X17566786Y-12728214D01*
X17852500Y-13028214D02*
X17852500Y-12871071D01*
X17838214Y-12842500D01*
X17809643Y-12828214D01*
X17752500Y-12828214D01*
X17723928Y-12842500D01*
X17852500Y-13013929D02*
X17823928Y-13028214D01*
X17752500Y-13028214D01*
X17723928Y-13013929D01*
X17709643Y-12985357D01*
X17709643Y-12956786D01*
X17723928Y-12928214D01*
X17752500Y-12913929D01*
X17823928Y-12913929D01*
X17852500Y-12899643D01*
X17952500Y-12828214D02*
X18066786Y-12828214D01*
X17995357Y-12728214D02*
X17995357Y-12985357D01*
X18009643Y-13013929D01*
X18038214Y-13028214D01*
X18066786Y-13028214D01*
X18281071Y-13013929D02*
X18252500Y-13028214D01*
X18195357Y-13028214D01*
X18166786Y-13013929D01*
X18152500Y-12985357D01*
X18152500Y-12871071D01*
X18166786Y-12842500D01*
X18195357Y-12828214D01*
X18252500Y-12828214D01*
X18281071Y-12842500D01*
X18295357Y-12871071D01*
X18295357Y-12899643D01*
X18152500Y-12928214D01*
X18552500Y-13028214D02*
X18552500Y-12728214D01*
X18552500Y-13013929D02*
X18523928Y-13028214D01*
X18466786Y-13028214D01*
X18438214Y-13013929D01*
X18423928Y-12999643D01*
X18409643Y-12971071D01*
X18409643Y-12885357D01*
X18423928Y-12856786D01*
X18438214Y-12842500D01*
X18466786Y-12828214D01*
X18523928Y-12828214D01*
X18552500Y-12842500D01*
X18666786Y-13142500D02*
X18681071Y-13128214D01*
X18709643Y-13085357D01*
X18723928Y-13056786D01*
X18738214Y-13013929D01*
X18752500Y-12942500D01*
X18752500Y-12885357D01*
X18738214Y-12813929D01*
X18723928Y-12771071D01*
X18709643Y-12742500D01*
X18681071Y-12699643D01*
X18666786Y-12685357D01*
M02*
