G04 #@! TF.GenerationSoftware,KiCad,Pcbnew,5.1.10*
G04 #@! TF.CreationDate,2021-12-29T16:53:06+01:00*
G04 #@! TF.ProjectId,meshtastic_jtag,6d657368-7461-4737-9469-635f6a746167,rev?*
G04 #@! TF.SameCoordinates,Original*
G04 #@! TF.FileFunction,Legend,Bot*
G04 #@! TF.FilePolarity,Positive*
%FSLAX46Y46*%
G04 Gerber Fmt 4.6, Leading zero omitted, Abs format (unit mm)*
G04 Created by KiCad (PCBNEW 5.1.10) date 2021-12-29 16:53:06*
%MOMM*%
%LPD*%
G01*
G04 APERTURE LIST*
%ADD10C,0.150000*%
%ADD11C,0.200000*%
%ADD12C,1.700000*%
%ADD13R,1.524000X1.700000*%
%ADD14R,1.700000X1.700000*%
%ADD15O,1.200000X2.000000*%
%ADD16C,3.200000*%
%ADD17O,1.700000X1.700000*%
G04 APERTURE END LIST*
D10*
X125947619Y-105319047D02*
X125233333Y-105319047D01*
X125090476Y-105366666D01*
X124995238Y-105461904D01*
X124947619Y-105604761D01*
X124947619Y-105700000D01*
X124947619Y-104366666D02*
X124947619Y-104842857D01*
X125947619Y-104842857D01*
X125042857Y-103461904D02*
X124995238Y-103509523D01*
X124947619Y-103652380D01*
X124947619Y-103747619D01*
X124995238Y-103890476D01*
X125090476Y-103985714D01*
X125185714Y-104033333D01*
X125376190Y-104080952D01*
X125519047Y-104080952D01*
X125709523Y-104033333D01*
X125804761Y-103985714D01*
X125900000Y-103890476D01*
X125947619Y-103747619D01*
X125947619Y-103652380D01*
X125900000Y-103509523D01*
X125852380Y-103461904D01*
X125947619Y-102747619D02*
X125233333Y-102747619D01*
X125090476Y-102795238D01*
X124995238Y-102890476D01*
X124947619Y-103033333D01*
X124947619Y-103128571D01*
X124947619Y-101795238D02*
X124947619Y-102271428D01*
X125947619Y-102271428D01*
X125042857Y-100890476D02*
X124995238Y-100938095D01*
X124947619Y-101080952D01*
X124947619Y-101176190D01*
X124995238Y-101319047D01*
X125090476Y-101414285D01*
X125185714Y-101461904D01*
X125376190Y-101509523D01*
X125519047Y-101509523D01*
X125709523Y-101461904D01*
X125804761Y-101414285D01*
X125900000Y-101319047D01*
X125947619Y-101176190D01*
X125947619Y-101080952D01*
X125900000Y-100938095D01*
X125852380Y-100890476D01*
X125947619Y-100176190D02*
X125233333Y-100176190D01*
X125090476Y-100223809D01*
X124995238Y-100319047D01*
X124947619Y-100461904D01*
X124947619Y-100557142D01*
X124947619Y-99223809D02*
X124947619Y-99700000D01*
X125947619Y-99700000D01*
X125042857Y-98319047D02*
X124995238Y-98366666D01*
X124947619Y-98509523D01*
X124947619Y-98604761D01*
X124995238Y-98747619D01*
X125090476Y-98842857D01*
X125185714Y-98890476D01*
X125376190Y-98938095D01*
X125519047Y-98938095D01*
X125709523Y-98890476D01*
X125804761Y-98842857D01*
X125900000Y-98747619D01*
X125947619Y-98604761D01*
X125947619Y-98509523D01*
X125900000Y-98366666D01*
X125852380Y-98319047D01*
X125947619Y-97604761D02*
X125233333Y-97604761D01*
X125090476Y-97652380D01*
X124995238Y-97747619D01*
X124947619Y-97890476D01*
X124947619Y-97985714D01*
X124947619Y-96652380D02*
X124947619Y-97128571D01*
X125947619Y-97128571D01*
X125042857Y-95747619D02*
X124995238Y-95795238D01*
X124947619Y-95938095D01*
X124947619Y-96033333D01*
X124995238Y-96176190D01*
X125090476Y-96271428D01*
X125185714Y-96319047D01*
X125376190Y-96366666D01*
X125519047Y-96366666D01*
X125709523Y-96319047D01*
X125804761Y-96271428D01*
X125900000Y-96176190D01*
X125947619Y-96033333D01*
X125947619Y-95938095D01*
X125900000Y-95795238D01*
X125852380Y-95747619D01*
D11*
X162100000Y-85300000D02*
X157100000Y-85300000D01*
X162100000Y-85300000D02*
X162100000Y-90300000D01*
X162100000Y-121800000D02*
X162100000Y-116800000D01*
X162100000Y-121800000D02*
X157100000Y-121800000D01*
X137700000Y-85400000D02*
X142700000Y-85400000D01*
X137700000Y-85400000D02*
X137700000Y-90400000D01*
X137700000Y-121800000D02*
X137700000Y-116800000D01*
X137700000Y-121800000D02*
X142700000Y-121800000D01*
X136352380Y-119838095D02*
X137161904Y-119838095D01*
X137257142Y-119885714D01*
X137304761Y-119933333D01*
X137352380Y-120028571D01*
X137352380Y-120219047D01*
X137304761Y-120314285D01*
X137257142Y-120361904D01*
X137161904Y-120409523D01*
X136352380Y-120409523D01*
X136685714Y-121314285D02*
X137352380Y-121314285D01*
X136304761Y-121076190D02*
X137019047Y-120838095D01*
X137019047Y-121457142D01*
%LPC*%
D12*
X205000000Y-111410000D03*
X205000000Y-108870000D03*
X205000000Y-106330000D03*
D13*
X205000000Y-103790000D03*
D12*
X144820000Y-119100000D03*
X147360000Y-119100000D03*
X149900000Y-119100000D03*
X152440000Y-119100000D03*
D14*
X154980000Y-119100000D03*
G36*
G01*
X172197280Y-108703680D02*
X172197280Y-110103680D01*
G75*
G02*
X171897280Y-110403680I-300000J0D01*
G01*
X171297280Y-110403680D01*
G75*
G02*
X170997280Y-110103680I0J300000D01*
G01*
X170997280Y-108703680D01*
G75*
G02*
X171297280Y-108403680I300000J0D01*
G01*
X171897280Y-108403680D01*
G75*
G02*
X172197280Y-108703680I0J-300000D01*
G01*
G37*
D15*
X169057280Y-109403680D03*
X166517280Y-109403680D03*
X163977280Y-109403680D03*
X161437280Y-109403680D03*
X158897280Y-109403680D03*
X156357280Y-109403680D03*
X153817280Y-109403680D03*
X151277280Y-109403680D03*
X148737280Y-109403680D03*
X146197280Y-109403680D03*
X143657280Y-109403680D03*
X141117280Y-109403680D03*
X138577280Y-109403680D03*
X136037280Y-109403680D03*
X133497280Y-109403680D03*
X130957280Y-109403680D03*
X128420000Y-109400000D03*
X125880000Y-109400000D03*
X125877280Y-84003680D03*
X128417280Y-84003680D03*
X130957280Y-84003680D03*
X133497280Y-84003680D03*
X136037280Y-84003680D03*
G36*
G01*
X139177280Y-83303680D02*
X139177280Y-84703680D01*
G75*
G02*
X138877280Y-85003680I-300000J0D01*
G01*
X138277280Y-85003680D01*
G75*
G02*
X137977280Y-84703680I0J300000D01*
G01*
X137977280Y-83303680D01*
G75*
G02*
X138277280Y-83003680I300000J0D01*
G01*
X138877280Y-83003680D01*
G75*
G02*
X139177280Y-83303680I0J-300000D01*
G01*
G37*
X141117280Y-84003680D03*
X143657280Y-84003680D03*
X146197280Y-84003680D03*
X148737280Y-84003680D03*
X151277280Y-84003680D03*
X153817280Y-84003680D03*
X156357280Y-84003680D03*
X158897280Y-84003680D03*
X161437280Y-84003680D03*
X163977280Y-84003680D03*
X166517280Y-84003680D03*
X169057280Y-84003680D03*
X171597280Y-84003680D03*
D16*
X129000000Y-77000000D03*
X211000000Y-77000000D03*
X211000000Y-117000000D03*
X129000000Y-117000000D03*
D17*
X141440000Y-77740000D03*
X141440000Y-75200000D03*
X143980000Y-77740000D03*
X143980000Y-75200000D03*
X146520000Y-77740000D03*
X146520000Y-75200000D03*
X149060000Y-77740000D03*
X149060000Y-75200000D03*
X151600000Y-77740000D03*
D14*
X151600000Y-75200000D03*
D17*
X166460000Y-75200000D03*
D14*
X169000000Y-75200000D03*
M02*
