G04 #@! TF.GenerationSoftware,KiCad,Pcbnew,5.1.10*
G04 #@! TF.CreationDate,2021-12-29T16:53:06+01:00*
G04 #@! TF.ProjectId,meshtastic_jtag,6d657368-7461-4737-9469-635f6a746167,rev?*
G04 #@! TF.SameCoordinates,Original*
G04 #@! TF.FileFunction,Soldermask,Top*
G04 #@! TF.FilePolarity,Negative*
%FSLAX46Y46*%
G04 Gerber Fmt 4.6, Leading zero omitted, Abs format (unit mm)*
G04 Created by KiCad (PCBNEW 5.1.10) date 2021-12-29 16:53:06*
%MOMM*%
%LPD*%
G01*
G04 APERTURE LIST*
%ADD10C,1.700000*%
%ADD11R,1.524000X1.700000*%
%ADD12R,1.700000X1.700000*%
%ADD13O,1.200000X2.000000*%
%ADD14R,0.500000X1.800000*%
%ADD15C,3.200000*%
%ADD16O,1.700000X1.700000*%
G04 APERTURE END LIST*
D10*
X205000000Y-111410000D03*
X205000000Y-108870000D03*
X205000000Y-106330000D03*
D11*
X205000000Y-103790000D03*
D10*
X144820000Y-119100000D03*
X147360000Y-119100000D03*
X149900000Y-119100000D03*
X152440000Y-119100000D03*
D12*
X154980000Y-119100000D03*
G36*
G01*
X167500000Y-80050002D02*
X167500000Y-79149998D01*
G75*
G02*
X167749998Y-78900000I249998J0D01*
G01*
X168275002Y-78900000D01*
G75*
G02*
X168525000Y-79149998I0J-249998D01*
G01*
X168525000Y-80050002D01*
G75*
G02*
X168275002Y-80300000I-249998J0D01*
G01*
X167749998Y-80300000D01*
G75*
G02*
X167500000Y-80050002I0J249998D01*
G01*
G37*
G36*
G01*
X165675000Y-80050002D02*
X165675000Y-79149998D01*
G75*
G02*
X165924998Y-78900000I249998J0D01*
G01*
X166450002Y-78900000D01*
G75*
G02*
X166700000Y-79149998I0J-249998D01*
G01*
X166700000Y-80050002D01*
G75*
G02*
X166450002Y-80300000I-249998J0D01*
G01*
X165924998Y-80300000D01*
G75*
G02*
X165675000Y-80050002I0J249998D01*
G01*
G37*
G36*
G01*
X141900000Y-116550002D02*
X141900000Y-115649998D01*
G75*
G02*
X142149998Y-115400000I249998J0D01*
G01*
X142675002Y-115400000D01*
G75*
G02*
X142925000Y-115649998I0J-249998D01*
G01*
X142925000Y-116550002D01*
G75*
G02*
X142675002Y-116800000I-249998J0D01*
G01*
X142149998Y-116800000D01*
G75*
G02*
X141900000Y-116550002I0J249998D01*
G01*
G37*
G36*
G01*
X140075000Y-116550002D02*
X140075000Y-115649998D01*
G75*
G02*
X140324998Y-115400000I249998J0D01*
G01*
X140850002Y-115400000D01*
G75*
G02*
X141100000Y-115649998I0J-249998D01*
G01*
X141100000Y-116550002D01*
G75*
G02*
X140850002Y-116800000I-249998J0D01*
G01*
X140324998Y-116800000D01*
G75*
G02*
X140075000Y-116550002I0J249998D01*
G01*
G37*
G36*
G01*
X138512500Y-116556250D02*
X138512500Y-115643750D01*
G75*
G02*
X138756250Y-115400000I243750J0D01*
G01*
X139243750Y-115400000D01*
G75*
G02*
X139487500Y-115643750I0J-243750D01*
G01*
X139487500Y-116556250D01*
G75*
G02*
X139243750Y-116800000I-243750J0D01*
G01*
X138756250Y-116800000D01*
G75*
G02*
X138512500Y-116556250I0J243750D01*
G01*
G37*
G36*
G01*
X136637500Y-116556250D02*
X136637500Y-115643750D01*
G75*
G02*
X136881250Y-115400000I243750J0D01*
G01*
X137368750Y-115400000D01*
G75*
G02*
X137612500Y-115643750I0J-243750D01*
G01*
X137612500Y-116556250D01*
G75*
G02*
X137368750Y-116800000I-243750J0D01*
G01*
X136881250Y-116800000D01*
G75*
G02*
X136637500Y-116556250I0J243750D01*
G01*
G37*
G36*
G01*
X172197280Y-108703680D02*
X172197280Y-110103680D01*
G75*
G02*
X171897280Y-110403680I-300000J0D01*
G01*
X171297280Y-110403680D01*
G75*
G02*
X170997280Y-110103680I0J300000D01*
G01*
X170997280Y-108703680D01*
G75*
G02*
X171297280Y-108403680I300000J0D01*
G01*
X171897280Y-108403680D01*
G75*
G02*
X172197280Y-108703680I0J-300000D01*
G01*
G37*
D13*
X169057280Y-109403680D03*
X166517280Y-109403680D03*
X163977280Y-109403680D03*
X161437280Y-109403680D03*
X158897280Y-109403680D03*
X156357280Y-109403680D03*
X153817280Y-109403680D03*
X151277280Y-109403680D03*
X148737280Y-109403680D03*
X146197280Y-109403680D03*
X143657280Y-109403680D03*
X141117280Y-109403680D03*
X138577280Y-109403680D03*
X136037280Y-109403680D03*
X133497280Y-109403680D03*
X130957280Y-109403680D03*
X128420000Y-109400000D03*
X125880000Y-109400000D03*
X125877280Y-84003680D03*
X128417280Y-84003680D03*
X130957280Y-84003680D03*
X133497280Y-84003680D03*
X136037280Y-84003680D03*
G36*
G01*
X139177280Y-83303680D02*
X139177280Y-84703680D01*
G75*
G02*
X138877280Y-85003680I-300000J0D01*
G01*
X138277280Y-85003680D01*
G75*
G02*
X137977280Y-84703680I0J300000D01*
G01*
X137977280Y-83303680D01*
G75*
G02*
X138277280Y-83003680I300000J0D01*
G01*
X138877280Y-83003680D01*
G75*
G02*
X139177280Y-83303680I0J-300000D01*
G01*
G37*
X141117280Y-84003680D03*
X143657280Y-84003680D03*
X146197280Y-84003680D03*
X148737280Y-84003680D03*
X151277280Y-84003680D03*
X153817280Y-84003680D03*
X156357280Y-84003680D03*
X158897280Y-84003680D03*
X161437280Y-84003680D03*
X163977280Y-84003680D03*
X166517280Y-84003680D03*
X169057280Y-84003680D03*
X171597280Y-84003680D03*
D14*
X200800000Y-90900000D03*
X199800000Y-90900000D03*
X198800000Y-90900000D03*
X192690000Y-90900000D03*
X191420000Y-90900000D03*
X190150000Y-90900000D03*
X188880000Y-90900000D03*
X187610000Y-90900000D03*
X186340000Y-90900000D03*
X185070000Y-90900000D03*
X183800000Y-90900000D03*
X183800000Y-76900000D03*
X185070000Y-76900000D03*
X186340000Y-76900000D03*
X187610000Y-76900000D03*
X188880000Y-76900000D03*
X190150000Y-76900000D03*
X191420000Y-76900000D03*
X192690000Y-76900000D03*
X198260000Y-76900000D03*
X199530000Y-76900000D03*
X200800000Y-76900000D03*
D15*
X129000000Y-77000000D03*
X211000000Y-77000000D03*
X211000000Y-117000000D03*
X129000000Y-117000000D03*
D16*
X141440000Y-77740000D03*
X141440000Y-75200000D03*
X143980000Y-77740000D03*
X143980000Y-75200000D03*
X146520000Y-77740000D03*
X146520000Y-75200000D03*
X149060000Y-77740000D03*
X149060000Y-75200000D03*
X151600000Y-77740000D03*
D12*
X151600000Y-75200000D03*
D16*
X166460000Y-75200000D03*
D12*
X169000000Y-75200000D03*
G36*
G01*
X185200000Y-74750000D02*
X185200000Y-75250000D01*
G75*
G02*
X184975000Y-75475000I-225000J0D01*
G01*
X184525000Y-75475000D01*
G75*
G02*
X184300000Y-75250000I0J225000D01*
G01*
X184300000Y-74750000D01*
G75*
G02*
X184525000Y-74525000I225000J0D01*
G01*
X184975000Y-74525000D01*
G75*
G02*
X185200000Y-74750000I0J-225000D01*
G01*
G37*
G36*
G01*
X186750000Y-74750000D02*
X186750000Y-75250000D01*
G75*
G02*
X186525000Y-75475000I-225000J0D01*
G01*
X186075000Y-75475000D01*
G75*
G02*
X185850000Y-75250000I0J225000D01*
G01*
X185850000Y-74750000D01*
G75*
G02*
X186075000Y-74525000I225000J0D01*
G01*
X186525000Y-74525000D01*
G75*
G02*
X186750000Y-74750000I0J-225000D01*
G01*
G37*
G36*
G01*
X188950000Y-75250000D02*
X188950000Y-74750000D01*
G75*
G02*
X189175000Y-74525000I225000J0D01*
G01*
X189625000Y-74525000D01*
G75*
G02*
X189850000Y-74750000I0J-225000D01*
G01*
X189850000Y-75250000D01*
G75*
G02*
X189625000Y-75475000I-225000J0D01*
G01*
X189175000Y-75475000D01*
G75*
G02*
X188950000Y-75250000I0J225000D01*
G01*
G37*
G36*
G01*
X187400000Y-75250000D02*
X187400000Y-74750000D01*
G75*
G02*
X187625000Y-74525000I225000J0D01*
G01*
X188075000Y-74525000D01*
G75*
G02*
X188300000Y-74750000I0J-225000D01*
G01*
X188300000Y-75250000D01*
G75*
G02*
X188075000Y-75475000I-225000J0D01*
G01*
X187625000Y-75475000D01*
G75*
G02*
X187400000Y-75250000I0J225000D01*
G01*
G37*
G36*
G01*
X215300000Y-97170000D02*
X215300000Y-96830000D01*
G75*
G02*
X215440000Y-96690000I140000J0D01*
G01*
X215720000Y-96690000D01*
G75*
G02*
X215860000Y-96830000I0J-140000D01*
G01*
X215860000Y-97170000D01*
G75*
G02*
X215720000Y-97310000I-140000J0D01*
G01*
X215440000Y-97310000D01*
G75*
G02*
X215300000Y-97170000I0J140000D01*
G01*
G37*
G36*
G01*
X214340000Y-97170000D02*
X214340000Y-96830000D01*
G75*
G02*
X214480000Y-96690000I140000J0D01*
G01*
X214760000Y-96690000D01*
G75*
G02*
X214900000Y-96830000I0J-140000D01*
G01*
X214900000Y-97170000D01*
G75*
G02*
X214760000Y-97310000I-140000J0D01*
G01*
X214480000Y-97310000D01*
G75*
G02*
X214340000Y-97170000I0J140000D01*
G01*
G37*
G36*
G01*
X216330000Y-98020000D02*
X216670000Y-98020000D01*
G75*
G02*
X216810000Y-98160000I0J-140000D01*
G01*
X216810000Y-98440000D01*
G75*
G02*
X216670000Y-98580000I-140000J0D01*
G01*
X216330000Y-98580000D01*
G75*
G02*
X216190000Y-98440000I0J140000D01*
G01*
X216190000Y-98160000D01*
G75*
G02*
X216330000Y-98020000I140000J0D01*
G01*
G37*
G36*
G01*
X216330000Y-97060000D02*
X216670000Y-97060000D01*
G75*
G02*
X216810000Y-97200000I0J-140000D01*
G01*
X216810000Y-97480000D01*
G75*
G02*
X216670000Y-97620000I-140000J0D01*
G01*
X216330000Y-97620000D01*
G75*
G02*
X216190000Y-97480000I0J140000D01*
G01*
X216190000Y-97200000D01*
G75*
G02*
X216330000Y-97060000I140000J0D01*
G01*
G37*
G36*
G01*
X213530000Y-98000000D02*
X213870000Y-98000000D01*
G75*
G02*
X214010000Y-98140000I0J-140000D01*
G01*
X214010000Y-98420000D01*
G75*
G02*
X213870000Y-98560000I-140000J0D01*
G01*
X213530000Y-98560000D01*
G75*
G02*
X213390000Y-98420000I0J140000D01*
G01*
X213390000Y-98140000D01*
G75*
G02*
X213530000Y-98000000I140000J0D01*
G01*
G37*
G36*
G01*
X213530000Y-97040000D02*
X213870000Y-97040000D01*
G75*
G02*
X214010000Y-97180000I0J-140000D01*
G01*
X214010000Y-97460000D01*
G75*
G02*
X213870000Y-97600000I-140000J0D01*
G01*
X213530000Y-97600000D01*
G75*
G02*
X213390000Y-97460000I0J140000D01*
G01*
X213390000Y-97180000D01*
G75*
G02*
X213530000Y-97040000I140000J0D01*
G01*
G37*
M02*
