M48
; DRILL file {KiCad 5.1.10} date Wed Dec 29 16:53:09 2021
; FORMAT={-:-/ absolute / metric / decimal}
; #@! TF.CreationDate,2021-12-29T16:53:09+01:00
; #@! TF.GenerationSoftware,Kicad,Pcbnew,5.1.10
; #@! TF.FileFunction,Plated,1,2,PTH
FMAT,2
METRIC
T1C0.300
T2C0.400
T3C0.800
T4C1.000
%
G90
G05
T1
X218.16Y-97.0
X220.7Y-97.0
X222.7Y-97.0
X224.7Y-97.0
X226.7Y-97.0
X226.7Y-99.0
X226.7Y-101.0
X226.7Y-103.0
X226.7Y-105.0
X226.7Y-107.0
X226.7Y-109.0
X226.7Y-111.0
X226.7Y-113.0
X227.2Y-115.0
X229.2Y-115.0
X231.2Y-115.0
X231.7Y-81.0
X231.7Y-83.0
X231.7Y-85.0
X231.7Y-87.0
X231.7Y-89.0
X231.7Y-91.0
X231.7Y-93.0
X231.7Y-95.0
X231.7Y-97.0
X231.7Y-99.0
X231.7Y-101.0
X231.7Y-103.0
X231.7Y-105.0
X231.7Y-107.0
X231.7Y-109.0
X231.7Y-111.0
X231.7Y-113.0
X232.2Y-79.0
X234.2Y-79.0
X236.2Y-79.0
X236.7Y-81.0
X236.7Y-83.0
X236.7Y-85.0
X236.7Y-87.0
X236.7Y-89.0
X236.7Y-91.0
X236.7Y-93.0
X236.7Y-95.0
X236.7Y-97.0
X236.7Y-99.0
X236.7Y-101.0
X236.7Y-103.0
X236.7Y-105.0
X236.7Y-107.0
X236.7Y-109.0
X236.7Y-111.0
X236.7Y-113.0
X237.2Y-115.0
X239.2Y-115.0
X241.2Y-115.0
X241.7Y-79.0
X241.7Y-81.0
X241.7Y-83.0
X241.7Y-85.0
X241.7Y-87.0
X241.7Y-89.0
X241.7Y-91.0
X241.7Y-93.0
X241.7Y-95.0
X241.7Y-97.0
X241.7Y-99.0
X241.7Y-101.0
X241.7Y-103.0
X241.7Y-105.0
X241.7Y-107.0
X241.7Y-109.0
X241.7Y-111.0
X241.7Y-113.0
T2
X177.199Y-89.925
X177.2Y-87.575
X178.17Y-87.125
X178.199Y-89.925
X179.2Y-89.925
X180.213Y-89.938
X181.213Y-89.925
X182.213Y-89.925
X186.4Y-78.9
X186.4Y-79.7
X187.7Y-89.3
X188.9Y-89.3
X191.4Y-89.4
X192.0Y-80.0
X192.0Y-82.0
X192.0Y-84.0
X192.0Y-86.0
X192.0Y-88.0
X192.7Y-89.4
X194.0Y-80.0
X194.0Y-82.0
X194.0Y-84.0
X194.0Y-86.0
X194.0Y-88.0
X196.0Y-80.0
X196.0Y-82.0
X196.0Y-84.0
X196.0Y-86.0
X196.0Y-88.0
X198.0Y-80.0
X198.0Y-82.0
X198.0Y-84.0
X198.0Y-86.0
X198.0Y-88.0
X198.1Y-90.9
X198.1Y-91.7
X198.68Y-92.3
X198.68Y-93.1
X198.68Y-93.994
X199.097Y-94.903
X199.797Y-95.603
X200.0Y-80.0
X200.0Y-82.0
X200.0Y-84.0
X200.0Y-86.0
X200.0Y-88.0
X200.497Y-96.303
X200.95Y-92.3
X200.95Y-93.1
X201.197Y-97.003
X201.253Y-93.847
X201.5Y-90.9
X201.5Y-91.7
X201.897Y-97.703
X201.953Y-94.547
X202.653Y-95.247
X202.8Y-98.135
X203.5Y-95.865
X203.8Y-98.135
X204.5Y-95.865
X204.8Y-98.135
X205.5Y-95.865
X205.8Y-98.135
X206.5Y-95.865
X206.8Y-98.135
X207.5Y-95.865
X207.8Y-98.135
X208.5Y-95.865
X208.8Y-98.135
X209.5Y-95.865
X209.8Y-98.135
X210.5Y-95.865
X210.8Y-98.135
X211.5Y-95.865
X211.8Y-98.135
X212.5Y-95.865
X212.8Y-98.135
X212.8Y-99.0
X213.5Y-95.865
X213.7Y-99.2
X214.5Y-95.865
X214.6Y-98.3
X215.5Y-95.865
X215.6Y-98.3
X216.6Y-73.95
X216.6Y-75.95
X216.6Y-77.95
X216.6Y-79.95
X216.6Y-81.95
X216.6Y-83.95
X216.6Y-85.95
X216.6Y-87.95
X216.6Y-89.95
X216.6Y-91.95
X216.6Y-93.95
X216.6Y-94.95
X216.6Y-95.8
X216.6Y-99.2
X216.6Y-100.25
X216.6Y-102.25
X216.6Y-104.25
X216.6Y-106.25
X216.6Y-108.25
X216.6Y-110.25
X216.6Y-112.25
X216.6Y-114.25
X216.6Y-116.25
X216.6Y-118.25
X216.6Y-120.25
T3
X125.877Y-84.004
X125.88Y-109.4
X128.417Y-84.004
X128.42Y-109.4
X130.957Y-84.004
X130.957Y-109.404
X133.497Y-84.004
X133.497Y-109.404
X136.037Y-84.004
X136.037Y-109.404
X138.577Y-84.004
X138.577Y-109.404
X141.117Y-84.004
X141.117Y-109.404
X143.657Y-84.004
X143.657Y-109.404
X146.197Y-84.004
X146.197Y-109.404
X148.737Y-84.004
X148.737Y-109.404
X151.277Y-84.004
X151.277Y-109.404
X153.817Y-84.004
X153.817Y-109.404
X156.357Y-84.004
X156.357Y-109.404
X158.897Y-84.004
X158.897Y-109.404
X161.437Y-84.004
X161.437Y-109.404
X163.977Y-84.004
X163.977Y-109.404
X166.517Y-84.004
X166.517Y-109.404
X169.057Y-84.004
X169.057Y-109.404
X171.597Y-84.004
X171.597Y-109.404
T4
X141.44Y-75.2
X141.44Y-77.74
X143.98Y-75.2
X143.98Y-77.74
X144.82Y-119.1
X146.52Y-75.2
X146.52Y-77.74
X147.36Y-119.1
X149.06Y-75.2
X149.06Y-77.74
X149.9Y-119.1
X151.6Y-75.2
X151.6Y-77.74
X152.44Y-119.1
X154.98Y-119.1
X166.46Y-75.2
X169.0Y-75.2
X205.0Y-103.79
X205.0Y-106.33
X205.0Y-108.87
X205.0Y-111.41
T0
M30
