%FSLAX45Y45*%
G04 Gerber Fmt 4.5, Leading zero omitted, Abs format (unit mm)*
G04 Created by KiCad (PCBNEW 5.1.10) date 2021-12-29 16:53:08*
%MOMM*%
%LPD*%
G01*
G04 APERTURE LIST*
%TA.AperFunction,Profile*%
%ADD10C,0.050000*%
%TD*%
%ADD11C,0.200000*%
%ADD12C,0.300000*%
G04 APERTURE END LIST*
D10*
X12400000Y-7200000D02*
X24400000Y-7200000D01*
X24400000Y-12200000D02*
X12400000Y-12200000D01*
X24400000Y-7200000D02*
X24400000Y-12200000D01*
X12400000Y-7200000D02*
X12400000Y-12200000D01*
D11*
X21801000Y-9685000D02*
X21831000Y-9715000D01*
X21831000Y-9685000D02*
X21801000Y-9715000D01*
X22055000Y-9685000D02*
X22085000Y-9715000D01*
X22085000Y-9685000D02*
X22055000Y-9715000D01*
X22255000Y-9685000D02*
X22285000Y-9715000D01*
X22285000Y-9685000D02*
X22255000Y-9715000D01*
X22455000Y-9685000D02*
X22485000Y-9715000D01*
X22485000Y-9685000D02*
X22455000Y-9715000D01*
X22655000Y-9685000D02*
X22685000Y-9715000D01*
X22685000Y-9685000D02*
X22655000Y-9715000D01*
X22655000Y-9885000D02*
X22685000Y-9915000D01*
X22685000Y-9885000D02*
X22655000Y-9915000D01*
X22655000Y-10085000D02*
X22685000Y-10115000D01*
X22685000Y-10085000D02*
X22655000Y-10115000D01*
X22655000Y-10285000D02*
X22685000Y-10315000D01*
X22685000Y-10285000D02*
X22655000Y-10315000D01*
X22655000Y-10485000D02*
X22685000Y-10515000D01*
X22685000Y-10485000D02*
X22655000Y-10515000D01*
X22655000Y-10685000D02*
X22685000Y-10715000D01*
X22685000Y-10685000D02*
X22655000Y-10715000D01*
X22655000Y-10885000D02*
X22685000Y-10915000D01*
X22685000Y-10885000D02*
X22655000Y-10915000D01*
X22655000Y-11085000D02*
X22685000Y-11115000D01*
X22685000Y-11085000D02*
X22655000Y-11115000D01*
X22655000Y-11285000D02*
X22685000Y-11315000D01*
X22685000Y-11285000D02*
X22655000Y-11315000D01*
X22705000Y-11485000D02*
X22735000Y-11515000D01*
X22735000Y-11485000D02*
X22705000Y-11515000D01*
X22905000Y-11485000D02*
X22935000Y-11515000D01*
X22935000Y-11485000D02*
X22905000Y-11515000D01*
X23105000Y-11485000D02*
X23135000Y-11515000D01*
X23135000Y-11485000D02*
X23105000Y-11515000D01*
X23155000Y-8085000D02*
X23185000Y-8115000D01*
X23185000Y-8085000D02*
X23155000Y-8115000D01*
X23155000Y-8285000D02*
X23185000Y-8315000D01*
X23185000Y-8285000D02*
X23155000Y-8315000D01*
X23155000Y-8485000D02*
X23185000Y-8515000D01*
X23185000Y-8485000D02*
X23155000Y-8515000D01*
X23155000Y-8685000D02*
X23185000Y-8715000D01*
X23185000Y-8685000D02*
X23155000Y-8715000D01*
X23155000Y-8885000D02*
X23185000Y-8915000D01*
X23185000Y-8885000D02*
X23155000Y-8915000D01*
X23155000Y-9085000D02*
X23185000Y-9115000D01*
X23185000Y-9085000D02*
X23155000Y-9115000D01*
X23155000Y-9285000D02*
X23185000Y-9315000D01*
X23185000Y-9285000D02*
X23155000Y-9315000D01*
X23155000Y-9485000D02*
X23185000Y-9515000D01*
X23185000Y-9485000D02*
X23155000Y-9515000D01*
X23155000Y-9685000D02*
X23185000Y-9715000D01*
X23185000Y-9685000D02*
X23155000Y-9715000D01*
X23155000Y-9885000D02*
X23185000Y-9915000D01*
X23185000Y-9885000D02*
X23155000Y-9915000D01*
X23155000Y-10085000D02*
X23185000Y-10115000D01*
X23185000Y-10085000D02*
X23155000Y-10115000D01*
X23155000Y-10285000D02*
X23185000Y-10315000D01*
X23185000Y-10285000D02*
X23155000Y-10315000D01*
X23155000Y-10485000D02*
X23185000Y-10515000D01*
X23185000Y-10485000D02*
X23155000Y-10515000D01*
X23155000Y-10685000D02*
X23185000Y-10715000D01*
X23185000Y-10685000D02*
X23155000Y-10715000D01*
X23155000Y-10885000D02*
X23185000Y-10915000D01*
X23185000Y-10885000D02*
X23155000Y-10915000D01*
X23155000Y-11085000D02*
X23185000Y-11115000D01*
X23185000Y-11085000D02*
X23155000Y-11115000D01*
X23155000Y-11285000D02*
X23185000Y-11315000D01*
X23185000Y-11285000D02*
X23155000Y-11315000D01*
X23205000Y-7885000D02*
X23235000Y-7915000D01*
X23235000Y-7885000D02*
X23205000Y-7915000D01*
X23405000Y-7885000D02*
X23435000Y-7915000D01*
X23435000Y-7885000D02*
X23405000Y-7915000D01*
X23605000Y-7885000D02*
X23635000Y-7915000D01*
X23635000Y-7885000D02*
X23605000Y-7915000D01*
X23655000Y-8085000D02*
X23685000Y-8115000D01*
X23685000Y-8085000D02*
X23655000Y-8115000D01*
X23655000Y-8285000D02*
X23685000Y-8315000D01*
X23685000Y-8285000D02*
X23655000Y-8315000D01*
X23655000Y-8485000D02*
X23685000Y-8515000D01*
X23685000Y-8485000D02*
X23655000Y-8515000D01*
X23655000Y-8685000D02*
X23685000Y-8715000D01*
X23685000Y-8685000D02*
X23655000Y-8715000D01*
X23655000Y-8885000D02*
X23685000Y-8915000D01*
X23685000Y-8885000D02*
X23655000Y-8915000D01*
X23655000Y-9085000D02*
X23685000Y-9115000D01*
X23685000Y-9085000D02*
X23655000Y-9115000D01*
X23655000Y-9285000D02*
X23685000Y-9315000D01*
X23685000Y-9285000D02*
X23655000Y-9315000D01*
X23655000Y-9485000D02*
X23685000Y-9515000D01*
X23685000Y-9485000D02*
X23655000Y-9515000D01*
X23655000Y-9685000D02*
X23685000Y-9715000D01*
X23685000Y-9685000D02*
X23655000Y-9715000D01*
X23655000Y-9885000D02*
X23685000Y-9915000D01*
X23685000Y-9885000D02*
X23655000Y-9915000D01*
X23655000Y-10085000D02*
X23685000Y-10115000D01*
X23685000Y-10085000D02*
X23655000Y-10115000D01*
X23655000Y-10285000D02*
X23685000Y-10315000D01*
X23685000Y-10285000D02*
X23655000Y-10315000D01*
X23655000Y-10485000D02*
X23685000Y-10515000D01*
X23685000Y-10485000D02*
X23655000Y-10515000D01*
X23655000Y-10685000D02*
X23685000Y-10715000D01*
X23685000Y-10685000D02*
X23655000Y-10715000D01*
X23655000Y-10885000D02*
X23685000Y-10915000D01*
X23685000Y-10885000D02*
X23655000Y-10915000D01*
X23655000Y-11085000D02*
X23685000Y-11115000D01*
X23685000Y-11085000D02*
X23655000Y-11115000D01*
X23655000Y-11285000D02*
X23685000Y-11315000D01*
X23685000Y-11285000D02*
X23655000Y-11315000D01*
X23705000Y-11485000D02*
X23735000Y-11515000D01*
X23735000Y-11485000D02*
X23705000Y-11515000D01*
X23905000Y-11485000D02*
X23935000Y-11515000D01*
X23935000Y-11485000D02*
X23905000Y-11515000D01*
X24105000Y-11485000D02*
X24135000Y-11515000D01*
X24135000Y-11485000D02*
X24105000Y-11515000D01*
X24155000Y-7885000D02*
X24185000Y-7915000D01*
X24185000Y-7885000D02*
X24155000Y-7915000D01*
X24155000Y-8085000D02*
X24185000Y-8115000D01*
X24185000Y-8085000D02*
X24155000Y-8115000D01*
X24155000Y-8285000D02*
X24185000Y-8315000D01*
X24185000Y-8285000D02*
X24155000Y-8315000D01*
X24155000Y-8485000D02*
X24185000Y-8515000D01*
X24185000Y-8485000D02*
X24155000Y-8515000D01*
X24155000Y-8685000D02*
X24185000Y-8715000D01*
X24185000Y-8685000D02*
X24155000Y-8715000D01*
X24155000Y-8885000D02*
X24185000Y-8915000D01*
X24185000Y-8885000D02*
X24155000Y-8915000D01*
X24155000Y-9085000D02*
X24185000Y-9115000D01*
X24185000Y-9085000D02*
X24155000Y-9115000D01*
X24155000Y-9285000D02*
X24185000Y-9315000D01*
X24185000Y-9285000D02*
X24155000Y-9315000D01*
X24155000Y-9485000D02*
X24185000Y-9515000D01*
X24185000Y-9485000D02*
X24155000Y-9515000D01*
X24155000Y-9685000D02*
X24185000Y-9715000D01*
X24185000Y-9685000D02*
X24155000Y-9715000D01*
X24155000Y-9885000D02*
X24185000Y-9915000D01*
X24185000Y-9885000D02*
X24155000Y-9915000D01*
X24155000Y-10085000D02*
X24185000Y-10115000D01*
X24185000Y-10085000D02*
X24155000Y-10115000D01*
X24155000Y-10285000D02*
X24185000Y-10315000D01*
X24185000Y-10285000D02*
X24155000Y-10315000D01*
X24155000Y-10485000D02*
X24185000Y-10515000D01*
X24185000Y-10485000D02*
X24155000Y-10515000D01*
X24155000Y-10685000D02*
X24185000Y-10715000D01*
X24185000Y-10685000D02*
X24155000Y-10715000D01*
X24155000Y-10885000D02*
X24185000Y-10915000D01*
X24185000Y-10885000D02*
X24155000Y-10915000D01*
X24155000Y-11085000D02*
X24185000Y-11115000D01*
X24185000Y-11085000D02*
X24155000Y-11115000D01*
X24155000Y-11285000D02*
X24185000Y-11315000D01*
X24185000Y-11285000D02*
X24155000Y-11315000D01*
X17739906Y-8992502D02*
G75*
G03*
X17739906Y-8992502I-20000J0D01*
G01*
X17740000Y-8757500D02*
G75*
G03*
X17740000Y-8757500I-20000J0D01*
G01*
X17837015Y-8712499D02*
G75*
G03*
X17837015Y-8712499I-20000J0D01*
G01*
X17839907Y-8992502D02*
G75*
G03*
X17839907Y-8992502I-20000J0D01*
G01*
X17940000Y-8992502D02*
G75*
G03*
X17940000Y-8992502I-20000J0D01*
G01*
X18041265Y-8993767D02*
G75*
G03*
X18041265Y-8993767I-20000J0D01*
G01*
X18141258Y-8992502D02*
G75*
G03*
X18141258Y-8992502I-20000J0D01*
G01*
X18241258Y-8992502D02*
G75*
G03*
X18241258Y-8992502I-20000J0D01*
G01*
X18660000Y-7890000D02*
G75*
G03*
X18660000Y-7890000I-20000J0D01*
G01*
X18660000Y-7970000D02*
G75*
G03*
X18660000Y-7970000I-20000J0D01*
G01*
X18790000Y-8930000D02*
G75*
G03*
X18790000Y-8930000I-20000J0D01*
G01*
X18910000Y-8930000D02*
G75*
G03*
X18910000Y-8930000I-20000J0D01*
G01*
X19160000Y-8940000D02*
G75*
G03*
X19160000Y-8940000I-20000J0D01*
G01*
X19220000Y-8000000D02*
G75*
G03*
X19220000Y-8000000I-20000J0D01*
G01*
X19220000Y-8200000D02*
G75*
G03*
X19220000Y-8200000I-20000J0D01*
G01*
X19220000Y-8400000D02*
G75*
G03*
X19220000Y-8400000I-20000J0D01*
G01*
X19220000Y-8600000D02*
G75*
G03*
X19220000Y-8600000I-20000J0D01*
G01*
X19220000Y-8800000D02*
G75*
G03*
X19220000Y-8800000I-20000J0D01*
G01*
X19290000Y-8940000D02*
G75*
G03*
X19290000Y-8940000I-20000J0D01*
G01*
X19420000Y-8000000D02*
G75*
G03*
X19420000Y-8000000I-20000J0D01*
G01*
X19420000Y-8200000D02*
G75*
G03*
X19420000Y-8200000I-20000J0D01*
G01*
X19420000Y-8400000D02*
G75*
G03*
X19420000Y-8400000I-20000J0D01*
G01*
X19420000Y-8600000D02*
G75*
G03*
X19420000Y-8600000I-20000J0D01*
G01*
X19420000Y-8800000D02*
G75*
G03*
X19420000Y-8800000I-20000J0D01*
G01*
X19620000Y-8000000D02*
G75*
G03*
X19620000Y-8000000I-20000J0D01*
G01*
X19620000Y-8200000D02*
G75*
G03*
X19620000Y-8200000I-20000J0D01*
G01*
X19620000Y-8400000D02*
G75*
G03*
X19620000Y-8400000I-20000J0D01*
G01*
X19620000Y-8600000D02*
G75*
G03*
X19620000Y-8600000I-20000J0D01*
G01*
X19620000Y-8800000D02*
G75*
G03*
X19620000Y-8800000I-20000J0D01*
G01*
X19820000Y-8000000D02*
G75*
G03*
X19820000Y-8000000I-20000J0D01*
G01*
X19820000Y-8200000D02*
G75*
G03*
X19820000Y-8200000I-20000J0D01*
G01*
X19820000Y-8400000D02*
G75*
G03*
X19820000Y-8400000I-20000J0D01*
G01*
X19820000Y-8600000D02*
G75*
G03*
X19820000Y-8600000I-20000J0D01*
G01*
X19820000Y-8800000D02*
G75*
G03*
X19820000Y-8800000I-20000J0D01*
G01*
X19830000Y-9090000D02*
G75*
G03*
X19830000Y-9090000I-20000J0D01*
G01*
X19830000Y-9170000D02*
G75*
G03*
X19830000Y-9170000I-20000J0D01*
G01*
X19888000Y-9230000D02*
G75*
G03*
X19888000Y-9230000I-20000J0D01*
G01*
X19888000Y-9310000D02*
G75*
G03*
X19888000Y-9310000I-20000J0D01*
G01*
X19888000Y-9399412D02*
G75*
G03*
X19888000Y-9399412I-20000J0D01*
G01*
X19929743Y-9490257D02*
G75*
G03*
X19929743Y-9490257I-20000J0D01*
G01*
X19999743Y-9560257D02*
G75*
G03*
X19999743Y-9560257I-20000J0D01*
G01*
X20020000Y-8000000D02*
G75*
G03*
X20020000Y-8000000I-20000J0D01*
G01*
X20020000Y-8200000D02*
G75*
G03*
X20020000Y-8200000I-20000J0D01*
G01*
X20020000Y-8400000D02*
G75*
G03*
X20020000Y-8400000I-20000J0D01*
G01*
X20020000Y-8600000D02*
G75*
G03*
X20020000Y-8600000I-20000J0D01*
G01*
X20020000Y-8800000D02*
G75*
G03*
X20020000Y-8800000I-20000J0D01*
G01*
X20069743Y-9630257D02*
G75*
G03*
X20069743Y-9630257I-20000J0D01*
G01*
X20115000Y-9230000D02*
G75*
G03*
X20115000Y-9230000I-20000J0D01*
G01*
X20115000Y-9310000D02*
G75*
G03*
X20115000Y-9310000I-20000J0D01*
G01*
X20139743Y-9700257D02*
G75*
G03*
X20139743Y-9700257I-20000J0D01*
G01*
X20145257Y-9384743D02*
G75*
G03*
X20145257Y-9384743I-20000J0D01*
G01*
X20170000Y-9090000D02*
G75*
G03*
X20170000Y-9090000I-20000J0D01*
G01*
X20170000Y-9170000D02*
G75*
G03*
X20170000Y-9170000I-20000J0D01*
G01*
X20209743Y-9770257D02*
G75*
G03*
X20209743Y-9770257I-20000J0D01*
G01*
X20215257Y-9454743D02*
G75*
G03*
X20215257Y-9454743I-20000J0D01*
G01*
X20285257Y-9524743D02*
G75*
G03*
X20285257Y-9524743I-20000J0D01*
G01*
X20300000Y-9813500D02*
G75*
G03*
X20300000Y-9813500I-20000J0D01*
G01*
X20370000Y-9586500D02*
G75*
G03*
X20370000Y-9586500I-20000J0D01*
G01*
X20400000Y-9813500D02*
G75*
G03*
X20400000Y-9813500I-20000J0D01*
G01*
X20470000Y-9586500D02*
G75*
G03*
X20470000Y-9586500I-20000J0D01*
G01*
X20500000Y-9813500D02*
G75*
G03*
X20500000Y-9813500I-20000J0D01*
G01*
X20570000Y-9586500D02*
G75*
G03*
X20570000Y-9586500I-20000J0D01*
G01*
X20600000Y-9813500D02*
G75*
G03*
X20600000Y-9813500I-20000J0D01*
G01*
X20670000Y-9586500D02*
G75*
G03*
X20670000Y-9586500I-20000J0D01*
G01*
X20700000Y-9813500D02*
G75*
G03*
X20700000Y-9813500I-20000J0D01*
G01*
X20770000Y-9586500D02*
G75*
G03*
X20770000Y-9586500I-20000J0D01*
G01*
X20800000Y-9813500D02*
G75*
G03*
X20800000Y-9813500I-20000J0D01*
G01*
X20870000Y-9586500D02*
G75*
G03*
X20870000Y-9586500I-20000J0D01*
G01*
X20900000Y-9813500D02*
G75*
G03*
X20900000Y-9813500I-20000J0D01*
G01*
X20970000Y-9586500D02*
G75*
G03*
X20970000Y-9586500I-20000J0D01*
G01*
X21000000Y-9813500D02*
G75*
G03*
X21000000Y-9813500I-20000J0D01*
G01*
X21070000Y-9586500D02*
G75*
G03*
X21070000Y-9586500I-20000J0D01*
G01*
X21100000Y-9813500D02*
G75*
G03*
X21100000Y-9813500I-20000J0D01*
G01*
X21170000Y-9586500D02*
G75*
G03*
X21170000Y-9586500I-20000J0D01*
G01*
X21200000Y-9813500D02*
G75*
G03*
X21200000Y-9813500I-20000J0D01*
G01*
X21270000Y-9586500D02*
G75*
G03*
X21270000Y-9586500I-20000J0D01*
G01*
X21300000Y-9813500D02*
G75*
G03*
X21300000Y-9813500I-20000J0D01*
G01*
X21300000Y-9900000D02*
G75*
G03*
X21300000Y-9900000I-20000J0D01*
G01*
X21370000Y-9586500D02*
G75*
G03*
X21370000Y-9586500I-20000J0D01*
G01*
X21390000Y-9920000D02*
G75*
G03*
X21390000Y-9920000I-20000J0D01*
G01*
X21470000Y-9586500D02*
G75*
G03*
X21470000Y-9586500I-20000J0D01*
G01*
X21480000Y-9830000D02*
G75*
G03*
X21480000Y-9830000I-20000J0D01*
G01*
X21570000Y-9586500D02*
G75*
G03*
X21570000Y-9586500I-20000J0D01*
G01*
X21580000Y-9830000D02*
G75*
G03*
X21580000Y-9830000I-20000J0D01*
G01*
X21680000Y-7395000D02*
G75*
G03*
X21680000Y-7395000I-20000J0D01*
G01*
X21680000Y-7595000D02*
G75*
G03*
X21680000Y-7595000I-20000J0D01*
G01*
X21680000Y-7795000D02*
G75*
G03*
X21680000Y-7795000I-20000J0D01*
G01*
X21680000Y-7995000D02*
G75*
G03*
X21680000Y-7995000I-20000J0D01*
G01*
X21680000Y-8195000D02*
G75*
G03*
X21680000Y-8195000I-20000J0D01*
G01*
X21680000Y-8395000D02*
G75*
G03*
X21680000Y-8395000I-20000J0D01*
G01*
X21680000Y-8595000D02*
G75*
G03*
X21680000Y-8595000I-20000J0D01*
G01*
X21680000Y-8795000D02*
G75*
G03*
X21680000Y-8795000I-20000J0D01*
G01*
X21680000Y-8995000D02*
G75*
G03*
X21680000Y-8995000I-20000J0D01*
G01*
X21680000Y-9195000D02*
G75*
G03*
X21680000Y-9195000I-20000J0D01*
G01*
X21680000Y-9395000D02*
G75*
G03*
X21680000Y-9395000I-20000J0D01*
G01*
X21680000Y-9495000D02*
G75*
G03*
X21680000Y-9495000I-20000J0D01*
G01*
X21680000Y-9580000D02*
G75*
G03*
X21680000Y-9580000I-20000J0D01*
G01*
X21680000Y-9920000D02*
G75*
G03*
X21680000Y-9920000I-20000J0D01*
G01*
X21680000Y-10025000D02*
G75*
G03*
X21680000Y-10025000I-20000J0D01*
G01*
X21680000Y-10225000D02*
G75*
G03*
X21680000Y-10225000I-20000J0D01*
G01*
X21680000Y-10425000D02*
G75*
G03*
X21680000Y-10425000I-20000J0D01*
G01*
X21680000Y-10625000D02*
G75*
G03*
X21680000Y-10625000I-20000J0D01*
G01*
X21680000Y-10825000D02*
G75*
G03*
X21680000Y-10825000I-20000J0D01*
G01*
X21680000Y-11025000D02*
G75*
G03*
X21680000Y-11025000I-20000J0D01*
G01*
X21680000Y-11225000D02*
G75*
G03*
X21680000Y-11225000I-20000J0D01*
G01*
X21680000Y-11425000D02*
G75*
G03*
X21680000Y-11425000I-20000J0D01*
G01*
X21680000Y-11625000D02*
G75*
G03*
X21680000Y-11625000I-20000J0D01*
G01*
X21680000Y-11825000D02*
G75*
G03*
X21680000Y-11825000I-20000J0D01*
G01*
X21680000Y-12025000D02*
G75*
G03*
X21680000Y-12025000I-20000J0D01*
G01*
X12587728Y-8360368D02*
X12587728Y-8440368D01*
X12547728Y-8400368D02*
X12627728Y-8400368D01*
X12588000Y-10900000D02*
X12588000Y-10980000D01*
X12548000Y-10940000D02*
X12628000Y-10940000D01*
X12841728Y-8360368D02*
X12841728Y-8440368D01*
X12801728Y-8400368D02*
X12881728Y-8400368D01*
X12842000Y-10900000D02*
X12842000Y-10980000D01*
X12802000Y-10940000D02*
X12882000Y-10940000D01*
X13095728Y-8360368D02*
X13095728Y-8440368D01*
X13055728Y-8400368D02*
X13135728Y-8400368D01*
X13095728Y-10900368D02*
X13095728Y-10980368D01*
X13055728Y-10940368D02*
X13135728Y-10940368D01*
X13349728Y-8360368D02*
X13349728Y-8440368D01*
X13309728Y-8400368D02*
X13389728Y-8400368D01*
X13349728Y-10900368D02*
X13349728Y-10980368D01*
X13309728Y-10940368D02*
X13389728Y-10940368D01*
X13603728Y-8360368D02*
X13603728Y-8440368D01*
X13563728Y-8400368D02*
X13643728Y-8400368D01*
X13603728Y-10900368D02*
X13603728Y-10980368D01*
X13563728Y-10940368D02*
X13643728Y-10940368D01*
X13857728Y-8360368D02*
X13857728Y-8440368D01*
X13817728Y-8400368D02*
X13897728Y-8400368D01*
X13857728Y-10900368D02*
X13857728Y-10980368D01*
X13817728Y-10940368D02*
X13897728Y-10940368D01*
X14111728Y-8360368D02*
X14111728Y-8440368D01*
X14071728Y-8400368D02*
X14151728Y-8400368D01*
X14111728Y-10900368D02*
X14111728Y-10980368D01*
X14071728Y-10940368D02*
X14151728Y-10940368D01*
X14365728Y-8360368D02*
X14365728Y-8440368D01*
X14325728Y-8400368D02*
X14405728Y-8400368D01*
X14365728Y-10900368D02*
X14365728Y-10980368D01*
X14325728Y-10940368D02*
X14405728Y-10940368D01*
X14619728Y-8360368D02*
X14619728Y-8440368D01*
X14579728Y-8400368D02*
X14659728Y-8400368D01*
X14619728Y-10900368D02*
X14619728Y-10980368D01*
X14579728Y-10940368D02*
X14659728Y-10940368D01*
X14873728Y-8360368D02*
X14873728Y-8440368D01*
X14833728Y-8400368D02*
X14913728Y-8400368D01*
X14873728Y-10900368D02*
X14873728Y-10980368D01*
X14833728Y-10940368D02*
X14913728Y-10940368D01*
X15127728Y-8360368D02*
X15127728Y-8440368D01*
X15087728Y-8400368D02*
X15167728Y-8400368D01*
X15127728Y-10900368D02*
X15127728Y-10980368D01*
X15087728Y-10940368D02*
X15167728Y-10940368D01*
X15381728Y-8360368D02*
X15381728Y-8440368D01*
X15341728Y-8400368D02*
X15421728Y-8400368D01*
X15381728Y-10900368D02*
X15381728Y-10980368D01*
X15341728Y-10940368D02*
X15421728Y-10940368D01*
X15635728Y-8360368D02*
X15635728Y-8440368D01*
X15595728Y-8400368D02*
X15675728Y-8400368D01*
X15635728Y-10900368D02*
X15635728Y-10980368D01*
X15595728Y-10940368D02*
X15675728Y-10940368D01*
X15889728Y-8360368D02*
X15889728Y-8440368D01*
X15849728Y-8400368D02*
X15929728Y-8400368D01*
X15889728Y-10900368D02*
X15889728Y-10980368D01*
X15849728Y-10940368D02*
X15929728Y-10940368D01*
X16143728Y-8360368D02*
X16143728Y-8440368D01*
X16103728Y-8400368D02*
X16183728Y-8400368D01*
X16143728Y-10900368D02*
X16143728Y-10980368D01*
X16103728Y-10940368D02*
X16183728Y-10940368D01*
X16397728Y-8360368D02*
X16397728Y-8440368D01*
X16357728Y-8400368D02*
X16437728Y-8400368D01*
X16397728Y-10900368D02*
X16397728Y-10980368D01*
X16357728Y-10940368D02*
X16437728Y-10940368D01*
X16651728Y-8360368D02*
X16651728Y-8440368D01*
X16611728Y-8400368D02*
X16691728Y-8400368D01*
X16651728Y-10900368D02*
X16651728Y-10980368D01*
X16611728Y-10940368D02*
X16691728Y-10940368D01*
X16905728Y-8360368D02*
X16905728Y-8440368D01*
X16865728Y-8400368D02*
X16945728Y-8400368D01*
X16905728Y-10900368D02*
X16905728Y-10980368D01*
X16865728Y-10940368D02*
X16945728Y-10940368D01*
X17159728Y-8360368D02*
X17159728Y-8440368D01*
X17119728Y-8400368D02*
X17199728Y-8400368D01*
X17159728Y-10900368D02*
X17159728Y-10980368D01*
X17119728Y-10940368D02*
X17199728Y-10940368D01*
X14179356Y-7555356D02*
X14179356Y-7484644D01*
X14108644Y-7484644D01*
X14108644Y-7555356D01*
X14179356Y-7555356D01*
X14179356Y-7809356D02*
X14179356Y-7738644D01*
X14108644Y-7738644D01*
X14108644Y-7809356D01*
X14179356Y-7809356D01*
X14433356Y-7555356D02*
X14433356Y-7484644D01*
X14362644Y-7484644D01*
X14362644Y-7555356D01*
X14433356Y-7555356D01*
X14433356Y-7809356D02*
X14433356Y-7738644D01*
X14362644Y-7738644D01*
X14362644Y-7809356D01*
X14433356Y-7809356D01*
X14517356Y-11945356D02*
X14517356Y-11874644D01*
X14446644Y-11874644D01*
X14446644Y-11945356D01*
X14517356Y-11945356D01*
X14687356Y-7555356D02*
X14687356Y-7484644D01*
X14616644Y-7484644D01*
X14616644Y-7555356D01*
X14687356Y-7555356D01*
X14687356Y-7809356D02*
X14687356Y-7738644D01*
X14616644Y-7738644D01*
X14616644Y-7809356D01*
X14687356Y-7809356D01*
X14771356Y-11945356D02*
X14771356Y-11874644D01*
X14700644Y-11874644D01*
X14700644Y-11945356D01*
X14771356Y-11945356D01*
X14941356Y-7555356D02*
X14941356Y-7484644D01*
X14870644Y-7484644D01*
X14870644Y-7555356D01*
X14941356Y-7555356D01*
X14941356Y-7809356D02*
X14941356Y-7738644D01*
X14870644Y-7738644D01*
X14870644Y-7809356D01*
X14941356Y-7809356D01*
X15025356Y-11945356D02*
X15025356Y-11874644D01*
X14954644Y-11874644D01*
X14954644Y-11945356D01*
X15025356Y-11945356D01*
X15195356Y-7555356D02*
X15195356Y-7484644D01*
X15124644Y-7484644D01*
X15124644Y-7555356D01*
X15195356Y-7555356D01*
X15195356Y-7809356D02*
X15195356Y-7738644D01*
X15124644Y-7738644D01*
X15124644Y-7809356D01*
X15195356Y-7809356D01*
X15279356Y-11945356D02*
X15279356Y-11874644D01*
X15208644Y-11874644D01*
X15208644Y-11945356D01*
X15279356Y-11945356D01*
X15533356Y-11945356D02*
X15533356Y-11874644D01*
X15462644Y-11874644D01*
X15462644Y-11945356D01*
X15533356Y-11945356D01*
X16681356Y-7555356D02*
X16681356Y-7484644D01*
X16610644Y-7484644D01*
X16610644Y-7555356D01*
X16681356Y-7555356D01*
X16935356Y-7555356D02*
X16935356Y-7484644D01*
X16864644Y-7484644D01*
X16864644Y-7555356D01*
X16935356Y-7555356D01*
X20535356Y-10414356D02*
X20535356Y-10343644D01*
X20464644Y-10343644D01*
X20464644Y-10414356D01*
X20535356Y-10414356D01*
X20535356Y-10668356D02*
X20535356Y-10597644D01*
X20464644Y-10597644D01*
X20464644Y-10668356D01*
X20535356Y-10668356D01*
X20535356Y-10922356D02*
X20535356Y-10851644D01*
X20464644Y-10851644D01*
X20464644Y-10922356D01*
X20535356Y-10922356D01*
X20535356Y-11176356D02*
X20535356Y-11105644D01*
X20464644Y-11105644D01*
X20464644Y-11176356D01*
X20535356Y-11176356D01*
D12*
X12683928Y-12668214D02*
X12683928Y-12368214D01*
X12755357Y-12368214D01*
X12798214Y-12382500D01*
X12826786Y-12411071D01*
X12841071Y-12439643D01*
X12855357Y-12496786D01*
X12855357Y-12539643D01*
X12841071Y-12596786D01*
X12826786Y-12625357D01*
X12798214Y-12653929D01*
X12755357Y-12668214D01*
X12683928Y-12668214D01*
X12983928Y-12668214D02*
X12983928Y-12468214D01*
X12983928Y-12525357D02*
X12998214Y-12496786D01*
X13012500Y-12482500D01*
X13041071Y-12468214D01*
X13069643Y-12468214D01*
X13169643Y-12668214D02*
X13169643Y-12468214D01*
X13169643Y-12368214D02*
X13155357Y-12382500D01*
X13169643Y-12396786D01*
X13183928Y-12382500D01*
X13169643Y-12368214D01*
X13169643Y-12396786D01*
X13355357Y-12668214D02*
X13326786Y-12653929D01*
X13312500Y-12625357D01*
X13312500Y-12368214D01*
X13512500Y-12668214D02*
X13483928Y-12653929D01*
X13469643Y-12625357D01*
X13469643Y-12368214D01*
X13855357Y-12668214D02*
X13855357Y-12368214D01*
X13955357Y-12582500D01*
X14055357Y-12368214D01*
X14055357Y-12668214D01*
X14326786Y-12668214D02*
X14326786Y-12511071D01*
X14312500Y-12482500D01*
X14283928Y-12468214D01*
X14226786Y-12468214D01*
X14198214Y-12482500D01*
X14326786Y-12653929D02*
X14298214Y-12668214D01*
X14226786Y-12668214D01*
X14198214Y-12653929D01*
X14183928Y-12625357D01*
X14183928Y-12596786D01*
X14198214Y-12568214D01*
X14226786Y-12553929D01*
X14298214Y-12553929D01*
X14326786Y-12539643D01*
X14469643Y-12468214D02*
X14469643Y-12768214D01*
X14469643Y-12482500D02*
X14498214Y-12468214D01*
X14555357Y-12468214D01*
X14583928Y-12482500D01*
X14598214Y-12496786D01*
X14612500Y-12525357D01*
X14612500Y-12611071D01*
X14598214Y-12639643D01*
X14583928Y-12653929D01*
X14555357Y-12668214D01*
X14498214Y-12668214D01*
X14469643Y-12653929D01*
X14741071Y-12639643D02*
X14755357Y-12653929D01*
X14741071Y-12668214D01*
X14726786Y-12653929D01*
X14741071Y-12639643D01*
X14741071Y-12668214D01*
X14741071Y-12482500D02*
X14755357Y-12496786D01*
X14741071Y-12511071D01*
X14726786Y-12496786D01*
X14741071Y-12482500D01*
X14741071Y-12511071D01*
X12367500Y-13147500D02*
X12397500Y-13177500D01*
X12397500Y-13147500D02*
X12367500Y-13177500D01*
X12741071Y-12998214D02*
X12769643Y-12998214D01*
X12798214Y-13012500D01*
X12812500Y-13026786D01*
X12826786Y-13055357D01*
X12841071Y-13112500D01*
X12841071Y-13183929D01*
X12826786Y-13241071D01*
X12812500Y-13269643D01*
X12798214Y-13283929D01*
X12769643Y-13298214D01*
X12741071Y-13298214D01*
X12712500Y-13283929D01*
X12698214Y-13269643D01*
X12683928Y-13241071D01*
X12669643Y-13183929D01*
X12669643Y-13112500D01*
X12683928Y-13055357D01*
X12698214Y-13026786D01*
X12712500Y-13012500D01*
X12741071Y-12998214D01*
X12969643Y-13269643D02*
X12983928Y-13283929D01*
X12969643Y-13298214D01*
X12955357Y-13283929D01*
X12969643Y-13269643D01*
X12969643Y-13298214D01*
X13083928Y-12998214D02*
X13269643Y-12998214D01*
X13169643Y-13112500D01*
X13212500Y-13112500D01*
X13241071Y-13126786D01*
X13255357Y-13141071D01*
X13269643Y-13169643D01*
X13269643Y-13241071D01*
X13255357Y-13269643D01*
X13241071Y-13283929D01*
X13212500Y-13298214D01*
X13126786Y-13298214D01*
X13098214Y-13283929D01*
X13083928Y-13269643D01*
X13455357Y-12998214D02*
X13483928Y-12998214D01*
X13512500Y-13012500D01*
X13526786Y-13026786D01*
X13541071Y-13055357D01*
X13555357Y-13112500D01*
X13555357Y-13183929D01*
X13541071Y-13241071D01*
X13526786Y-13269643D01*
X13512500Y-13283929D01*
X13483928Y-13298214D01*
X13455357Y-13298214D01*
X13426786Y-13283929D01*
X13412500Y-13269643D01*
X13398214Y-13241071D01*
X13383928Y-13183929D01*
X13383928Y-13112500D01*
X13398214Y-13055357D01*
X13412500Y-13026786D01*
X13426786Y-13012500D01*
X13455357Y-12998214D01*
X13741071Y-12998214D02*
X13769643Y-12998214D01*
X13798214Y-13012500D01*
X13812500Y-13026786D01*
X13826786Y-13055357D01*
X13841071Y-13112500D01*
X13841071Y-13183929D01*
X13826786Y-13241071D01*
X13812500Y-13269643D01*
X13798214Y-13283929D01*
X13769643Y-13298214D01*
X13741071Y-13298214D01*
X13712500Y-13283929D01*
X13698214Y-13269643D01*
X13683928Y-13241071D01*
X13669643Y-13183929D01*
X13669643Y-13112500D01*
X13683928Y-13055357D01*
X13698214Y-13026786D01*
X13712500Y-13012500D01*
X13741071Y-12998214D01*
X13969643Y-13298214D02*
X13969643Y-13098214D01*
X13969643Y-13126786D02*
X13983928Y-13112500D01*
X14012500Y-13098214D01*
X14055357Y-13098214D01*
X14083928Y-13112500D01*
X14098214Y-13141071D01*
X14098214Y-13298214D01*
X14098214Y-13141071D02*
X14112500Y-13112500D01*
X14141071Y-13098214D01*
X14183928Y-13098214D01*
X14212500Y-13112500D01*
X14226786Y-13141071D01*
X14226786Y-13298214D01*
X14369643Y-13298214D02*
X14369643Y-13098214D01*
X14369643Y-13126786D02*
X14383928Y-13112500D01*
X14412500Y-13098214D01*
X14455357Y-13098214D01*
X14483928Y-13112500D01*
X14498214Y-13141071D01*
X14498214Y-13298214D01*
X14498214Y-13141071D02*
X14512500Y-13112500D01*
X14541071Y-13098214D01*
X14583928Y-13098214D01*
X14612500Y-13112500D01*
X14626786Y-13141071D01*
X14626786Y-13298214D01*
X15212500Y-12983929D02*
X14955357Y-13369643D01*
X15598214Y-12998214D02*
X15626786Y-12998214D01*
X15655357Y-13012500D01*
X15669643Y-13026786D01*
X15683928Y-13055357D01*
X15698214Y-13112500D01*
X15698214Y-13183929D01*
X15683928Y-13241071D01*
X15669643Y-13269643D01*
X15655357Y-13283929D01*
X15626786Y-13298214D01*
X15598214Y-13298214D01*
X15569643Y-13283929D01*
X15555357Y-13269643D01*
X15541071Y-13241071D01*
X15526786Y-13183929D01*
X15526786Y-13112500D01*
X15541071Y-13055357D01*
X15555357Y-13026786D01*
X15569643Y-13012500D01*
X15598214Y-12998214D01*
X15826786Y-13269643D02*
X15841071Y-13283929D01*
X15826786Y-13298214D01*
X15812500Y-13283929D01*
X15826786Y-13269643D01*
X15826786Y-13298214D01*
X16026786Y-12998214D02*
X16055357Y-12998214D01*
X16083928Y-13012500D01*
X16098214Y-13026786D01*
X16112500Y-13055357D01*
X16126786Y-13112500D01*
X16126786Y-13183929D01*
X16112500Y-13241071D01*
X16098214Y-13269643D01*
X16083928Y-13283929D01*
X16055357Y-13298214D01*
X16026786Y-13298214D01*
X15998214Y-13283929D01*
X15983928Y-13269643D01*
X15969643Y-13241071D01*
X15955357Y-13183929D01*
X15955357Y-13112500D01*
X15969643Y-13055357D01*
X15983928Y-13026786D01*
X15998214Y-13012500D01*
X16026786Y-12998214D01*
X16412500Y-13298214D02*
X16241071Y-13298214D01*
X16326786Y-13298214D02*
X16326786Y-12998214D01*
X16298214Y-13041071D01*
X16269643Y-13069643D01*
X16241071Y-13083929D01*
X16698214Y-13298214D02*
X16526786Y-13298214D01*
X16612500Y-13298214D02*
X16612500Y-12998214D01*
X16583928Y-13041071D01*
X16555357Y-13069643D01*
X16526786Y-13083929D01*
X16869643Y-13126786D02*
X16841071Y-13112500D01*
X16826786Y-13098214D01*
X16812500Y-13069643D01*
X16812500Y-13055357D01*
X16826786Y-13026786D01*
X16841071Y-13012500D01*
X16869643Y-12998214D01*
X16926786Y-12998214D01*
X16955357Y-13012500D01*
X16969643Y-13026786D01*
X16983928Y-13055357D01*
X16983928Y-13069643D01*
X16969643Y-13098214D01*
X16955357Y-13112500D01*
X16926786Y-13126786D01*
X16869643Y-13126786D01*
X16841071Y-13141071D01*
X16826786Y-13155357D01*
X16812500Y-13183929D01*
X16812500Y-13241071D01*
X16826786Y-13269643D01*
X16841071Y-13283929D01*
X16869643Y-13298214D01*
X16926786Y-13298214D01*
X16955357Y-13283929D01*
X16969643Y-13269643D01*
X16983928Y-13241071D01*
X16983928Y-13183929D01*
X16969643Y-13155357D01*
X16955357Y-13141071D01*
X16926786Y-13126786D01*
X17098214Y-12998214D02*
X17098214Y-13055357D01*
X17212500Y-12998214D02*
X17212500Y-13055357D01*
X17655357Y-13412500D02*
X17641071Y-13398214D01*
X17612500Y-13355357D01*
X17598214Y-13326786D01*
X17583928Y-13283929D01*
X17569643Y-13212500D01*
X17569643Y-13155357D01*
X17583928Y-13083929D01*
X17598214Y-13041071D01*
X17612500Y-13012500D01*
X17641071Y-12969643D01*
X17655357Y-12955357D01*
X17741071Y-12998214D02*
X17941071Y-12998214D01*
X17812500Y-13298214D01*
X18183928Y-13098214D02*
X18183928Y-13298214D01*
X18112500Y-12983929D02*
X18041071Y-13198214D01*
X18226786Y-13198214D01*
X18569643Y-13298214D02*
X18569643Y-12998214D01*
X18698214Y-13298214D02*
X18698214Y-13141071D01*
X18683928Y-13112500D01*
X18655357Y-13098214D01*
X18612500Y-13098214D01*
X18583928Y-13112500D01*
X18569643Y-13126786D01*
X18883928Y-13298214D02*
X18855357Y-13283929D01*
X18841071Y-13269643D01*
X18826786Y-13241071D01*
X18826786Y-13155357D01*
X18841071Y-13126786D01*
X18855357Y-13112500D01*
X18883928Y-13098214D01*
X18926786Y-13098214D01*
X18955357Y-13112500D01*
X18969643Y-13126786D01*
X18983928Y-13155357D01*
X18983928Y-13241071D01*
X18969643Y-13269643D01*
X18955357Y-13283929D01*
X18926786Y-13298214D01*
X18883928Y-13298214D01*
X19155357Y-13298214D02*
X19126786Y-13283929D01*
X19112500Y-13255357D01*
X19112500Y-12998214D01*
X19383928Y-13283929D02*
X19355357Y-13298214D01*
X19298214Y-13298214D01*
X19269643Y-13283929D01*
X19255357Y-13255357D01*
X19255357Y-13141071D01*
X19269643Y-13112500D01*
X19298214Y-13098214D01*
X19355357Y-13098214D01*
X19383928Y-13112500D01*
X19398214Y-13141071D01*
X19398214Y-13169643D01*
X19255357Y-13198214D01*
X19512500Y-13283929D02*
X19541071Y-13298214D01*
X19598214Y-13298214D01*
X19626786Y-13283929D01*
X19641071Y-13255357D01*
X19641071Y-13241071D01*
X19626786Y-13212500D01*
X19598214Y-13198214D01*
X19555357Y-13198214D01*
X19526786Y-13183929D01*
X19512500Y-13155357D01*
X19512500Y-13141071D01*
X19526786Y-13112500D01*
X19555357Y-13098214D01*
X19598214Y-13098214D01*
X19626786Y-13112500D01*
X19741071Y-13412500D02*
X19755357Y-13398214D01*
X19783928Y-13355357D01*
X19798214Y-13326786D01*
X19812500Y-13283929D01*
X19826786Y-13212500D01*
X19826786Y-13155357D01*
X19812500Y-13083929D01*
X19798214Y-13041071D01*
X19783928Y-13012500D01*
X19755357Y-12969643D01*
X19741071Y-12955357D01*
X12397500Y-13558500D02*
G75*
G03*
X12397500Y-13558500I-20000J0D01*
G01*
X12741071Y-13394214D02*
X12769643Y-13394214D01*
X12798214Y-13408500D01*
X12812500Y-13422786D01*
X12826786Y-13451357D01*
X12841071Y-13508500D01*
X12841071Y-13579929D01*
X12826786Y-13637071D01*
X12812500Y-13665643D01*
X12798214Y-13679929D01*
X12769643Y-13694214D01*
X12741071Y-13694214D01*
X12712500Y-13679929D01*
X12698214Y-13665643D01*
X12683928Y-13637071D01*
X12669643Y-13579929D01*
X12669643Y-13508500D01*
X12683928Y-13451357D01*
X12698214Y-13422786D01*
X12712500Y-13408500D01*
X12741071Y-13394214D01*
X12969643Y-13665643D02*
X12983928Y-13679929D01*
X12969643Y-13694214D01*
X12955357Y-13679929D01*
X12969643Y-13665643D01*
X12969643Y-13694214D01*
X13241071Y-13494214D02*
X13241071Y-13694214D01*
X13169643Y-13379929D02*
X13098214Y-13594214D01*
X13283928Y-13594214D01*
X13455357Y-13394214D02*
X13483928Y-13394214D01*
X13512500Y-13408500D01*
X13526786Y-13422786D01*
X13541071Y-13451357D01*
X13555357Y-13508500D01*
X13555357Y-13579929D01*
X13541071Y-13637071D01*
X13526786Y-13665643D01*
X13512500Y-13679929D01*
X13483928Y-13694214D01*
X13455357Y-13694214D01*
X13426786Y-13679929D01*
X13412500Y-13665643D01*
X13398214Y-13637071D01*
X13383928Y-13579929D01*
X13383928Y-13508500D01*
X13398214Y-13451357D01*
X13412500Y-13422786D01*
X13426786Y-13408500D01*
X13455357Y-13394214D01*
X13741071Y-13394214D02*
X13769643Y-13394214D01*
X13798214Y-13408500D01*
X13812500Y-13422786D01*
X13826786Y-13451357D01*
X13841071Y-13508500D01*
X13841071Y-13579929D01*
X13826786Y-13637071D01*
X13812500Y-13665643D01*
X13798214Y-13679929D01*
X13769643Y-13694214D01*
X13741071Y-13694214D01*
X13712500Y-13679929D01*
X13698214Y-13665643D01*
X13683928Y-13637071D01*
X13669643Y-13579929D01*
X13669643Y-13508500D01*
X13683928Y-13451357D01*
X13698214Y-13422786D01*
X13712500Y-13408500D01*
X13741071Y-13394214D01*
X13969643Y-13694214D02*
X13969643Y-13494214D01*
X13969643Y-13522786D02*
X13983928Y-13508500D01*
X14012500Y-13494214D01*
X14055357Y-13494214D01*
X14083928Y-13508500D01*
X14098214Y-13537071D01*
X14098214Y-13694214D01*
X14098214Y-13537071D02*
X14112500Y-13508500D01*
X14141071Y-13494214D01*
X14183928Y-13494214D01*
X14212500Y-13508500D01*
X14226786Y-13537071D01*
X14226786Y-13694214D01*
X14369643Y-13694214D02*
X14369643Y-13494214D01*
X14369643Y-13522786D02*
X14383928Y-13508500D01*
X14412500Y-13494214D01*
X14455357Y-13494214D01*
X14483928Y-13508500D01*
X14498214Y-13537071D01*
X14498214Y-13694214D01*
X14498214Y-13537071D02*
X14512500Y-13508500D01*
X14541071Y-13494214D01*
X14583928Y-13494214D01*
X14612500Y-13508500D01*
X14626786Y-13537071D01*
X14626786Y-13694214D01*
X15212500Y-13379929D02*
X14955357Y-13765643D01*
X15598214Y-13394214D02*
X15626786Y-13394214D01*
X15655357Y-13408500D01*
X15669643Y-13422786D01*
X15683928Y-13451357D01*
X15698214Y-13508500D01*
X15698214Y-13579929D01*
X15683928Y-13637071D01*
X15669643Y-13665643D01*
X15655357Y-13679929D01*
X15626786Y-13694214D01*
X15598214Y-13694214D01*
X15569643Y-13679929D01*
X15555357Y-13665643D01*
X15541071Y-13637071D01*
X15526786Y-13579929D01*
X15526786Y-13508500D01*
X15541071Y-13451357D01*
X15555357Y-13422786D01*
X15569643Y-13408500D01*
X15598214Y-13394214D01*
X15826786Y-13665643D02*
X15841071Y-13679929D01*
X15826786Y-13694214D01*
X15812500Y-13679929D01*
X15826786Y-13665643D01*
X15826786Y-13694214D01*
X16026786Y-13394214D02*
X16055357Y-13394214D01*
X16083928Y-13408500D01*
X16098214Y-13422786D01*
X16112500Y-13451357D01*
X16126786Y-13508500D01*
X16126786Y-13579929D01*
X16112500Y-13637071D01*
X16098214Y-13665643D01*
X16083928Y-13679929D01*
X16055357Y-13694214D01*
X16026786Y-13694214D01*
X15998214Y-13679929D01*
X15983928Y-13665643D01*
X15969643Y-13637071D01*
X15955357Y-13579929D01*
X15955357Y-13508500D01*
X15969643Y-13451357D01*
X15983928Y-13422786D01*
X15998214Y-13408500D01*
X16026786Y-13394214D01*
X16412500Y-13694214D02*
X16241071Y-13694214D01*
X16326786Y-13694214D02*
X16326786Y-13394214D01*
X16298214Y-13437071D01*
X16269643Y-13465643D01*
X16241071Y-13479929D01*
X16683928Y-13394214D02*
X16541071Y-13394214D01*
X16526786Y-13537071D01*
X16541071Y-13522786D01*
X16569643Y-13508500D01*
X16641071Y-13508500D01*
X16669643Y-13522786D01*
X16683928Y-13537071D01*
X16698214Y-13565643D01*
X16698214Y-13637071D01*
X16683928Y-13665643D01*
X16669643Y-13679929D01*
X16641071Y-13694214D01*
X16569643Y-13694214D01*
X16541071Y-13679929D01*
X16526786Y-13665643D01*
X16798214Y-13394214D02*
X16998214Y-13394214D01*
X16869643Y-13694214D01*
X17098214Y-13394214D02*
X17098214Y-13451357D01*
X17212500Y-13394214D02*
X17212500Y-13451357D01*
X17655357Y-13808500D02*
X17641071Y-13794214D01*
X17612500Y-13751357D01*
X17598214Y-13722786D01*
X17583928Y-13679929D01*
X17569643Y-13608500D01*
X17569643Y-13551357D01*
X17583928Y-13479929D01*
X17598214Y-13437071D01*
X17612500Y-13408500D01*
X17641071Y-13365643D01*
X17655357Y-13351357D01*
X17926786Y-13694214D02*
X17755357Y-13694214D01*
X17841071Y-13694214D02*
X17841071Y-13394214D01*
X17812500Y-13437071D01*
X17783928Y-13465643D01*
X17755357Y-13479929D01*
X18112500Y-13394214D02*
X18141071Y-13394214D01*
X18169643Y-13408500D01*
X18183928Y-13422786D01*
X18198214Y-13451357D01*
X18212500Y-13508500D01*
X18212500Y-13579929D01*
X18198214Y-13637071D01*
X18183928Y-13665643D01*
X18169643Y-13679929D01*
X18141071Y-13694214D01*
X18112500Y-13694214D01*
X18083928Y-13679929D01*
X18069643Y-13665643D01*
X18055357Y-13637071D01*
X18041071Y-13579929D01*
X18041071Y-13508500D01*
X18055357Y-13451357D01*
X18069643Y-13422786D01*
X18083928Y-13408500D01*
X18112500Y-13394214D01*
X18355357Y-13694214D02*
X18412500Y-13694214D01*
X18441071Y-13679929D01*
X18455357Y-13665643D01*
X18483928Y-13622786D01*
X18498214Y-13565643D01*
X18498214Y-13451357D01*
X18483928Y-13422786D01*
X18469643Y-13408500D01*
X18441071Y-13394214D01*
X18383928Y-13394214D01*
X18355357Y-13408500D01*
X18341071Y-13422786D01*
X18326786Y-13451357D01*
X18326786Y-13522786D01*
X18341071Y-13551357D01*
X18355357Y-13565643D01*
X18383928Y-13579929D01*
X18441071Y-13579929D01*
X18469643Y-13565643D01*
X18483928Y-13551357D01*
X18498214Y-13522786D01*
X18855357Y-13694214D02*
X18855357Y-13394214D01*
X18983928Y-13694214D02*
X18983928Y-13537071D01*
X18969643Y-13508500D01*
X18941071Y-13494214D01*
X18898214Y-13494214D01*
X18869643Y-13508500D01*
X18855357Y-13522786D01*
X19169643Y-13694214D02*
X19141071Y-13679929D01*
X19126786Y-13665643D01*
X19112500Y-13637071D01*
X19112500Y-13551357D01*
X19126786Y-13522786D01*
X19141071Y-13508500D01*
X19169643Y-13494214D01*
X19212500Y-13494214D01*
X19241071Y-13508500D01*
X19255357Y-13522786D01*
X19269643Y-13551357D01*
X19269643Y-13637071D01*
X19255357Y-13665643D01*
X19241071Y-13679929D01*
X19212500Y-13694214D01*
X19169643Y-13694214D01*
X19441071Y-13694214D02*
X19412500Y-13679929D01*
X19398214Y-13651357D01*
X19398214Y-13394214D01*
X19669643Y-13679929D02*
X19641071Y-13694214D01*
X19583928Y-13694214D01*
X19555357Y-13679929D01*
X19541071Y-13651357D01*
X19541071Y-13537071D01*
X19555357Y-13508500D01*
X19583928Y-13494214D01*
X19641071Y-13494214D01*
X19669643Y-13508500D01*
X19683928Y-13537071D01*
X19683928Y-13565643D01*
X19541071Y-13594214D01*
X19798214Y-13679929D02*
X19826786Y-13694214D01*
X19883928Y-13694214D01*
X19912500Y-13679929D01*
X19926786Y-13651357D01*
X19926786Y-13637071D01*
X19912500Y-13608500D01*
X19883928Y-13594214D01*
X19841071Y-13594214D01*
X19812500Y-13579929D01*
X19798214Y-13551357D01*
X19798214Y-13537071D01*
X19812500Y-13508500D01*
X19841071Y-13494214D01*
X19883928Y-13494214D01*
X19912500Y-13508500D01*
X20026786Y-13808500D02*
X20041071Y-13794214D01*
X20069643Y-13751357D01*
X20083928Y-13722786D01*
X20098214Y-13679929D01*
X20112500Y-13608500D01*
X20112500Y-13551357D01*
X20098214Y-13479929D01*
X20083928Y-13437071D01*
X20069643Y-13408500D01*
X20041071Y-13365643D01*
X20026786Y-13351357D01*
X12357500Y-13914500D02*
X12357500Y-13994500D01*
X12317500Y-13954500D02*
X12397500Y-13954500D01*
X12741071Y-13790214D02*
X12769643Y-13790214D01*
X12798214Y-13804500D01*
X12812500Y-13818786D01*
X12826786Y-13847357D01*
X12841071Y-13904500D01*
X12841071Y-13975929D01*
X12826786Y-14033071D01*
X12812500Y-14061643D01*
X12798214Y-14075929D01*
X12769643Y-14090214D01*
X12741071Y-14090214D01*
X12712500Y-14075929D01*
X12698214Y-14061643D01*
X12683928Y-14033071D01*
X12669643Y-13975929D01*
X12669643Y-13904500D01*
X12683928Y-13847357D01*
X12698214Y-13818786D01*
X12712500Y-13804500D01*
X12741071Y-13790214D01*
X12969643Y-14061643D02*
X12983928Y-14075929D01*
X12969643Y-14090214D01*
X12955357Y-14075929D01*
X12969643Y-14061643D01*
X12969643Y-14090214D01*
X13155357Y-13918786D02*
X13126786Y-13904500D01*
X13112500Y-13890214D01*
X13098214Y-13861643D01*
X13098214Y-13847357D01*
X13112500Y-13818786D01*
X13126786Y-13804500D01*
X13155357Y-13790214D01*
X13212500Y-13790214D01*
X13241071Y-13804500D01*
X13255357Y-13818786D01*
X13269643Y-13847357D01*
X13269643Y-13861643D01*
X13255357Y-13890214D01*
X13241071Y-13904500D01*
X13212500Y-13918786D01*
X13155357Y-13918786D01*
X13126786Y-13933071D01*
X13112500Y-13947357D01*
X13098214Y-13975929D01*
X13098214Y-14033071D01*
X13112500Y-14061643D01*
X13126786Y-14075929D01*
X13155357Y-14090214D01*
X13212500Y-14090214D01*
X13241071Y-14075929D01*
X13255357Y-14061643D01*
X13269643Y-14033071D01*
X13269643Y-13975929D01*
X13255357Y-13947357D01*
X13241071Y-13933071D01*
X13212500Y-13918786D01*
X13455357Y-13790214D02*
X13483928Y-13790214D01*
X13512500Y-13804500D01*
X13526786Y-13818786D01*
X13541071Y-13847357D01*
X13555357Y-13904500D01*
X13555357Y-13975929D01*
X13541071Y-14033071D01*
X13526786Y-14061643D01*
X13512500Y-14075929D01*
X13483928Y-14090214D01*
X13455357Y-14090214D01*
X13426786Y-14075929D01*
X13412500Y-14061643D01*
X13398214Y-14033071D01*
X13383928Y-13975929D01*
X13383928Y-13904500D01*
X13398214Y-13847357D01*
X13412500Y-13818786D01*
X13426786Y-13804500D01*
X13455357Y-13790214D01*
X13741071Y-13790214D02*
X13769643Y-13790214D01*
X13798214Y-13804500D01*
X13812500Y-13818786D01*
X13826786Y-13847357D01*
X13841071Y-13904500D01*
X13841071Y-13975929D01*
X13826786Y-14033071D01*
X13812500Y-14061643D01*
X13798214Y-14075929D01*
X13769643Y-14090214D01*
X13741071Y-14090214D01*
X13712500Y-14075929D01*
X13698214Y-14061643D01*
X13683928Y-14033071D01*
X13669643Y-13975929D01*
X13669643Y-13904500D01*
X13683928Y-13847357D01*
X13698214Y-13818786D01*
X13712500Y-13804500D01*
X13741071Y-13790214D01*
X13969643Y-14090214D02*
X13969643Y-13890214D01*
X13969643Y-13918786D02*
X13983928Y-13904500D01*
X14012500Y-13890214D01*
X14055357Y-13890214D01*
X14083928Y-13904500D01*
X14098214Y-13933071D01*
X14098214Y-14090214D01*
X14098214Y-13933071D02*
X14112500Y-13904500D01*
X14141071Y-13890214D01*
X14183928Y-13890214D01*
X14212500Y-13904500D01*
X14226786Y-13933071D01*
X14226786Y-14090214D01*
X14369643Y-14090214D02*
X14369643Y-13890214D01*
X14369643Y-13918786D02*
X14383928Y-13904500D01*
X14412500Y-13890214D01*
X14455357Y-13890214D01*
X14483928Y-13904500D01*
X14498214Y-13933071D01*
X14498214Y-14090214D01*
X14498214Y-13933071D02*
X14512500Y-13904500D01*
X14541071Y-13890214D01*
X14583928Y-13890214D01*
X14612500Y-13904500D01*
X14626786Y-13933071D01*
X14626786Y-14090214D01*
X15212500Y-13775929D02*
X14955357Y-14161643D01*
X15598214Y-13790214D02*
X15626786Y-13790214D01*
X15655357Y-13804500D01*
X15669643Y-13818786D01*
X15683928Y-13847357D01*
X15698214Y-13904500D01*
X15698214Y-13975929D01*
X15683928Y-14033071D01*
X15669643Y-14061643D01*
X15655357Y-14075929D01*
X15626786Y-14090214D01*
X15598214Y-14090214D01*
X15569643Y-14075929D01*
X15555357Y-14061643D01*
X15541071Y-14033071D01*
X15526786Y-13975929D01*
X15526786Y-13904500D01*
X15541071Y-13847357D01*
X15555357Y-13818786D01*
X15569643Y-13804500D01*
X15598214Y-13790214D01*
X15826786Y-14061643D02*
X15841071Y-14075929D01*
X15826786Y-14090214D01*
X15812500Y-14075929D01*
X15826786Y-14061643D01*
X15826786Y-14090214D01*
X16026786Y-13790214D02*
X16055357Y-13790214D01*
X16083928Y-13804500D01*
X16098214Y-13818786D01*
X16112500Y-13847357D01*
X16126786Y-13904500D01*
X16126786Y-13975929D01*
X16112500Y-14033071D01*
X16098214Y-14061643D01*
X16083928Y-14075929D01*
X16055357Y-14090214D01*
X16026786Y-14090214D01*
X15998214Y-14075929D01*
X15983928Y-14061643D01*
X15969643Y-14033071D01*
X15955357Y-13975929D01*
X15955357Y-13904500D01*
X15969643Y-13847357D01*
X15983928Y-13818786D01*
X15998214Y-13804500D01*
X16026786Y-13790214D01*
X16226786Y-13790214D02*
X16412500Y-13790214D01*
X16312500Y-13904500D01*
X16355357Y-13904500D01*
X16383928Y-13918786D01*
X16398214Y-13933071D01*
X16412500Y-13961643D01*
X16412500Y-14033071D01*
X16398214Y-14061643D01*
X16383928Y-14075929D01*
X16355357Y-14090214D01*
X16269643Y-14090214D01*
X16241071Y-14075929D01*
X16226786Y-14061643D01*
X16698214Y-14090214D02*
X16526786Y-14090214D01*
X16612500Y-14090214D02*
X16612500Y-13790214D01*
X16583928Y-13833071D01*
X16555357Y-13861643D01*
X16526786Y-13875929D01*
X16969643Y-13790214D02*
X16826786Y-13790214D01*
X16812500Y-13933071D01*
X16826786Y-13918786D01*
X16855357Y-13904500D01*
X16926786Y-13904500D01*
X16955357Y-13918786D01*
X16969643Y-13933071D01*
X16983928Y-13961643D01*
X16983928Y-14033071D01*
X16969643Y-14061643D01*
X16955357Y-14075929D01*
X16926786Y-14090214D01*
X16855357Y-14090214D01*
X16826786Y-14075929D01*
X16812500Y-14061643D01*
X17098214Y-13790214D02*
X17098214Y-13847357D01*
X17212500Y-13790214D02*
X17212500Y-13847357D01*
X17655357Y-14204500D02*
X17641071Y-14190214D01*
X17612500Y-14147357D01*
X17598214Y-14118786D01*
X17583928Y-14075929D01*
X17569643Y-14004500D01*
X17569643Y-13947357D01*
X17583928Y-13875929D01*
X17598214Y-13833071D01*
X17612500Y-13804500D01*
X17641071Y-13761643D01*
X17655357Y-13747357D01*
X17741071Y-13790214D02*
X17926786Y-13790214D01*
X17826786Y-13904500D01*
X17869643Y-13904500D01*
X17898214Y-13918786D01*
X17912500Y-13933071D01*
X17926786Y-13961643D01*
X17926786Y-14033071D01*
X17912500Y-14061643D01*
X17898214Y-14075929D01*
X17869643Y-14090214D01*
X17783928Y-14090214D01*
X17755357Y-14075929D01*
X17741071Y-14061643D01*
X18098214Y-13918786D02*
X18069643Y-13904500D01*
X18055357Y-13890214D01*
X18041071Y-13861643D01*
X18041071Y-13847357D01*
X18055357Y-13818786D01*
X18069643Y-13804500D01*
X18098214Y-13790214D01*
X18155357Y-13790214D01*
X18183928Y-13804500D01*
X18198214Y-13818786D01*
X18212500Y-13847357D01*
X18212500Y-13861643D01*
X18198214Y-13890214D01*
X18183928Y-13904500D01*
X18155357Y-13918786D01*
X18098214Y-13918786D01*
X18069643Y-13933071D01*
X18055357Y-13947357D01*
X18041071Y-13975929D01*
X18041071Y-14033071D01*
X18055357Y-14061643D01*
X18069643Y-14075929D01*
X18098214Y-14090214D01*
X18155357Y-14090214D01*
X18183928Y-14075929D01*
X18198214Y-14061643D01*
X18212500Y-14033071D01*
X18212500Y-13975929D01*
X18198214Y-13947357D01*
X18183928Y-13933071D01*
X18155357Y-13918786D01*
X18569643Y-14090214D02*
X18569643Y-13790214D01*
X18698214Y-14090214D02*
X18698214Y-13933071D01*
X18683928Y-13904500D01*
X18655357Y-13890214D01*
X18612500Y-13890214D01*
X18583928Y-13904500D01*
X18569643Y-13918786D01*
X18883928Y-14090214D02*
X18855357Y-14075929D01*
X18841071Y-14061643D01*
X18826786Y-14033071D01*
X18826786Y-13947357D01*
X18841071Y-13918786D01*
X18855357Y-13904500D01*
X18883928Y-13890214D01*
X18926786Y-13890214D01*
X18955357Y-13904500D01*
X18969643Y-13918786D01*
X18983928Y-13947357D01*
X18983928Y-14033071D01*
X18969643Y-14061643D01*
X18955357Y-14075929D01*
X18926786Y-14090214D01*
X18883928Y-14090214D01*
X19155357Y-14090214D02*
X19126786Y-14075929D01*
X19112500Y-14047357D01*
X19112500Y-13790214D01*
X19383928Y-14075929D02*
X19355357Y-14090214D01*
X19298214Y-14090214D01*
X19269643Y-14075929D01*
X19255357Y-14047357D01*
X19255357Y-13933071D01*
X19269643Y-13904500D01*
X19298214Y-13890214D01*
X19355357Y-13890214D01*
X19383928Y-13904500D01*
X19398214Y-13933071D01*
X19398214Y-13961643D01*
X19255357Y-13990214D01*
X19512500Y-14075929D02*
X19541071Y-14090214D01*
X19598214Y-14090214D01*
X19626786Y-14075929D01*
X19641071Y-14047357D01*
X19641071Y-14033071D01*
X19626786Y-14004500D01*
X19598214Y-13990214D01*
X19555357Y-13990214D01*
X19526786Y-13975929D01*
X19512500Y-13947357D01*
X19512500Y-13933071D01*
X19526786Y-13904500D01*
X19555357Y-13890214D01*
X19598214Y-13890214D01*
X19626786Y-13904500D01*
X19741071Y-14204500D02*
X19755357Y-14190214D01*
X19783928Y-14147357D01*
X19798214Y-14118786D01*
X19812500Y-14075929D01*
X19826786Y-14004500D01*
X19826786Y-13947357D01*
X19812500Y-13875929D01*
X19798214Y-13833071D01*
X19783928Y-13804500D01*
X19755357Y-13761643D01*
X19741071Y-13747357D01*
X12382856Y-14385856D02*
X12382856Y-14315144D01*
X12312144Y-14315144D01*
X12312144Y-14385856D01*
X12382856Y-14385856D01*
X12841071Y-14486214D02*
X12669643Y-14486214D01*
X12755357Y-14486214D02*
X12755357Y-14186214D01*
X12726786Y-14229071D01*
X12698214Y-14257643D01*
X12669643Y-14271929D01*
X12969643Y-14457643D02*
X12983928Y-14471929D01*
X12969643Y-14486214D01*
X12955357Y-14471929D01*
X12969643Y-14457643D01*
X12969643Y-14486214D01*
X13169643Y-14186214D02*
X13198214Y-14186214D01*
X13226786Y-14200500D01*
X13241071Y-14214786D01*
X13255357Y-14243357D01*
X13269643Y-14300500D01*
X13269643Y-14371929D01*
X13255357Y-14429071D01*
X13241071Y-14457643D01*
X13226786Y-14471929D01*
X13198214Y-14486214D01*
X13169643Y-14486214D01*
X13141071Y-14471929D01*
X13126786Y-14457643D01*
X13112500Y-14429071D01*
X13098214Y-14371929D01*
X13098214Y-14300500D01*
X13112500Y-14243357D01*
X13126786Y-14214786D01*
X13141071Y-14200500D01*
X13169643Y-14186214D01*
X13455357Y-14186214D02*
X13483928Y-14186214D01*
X13512500Y-14200500D01*
X13526786Y-14214786D01*
X13541071Y-14243357D01*
X13555357Y-14300500D01*
X13555357Y-14371929D01*
X13541071Y-14429071D01*
X13526786Y-14457643D01*
X13512500Y-14471929D01*
X13483928Y-14486214D01*
X13455357Y-14486214D01*
X13426786Y-14471929D01*
X13412500Y-14457643D01*
X13398214Y-14429071D01*
X13383928Y-14371929D01*
X13383928Y-14300500D01*
X13398214Y-14243357D01*
X13412500Y-14214786D01*
X13426786Y-14200500D01*
X13455357Y-14186214D01*
X13741071Y-14186214D02*
X13769643Y-14186214D01*
X13798214Y-14200500D01*
X13812500Y-14214786D01*
X13826786Y-14243357D01*
X13841071Y-14300500D01*
X13841071Y-14371929D01*
X13826786Y-14429071D01*
X13812500Y-14457643D01*
X13798214Y-14471929D01*
X13769643Y-14486214D01*
X13741071Y-14486214D01*
X13712500Y-14471929D01*
X13698214Y-14457643D01*
X13683928Y-14429071D01*
X13669643Y-14371929D01*
X13669643Y-14300500D01*
X13683928Y-14243357D01*
X13698214Y-14214786D01*
X13712500Y-14200500D01*
X13741071Y-14186214D01*
X13969643Y-14486214D02*
X13969643Y-14286214D01*
X13969643Y-14314786D02*
X13983928Y-14300500D01*
X14012500Y-14286214D01*
X14055357Y-14286214D01*
X14083928Y-14300500D01*
X14098214Y-14329071D01*
X14098214Y-14486214D01*
X14098214Y-14329071D02*
X14112500Y-14300500D01*
X14141071Y-14286214D01*
X14183928Y-14286214D01*
X14212500Y-14300500D01*
X14226786Y-14329071D01*
X14226786Y-14486214D01*
X14369643Y-14486214D02*
X14369643Y-14286214D01*
X14369643Y-14314786D02*
X14383928Y-14300500D01*
X14412500Y-14286214D01*
X14455357Y-14286214D01*
X14483928Y-14300500D01*
X14498214Y-14329071D01*
X14498214Y-14486214D01*
X14498214Y-14329071D02*
X14512500Y-14300500D01*
X14541071Y-14286214D01*
X14583928Y-14286214D01*
X14612500Y-14300500D01*
X14626786Y-14329071D01*
X14626786Y-14486214D01*
X15212500Y-14171929D02*
X14955357Y-14557643D01*
X15598214Y-14186214D02*
X15626786Y-14186214D01*
X15655357Y-14200500D01*
X15669643Y-14214786D01*
X15683928Y-14243357D01*
X15698214Y-14300500D01*
X15698214Y-14371929D01*
X15683928Y-14429071D01*
X15669643Y-14457643D01*
X15655357Y-14471929D01*
X15626786Y-14486214D01*
X15598214Y-14486214D01*
X15569643Y-14471929D01*
X15555357Y-14457643D01*
X15541071Y-14429071D01*
X15526786Y-14371929D01*
X15526786Y-14300500D01*
X15541071Y-14243357D01*
X15555357Y-14214786D01*
X15569643Y-14200500D01*
X15598214Y-14186214D01*
X15826786Y-14457643D02*
X15841071Y-14471929D01*
X15826786Y-14486214D01*
X15812500Y-14471929D01*
X15826786Y-14457643D01*
X15826786Y-14486214D01*
X16026786Y-14186214D02*
X16055357Y-14186214D01*
X16083928Y-14200500D01*
X16098214Y-14214786D01*
X16112500Y-14243357D01*
X16126786Y-14300500D01*
X16126786Y-14371929D01*
X16112500Y-14429071D01*
X16098214Y-14457643D01*
X16083928Y-14471929D01*
X16055357Y-14486214D01*
X16026786Y-14486214D01*
X15998214Y-14471929D01*
X15983928Y-14457643D01*
X15969643Y-14429071D01*
X15955357Y-14371929D01*
X15955357Y-14300500D01*
X15969643Y-14243357D01*
X15983928Y-14214786D01*
X15998214Y-14200500D01*
X16026786Y-14186214D01*
X16226786Y-14186214D02*
X16412500Y-14186214D01*
X16312500Y-14300500D01*
X16355357Y-14300500D01*
X16383928Y-14314786D01*
X16398214Y-14329071D01*
X16412500Y-14357643D01*
X16412500Y-14429071D01*
X16398214Y-14457643D01*
X16383928Y-14471929D01*
X16355357Y-14486214D01*
X16269643Y-14486214D01*
X16241071Y-14471929D01*
X16226786Y-14457643D01*
X16555357Y-14486214D02*
X16612500Y-14486214D01*
X16641071Y-14471929D01*
X16655357Y-14457643D01*
X16683928Y-14414786D01*
X16698214Y-14357643D01*
X16698214Y-14243357D01*
X16683928Y-14214786D01*
X16669643Y-14200500D01*
X16641071Y-14186214D01*
X16583928Y-14186214D01*
X16555357Y-14200500D01*
X16541071Y-14214786D01*
X16526786Y-14243357D01*
X16526786Y-14314786D01*
X16541071Y-14343357D01*
X16555357Y-14357643D01*
X16583928Y-14371929D01*
X16641071Y-14371929D01*
X16669643Y-14357643D01*
X16683928Y-14343357D01*
X16698214Y-14314786D01*
X16955357Y-14286214D02*
X16955357Y-14486214D01*
X16883928Y-14171929D02*
X16812500Y-14386214D01*
X16998214Y-14386214D01*
X17098214Y-14186214D02*
X17098214Y-14243357D01*
X17212500Y-14186214D02*
X17212500Y-14243357D01*
X17655357Y-14600500D02*
X17641071Y-14586214D01*
X17612500Y-14543357D01*
X17598214Y-14514786D01*
X17583928Y-14471929D01*
X17569643Y-14400500D01*
X17569643Y-14343357D01*
X17583928Y-14271929D01*
X17598214Y-14229071D01*
X17612500Y-14200500D01*
X17641071Y-14157643D01*
X17655357Y-14143357D01*
X17755357Y-14214786D02*
X17769643Y-14200500D01*
X17798214Y-14186214D01*
X17869643Y-14186214D01*
X17898214Y-14200500D01*
X17912500Y-14214786D01*
X17926786Y-14243357D01*
X17926786Y-14271929D01*
X17912500Y-14314786D01*
X17741071Y-14486214D01*
X17926786Y-14486214D01*
X18212500Y-14486214D02*
X18041071Y-14486214D01*
X18126786Y-14486214D02*
X18126786Y-14186214D01*
X18098214Y-14229071D01*
X18069643Y-14257643D01*
X18041071Y-14271929D01*
X18569643Y-14486214D02*
X18569643Y-14186214D01*
X18698214Y-14486214D02*
X18698214Y-14329071D01*
X18683928Y-14300500D01*
X18655357Y-14286214D01*
X18612500Y-14286214D01*
X18583928Y-14300500D01*
X18569643Y-14314786D01*
X18883928Y-14486214D02*
X18855357Y-14471929D01*
X18841071Y-14457643D01*
X18826786Y-14429071D01*
X18826786Y-14343357D01*
X18841071Y-14314786D01*
X18855357Y-14300500D01*
X18883928Y-14286214D01*
X18926786Y-14286214D01*
X18955357Y-14300500D01*
X18969643Y-14314786D01*
X18983928Y-14343357D01*
X18983928Y-14429071D01*
X18969643Y-14457643D01*
X18955357Y-14471929D01*
X18926786Y-14486214D01*
X18883928Y-14486214D01*
X19155357Y-14486214D02*
X19126786Y-14471929D01*
X19112500Y-14443357D01*
X19112500Y-14186214D01*
X19383928Y-14471929D02*
X19355357Y-14486214D01*
X19298214Y-14486214D01*
X19269643Y-14471929D01*
X19255357Y-14443357D01*
X19255357Y-14329071D01*
X19269643Y-14300500D01*
X19298214Y-14286214D01*
X19355357Y-14286214D01*
X19383928Y-14300500D01*
X19398214Y-14329071D01*
X19398214Y-14357643D01*
X19255357Y-14386214D01*
X19512500Y-14471929D02*
X19541071Y-14486214D01*
X19598214Y-14486214D01*
X19626786Y-14471929D01*
X19641071Y-14443357D01*
X19641071Y-14429071D01*
X19626786Y-14400500D01*
X19598214Y-14386214D01*
X19555357Y-14386214D01*
X19526786Y-14371929D01*
X19512500Y-14343357D01*
X19512500Y-14329071D01*
X19526786Y-14300500D01*
X19555357Y-14286214D01*
X19598214Y-14286214D01*
X19626786Y-14300500D01*
X19741071Y-14600500D02*
X19755357Y-14586214D01*
X19783928Y-14543357D01*
X19798214Y-14514786D01*
X19812500Y-14471929D01*
X19826786Y-14400500D01*
X19826786Y-14343357D01*
X19812500Y-14271929D01*
X19798214Y-14229071D01*
X19783928Y-14200500D01*
X19755357Y-14157643D01*
X19741071Y-14143357D01*
M02*
