G04 #@! TF.GenerationSoftware,KiCad,Pcbnew,5.1.10*
G04 #@! TF.CreationDate,2021-12-29T16:53:06+01:00*
G04 #@! TF.ProjectId,meshtastic_jtag,6d657368-7461-4737-9469-635f6a746167,rev?*
G04 #@! TF.SameCoordinates,Original*
G04 #@! TF.FileFunction,Copper,L2,Bot*
G04 #@! TF.FilePolarity,Positive*
%FSLAX46Y46*%
G04 Gerber Fmt 4.6, Leading zero omitted, Abs format (unit mm)*
G04 Created by KiCad (PCBNEW 5.1.10) date 2021-12-29 16:53:06*
%MOMM*%
%LPD*%
G01*
G04 APERTURE LIST*
G04 #@! TA.AperFunction,EtchedComponent*
%ADD10C,0.100000*%
G04 #@! TD*
G04 #@! TA.AperFunction,ComponentPad*
%ADD11C,1.700000*%
G04 #@! TD*
G04 #@! TA.AperFunction,ComponentPad*
%ADD12R,1.524000X1.700000*%
G04 #@! TD*
G04 #@! TA.AperFunction,ComponentPad*
%ADD13R,1.700000X1.700000*%
G04 #@! TD*
G04 #@! TA.AperFunction,ComponentPad*
%ADD14O,1.200000X2.000000*%
G04 #@! TD*
G04 #@! TA.AperFunction,ComponentPad*
%ADD15O,1.700000X1.700000*%
G04 #@! TD*
G04 #@! TA.AperFunction,ComponentPad*
%ADD16R,0.808000X0.808000*%
G04 #@! TD*
G04 #@! TA.AperFunction,ViaPad*
%ADD17C,0.800000*%
G04 #@! TD*
G04 #@! TA.AperFunction,Conductor*
%ADD18C,0.250000*%
G04 #@! TD*
G04 #@! TA.AperFunction,Conductor*
%ADD19C,0.200000*%
G04 #@! TD*
G04 #@! TA.AperFunction,Conductor*
%ADD20C,1.000000*%
G04 #@! TD*
G04 #@! TA.AperFunction,Conductor*
%ADD21C,0.100000*%
G04 #@! TD*
G04 APERTURE END LIST*
D10*
G36*
X218700000Y-96000000D02*
G01*
X218700000Y-98000000D01*
X227700000Y-98000000D01*
X227700000Y-96000000D01*
X218700000Y-96000000D01*
G37*
G36*
X225700000Y-98000000D02*
G01*
X225700000Y-116000000D01*
X227700000Y-116000000D01*
X227700000Y-98000000D01*
X225700000Y-98000000D01*
G37*
G36*
X227700000Y-114000000D02*
G01*
X227700000Y-116000000D01*
X230700000Y-116000000D01*
X230700000Y-114000000D01*
X227700000Y-114000000D01*
G37*
G36*
X230700000Y-78000000D02*
G01*
X230700000Y-116000000D01*
X232700000Y-116000000D01*
X232700000Y-78000000D01*
X230700000Y-78000000D01*
G37*
G36*
X232700000Y-78000000D02*
G01*
X232700000Y-80000000D01*
X235700000Y-80000000D01*
X235700000Y-78000000D01*
X232700000Y-78000000D01*
G37*
G36*
X235700000Y-78000000D02*
G01*
X235700000Y-116000000D01*
X237700000Y-116000000D01*
X237700000Y-78000000D01*
X235700000Y-78000000D01*
G37*
G36*
X237700000Y-114000000D02*
G01*
X237700000Y-116000000D01*
X242700000Y-116000000D01*
X242700000Y-114000000D01*
X237700000Y-114000000D01*
G37*
G36*
X240700000Y-78000000D02*
G01*
X240700000Y-114000000D01*
X242700000Y-114000000D01*
X242700000Y-78000000D01*
X240700000Y-78000000D01*
G37*
D11*
X205000000Y-111410000D03*
X205000000Y-108870000D03*
X205000000Y-106330000D03*
D12*
X205000000Y-103790000D03*
D11*
X144820000Y-119100000D03*
X147360000Y-119100000D03*
X149900000Y-119100000D03*
X152440000Y-119100000D03*
D13*
X154980000Y-119100000D03*
G04 #@! TA.AperFunction,ComponentPad*
G36*
G01*
X172197280Y-108703680D02*
X172197280Y-110103680D01*
G75*
G02*
X171897280Y-110403680I-300000J0D01*
G01*
X171297280Y-110403680D01*
G75*
G02*
X170997280Y-110103680I0J300000D01*
G01*
X170997280Y-108703680D01*
G75*
G02*
X171297280Y-108403680I300000J0D01*
G01*
X171897280Y-108403680D01*
G75*
G02*
X172197280Y-108703680I0J-300000D01*
G01*
G37*
G04 #@! TD.AperFunction*
D14*
X169057280Y-109403680D03*
X166517280Y-109403680D03*
X163977280Y-109403680D03*
X161437280Y-109403680D03*
X158897280Y-109403680D03*
X156357280Y-109403680D03*
X153817280Y-109403680D03*
X151277280Y-109403680D03*
X148737280Y-109403680D03*
X146197280Y-109403680D03*
X143657280Y-109403680D03*
X141117280Y-109403680D03*
X138577280Y-109403680D03*
X136037280Y-109403680D03*
X133497280Y-109403680D03*
X130957280Y-109403680D03*
X128420000Y-109400000D03*
X125880000Y-109400000D03*
X125877280Y-84003680D03*
X128417280Y-84003680D03*
X130957280Y-84003680D03*
X133497280Y-84003680D03*
X136037280Y-84003680D03*
G04 #@! TA.AperFunction,ComponentPad*
G36*
G01*
X139177280Y-83303680D02*
X139177280Y-84703680D01*
G75*
G02*
X138877280Y-85003680I-300000J0D01*
G01*
X138277280Y-85003680D01*
G75*
G02*
X137977280Y-84703680I0J300000D01*
G01*
X137977280Y-83303680D01*
G75*
G02*
X138277280Y-83003680I300000J0D01*
G01*
X138877280Y-83003680D01*
G75*
G02*
X139177280Y-83303680I0J-300000D01*
G01*
G37*
G04 #@! TD.AperFunction*
X141117280Y-84003680D03*
X143657280Y-84003680D03*
X146197280Y-84003680D03*
X148737280Y-84003680D03*
X151277280Y-84003680D03*
X153817280Y-84003680D03*
X156357280Y-84003680D03*
X158897280Y-84003680D03*
X161437280Y-84003680D03*
X163977280Y-84003680D03*
X166517280Y-84003680D03*
X169057280Y-84003680D03*
X171597280Y-84003680D03*
D15*
X141440000Y-77740000D03*
X141440000Y-75200000D03*
X143980000Y-77740000D03*
X143980000Y-75200000D03*
X146520000Y-77740000D03*
X146520000Y-75200000D03*
X149060000Y-77740000D03*
X149060000Y-75200000D03*
X151600000Y-77740000D03*
D13*
X151600000Y-75200000D03*
D15*
X166460000Y-75200000D03*
D13*
X169000000Y-75200000D03*
D16*
X218160000Y-97000000D03*
X220700000Y-97000000D03*
X222700000Y-97000000D03*
X224700000Y-97000000D03*
X226700000Y-97000000D03*
X226700000Y-99000000D03*
X226700000Y-101000000D03*
X226700000Y-103000000D03*
X226700000Y-105000000D03*
X226700000Y-107000000D03*
X226700000Y-109000000D03*
X226700000Y-111000000D03*
X226700000Y-113000000D03*
X227200000Y-115000000D03*
X229200000Y-115000000D03*
X231200000Y-115000000D03*
X231700000Y-113000000D03*
X231700000Y-111000000D03*
X231700000Y-109000000D03*
X231700000Y-107000000D03*
X231700000Y-105000000D03*
X231700000Y-103000000D03*
X231700000Y-101000000D03*
X231700000Y-99000000D03*
X231700000Y-97000000D03*
X231700000Y-95000000D03*
X231700000Y-93000000D03*
X231700000Y-91000000D03*
X231700000Y-89000000D03*
X231700000Y-87000000D03*
X231700000Y-85000000D03*
X231700000Y-83000000D03*
X231700000Y-81000000D03*
X232200000Y-79000000D03*
X234200000Y-79000000D03*
X236200000Y-79000000D03*
X236700000Y-81000000D03*
X236700000Y-83000000D03*
X236700000Y-85000000D03*
X236700000Y-87000000D03*
X236700000Y-89000000D03*
X236700000Y-91000000D03*
X236700000Y-93000000D03*
X236700000Y-95000000D03*
X236700000Y-97000000D03*
X236700000Y-99000000D03*
X236700000Y-101000000D03*
X236700000Y-103000000D03*
X236700000Y-105000000D03*
X236700000Y-107000000D03*
X236700000Y-109000000D03*
X237200000Y-115000000D03*
X236700000Y-111000000D03*
X236700000Y-113000000D03*
X239200000Y-115000000D03*
X241200000Y-115000000D03*
X241700000Y-113000000D03*
X241700000Y-111000000D03*
X241700000Y-109000000D03*
X241700000Y-107000000D03*
X241700000Y-105000000D03*
X241700000Y-103000000D03*
X241700000Y-101000000D03*
X241700000Y-99000000D03*
X241700000Y-97000000D03*
X241700000Y-95000000D03*
X241700000Y-93000000D03*
X241700000Y-91000000D03*
X241700000Y-89000000D03*
X241700000Y-87000000D03*
X241700000Y-85000000D03*
X241700000Y-83000000D03*
X241700000Y-81000000D03*
X241700000Y-79000000D03*
G04 #@! TA.AperFunction,SMDPad,CuDef*
G36*
G01*
X218450000Y-96000000D02*
X218950000Y-96000000D01*
G75*
G02*
X219700000Y-96750000I0J-750000D01*
G01*
X219700000Y-97250000D01*
G75*
G02*
X218950000Y-98000000I-750000J0D01*
G01*
X218450000Y-98000000D01*
G75*
G02*
X217700000Y-97250000I0J750000D01*
G01*
X217700000Y-96750000D01*
G75*
G02*
X218450000Y-96000000I750000J0D01*
G01*
G37*
G04 #@! TD.AperFunction*
D17*
X216600000Y-94950000D03*
X216600000Y-93950000D03*
X216600000Y-91950000D03*
X216600000Y-89950000D03*
X216600000Y-87950000D03*
X216600000Y-85950000D03*
X216600000Y-83950000D03*
X216600000Y-81950000D03*
X216600000Y-79950000D03*
X216600000Y-73950000D03*
X216600000Y-100250000D03*
X216600000Y-102250000D03*
X216600000Y-104250000D03*
X216600000Y-106250000D03*
X216600000Y-108250000D03*
X216600000Y-110250000D03*
X216600000Y-112250000D03*
X216600000Y-114250000D03*
X216600000Y-120250000D03*
X198100000Y-90900000D03*
X198100000Y-91700000D03*
X201500000Y-90900000D03*
X201500000Y-91700000D03*
X216600000Y-95800000D03*
X215500000Y-95865000D03*
X214500000Y-95865000D03*
X213500000Y-95865000D03*
X212500000Y-95865000D03*
X211500000Y-95865000D03*
X210500000Y-95865000D03*
X209500000Y-95865000D03*
X208500000Y-95865000D03*
X207500000Y-95865000D03*
X206500000Y-95865000D03*
X205500000Y-95865000D03*
X204500000Y-95865000D03*
X203500000Y-95865000D03*
X202652567Y-95247433D03*
X201952567Y-94547433D03*
X201252567Y-93847433D03*
X212800000Y-98135000D03*
X211800000Y-98135000D03*
X210800000Y-98135000D03*
X209800000Y-98135000D03*
X208800000Y-98135000D03*
X207800000Y-98135000D03*
X206800000Y-98135000D03*
X205800000Y-98135000D03*
X204800000Y-98135000D03*
X203800000Y-98135000D03*
X202800000Y-98135000D03*
X201897433Y-97702567D03*
X201197433Y-97002567D03*
X200497433Y-96302567D03*
X199797433Y-95602567D03*
X199097433Y-94902567D03*
X198679999Y-93994115D03*
X198679999Y-93100000D03*
X214600000Y-98300000D03*
X215600000Y-98300000D03*
X212800000Y-99000000D03*
X213700000Y-99200000D03*
X216600000Y-99200000D03*
X198000000Y-80000000D03*
X196000000Y-80000000D03*
X194000000Y-80000000D03*
X192000000Y-80000000D03*
X192000000Y-82000000D03*
X192000000Y-84000000D03*
X192000000Y-86000000D03*
X192000000Y-88000000D03*
X194000000Y-88000000D03*
X196000000Y-88000000D03*
X198000000Y-88000000D03*
X200000000Y-88000000D03*
X200000000Y-86000000D03*
X200000000Y-84000000D03*
X200000000Y-80000000D03*
X200000000Y-82000000D03*
X198000000Y-82000000D03*
X196000000Y-82000000D03*
X194000000Y-82000000D03*
X194000000Y-84000000D03*
X196000000Y-84000000D03*
X198000000Y-84000000D03*
X196000000Y-86000000D03*
X198000000Y-86000000D03*
X194000000Y-86000000D03*
X216600000Y-116250000D03*
X216600000Y-118250000D03*
X216600000Y-77950000D03*
X216600000Y-75950000D03*
X198679999Y-92300000D03*
X200949999Y-93100000D03*
X200949999Y-92300000D03*
X187700000Y-89300000D03*
X182212578Y-89925020D03*
X188900000Y-89300000D03*
X181212575Y-89925020D03*
X180212654Y-89937671D03*
X192700000Y-89400000D03*
X179200000Y-89925020D03*
X191400000Y-89400000D03*
X178199066Y-89925020D03*
X178170145Y-87124990D03*
X177199063Y-89925020D03*
X177200000Y-87575000D03*
X186400000Y-78900000D03*
X186400000Y-79700000D03*
D18*
X216600000Y-94950000D02*
X216600000Y-93950000D01*
D19*
X198100000Y-90900000D02*
X198100000Y-91700000D01*
X215724649Y-95800000D02*
X215578471Y-95946178D01*
X216600000Y-95800000D02*
X215724649Y-95800000D01*
X213547867Y-95912867D02*
X213500000Y-95865000D01*
X214526140Y-95912867D02*
X213547867Y-95912867D01*
X212500000Y-95865000D02*
X211500000Y-95865000D01*
X210500000Y-95865000D02*
X209500000Y-95865000D01*
X208500000Y-95865000D02*
X207500000Y-95865000D01*
X206500000Y-95865000D02*
X205500000Y-95865000D01*
X204500000Y-95865000D02*
X203500000Y-95865000D01*
X202652567Y-95247433D02*
X201952567Y-94547433D01*
X212800000Y-98135000D02*
X211800000Y-98135000D01*
X210800000Y-98135000D02*
X209800000Y-98135000D01*
X208800000Y-98135000D02*
X207800000Y-98135000D01*
X206800000Y-98135000D02*
X205800000Y-98135000D01*
X204800000Y-98135000D02*
X203800000Y-98135000D01*
X202329866Y-98135000D02*
X201897433Y-97702567D01*
X202800000Y-98135000D02*
X202329866Y-98135000D01*
X201197433Y-97002567D02*
X200497433Y-96302567D01*
X199797433Y-95602567D02*
X199097433Y-94902567D01*
X198679999Y-93994115D02*
X198679999Y-93100000D01*
X214600000Y-98300000D02*
X215800000Y-98300000D01*
X212800000Y-98135000D02*
X212800000Y-99000000D01*
X216600000Y-100250000D02*
X216600000Y-99200000D01*
X198000000Y-80000000D02*
X196000000Y-80000000D01*
X194000000Y-80000000D02*
X192000000Y-80000000D01*
X192000000Y-82000000D02*
X192000000Y-84000000D01*
X192000000Y-86000000D02*
X192000000Y-88000000D01*
X194000000Y-88000000D02*
X196000000Y-88000000D01*
X198000000Y-88000000D02*
X200000000Y-88000000D01*
X200000000Y-88000000D02*
X200000000Y-86000000D01*
X200000000Y-84000000D02*
X200000000Y-82000000D01*
X200000000Y-82000000D02*
X200000000Y-80000000D01*
X200000000Y-82000000D02*
X198000000Y-82000000D01*
X196000000Y-82000000D02*
X194000000Y-82000000D01*
X194000000Y-84000000D02*
X196000000Y-84000000D01*
X198000000Y-84000000D02*
X198000000Y-86000000D01*
X198000000Y-86000000D02*
X196000000Y-86000000D01*
X198679999Y-93100000D02*
X198679999Y-92300000D01*
X200949999Y-93100000D02*
X200949999Y-92300000D01*
D18*
X187700000Y-89300000D02*
X182800000Y-89300000D01*
X182212578Y-89887422D02*
X182212578Y-89925020D01*
X182800000Y-89300000D02*
X182212578Y-89887422D01*
X181425020Y-89925020D02*
X181487577Y-89862463D01*
X181212575Y-89925020D02*
X181425020Y-89925020D01*
X188174999Y-88574999D02*
X188900000Y-89300000D01*
X187351999Y-88574999D02*
X188174999Y-88574999D01*
X187077008Y-88849990D02*
X187351999Y-88574999D01*
X182214606Y-88849990D02*
X187077008Y-88849990D01*
X181212575Y-89852021D02*
X181832298Y-89232298D01*
X181212575Y-89925020D02*
X181212575Y-89852021D01*
X181832298Y-89232298D02*
X182214606Y-88849990D01*
X181487577Y-89577019D02*
X181832298Y-89232298D01*
X191974999Y-90125001D02*
X192700000Y-89400000D01*
X180212654Y-89937671D02*
X180362329Y-89937671D01*
X180487574Y-89577019D02*
X180864574Y-89200019D01*
X180487574Y-89812426D02*
X180487574Y-89577019D01*
X182028206Y-88399980D02*
X186890608Y-88399980D01*
X180864574Y-89200019D02*
X181228167Y-89200019D01*
X186890608Y-88399980D02*
X187165599Y-88124989D01*
X181228167Y-89200019D02*
X182028206Y-88399980D01*
X180362329Y-89937671D02*
X180487574Y-89812426D01*
X187165599Y-88124989D02*
X188361399Y-88124989D01*
X191051999Y-90125001D02*
X191974999Y-90125001D01*
X188361399Y-88124989D02*
X188811409Y-88574999D01*
X189501997Y-88574999D02*
X191051999Y-90125001D01*
X188811409Y-88574999D02*
X189501997Y-88574999D01*
X180375009Y-88750009D02*
X180112509Y-89012509D01*
X181841805Y-87949971D02*
X181041767Y-88750009D01*
X186704208Y-87949970D02*
X181841805Y-87949971D01*
X180112509Y-89012509D02*
X179200000Y-89925020D01*
X188547799Y-87674979D02*
X186979198Y-87674980D01*
X181041767Y-88750009D02*
X180375009Y-88750009D01*
X188997809Y-88124989D02*
X188547799Y-87674979D01*
X186979198Y-87674980D02*
X186704208Y-87949970D01*
X189688397Y-88124989D02*
X188997809Y-88124989D01*
X190963408Y-89400000D02*
X189688397Y-88124989D01*
X191400000Y-89400000D02*
X190963408Y-89400000D01*
D20*
X173100000Y-99900000D02*
X178400000Y-105200000D01*
X132600000Y-99900000D02*
X173100000Y-99900000D01*
X125877280Y-93177280D02*
X132600000Y-99900000D01*
X125877280Y-84003680D02*
X125877280Y-93177280D01*
X171400000Y-119100000D02*
X173100000Y-119100000D01*
X179810000Y-103790000D02*
X178400000Y-105200000D01*
X205000000Y-103790000D02*
X179810000Y-103790000D01*
X170200000Y-119100000D02*
X173800000Y-119100000D01*
X154980000Y-119100000D02*
X170200000Y-119100000D01*
X170200000Y-119100000D02*
X171400000Y-119100000D01*
X178400000Y-114500000D02*
X178400000Y-105200000D01*
X173800000Y-119100000D02*
X178400000Y-114500000D01*
D18*
X141117280Y-84003680D02*
X141117280Y-82682720D01*
X141117280Y-82682720D02*
X143800000Y-80000000D01*
X143800000Y-80000000D02*
X143800000Y-77800000D01*
X178199066Y-89699066D02*
X178050010Y-89550010D01*
X178199066Y-89925020D02*
X178199066Y-89699066D01*
X178050010Y-87245125D02*
X178170145Y-87124990D01*
X178050010Y-89550010D02*
X178050010Y-87245125D01*
X177199063Y-87575937D02*
X177200000Y-87575000D01*
X177199063Y-89852021D02*
X177199063Y-89925020D01*
X177600000Y-89451084D02*
X177199063Y-89852021D01*
X177600000Y-87975000D02*
X177600000Y-89451084D01*
X177200000Y-87575000D02*
X177600000Y-87975000D01*
D20*
X171597280Y-84003680D02*
X178003680Y-84003680D01*
X171597280Y-84003680D02*
X181546320Y-84003680D01*
X171597280Y-84003680D02*
X183496320Y-84003680D01*
X183496320Y-84003680D02*
X186400000Y-81100000D01*
X186400000Y-79700000D02*
X186400000Y-78900000D01*
X186400000Y-81100000D02*
X186400000Y-79700000D01*
D18*
X216875000Y-121650000D02*
X124350000Y-121650000D01*
X124350000Y-118984273D01*
X143645000Y-118984273D01*
X143645000Y-119215727D01*
X143690155Y-119442735D01*
X143778729Y-119656571D01*
X143907318Y-119849019D01*
X144070981Y-120012682D01*
X144263429Y-120141271D01*
X144477265Y-120229845D01*
X144704273Y-120275000D01*
X144935727Y-120275000D01*
X145162735Y-120229845D01*
X145376571Y-120141271D01*
X145569019Y-120012682D01*
X145732682Y-119849019D01*
X145861271Y-119656571D01*
X145949845Y-119442735D01*
X145995000Y-119215727D01*
X145995000Y-118984273D01*
X146185000Y-118984273D01*
X146185000Y-119215727D01*
X146230155Y-119442735D01*
X146318729Y-119656571D01*
X146447318Y-119849019D01*
X146610981Y-120012682D01*
X146803429Y-120141271D01*
X147017265Y-120229845D01*
X147244273Y-120275000D01*
X147475727Y-120275000D01*
X147702735Y-120229845D01*
X147916571Y-120141271D01*
X148109019Y-120012682D01*
X148272682Y-119849019D01*
X148401271Y-119656571D01*
X148489845Y-119442735D01*
X148535000Y-119215727D01*
X148535000Y-118984273D01*
X148725000Y-118984273D01*
X148725000Y-119215727D01*
X148770155Y-119442735D01*
X148858729Y-119656571D01*
X148987318Y-119849019D01*
X149150981Y-120012682D01*
X149343429Y-120141271D01*
X149557265Y-120229845D01*
X149784273Y-120275000D01*
X150015727Y-120275000D01*
X150242735Y-120229845D01*
X150456571Y-120141271D01*
X150646347Y-120014467D01*
X151702310Y-120014467D01*
X151791668Y-120205016D01*
X152019704Y-120310266D01*
X152263890Y-120369007D01*
X152514844Y-120378981D01*
X152762923Y-120339804D01*
X152998592Y-120252983D01*
X153088332Y-120205016D01*
X153177690Y-120014467D01*
X152440000Y-119276777D01*
X151702310Y-120014467D01*
X150646347Y-120014467D01*
X150649019Y-120012682D01*
X150812682Y-119849019D01*
X150941271Y-119656571D01*
X151029845Y-119442735D01*
X151075000Y-119215727D01*
X151075000Y-119174844D01*
X151161019Y-119174844D01*
X151200196Y-119422923D01*
X151287017Y-119658592D01*
X151334984Y-119748332D01*
X151525533Y-119837690D01*
X152263223Y-119100000D01*
X152616777Y-119100000D01*
X153354467Y-119837690D01*
X153545016Y-119748332D01*
X153650266Y-119520296D01*
X153709007Y-119276110D01*
X153718981Y-119025156D01*
X153679804Y-118777077D01*
X153592983Y-118541408D01*
X153545016Y-118451668D01*
X153354467Y-118362310D01*
X152616777Y-119100000D01*
X152263223Y-119100000D01*
X151525533Y-118362310D01*
X151334984Y-118451668D01*
X151229734Y-118679704D01*
X151170993Y-118923890D01*
X151161019Y-119174844D01*
X151075000Y-119174844D01*
X151075000Y-118984273D01*
X151029845Y-118757265D01*
X150941271Y-118543429D01*
X150812682Y-118350981D01*
X150649019Y-118187318D01*
X150646348Y-118185533D01*
X151702310Y-118185533D01*
X152440000Y-118923223D01*
X153177690Y-118185533D01*
X153088332Y-117994984D01*
X152860296Y-117889734D01*
X152616110Y-117830993D01*
X152365156Y-117821019D01*
X152117077Y-117860196D01*
X151881408Y-117947017D01*
X151791668Y-117994984D01*
X151702310Y-118185533D01*
X150646348Y-118185533D01*
X150456571Y-118058729D01*
X150242735Y-117970155D01*
X150015727Y-117925000D01*
X149784273Y-117925000D01*
X149557265Y-117970155D01*
X149343429Y-118058729D01*
X149150981Y-118187318D01*
X148987318Y-118350981D01*
X148858729Y-118543429D01*
X148770155Y-118757265D01*
X148725000Y-118984273D01*
X148535000Y-118984273D01*
X148489845Y-118757265D01*
X148401271Y-118543429D01*
X148272682Y-118350981D01*
X148109019Y-118187318D01*
X147916571Y-118058729D01*
X147702735Y-117970155D01*
X147475727Y-117925000D01*
X147244273Y-117925000D01*
X147017265Y-117970155D01*
X146803429Y-118058729D01*
X146610981Y-118187318D01*
X146447318Y-118350981D01*
X146318729Y-118543429D01*
X146230155Y-118757265D01*
X146185000Y-118984273D01*
X145995000Y-118984273D01*
X145949845Y-118757265D01*
X145861271Y-118543429D01*
X145732682Y-118350981D01*
X145569019Y-118187318D01*
X145376571Y-118058729D01*
X145162735Y-117970155D01*
X144935727Y-117925000D01*
X144704273Y-117925000D01*
X144477265Y-117970155D01*
X144263429Y-118058729D01*
X144070981Y-118187318D01*
X143907318Y-118350981D01*
X143778729Y-118543429D01*
X143690155Y-118757265D01*
X143645000Y-118984273D01*
X124350000Y-118984273D01*
X124350000Y-116810404D01*
X127075000Y-116810404D01*
X127075000Y-117189596D01*
X127148977Y-117561502D01*
X127294087Y-117911829D01*
X127504755Y-118227116D01*
X127772884Y-118495245D01*
X128088171Y-118705913D01*
X128438498Y-118851023D01*
X128810404Y-118925000D01*
X129189596Y-118925000D01*
X129561502Y-118851023D01*
X129911829Y-118705913D01*
X130227116Y-118495245D01*
X130495245Y-118227116D01*
X130705913Y-117911829D01*
X130851023Y-117561502D01*
X130925000Y-117189596D01*
X130925000Y-116810404D01*
X130851023Y-116438498D01*
X130705913Y-116088171D01*
X130495245Y-115772884D01*
X130227116Y-115504755D01*
X129911829Y-115294087D01*
X129561502Y-115148977D01*
X129189596Y-115075000D01*
X128810404Y-115075000D01*
X128438498Y-115148977D01*
X128088171Y-115294087D01*
X127772884Y-115504755D01*
X127504755Y-115772884D01*
X127294087Y-116088171D01*
X127148977Y-116438498D01*
X127075000Y-116810404D01*
X124350000Y-116810404D01*
X124350000Y-108954565D01*
X124955000Y-108954565D01*
X124955000Y-109845434D01*
X124968385Y-109981331D01*
X125021277Y-110155694D01*
X125107170Y-110316388D01*
X125222762Y-110457238D01*
X125363611Y-110572830D01*
X125524305Y-110658723D01*
X125698668Y-110711615D01*
X125880000Y-110729475D01*
X126061331Y-110711615D01*
X126235694Y-110658723D01*
X126396388Y-110572830D01*
X126537238Y-110457238D01*
X126652830Y-110316389D01*
X126738723Y-110155695D01*
X126791615Y-109981332D01*
X126805000Y-109845435D01*
X126805000Y-108954565D01*
X127495000Y-108954565D01*
X127495000Y-109845434D01*
X127508385Y-109981331D01*
X127561277Y-110155694D01*
X127647170Y-110316388D01*
X127762762Y-110457238D01*
X127903611Y-110572830D01*
X128064305Y-110658723D01*
X128238668Y-110711615D01*
X128420000Y-110729475D01*
X128601331Y-110711615D01*
X128775694Y-110658723D01*
X128936388Y-110572830D01*
X129077238Y-110457238D01*
X129192830Y-110316389D01*
X129278723Y-110155695D01*
X129331615Y-109981332D01*
X129345000Y-109845435D01*
X129345000Y-108958245D01*
X130032280Y-108958245D01*
X130032280Y-109849114D01*
X130045665Y-109985011D01*
X130098557Y-110159374D01*
X130184450Y-110320068D01*
X130300042Y-110460918D01*
X130440891Y-110576510D01*
X130601585Y-110662403D01*
X130775948Y-110715295D01*
X130957280Y-110733155D01*
X131138611Y-110715295D01*
X131312974Y-110662403D01*
X131473668Y-110576510D01*
X131614518Y-110460918D01*
X131730110Y-110320069D01*
X131816003Y-110159375D01*
X131868895Y-109985012D01*
X131882280Y-109849115D01*
X131882280Y-108958245D01*
X132572280Y-108958245D01*
X132572280Y-109849114D01*
X132585665Y-109985011D01*
X132638557Y-110159374D01*
X132724450Y-110320068D01*
X132840042Y-110460918D01*
X132980891Y-110576510D01*
X133141585Y-110662403D01*
X133315948Y-110715295D01*
X133497280Y-110733155D01*
X133678611Y-110715295D01*
X133852974Y-110662403D01*
X134013668Y-110576510D01*
X134154518Y-110460918D01*
X134270110Y-110320069D01*
X134356003Y-110159375D01*
X134408895Y-109985012D01*
X134422280Y-109849115D01*
X134422280Y-108958245D01*
X135112280Y-108958245D01*
X135112280Y-109849114D01*
X135125665Y-109985011D01*
X135178557Y-110159374D01*
X135264450Y-110320068D01*
X135380042Y-110460918D01*
X135520891Y-110576510D01*
X135681585Y-110662403D01*
X135855948Y-110715295D01*
X136037280Y-110733155D01*
X136218611Y-110715295D01*
X136392974Y-110662403D01*
X136553668Y-110576510D01*
X136694518Y-110460918D01*
X136810110Y-110320069D01*
X136896003Y-110159375D01*
X136948895Y-109985012D01*
X136962280Y-109849115D01*
X136962280Y-108958245D01*
X137652280Y-108958245D01*
X137652280Y-109849114D01*
X137665665Y-109985011D01*
X137718557Y-110159374D01*
X137804450Y-110320068D01*
X137920042Y-110460918D01*
X138060891Y-110576510D01*
X138221585Y-110662403D01*
X138395948Y-110715295D01*
X138577280Y-110733155D01*
X138758611Y-110715295D01*
X138932974Y-110662403D01*
X139093668Y-110576510D01*
X139234518Y-110460918D01*
X139350110Y-110320069D01*
X139436003Y-110159375D01*
X139488895Y-109985012D01*
X139502280Y-109849115D01*
X139502280Y-108958245D01*
X140192280Y-108958245D01*
X140192280Y-109849114D01*
X140205665Y-109985011D01*
X140258557Y-110159374D01*
X140344450Y-110320068D01*
X140460042Y-110460918D01*
X140600891Y-110576510D01*
X140761585Y-110662403D01*
X140935948Y-110715295D01*
X141117280Y-110733155D01*
X141298611Y-110715295D01*
X141472974Y-110662403D01*
X141633668Y-110576510D01*
X141774518Y-110460918D01*
X141890110Y-110320069D01*
X141976003Y-110159375D01*
X142028895Y-109985012D01*
X142042280Y-109849115D01*
X142042280Y-108958245D01*
X142732280Y-108958245D01*
X142732280Y-109849114D01*
X142745665Y-109985011D01*
X142798557Y-110159374D01*
X142884450Y-110320068D01*
X143000042Y-110460918D01*
X143140891Y-110576510D01*
X143301585Y-110662403D01*
X143475948Y-110715295D01*
X143657280Y-110733155D01*
X143838611Y-110715295D01*
X144012974Y-110662403D01*
X144173668Y-110576510D01*
X144314518Y-110460918D01*
X144430110Y-110320069D01*
X144516003Y-110159375D01*
X144568895Y-109985012D01*
X144582280Y-109849115D01*
X144582280Y-108958245D01*
X145272280Y-108958245D01*
X145272280Y-109849114D01*
X145285665Y-109985011D01*
X145338557Y-110159374D01*
X145424450Y-110320068D01*
X145540042Y-110460918D01*
X145680891Y-110576510D01*
X145841585Y-110662403D01*
X146015948Y-110715295D01*
X146197280Y-110733155D01*
X146378611Y-110715295D01*
X146552974Y-110662403D01*
X146713668Y-110576510D01*
X146854518Y-110460918D01*
X146970110Y-110320069D01*
X147056003Y-110159375D01*
X147108895Y-109985012D01*
X147122280Y-109849115D01*
X147122280Y-108958245D01*
X147812280Y-108958245D01*
X147812280Y-109849114D01*
X147825665Y-109985011D01*
X147878557Y-110159374D01*
X147964450Y-110320068D01*
X148080042Y-110460918D01*
X148220891Y-110576510D01*
X148381585Y-110662403D01*
X148555948Y-110715295D01*
X148737280Y-110733155D01*
X148918611Y-110715295D01*
X149092974Y-110662403D01*
X149253668Y-110576510D01*
X149394518Y-110460918D01*
X149510110Y-110320069D01*
X149596003Y-110159375D01*
X149648895Y-109985012D01*
X149662280Y-109849115D01*
X149662280Y-108958245D01*
X150352280Y-108958245D01*
X150352280Y-109849114D01*
X150365665Y-109985011D01*
X150418557Y-110159374D01*
X150504450Y-110320068D01*
X150620042Y-110460918D01*
X150760891Y-110576510D01*
X150921585Y-110662403D01*
X151095948Y-110715295D01*
X151277280Y-110733155D01*
X151458611Y-110715295D01*
X151632974Y-110662403D01*
X151793668Y-110576510D01*
X151934518Y-110460918D01*
X152050110Y-110320069D01*
X152136003Y-110159375D01*
X152188895Y-109985012D01*
X152202280Y-109849115D01*
X152202280Y-108958245D01*
X152892280Y-108958245D01*
X152892280Y-109849114D01*
X152905665Y-109985011D01*
X152958557Y-110159374D01*
X153044450Y-110320068D01*
X153160042Y-110460918D01*
X153300891Y-110576510D01*
X153461585Y-110662403D01*
X153635948Y-110715295D01*
X153817280Y-110733155D01*
X153998611Y-110715295D01*
X154172974Y-110662403D01*
X154333668Y-110576510D01*
X154474518Y-110460918D01*
X154590110Y-110320069D01*
X154676003Y-110159375D01*
X154728895Y-109985012D01*
X154742280Y-109849115D01*
X154742280Y-109528680D01*
X155332280Y-109528680D01*
X155332280Y-109928680D01*
X155376361Y-110126246D01*
X155458139Y-110311416D01*
X155574470Y-110477074D01*
X155720884Y-110616854D01*
X155891755Y-110725384D01*
X156074671Y-110788949D01*
X156232280Y-110713887D01*
X156232280Y-109528680D01*
X156482280Y-109528680D01*
X156482280Y-110713887D01*
X156639889Y-110788949D01*
X156822805Y-110725384D01*
X156993676Y-110616854D01*
X157140090Y-110477074D01*
X157256421Y-110311416D01*
X157338199Y-110126246D01*
X157382280Y-109928680D01*
X157382280Y-109528680D01*
X156482280Y-109528680D01*
X156232280Y-109528680D01*
X155332280Y-109528680D01*
X154742280Y-109528680D01*
X154742280Y-108958245D01*
X154734444Y-108878680D01*
X155332280Y-108878680D01*
X155332280Y-109278680D01*
X156232280Y-109278680D01*
X156232280Y-108093473D01*
X156482280Y-108093473D01*
X156482280Y-109278680D01*
X157382280Y-109278680D01*
X157382280Y-108958245D01*
X157972280Y-108958245D01*
X157972280Y-109849114D01*
X157985665Y-109985011D01*
X158038557Y-110159374D01*
X158124450Y-110320068D01*
X158240042Y-110460918D01*
X158380891Y-110576510D01*
X158541585Y-110662403D01*
X158715948Y-110715295D01*
X158897280Y-110733155D01*
X159078611Y-110715295D01*
X159252974Y-110662403D01*
X159413668Y-110576510D01*
X159554518Y-110460918D01*
X159670110Y-110320069D01*
X159756003Y-110159375D01*
X159808895Y-109985012D01*
X159822280Y-109849115D01*
X159822280Y-108958245D01*
X160512280Y-108958245D01*
X160512280Y-109849114D01*
X160525665Y-109985011D01*
X160578557Y-110159374D01*
X160664450Y-110320068D01*
X160780042Y-110460918D01*
X160920891Y-110576510D01*
X161081585Y-110662403D01*
X161255948Y-110715295D01*
X161437280Y-110733155D01*
X161618611Y-110715295D01*
X161792974Y-110662403D01*
X161953668Y-110576510D01*
X162094518Y-110460918D01*
X162210110Y-110320069D01*
X162296003Y-110159375D01*
X162348895Y-109985012D01*
X162362280Y-109849115D01*
X162362280Y-108958245D01*
X163052280Y-108958245D01*
X163052280Y-109849114D01*
X163065665Y-109985011D01*
X163118557Y-110159374D01*
X163204450Y-110320068D01*
X163320042Y-110460918D01*
X163460891Y-110576510D01*
X163621585Y-110662403D01*
X163795948Y-110715295D01*
X163977280Y-110733155D01*
X164158611Y-110715295D01*
X164332974Y-110662403D01*
X164493668Y-110576510D01*
X164634518Y-110460918D01*
X164750110Y-110320069D01*
X164836003Y-110159375D01*
X164888895Y-109985012D01*
X164902280Y-109849115D01*
X164902280Y-108958245D01*
X165592280Y-108958245D01*
X165592280Y-109849114D01*
X165605665Y-109985011D01*
X165658557Y-110159374D01*
X165744450Y-110320068D01*
X165860042Y-110460918D01*
X166000891Y-110576510D01*
X166161585Y-110662403D01*
X166335948Y-110715295D01*
X166517280Y-110733155D01*
X166698611Y-110715295D01*
X166872974Y-110662403D01*
X167033668Y-110576510D01*
X167174518Y-110460918D01*
X167290110Y-110320069D01*
X167376003Y-110159375D01*
X167428895Y-109985012D01*
X167442280Y-109849115D01*
X167442280Y-108958245D01*
X168132280Y-108958245D01*
X168132280Y-109849114D01*
X168145665Y-109985011D01*
X168198557Y-110159374D01*
X168284450Y-110320068D01*
X168400042Y-110460918D01*
X168540891Y-110576510D01*
X168701585Y-110662403D01*
X168875948Y-110715295D01*
X169057280Y-110733155D01*
X169238611Y-110715295D01*
X169412974Y-110662403D01*
X169573668Y-110576510D01*
X169714518Y-110460918D01*
X169761492Y-110403680D01*
X170570224Y-110403680D01*
X170578430Y-110486994D01*
X170602732Y-110567107D01*
X170642196Y-110640940D01*
X170695306Y-110705654D01*
X170760020Y-110758764D01*
X170833853Y-110798228D01*
X170913966Y-110822530D01*
X170997280Y-110830736D01*
X171366030Y-110828680D01*
X171472280Y-110722430D01*
X171472280Y-109528680D01*
X171722280Y-109528680D01*
X171722280Y-110722430D01*
X171828530Y-110828680D01*
X172197280Y-110830736D01*
X172280594Y-110822530D01*
X172360707Y-110798228D01*
X172434540Y-110758764D01*
X172499254Y-110705654D01*
X172552364Y-110640940D01*
X172591828Y-110567107D01*
X172616130Y-110486994D01*
X172624336Y-110403680D01*
X172622280Y-109634930D01*
X172516030Y-109528680D01*
X171722280Y-109528680D01*
X171472280Y-109528680D01*
X170678530Y-109528680D01*
X170572280Y-109634930D01*
X170570224Y-110403680D01*
X169761492Y-110403680D01*
X169830110Y-110320069D01*
X169916003Y-110159375D01*
X169968895Y-109985012D01*
X169982280Y-109849115D01*
X169982280Y-108958245D01*
X169968895Y-108822348D01*
X169916003Y-108647985D01*
X169830110Y-108487291D01*
X169761493Y-108403680D01*
X170570224Y-108403680D01*
X170572280Y-109172430D01*
X170678530Y-109278680D01*
X171472280Y-109278680D01*
X171472280Y-108084930D01*
X171722280Y-108084930D01*
X171722280Y-109278680D01*
X172516030Y-109278680D01*
X172622280Y-109172430D01*
X172624336Y-108403680D01*
X172616130Y-108320366D01*
X172591828Y-108240253D01*
X172552364Y-108166420D01*
X172499254Y-108101706D01*
X172434540Y-108048596D01*
X172360707Y-108009132D01*
X172280594Y-107984830D01*
X172197280Y-107976624D01*
X171828530Y-107978680D01*
X171722280Y-108084930D01*
X171472280Y-108084930D01*
X171366030Y-107978680D01*
X170997280Y-107976624D01*
X170913966Y-107984830D01*
X170833853Y-108009132D01*
X170760020Y-108048596D01*
X170695306Y-108101706D01*
X170642196Y-108166420D01*
X170602732Y-108240253D01*
X170578430Y-108320366D01*
X170570224Y-108403680D01*
X169761493Y-108403680D01*
X169714518Y-108346442D01*
X169573669Y-108230850D01*
X169412975Y-108144957D01*
X169238612Y-108092065D01*
X169057280Y-108074205D01*
X168875949Y-108092065D01*
X168701586Y-108144957D01*
X168540892Y-108230850D01*
X168400043Y-108346442D01*
X168284451Y-108487291D01*
X168198558Y-108647985D01*
X168145666Y-108822348D01*
X168132280Y-108958245D01*
X167442280Y-108958245D01*
X167428895Y-108822348D01*
X167376003Y-108647985D01*
X167290110Y-108487291D01*
X167174518Y-108346442D01*
X167033669Y-108230850D01*
X166872975Y-108144957D01*
X166698612Y-108092065D01*
X166517280Y-108074205D01*
X166335949Y-108092065D01*
X166161586Y-108144957D01*
X166000892Y-108230850D01*
X165860043Y-108346442D01*
X165744451Y-108487291D01*
X165658558Y-108647985D01*
X165605666Y-108822348D01*
X165592280Y-108958245D01*
X164902280Y-108958245D01*
X164888895Y-108822348D01*
X164836003Y-108647985D01*
X164750110Y-108487291D01*
X164634518Y-108346442D01*
X164493669Y-108230850D01*
X164332975Y-108144957D01*
X164158612Y-108092065D01*
X163977280Y-108074205D01*
X163795949Y-108092065D01*
X163621586Y-108144957D01*
X163460892Y-108230850D01*
X163320043Y-108346442D01*
X163204451Y-108487291D01*
X163118558Y-108647985D01*
X163065666Y-108822348D01*
X163052280Y-108958245D01*
X162362280Y-108958245D01*
X162348895Y-108822348D01*
X162296003Y-108647985D01*
X162210110Y-108487291D01*
X162094518Y-108346442D01*
X161953669Y-108230850D01*
X161792975Y-108144957D01*
X161618612Y-108092065D01*
X161437280Y-108074205D01*
X161255949Y-108092065D01*
X161081586Y-108144957D01*
X160920892Y-108230850D01*
X160780043Y-108346442D01*
X160664451Y-108487291D01*
X160578558Y-108647985D01*
X160525666Y-108822348D01*
X160512280Y-108958245D01*
X159822280Y-108958245D01*
X159808895Y-108822348D01*
X159756003Y-108647985D01*
X159670110Y-108487291D01*
X159554518Y-108346442D01*
X159413669Y-108230850D01*
X159252975Y-108144957D01*
X159078612Y-108092065D01*
X158897280Y-108074205D01*
X158715949Y-108092065D01*
X158541586Y-108144957D01*
X158380892Y-108230850D01*
X158240043Y-108346442D01*
X158124451Y-108487291D01*
X158038558Y-108647985D01*
X157985666Y-108822348D01*
X157972280Y-108958245D01*
X157382280Y-108958245D01*
X157382280Y-108878680D01*
X157338199Y-108681114D01*
X157256421Y-108495944D01*
X157140090Y-108330286D01*
X156993676Y-108190506D01*
X156822805Y-108081976D01*
X156639889Y-108018411D01*
X156482280Y-108093473D01*
X156232280Y-108093473D01*
X156074671Y-108018411D01*
X155891755Y-108081976D01*
X155720884Y-108190506D01*
X155574470Y-108330286D01*
X155458139Y-108495944D01*
X155376361Y-108681114D01*
X155332280Y-108878680D01*
X154734444Y-108878680D01*
X154728895Y-108822348D01*
X154676003Y-108647985D01*
X154590110Y-108487291D01*
X154474518Y-108346442D01*
X154333669Y-108230850D01*
X154172975Y-108144957D01*
X153998612Y-108092065D01*
X153817280Y-108074205D01*
X153635949Y-108092065D01*
X153461586Y-108144957D01*
X153300892Y-108230850D01*
X153160043Y-108346442D01*
X153044451Y-108487291D01*
X152958558Y-108647985D01*
X152905666Y-108822348D01*
X152892280Y-108958245D01*
X152202280Y-108958245D01*
X152188895Y-108822348D01*
X152136003Y-108647985D01*
X152050110Y-108487291D01*
X151934518Y-108346442D01*
X151793669Y-108230850D01*
X151632975Y-108144957D01*
X151458612Y-108092065D01*
X151277280Y-108074205D01*
X151095949Y-108092065D01*
X150921586Y-108144957D01*
X150760892Y-108230850D01*
X150620043Y-108346442D01*
X150504451Y-108487291D01*
X150418558Y-108647985D01*
X150365666Y-108822348D01*
X150352280Y-108958245D01*
X149662280Y-108958245D01*
X149648895Y-108822348D01*
X149596003Y-108647985D01*
X149510110Y-108487291D01*
X149394518Y-108346442D01*
X149253669Y-108230850D01*
X149092975Y-108144957D01*
X148918612Y-108092065D01*
X148737280Y-108074205D01*
X148555949Y-108092065D01*
X148381586Y-108144957D01*
X148220892Y-108230850D01*
X148080043Y-108346442D01*
X147964451Y-108487291D01*
X147878558Y-108647985D01*
X147825666Y-108822348D01*
X147812280Y-108958245D01*
X147122280Y-108958245D01*
X147108895Y-108822348D01*
X147056003Y-108647985D01*
X146970110Y-108487291D01*
X146854518Y-108346442D01*
X146713669Y-108230850D01*
X146552975Y-108144957D01*
X146378612Y-108092065D01*
X146197280Y-108074205D01*
X146015949Y-108092065D01*
X145841586Y-108144957D01*
X145680892Y-108230850D01*
X145540043Y-108346442D01*
X145424451Y-108487291D01*
X145338558Y-108647985D01*
X145285666Y-108822348D01*
X145272280Y-108958245D01*
X144582280Y-108958245D01*
X144568895Y-108822348D01*
X144516003Y-108647985D01*
X144430110Y-108487291D01*
X144314518Y-108346442D01*
X144173669Y-108230850D01*
X144012975Y-108144957D01*
X143838612Y-108092065D01*
X143657280Y-108074205D01*
X143475949Y-108092065D01*
X143301586Y-108144957D01*
X143140892Y-108230850D01*
X143000043Y-108346442D01*
X142884451Y-108487291D01*
X142798558Y-108647985D01*
X142745666Y-108822348D01*
X142732280Y-108958245D01*
X142042280Y-108958245D01*
X142028895Y-108822348D01*
X141976003Y-108647985D01*
X141890110Y-108487291D01*
X141774518Y-108346442D01*
X141633669Y-108230850D01*
X141472975Y-108144957D01*
X141298612Y-108092065D01*
X141117280Y-108074205D01*
X140935949Y-108092065D01*
X140761586Y-108144957D01*
X140600892Y-108230850D01*
X140460043Y-108346442D01*
X140344451Y-108487291D01*
X140258558Y-108647985D01*
X140205666Y-108822348D01*
X140192280Y-108958245D01*
X139502280Y-108958245D01*
X139488895Y-108822348D01*
X139436003Y-108647985D01*
X139350110Y-108487291D01*
X139234518Y-108346442D01*
X139093669Y-108230850D01*
X138932975Y-108144957D01*
X138758612Y-108092065D01*
X138577280Y-108074205D01*
X138395949Y-108092065D01*
X138221586Y-108144957D01*
X138060892Y-108230850D01*
X137920043Y-108346442D01*
X137804451Y-108487291D01*
X137718558Y-108647985D01*
X137665666Y-108822348D01*
X137652280Y-108958245D01*
X136962280Y-108958245D01*
X136948895Y-108822348D01*
X136896003Y-108647985D01*
X136810110Y-108487291D01*
X136694518Y-108346442D01*
X136553669Y-108230850D01*
X136392975Y-108144957D01*
X136218612Y-108092065D01*
X136037280Y-108074205D01*
X135855949Y-108092065D01*
X135681586Y-108144957D01*
X135520892Y-108230850D01*
X135380043Y-108346442D01*
X135264451Y-108487291D01*
X135178558Y-108647985D01*
X135125666Y-108822348D01*
X135112280Y-108958245D01*
X134422280Y-108958245D01*
X134408895Y-108822348D01*
X134356003Y-108647985D01*
X134270110Y-108487291D01*
X134154518Y-108346442D01*
X134013669Y-108230850D01*
X133852975Y-108144957D01*
X133678612Y-108092065D01*
X133497280Y-108074205D01*
X133315949Y-108092065D01*
X133141586Y-108144957D01*
X132980892Y-108230850D01*
X132840043Y-108346442D01*
X132724451Y-108487291D01*
X132638558Y-108647985D01*
X132585666Y-108822348D01*
X132572280Y-108958245D01*
X131882280Y-108958245D01*
X131868895Y-108822348D01*
X131816003Y-108647985D01*
X131730110Y-108487291D01*
X131614518Y-108346442D01*
X131473669Y-108230850D01*
X131312975Y-108144957D01*
X131138612Y-108092065D01*
X130957280Y-108074205D01*
X130775949Y-108092065D01*
X130601586Y-108144957D01*
X130440892Y-108230850D01*
X130300043Y-108346442D01*
X130184451Y-108487291D01*
X130098558Y-108647985D01*
X130045666Y-108822348D01*
X130032280Y-108958245D01*
X129345000Y-108958245D01*
X129345000Y-108954565D01*
X129331615Y-108818668D01*
X129278723Y-108644305D01*
X129192830Y-108483611D01*
X129077238Y-108342762D01*
X128936389Y-108227170D01*
X128775695Y-108141277D01*
X128601332Y-108088385D01*
X128420000Y-108070525D01*
X128238669Y-108088385D01*
X128064306Y-108141277D01*
X127903612Y-108227170D01*
X127762763Y-108342762D01*
X127647171Y-108483611D01*
X127561278Y-108644305D01*
X127508386Y-108818668D01*
X127495000Y-108954565D01*
X126805000Y-108954565D01*
X126791615Y-108818668D01*
X126738723Y-108644305D01*
X126652830Y-108483611D01*
X126537238Y-108342762D01*
X126396389Y-108227170D01*
X126235695Y-108141277D01*
X126061332Y-108088385D01*
X125880000Y-108070525D01*
X125698669Y-108088385D01*
X125524306Y-108141277D01*
X125363612Y-108227170D01*
X125222763Y-108342762D01*
X125107171Y-108483611D01*
X125021278Y-108644305D01*
X124968386Y-108818668D01*
X124955000Y-108954565D01*
X124350000Y-108954565D01*
X124350000Y-83558245D01*
X124952280Y-83558245D01*
X124952280Y-84449114D01*
X124965665Y-84585011D01*
X125018557Y-84759374D01*
X125052280Y-84822465D01*
X125052281Y-93136757D01*
X125048290Y-93177280D01*
X125064218Y-93339008D01*
X125111393Y-93494521D01*
X125188000Y-93637843D01*
X125291096Y-93763465D01*
X125322571Y-93789296D01*
X131987984Y-100454710D01*
X132013815Y-100486185D01*
X132139437Y-100589281D01*
X132232836Y-100639203D01*
X132282758Y-100665888D01*
X132438272Y-100713062D01*
X132559479Y-100725000D01*
X132559487Y-100725000D01*
X132600000Y-100728990D01*
X132640513Y-100725000D01*
X172758275Y-100725000D01*
X177575001Y-105541727D01*
X177575000Y-114158274D01*
X173458275Y-118275000D01*
X156156572Y-118275000D01*
X156156572Y-118250000D01*
X156150297Y-118186289D01*
X156131713Y-118125026D01*
X156101535Y-118068566D01*
X156060921Y-118019079D01*
X156011434Y-117978465D01*
X155954974Y-117948287D01*
X155893711Y-117929703D01*
X155830000Y-117923428D01*
X154130000Y-117923428D01*
X154066289Y-117929703D01*
X154005026Y-117948287D01*
X153948566Y-117978465D01*
X153899079Y-118019079D01*
X153858465Y-118068566D01*
X153828287Y-118125026D01*
X153809703Y-118186289D01*
X153803428Y-118250000D01*
X153803428Y-119950000D01*
X153809703Y-120013711D01*
X153828287Y-120074974D01*
X153858465Y-120131434D01*
X153899079Y-120180921D01*
X153948566Y-120221535D01*
X154005026Y-120251713D01*
X154066289Y-120270297D01*
X154130000Y-120276572D01*
X155830000Y-120276572D01*
X155893711Y-120270297D01*
X155954974Y-120251713D01*
X156011434Y-120221535D01*
X156060921Y-120180921D01*
X156101535Y-120131434D01*
X156131713Y-120074974D01*
X156150297Y-120013711D01*
X156156572Y-119950000D01*
X156156572Y-119925000D01*
X173759487Y-119925000D01*
X173800000Y-119928990D01*
X173840513Y-119925000D01*
X173840521Y-119925000D01*
X173961728Y-119913062D01*
X174117241Y-119865888D01*
X174260563Y-119789281D01*
X174386185Y-119686185D01*
X174412021Y-119654704D01*
X177256321Y-116810404D01*
X209075000Y-116810404D01*
X209075000Y-117189596D01*
X209148977Y-117561502D01*
X209294087Y-117911829D01*
X209504755Y-118227116D01*
X209772884Y-118495245D01*
X210088171Y-118705913D01*
X210438498Y-118851023D01*
X210810404Y-118925000D01*
X211189596Y-118925000D01*
X211561502Y-118851023D01*
X211911829Y-118705913D01*
X212227116Y-118495245D01*
X212495245Y-118227116D01*
X212705913Y-117911829D01*
X212851023Y-117561502D01*
X212925000Y-117189596D01*
X212925000Y-116810404D01*
X212851023Y-116438498D01*
X212705913Y-116088171D01*
X212495245Y-115772884D01*
X212227116Y-115504755D01*
X211911829Y-115294087D01*
X211561502Y-115148977D01*
X211189596Y-115075000D01*
X210810404Y-115075000D01*
X210438498Y-115148977D01*
X210088171Y-115294087D01*
X209772884Y-115504755D01*
X209504755Y-115772884D01*
X209294087Y-116088171D01*
X209148977Y-116438498D01*
X209075000Y-116810404D01*
X177256321Y-116810404D01*
X178954711Y-115112015D01*
X178986185Y-115086185D01*
X179089281Y-114960563D01*
X179165888Y-114817241D01*
X179213062Y-114661728D01*
X179225000Y-114540521D01*
X179225000Y-114540514D01*
X179228990Y-114500001D01*
X179225000Y-114459488D01*
X179225000Y-111294273D01*
X203825000Y-111294273D01*
X203825000Y-111525727D01*
X203870155Y-111752735D01*
X203958729Y-111966571D01*
X204087318Y-112159019D01*
X204250981Y-112322682D01*
X204443429Y-112451271D01*
X204657265Y-112539845D01*
X204884273Y-112585000D01*
X205115727Y-112585000D01*
X205342735Y-112539845D01*
X205556571Y-112451271D01*
X205749019Y-112322682D01*
X205912682Y-112159019D01*
X206041271Y-111966571D01*
X206129845Y-111752735D01*
X206175000Y-111525727D01*
X206175000Y-111294273D01*
X206129845Y-111067265D01*
X206041271Y-110853429D01*
X205912682Y-110660981D01*
X205749019Y-110497318D01*
X205556571Y-110368729D01*
X205342735Y-110280155D01*
X205115727Y-110235000D01*
X204884273Y-110235000D01*
X204657265Y-110280155D01*
X204443429Y-110368729D01*
X204250981Y-110497318D01*
X204087318Y-110660981D01*
X203958729Y-110853429D01*
X203870155Y-111067265D01*
X203825000Y-111294273D01*
X179225000Y-111294273D01*
X179225000Y-108754273D01*
X203825000Y-108754273D01*
X203825000Y-108985727D01*
X203870155Y-109212735D01*
X203958729Y-109426571D01*
X204087318Y-109619019D01*
X204250981Y-109782682D01*
X204443429Y-109911271D01*
X204657265Y-109999845D01*
X204884273Y-110045000D01*
X205115727Y-110045000D01*
X205342735Y-109999845D01*
X205556571Y-109911271D01*
X205749019Y-109782682D01*
X205912682Y-109619019D01*
X206041271Y-109426571D01*
X206129845Y-109212735D01*
X206175000Y-108985727D01*
X206175000Y-108754273D01*
X206129845Y-108527265D01*
X206041271Y-108313429D01*
X205912682Y-108120981D01*
X205749019Y-107957318D01*
X205556571Y-107828729D01*
X205342735Y-107740155D01*
X205115727Y-107695000D01*
X204884273Y-107695000D01*
X204657265Y-107740155D01*
X204443429Y-107828729D01*
X204250981Y-107957318D01*
X204087318Y-108120981D01*
X203958729Y-108313429D01*
X203870155Y-108527265D01*
X203825000Y-108754273D01*
X179225000Y-108754273D01*
X179225000Y-107244467D01*
X204262310Y-107244467D01*
X204351668Y-107435016D01*
X204579704Y-107540266D01*
X204823890Y-107599007D01*
X205074844Y-107608981D01*
X205322923Y-107569804D01*
X205558592Y-107482983D01*
X205648332Y-107435016D01*
X205737690Y-107244467D01*
X205000000Y-106506777D01*
X204262310Y-107244467D01*
X179225000Y-107244467D01*
X179225000Y-106404844D01*
X203721019Y-106404844D01*
X203760196Y-106652923D01*
X203847017Y-106888592D01*
X203894984Y-106978332D01*
X204085533Y-107067690D01*
X204823223Y-106330000D01*
X205176777Y-106330000D01*
X205914467Y-107067690D01*
X206105016Y-106978332D01*
X206210266Y-106750296D01*
X206269007Y-106506110D01*
X206278981Y-106255156D01*
X206239804Y-106007077D01*
X206152983Y-105771408D01*
X206105016Y-105681668D01*
X205914467Y-105592310D01*
X205176777Y-106330000D01*
X204823223Y-106330000D01*
X204085533Y-105592310D01*
X203894984Y-105681668D01*
X203789734Y-105909704D01*
X203730993Y-106153890D01*
X203721019Y-106404844D01*
X179225000Y-106404844D01*
X179225000Y-105541725D01*
X179351192Y-105415533D01*
X204262310Y-105415533D01*
X205000000Y-106153223D01*
X205737690Y-105415533D01*
X205648332Y-105224984D01*
X205420296Y-105119734D01*
X205176110Y-105060993D01*
X204925156Y-105051019D01*
X204677077Y-105090196D01*
X204441408Y-105177017D01*
X204351668Y-105224984D01*
X204262310Y-105415533D01*
X179351192Y-105415533D01*
X180151726Y-104615000D01*
X203911428Y-104615000D01*
X203911428Y-104640000D01*
X203917703Y-104703711D01*
X203936287Y-104764974D01*
X203966465Y-104821434D01*
X204007079Y-104870921D01*
X204056566Y-104911535D01*
X204113026Y-104941713D01*
X204174289Y-104960297D01*
X204238000Y-104966572D01*
X205762000Y-104966572D01*
X205825711Y-104960297D01*
X205886974Y-104941713D01*
X205943434Y-104911535D01*
X205992921Y-104870921D01*
X206033535Y-104821434D01*
X206063713Y-104764974D01*
X206082297Y-104703711D01*
X206088572Y-104640000D01*
X206088572Y-102940000D01*
X206082297Y-102876289D01*
X206063713Y-102815026D01*
X206033535Y-102758566D01*
X205992921Y-102709079D01*
X205943434Y-102668465D01*
X205886974Y-102638287D01*
X205825711Y-102619703D01*
X205762000Y-102613428D01*
X204238000Y-102613428D01*
X204174289Y-102619703D01*
X204113026Y-102638287D01*
X204056566Y-102668465D01*
X204007079Y-102709079D01*
X203966465Y-102758566D01*
X203936287Y-102815026D01*
X203917703Y-102876289D01*
X203911428Y-102940000D01*
X203911428Y-102965000D01*
X179850512Y-102965000D01*
X179809999Y-102961010D01*
X179769486Y-102965000D01*
X179769479Y-102965000D01*
X179663870Y-102975402D01*
X179648271Y-102976938D01*
X179601097Y-102991248D01*
X179492759Y-103024112D01*
X179349437Y-103100719D01*
X179223815Y-103203815D01*
X179197984Y-103235290D01*
X178400000Y-104033274D01*
X173712021Y-99345296D01*
X173686185Y-99313815D01*
X173560563Y-99210719D01*
X173417241Y-99134112D01*
X173261728Y-99086938D01*
X173140521Y-99075000D01*
X173140513Y-99075000D01*
X173100000Y-99071010D01*
X173059487Y-99075000D01*
X132941726Y-99075000D01*
X126702280Y-92835555D01*
X126702280Y-89853614D01*
X176474063Y-89853614D01*
X176474063Y-89996426D01*
X176501924Y-90136495D01*
X176556576Y-90268436D01*
X176635919Y-90387181D01*
X176736902Y-90488164D01*
X176855647Y-90567507D01*
X176987588Y-90622159D01*
X177127657Y-90650020D01*
X177270469Y-90650020D01*
X177410538Y-90622159D01*
X177542479Y-90567507D01*
X177661224Y-90488164D01*
X177699065Y-90450324D01*
X177736905Y-90488164D01*
X177855650Y-90567507D01*
X177987591Y-90622159D01*
X178127660Y-90650020D01*
X178270472Y-90650020D01*
X178410541Y-90622159D01*
X178542482Y-90567507D01*
X178661227Y-90488164D01*
X178699533Y-90449858D01*
X178737839Y-90488164D01*
X178856584Y-90567507D01*
X178988525Y-90622159D01*
X179128594Y-90650020D01*
X179271406Y-90650020D01*
X179411475Y-90622159D01*
X179543416Y-90567507D01*
X179662161Y-90488164D01*
X179700002Y-90450324D01*
X179750493Y-90500815D01*
X179869238Y-90580158D01*
X180001179Y-90634810D01*
X180141248Y-90662671D01*
X180284060Y-90662671D01*
X180424129Y-90634810D01*
X180556070Y-90580158D01*
X180674815Y-90500815D01*
X180718940Y-90456690D01*
X180750414Y-90488164D01*
X180869159Y-90567507D01*
X181001100Y-90622159D01*
X181141169Y-90650020D01*
X181283981Y-90650020D01*
X181424050Y-90622159D01*
X181555991Y-90567507D01*
X181674736Y-90488164D01*
X181712577Y-90450324D01*
X181750417Y-90488164D01*
X181869162Y-90567507D01*
X182001103Y-90622159D01*
X182141172Y-90650020D01*
X182283984Y-90650020D01*
X182424053Y-90622159D01*
X182555994Y-90567507D01*
X182674739Y-90488164D01*
X182775722Y-90387181D01*
X182855065Y-90268436D01*
X182909717Y-90136495D01*
X182937578Y-89996426D01*
X182937578Y-89853614D01*
X182928487Y-89807909D01*
X182986396Y-89750000D01*
X187128730Y-89750000D01*
X187136856Y-89762161D01*
X187237839Y-89863144D01*
X187356584Y-89942487D01*
X187488525Y-89997139D01*
X187628594Y-90025000D01*
X187771406Y-90025000D01*
X187911475Y-89997139D01*
X188043416Y-89942487D01*
X188162161Y-89863144D01*
X188263144Y-89762161D01*
X188300000Y-89707002D01*
X188336856Y-89762161D01*
X188437839Y-89863144D01*
X188556584Y-89942487D01*
X188688525Y-89997139D01*
X188828594Y-90025000D01*
X188971406Y-90025000D01*
X189111475Y-89997139D01*
X189243416Y-89942487D01*
X189362161Y-89863144D01*
X189463144Y-89762161D01*
X189542487Y-89643416D01*
X189597139Y-89511475D01*
X189625000Y-89371406D01*
X189625000Y-89334397D01*
X190718175Y-90427573D01*
X190732262Y-90444738D01*
X190749427Y-90458825D01*
X190749431Y-90458829D01*
X190800782Y-90500972D01*
X190878958Y-90542758D01*
X190963784Y-90568490D01*
X191029894Y-90575001D01*
X191029904Y-90575001D01*
X191051999Y-90577177D01*
X191074093Y-90575001D01*
X191952905Y-90575001D01*
X191974999Y-90577177D01*
X191997093Y-90575001D01*
X191997104Y-90575001D01*
X192063214Y-90568490D01*
X192148040Y-90542758D01*
X192226215Y-90500972D01*
X192294736Y-90444738D01*
X192308827Y-90427568D01*
X192614249Y-90122147D01*
X192628594Y-90125000D01*
X192771406Y-90125000D01*
X192911475Y-90097139D01*
X193043416Y-90042487D01*
X193162161Y-89963144D01*
X193263144Y-89862161D01*
X193342487Y-89743416D01*
X193397139Y-89611475D01*
X193425000Y-89471406D01*
X193425000Y-89328594D01*
X193397139Y-89188525D01*
X193342487Y-89056584D01*
X193263144Y-88937839D01*
X193162161Y-88836856D01*
X193043416Y-88757513D01*
X192911475Y-88702861D01*
X192771406Y-88675000D01*
X192628594Y-88675000D01*
X192488525Y-88702861D01*
X192356584Y-88757513D01*
X192237839Y-88836856D01*
X192136856Y-88937839D01*
X192057513Y-89056584D01*
X192050000Y-89074722D01*
X192042487Y-89056584D01*
X191963144Y-88937839D01*
X191862161Y-88836856D01*
X191743416Y-88757513D01*
X191611475Y-88702861D01*
X191471406Y-88675000D01*
X191328594Y-88675000D01*
X191188525Y-88702861D01*
X191056584Y-88757513D01*
X190997078Y-88797274D01*
X190022224Y-87822421D01*
X190008134Y-87805252D01*
X189939613Y-87749018D01*
X189861438Y-87707232D01*
X189776612Y-87681500D01*
X189710502Y-87674989D01*
X189710491Y-87674989D01*
X189688397Y-87672813D01*
X189666303Y-87674989D01*
X189184205Y-87674989D01*
X188881622Y-87372407D01*
X188867535Y-87355242D01*
X188850370Y-87341155D01*
X188850366Y-87341151D01*
X188799015Y-87299008D01*
X188720839Y-87257222D01*
X188714381Y-87255263D01*
X188636013Y-87231490D01*
X188569903Y-87224979D01*
X188569893Y-87224979D01*
X188547799Y-87222803D01*
X188525704Y-87224979D01*
X187001302Y-87224981D01*
X186979198Y-87222804D01*
X186890983Y-87231492D01*
X186806157Y-87257223D01*
X186727981Y-87299009D01*
X186676631Y-87341152D01*
X186676626Y-87341157D01*
X186659461Y-87355244D01*
X186645374Y-87372409D01*
X186517813Y-87499970D01*
X181863909Y-87499972D01*
X181841805Y-87497795D01*
X181753590Y-87506483D01*
X181668764Y-87532214D01*
X181590588Y-87574000D01*
X181539237Y-87616143D01*
X181539228Y-87616152D01*
X181522068Y-87630235D01*
X181507985Y-87647395D01*
X180855372Y-88300009D01*
X180397103Y-88300009D01*
X180375008Y-88297833D01*
X180352914Y-88300009D01*
X180352904Y-88300009D01*
X180286794Y-88306520D01*
X180201968Y-88332252D01*
X180123792Y-88374038D01*
X180089771Y-88401959D01*
X180055272Y-88430272D01*
X180041181Y-88447442D01*
X179809947Y-88678676D01*
X179809941Y-88678681D01*
X179285750Y-89202873D01*
X179271406Y-89200020D01*
X179128594Y-89200020D01*
X178988525Y-89227881D01*
X178856584Y-89282533D01*
X178737839Y-89361876D01*
X178699533Y-89400182D01*
X178661227Y-89361876D01*
X178542482Y-89282533D01*
X178500010Y-89264940D01*
X178500010Y-87773090D01*
X178513561Y-87767477D01*
X178632306Y-87688134D01*
X178733289Y-87587151D01*
X178812632Y-87468406D01*
X178867284Y-87336465D01*
X178895145Y-87196396D01*
X178895145Y-87053584D01*
X178867284Y-86913515D01*
X178812632Y-86781574D01*
X178733289Y-86662829D01*
X178632306Y-86561846D01*
X178513561Y-86482503D01*
X178381620Y-86427851D01*
X178241551Y-86399990D01*
X178098739Y-86399990D01*
X177958670Y-86427851D01*
X177826729Y-86482503D01*
X177707984Y-86561846D01*
X177607001Y-86662829D01*
X177527658Y-86781574D01*
X177476601Y-86904837D01*
X177411475Y-86877861D01*
X177271406Y-86850000D01*
X177128594Y-86850000D01*
X176988525Y-86877861D01*
X176856584Y-86932513D01*
X176737839Y-87011856D01*
X176636856Y-87112839D01*
X176557513Y-87231584D01*
X176502861Y-87363525D01*
X176475000Y-87503594D01*
X176475000Y-87646406D01*
X176502861Y-87786475D01*
X176557513Y-87918416D01*
X176636856Y-88037161D01*
X176737839Y-88138144D01*
X176856584Y-88217487D01*
X176988525Y-88272139D01*
X177128594Y-88300000D01*
X177150000Y-88300000D01*
X177150001Y-89200020D01*
X177127657Y-89200020D01*
X176987588Y-89227881D01*
X176855647Y-89282533D01*
X176736902Y-89361876D01*
X176635919Y-89462859D01*
X176556576Y-89581604D01*
X176501924Y-89713545D01*
X176474063Y-89853614D01*
X126702280Y-89853614D01*
X126702280Y-84822466D01*
X126736003Y-84759375D01*
X126788895Y-84585012D01*
X126802280Y-84449115D01*
X126802280Y-83558245D01*
X127492280Y-83558245D01*
X127492280Y-84449114D01*
X127505665Y-84585011D01*
X127558557Y-84759374D01*
X127644450Y-84920068D01*
X127760042Y-85060918D01*
X127900891Y-85176510D01*
X128061585Y-85262403D01*
X128235948Y-85315295D01*
X128417280Y-85333155D01*
X128598611Y-85315295D01*
X128772974Y-85262403D01*
X128933668Y-85176510D01*
X129074518Y-85060918D01*
X129190110Y-84920069D01*
X129276003Y-84759375D01*
X129328895Y-84585012D01*
X129342280Y-84449115D01*
X129342280Y-83558245D01*
X130032280Y-83558245D01*
X130032280Y-84449114D01*
X130045665Y-84585011D01*
X130098557Y-84759374D01*
X130184450Y-84920068D01*
X130300042Y-85060918D01*
X130440891Y-85176510D01*
X130601585Y-85262403D01*
X130775948Y-85315295D01*
X130957280Y-85333155D01*
X131138611Y-85315295D01*
X131312974Y-85262403D01*
X131473668Y-85176510D01*
X131614518Y-85060918D01*
X131730110Y-84920069D01*
X131816003Y-84759375D01*
X131868895Y-84585012D01*
X131882280Y-84449115D01*
X131882280Y-83558245D01*
X132572280Y-83558245D01*
X132572280Y-84449114D01*
X132585665Y-84585011D01*
X132638557Y-84759374D01*
X132724450Y-84920068D01*
X132840042Y-85060918D01*
X132980891Y-85176510D01*
X133141585Y-85262403D01*
X133315948Y-85315295D01*
X133497280Y-85333155D01*
X133678611Y-85315295D01*
X133852974Y-85262403D01*
X134013668Y-85176510D01*
X134154518Y-85060918D01*
X134270110Y-84920069D01*
X134356003Y-84759375D01*
X134408895Y-84585012D01*
X134422280Y-84449115D01*
X134422280Y-83558245D01*
X135112280Y-83558245D01*
X135112280Y-84449114D01*
X135125665Y-84585011D01*
X135178557Y-84759374D01*
X135264450Y-84920068D01*
X135380042Y-85060918D01*
X135520891Y-85176510D01*
X135681585Y-85262403D01*
X135855948Y-85315295D01*
X136037280Y-85333155D01*
X136218611Y-85315295D01*
X136392974Y-85262403D01*
X136553668Y-85176510D01*
X136694518Y-85060918D01*
X136741492Y-85003680D01*
X137550224Y-85003680D01*
X137558430Y-85086994D01*
X137582732Y-85167107D01*
X137622196Y-85240940D01*
X137675306Y-85305654D01*
X137740020Y-85358764D01*
X137813853Y-85398228D01*
X137893966Y-85422530D01*
X137977280Y-85430736D01*
X138346030Y-85428680D01*
X138452280Y-85322430D01*
X138452280Y-84128680D01*
X138702280Y-84128680D01*
X138702280Y-85322430D01*
X138808530Y-85428680D01*
X139177280Y-85430736D01*
X139260594Y-85422530D01*
X139340707Y-85398228D01*
X139414540Y-85358764D01*
X139479254Y-85305654D01*
X139532364Y-85240940D01*
X139571828Y-85167107D01*
X139596130Y-85086994D01*
X139604336Y-85003680D01*
X139602280Y-84234930D01*
X139496030Y-84128680D01*
X138702280Y-84128680D01*
X138452280Y-84128680D01*
X137658530Y-84128680D01*
X137552280Y-84234930D01*
X137550224Y-85003680D01*
X136741492Y-85003680D01*
X136810110Y-84920069D01*
X136896003Y-84759375D01*
X136948895Y-84585012D01*
X136962280Y-84449115D01*
X136962280Y-83558245D01*
X136948895Y-83422348D01*
X136896003Y-83247985D01*
X136810110Y-83087291D01*
X136741493Y-83003680D01*
X137550224Y-83003680D01*
X137552280Y-83772430D01*
X137658530Y-83878680D01*
X138452280Y-83878680D01*
X138452280Y-82684930D01*
X138702280Y-82684930D01*
X138702280Y-83878680D01*
X139496030Y-83878680D01*
X139602280Y-83772430D01*
X139602852Y-83558245D01*
X140192280Y-83558245D01*
X140192280Y-84449114D01*
X140205665Y-84585011D01*
X140258557Y-84759374D01*
X140344450Y-84920068D01*
X140460042Y-85060918D01*
X140600891Y-85176510D01*
X140761585Y-85262403D01*
X140935948Y-85315295D01*
X141117280Y-85333155D01*
X141298611Y-85315295D01*
X141472974Y-85262403D01*
X141633668Y-85176510D01*
X141774518Y-85060918D01*
X141890110Y-84920069D01*
X141976003Y-84759375D01*
X142028895Y-84585012D01*
X142042280Y-84449115D01*
X142042280Y-83558245D01*
X142732280Y-83558245D01*
X142732280Y-84449114D01*
X142745665Y-84585011D01*
X142798557Y-84759374D01*
X142884450Y-84920068D01*
X143000042Y-85060918D01*
X143140891Y-85176510D01*
X143301585Y-85262403D01*
X143475948Y-85315295D01*
X143657280Y-85333155D01*
X143838611Y-85315295D01*
X144012974Y-85262403D01*
X144173668Y-85176510D01*
X144314518Y-85060918D01*
X144430110Y-84920069D01*
X144516003Y-84759375D01*
X144568895Y-84585012D01*
X144582280Y-84449115D01*
X144582280Y-83558245D01*
X145272280Y-83558245D01*
X145272280Y-84449114D01*
X145285665Y-84585011D01*
X145338557Y-84759374D01*
X145424450Y-84920068D01*
X145540042Y-85060918D01*
X145680891Y-85176510D01*
X145841585Y-85262403D01*
X146015948Y-85315295D01*
X146197280Y-85333155D01*
X146378611Y-85315295D01*
X146552974Y-85262403D01*
X146713668Y-85176510D01*
X146854518Y-85060918D01*
X146970110Y-84920069D01*
X147056003Y-84759375D01*
X147108895Y-84585012D01*
X147122280Y-84449115D01*
X147122280Y-83558245D01*
X147812280Y-83558245D01*
X147812280Y-84449114D01*
X147825665Y-84585011D01*
X147878557Y-84759374D01*
X147964450Y-84920068D01*
X148080042Y-85060918D01*
X148220891Y-85176510D01*
X148381585Y-85262403D01*
X148555948Y-85315295D01*
X148737280Y-85333155D01*
X148918611Y-85315295D01*
X149092974Y-85262403D01*
X149253668Y-85176510D01*
X149394518Y-85060918D01*
X149510110Y-84920069D01*
X149596003Y-84759375D01*
X149648895Y-84585012D01*
X149662280Y-84449115D01*
X149662280Y-83558245D01*
X150352280Y-83558245D01*
X150352280Y-84449114D01*
X150365665Y-84585011D01*
X150418557Y-84759374D01*
X150504450Y-84920068D01*
X150620042Y-85060918D01*
X150760891Y-85176510D01*
X150921585Y-85262403D01*
X151095948Y-85315295D01*
X151277280Y-85333155D01*
X151458611Y-85315295D01*
X151632974Y-85262403D01*
X151793668Y-85176510D01*
X151934518Y-85060918D01*
X152050110Y-84920069D01*
X152136003Y-84759375D01*
X152188895Y-84585012D01*
X152202280Y-84449115D01*
X152202280Y-83558245D01*
X152892280Y-83558245D01*
X152892280Y-84449114D01*
X152905665Y-84585011D01*
X152958557Y-84759374D01*
X153044450Y-84920068D01*
X153160042Y-85060918D01*
X153300891Y-85176510D01*
X153461585Y-85262403D01*
X153635948Y-85315295D01*
X153817280Y-85333155D01*
X153998611Y-85315295D01*
X154172974Y-85262403D01*
X154333668Y-85176510D01*
X154474518Y-85060918D01*
X154590110Y-84920069D01*
X154676003Y-84759375D01*
X154728895Y-84585012D01*
X154742280Y-84449115D01*
X154742280Y-83558245D01*
X155432280Y-83558245D01*
X155432280Y-84449114D01*
X155445665Y-84585011D01*
X155498557Y-84759374D01*
X155584450Y-84920068D01*
X155700042Y-85060918D01*
X155840891Y-85176510D01*
X156001585Y-85262403D01*
X156175948Y-85315295D01*
X156357280Y-85333155D01*
X156538611Y-85315295D01*
X156712974Y-85262403D01*
X156873668Y-85176510D01*
X157014518Y-85060918D01*
X157130110Y-84920069D01*
X157216003Y-84759375D01*
X157268895Y-84585012D01*
X157282280Y-84449115D01*
X157282280Y-83558245D01*
X157972280Y-83558245D01*
X157972280Y-84449114D01*
X157985665Y-84585011D01*
X158038557Y-84759374D01*
X158124450Y-84920068D01*
X158240042Y-85060918D01*
X158380891Y-85176510D01*
X158541585Y-85262403D01*
X158715948Y-85315295D01*
X158897280Y-85333155D01*
X159078611Y-85315295D01*
X159252974Y-85262403D01*
X159413668Y-85176510D01*
X159554518Y-85060918D01*
X159670110Y-84920069D01*
X159756003Y-84759375D01*
X159808895Y-84585012D01*
X159822280Y-84449115D01*
X159822280Y-83558245D01*
X160512280Y-83558245D01*
X160512280Y-84449114D01*
X160525665Y-84585011D01*
X160578557Y-84759374D01*
X160664450Y-84920068D01*
X160780042Y-85060918D01*
X160920891Y-85176510D01*
X161081585Y-85262403D01*
X161255948Y-85315295D01*
X161437280Y-85333155D01*
X161618611Y-85315295D01*
X161792974Y-85262403D01*
X161953668Y-85176510D01*
X162094518Y-85060918D01*
X162210110Y-84920069D01*
X162296003Y-84759375D01*
X162348895Y-84585012D01*
X162362280Y-84449115D01*
X162362280Y-83558245D01*
X163052280Y-83558245D01*
X163052280Y-84449114D01*
X163065665Y-84585011D01*
X163118557Y-84759374D01*
X163204450Y-84920068D01*
X163320042Y-85060918D01*
X163460891Y-85176510D01*
X163621585Y-85262403D01*
X163795948Y-85315295D01*
X163977280Y-85333155D01*
X164158611Y-85315295D01*
X164332974Y-85262403D01*
X164493668Y-85176510D01*
X164634518Y-85060918D01*
X164750110Y-84920069D01*
X164836003Y-84759375D01*
X164888895Y-84585012D01*
X164902280Y-84449115D01*
X164902280Y-83558245D01*
X165592280Y-83558245D01*
X165592280Y-84449114D01*
X165605665Y-84585011D01*
X165658557Y-84759374D01*
X165744450Y-84920068D01*
X165860042Y-85060918D01*
X166000891Y-85176510D01*
X166161585Y-85262403D01*
X166335948Y-85315295D01*
X166517280Y-85333155D01*
X166698611Y-85315295D01*
X166872974Y-85262403D01*
X167033668Y-85176510D01*
X167174518Y-85060918D01*
X167290110Y-84920069D01*
X167376003Y-84759375D01*
X167428895Y-84585012D01*
X167442280Y-84449115D01*
X167442280Y-83558245D01*
X168132280Y-83558245D01*
X168132280Y-84449114D01*
X168145665Y-84585011D01*
X168198557Y-84759374D01*
X168284450Y-84920068D01*
X168400042Y-85060918D01*
X168540891Y-85176510D01*
X168701585Y-85262403D01*
X168875948Y-85315295D01*
X169057280Y-85333155D01*
X169238611Y-85315295D01*
X169412974Y-85262403D01*
X169573668Y-85176510D01*
X169714518Y-85060918D01*
X169830110Y-84920069D01*
X169916003Y-84759375D01*
X169968895Y-84585012D01*
X169982280Y-84449115D01*
X169982280Y-83558245D01*
X170672280Y-83558245D01*
X170672280Y-84449114D01*
X170685665Y-84585011D01*
X170738557Y-84759374D01*
X170824450Y-84920068D01*
X170940042Y-85060918D01*
X171080891Y-85176510D01*
X171241585Y-85262403D01*
X171415948Y-85315295D01*
X171597280Y-85333155D01*
X171778611Y-85315295D01*
X171952974Y-85262403D01*
X172113668Y-85176510D01*
X172254518Y-85060918D01*
X172370110Y-84920069D01*
X172418959Y-84828680D01*
X183455807Y-84828680D01*
X183496320Y-84832670D01*
X183536833Y-84828680D01*
X183536841Y-84828680D01*
X183658048Y-84816742D01*
X183813561Y-84769568D01*
X183956883Y-84692961D01*
X184082505Y-84589865D01*
X184108341Y-84558384D01*
X186954716Y-81712011D01*
X186986185Y-81686185D01*
X187012012Y-81654715D01*
X187012016Y-81654711D01*
X187045949Y-81613362D01*
X187089281Y-81560563D01*
X187139203Y-81467164D01*
X187165888Y-81417242D01*
X187213062Y-81261728D01*
X187228991Y-81100000D01*
X187225000Y-81059479D01*
X187225000Y-78859479D01*
X187213062Y-78738272D01*
X187165888Y-78582759D01*
X187089281Y-78439437D01*
X186986185Y-78313815D01*
X186860563Y-78210719D01*
X186717241Y-78134112D01*
X186561728Y-78086938D01*
X186400000Y-78071009D01*
X186238273Y-78086938D01*
X186082760Y-78134112D01*
X185939438Y-78210719D01*
X185813816Y-78313815D01*
X185710720Y-78439437D01*
X185634113Y-78582759D01*
X185586939Y-78738272D01*
X185575000Y-78859479D01*
X185575000Y-79740520D01*
X185575001Y-79740530D01*
X185575000Y-80758273D01*
X183154595Y-83178680D01*
X172418959Y-83178680D01*
X172370110Y-83087291D01*
X172254518Y-82946442D01*
X172113669Y-82830850D01*
X171952975Y-82744957D01*
X171778612Y-82692065D01*
X171597280Y-82674205D01*
X171415949Y-82692065D01*
X171241586Y-82744957D01*
X171080892Y-82830850D01*
X170940043Y-82946442D01*
X170824451Y-83087291D01*
X170738558Y-83247985D01*
X170685666Y-83422348D01*
X170672280Y-83558245D01*
X169982280Y-83558245D01*
X169968895Y-83422348D01*
X169916003Y-83247985D01*
X169830110Y-83087291D01*
X169714518Y-82946442D01*
X169573669Y-82830850D01*
X169412975Y-82744957D01*
X169238612Y-82692065D01*
X169057280Y-82674205D01*
X168875949Y-82692065D01*
X168701586Y-82744957D01*
X168540892Y-82830850D01*
X168400043Y-82946442D01*
X168284451Y-83087291D01*
X168198558Y-83247985D01*
X168145666Y-83422348D01*
X168132280Y-83558245D01*
X167442280Y-83558245D01*
X167428895Y-83422348D01*
X167376003Y-83247985D01*
X167290110Y-83087291D01*
X167174518Y-82946442D01*
X167033669Y-82830850D01*
X166872975Y-82744957D01*
X166698612Y-82692065D01*
X166517280Y-82674205D01*
X166335949Y-82692065D01*
X166161586Y-82744957D01*
X166000892Y-82830850D01*
X165860043Y-82946442D01*
X165744451Y-83087291D01*
X165658558Y-83247985D01*
X165605666Y-83422348D01*
X165592280Y-83558245D01*
X164902280Y-83558245D01*
X164888895Y-83422348D01*
X164836003Y-83247985D01*
X164750110Y-83087291D01*
X164634518Y-82946442D01*
X164493669Y-82830850D01*
X164332975Y-82744957D01*
X164158612Y-82692065D01*
X163977280Y-82674205D01*
X163795949Y-82692065D01*
X163621586Y-82744957D01*
X163460892Y-82830850D01*
X163320043Y-82946442D01*
X163204451Y-83087291D01*
X163118558Y-83247985D01*
X163065666Y-83422348D01*
X163052280Y-83558245D01*
X162362280Y-83558245D01*
X162348895Y-83422348D01*
X162296003Y-83247985D01*
X162210110Y-83087291D01*
X162094518Y-82946442D01*
X161953669Y-82830850D01*
X161792975Y-82744957D01*
X161618612Y-82692065D01*
X161437280Y-82674205D01*
X161255949Y-82692065D01*
X161081586Y-82744957D01*
X160920892Y-82830850D01*
X160780043Y-82946442D01*
X160664451Y-83087291D01*
X160578558Y-83247985D01*
X160525666Y-83422348D01*
X160512280Y-83558245D01*
X159822280Y-83558245D01*
X159808895Y-83422348D01*
X159756003Y-83247985D01*
X159670110Y-83087291D01*
X159554518Y-82946442D01*
X159413669Y-82830850D01*
X159252975Y-82744957D01*
X159078612Y-82692065D01*
X158897280Y-82674205D01*
X158715949Y-82692065D01*
X158541586Y-82744957D01*
X158380892Y-82830850D01*
X158240043Y-82946442D01*
X158124451Y-83087291D01*
X158038558Y-83247985D01*
X157985666Y-83422348D01*
X157972280Y-83558245D01*
X157282280Y-83558245D01*
X157268895Y-83422348D01*
X157216003Y-83247985D01*
X157130110Y-83087291D01*
X157014518Y-82946442D01*
X156873669Y-82830850D01*
X156712975Y-82744957D01*
X156538612Y-82692065D01*
X156357280Y-82674205D01*
X156175949Y-82692065D01*
X156001586Y-82744957D01*
X155840892Y-82830850D01*
X155700043Y-82946442D01*
X155584451Y-83087291D01*
X155498558Y-83247985D01*
X155445666Y-83422348D01*
X155432280Y-83558245D01*
X154742280Y-83558245D01*
X154728895Y-83422348D01*
X154676003Y-83247985D01*
X154590110Y-83087291D01*
X154474518Y-82946442D01*
X154333669Y-82830850D01*
X154172975Y-82744957D01*
X153998612Y-82692065D01*
X153817280Y-82674205D01*
X153635949Y-82692065D01*
X153461586Y-82744957D01*
X153300892Y-82830850D01*
X153160043Y-82946442D01*
X153044451Y-83087291D01*
X152958558Y-83247985D01*
X152905666Y-83422348D01*
X152892280Y-83558245D01*
X152202280Y-83558245D01*
X152188895Y-83422348D01*
X152136003Y-83247985D01*
X152050110Y-83087291D01*
X151934518Y-82946442D01*
X151793669Y-82830850D01*
X151632975Y-82744957D01*
X151458612Y-82692065D01*
X151277280Y-82674205D01*
X151095949Y-82692065D01*
X150921586Y-82744957D01*
X150760892Y-82830850D01*
X150620043Y-82946442D01*
X150504451Y-83087291D01*
X150418558Y-83247985D01*
X150365666Y-83422348D01*
X150352280Y-83558245D01*
X149662280Y-83558245D01*
X149648895Y-83422348D01*
X149596003Y-83247985D01*
X149510110Y-83087291D01*
X149394518Y-82946442D01*
X149253669Y-82830850D01*
X149092975Y-82744957D01*
X148918612Y-82692065D01*
X148737280Y-82674205D01*
X148555949Y-82692065D01*
X148381586Y-82744957D01*
X148220892Y-82830850D01*
X148080043Y-82946442D01*
X147964451Y-83087291D01*
X147878558Y-83247985D01*
X147825666Y-83422348D01*
X147812280Y-83558245D01*
X147122280Y-83558245D01*
X147108895Y-83422348D01*
X147056003Y-83247985D01*
X146970110Y-83087291D01*
X146854518Y-82946442D01*
X146713669Y-82830850D01*
X146552975Y-82744957D01*
X146378612Y-82692065D01*
X146197280Y-82674205D01*
X146015949Y-82692065D01*
X145841586Y-82744957D01*
X145680892Y-82830850D01*
X145540043Y-82946442D01*
X145424451Y-83087291D01*
X145338558Y-83247985D01*
X145285666Y-83422348D01*
X145272280Y-83558245D01*
X144582280Y-83558245D01*
X144568895Y-83422348D01*
X144516003Y-83247985D01*
X144430110Y-83087291D01*
X144314518Y-82946442D01*
X144173669Y-82830850D01*
X144012975Y-82744957D01*
X143838612Y-82692065D01*
X143657280Y-82674205D01*
X143475949Y-82692065D01*
X143301586Y-82744957D01*
X143140892Y-82830850D01*
X143000043Y-82946442D01*
X142884451Y-83087291D01*
X142798558Y-83247985D01*
X142745666Y-83422348D01*
X142732280Y-83558245D01*
X142042280Y-83558245D01*
X142028895Y-83422348D01*
X141976003Y-83247985D01*
X141890110Y-83087291D01*
X141774518Y-82946442D01*
X141633669Y-82830850D01*
X141615341Y-82821054D01*
X144102573Y-80333823D01*
X144119737Y-80319737D01*
X144133824Y-80302572D01*
X144133828Y-80302568D01*
X144175971Y-80251217D01*
X144217757Y-80173041D01*
X144221542Y-80160563D01*
X144243489Y-80088215D01*
X144250000Y-80022105D01*
X144250000Y-80022095D01*
X144252176Y-80000001D01*
X144250000Y-79977906D01*
X144250000Y-78884313D01*
X144322735Y-78869845D01*
X144536571Y-78781271D01*
X144729019Y-78652682D01*
X144892682Y-78489019D01*
X145021271Y-78296571D01*
X145109845Y-78082735D01*
X145155000Y-77855727D01*
X145155000Y-77624273D01*
X145345000Y-77624273D01*
X145345000Y-77855727D01*
X145390155Y-78082735D01*
X145478729Y-78296571D01*
X145607318Y-78489019D01*
X145770981Y-78652682D01*
X145963429Y-78781271D01*
X146177265Y-78869845D01*
X146404273Y-78915000D01*
X146635727Y-78915000D01*
X146862735Y-78869845D01*
X147076571Y-78781271D01*
X147269019Y-78652682D01*
X147432682Y-78489019D01*
X147561271Y-78296571D01*
X147649845Y-78082735D01*
X147695000Y-77855727D01*
X147695000Y-77624273D01*
X147885000Y-77624273D01*
X147885000Y-77855727D01*
X147930155Y-78082735D01*
X148018729Y-78296571D01*
X148147318Y-78489019D01*
X148310981Y-78652682D01*
X148503429Y-78781271D01*
X148717265Y-78869845D01*
X148944273Y-78915000D01*
X149175727Y-78915000D01*
X149402735Y-78869845D01*
X149616571Y-78781271D01*
X149809019Y-78652682D01*
X149972682Y-78489019D01*
X150101271Y-78296571D01*
X150189845Y-78082735D01*
X150235000Y-77855727D01*
X150235000Y-77624273D01*
X150425000Y-77624273D01*
X150425000Y-77855727D01*
X150470155Y-78082735D01*
X150558729Y-78296571D01*
X150687318Y-78489019D01*
X150850981Y-78652682D01*
X151043429Y-78781271D01*
X151257265Y-78869845D01*
X151484273Y-78915000D01*
X151715727Y-78915000D01*
X151942735Y-78869845D01*
X152156571Y-78781271D01*
X152349019Y-78652682D01*
X152512682Y-78489019D01*
X152641271Y-78296571D01*
X152729845Y-78082735D01*
X152775000Y-77855727D01*
X152775000Y-77624273D01*
X152729845Y-77397265D01*
X152641271Y-77183429D01*
X152512682Y-76990981D01*
X152349019Y-76827318D01*
X152323706Y-76810404D01*
X209075000Y-76810404D01*
X209075000Y-77189596D01*
X209148977Y-77561502D01*
X209294087Y-77911829D01*
X209504755Y-78227116D01*
X209772884Y-78495245D01*
X210088171Y-78705913D01*
X210438498Y-78851023D01*
X210810404Y-78925000D01*
X211189596Y-78925000D01*
X211561502Y-78851023D01*
X211911829Y-78705913D01*
X212227116Y-78495245D01*
X212495245Y-78227116D01*
X212705913Y-77911829D01*
X212851023Y-77561502D01*
X212925000Y-77189596D01*
X212925000Y-76810404D01*
X212851023Y-76438498D01*
X212705913Y-76088171D01*
X212495245Y-75772884D01*
X212227116Y-75504755D01*
X211911829Y-75294087D01*
X211561502Y-75148977D01*
X211189596Y-75075000D01*
X210810404Y-75075000D01*
X210438498Y-75148977D01*
X210088171Y-75294087D01*
X209772884Y-75504755D01*
X209504755Y-75772884D01*
X209294087Y-76088171D01*
X209148977Y-76438498D01*
X209075000Y-76810404D01*
X152323706Y-76810404D01*
X152156571Y-76698729D01*
X151942735Y-76610155D01*
X151715727Y-76565000D01*
X151484273Y-76565000D01*
X151257265Y-76610155D01*
X151043429Y-76698729D01*
X150850981Y-76827318D01*
X150687318Y-76990981D01*
X150558729Y-77183429D01*
X150470155Y-77397265D01*
X150425000Y-77624273D01*
X150235000Y-77624273D01*
X150189845Y-77397265D01*
X150101271Y-77183429D01*
X149972682Y-76990981D01*
X149809019Y-76827318D01*
X149616571Y-76698729D01*
X149402735Y-76610155D01*
X149175727Y-76565000D01*
X148944273Y-76565000D01*
X148717265Y-76610155D01*
X148503429Y-76698729D01*
X148310981Y-76827318D01*
X148147318Y-76990981D01*
X148018729Y-77183429D01*
X147930155Y-77397265D01*
X147885000Y-77624273D01*
X147695000Y-77624273D01*
X147649845Y-77397265D01*
X147561271Y-77183429D01*
X147432682Y-76990981D01*
X147269019Y-76827318D01*
X147076571Y-76698729D01*
X146862735Y-76610155D01*
X146635727Y-76565000D01*
X146404273Y-76565000D01*
X146177265Y-76610155D01*
X145963429Y-76698729D01*
X145770981Y-76827318D01*
X145607318Y-76990981D01*
X145478729Y-77183429D01*
X145390155Y-77397265D01*
X145345000Y-77624273D01*
X145155000Y-77624273D01*
X145109845Y-77397265D01*
X145021271Y-77183429D01*
X144892682Y-76990981D01*
X144729019Y-76827318D01*
X144536571Y-76698729D01*
X144322735Y-76610155D01*
X144095727Y-76565000D01*
X143864273Y-76565000D01*
X143637265Y-76610155D01*
X143423429Y-76698729D01*
X143230981Y-76827318D01*
X143067318Y-76990981D01*
X142938729Y-77183429D01*
X142850155Y-77397265D01*
X142805000Y-77624273D01*
X142805000Y-77855727D01*
X142850155Y-78082735D01*
X142938729Y-78296571D01*
X143067318Y-78489019D01*
X143230981Y-78652682D01*
X143350001Y-78732208D01*
X143350000Y-79813604D01*
X140814709Y-82348896D01*
X140797544Y-82362983D01*
X140783457Y-82380148D01*
X140783452Y-82380153D01*
X140741309Y-82431504D01*
X140699523Y-82509680D01*
X140673792Y-82594505D01*
X140665104Y-82682720D01*
X140667281Y-82704824D01*
X140667281Y-82795364D01*
X140600892Y-82830850D01*
X140460043Y-82946442D01*
X140344451Y-83087291D01*
X140258558Y-83247985D01*
X140205666Y-83422348D01*
X140192280Y-83558245D01*
X139602852Y-83558245D01*
X139604336Y-83003680D01*
X139596130Y-82920366D01*
X139571828Y-82840253D01*
X139532364Y-82766420D01*
X139479254Y-82701706D01*
X139414540Y-82648596D01*
X139340707Y-82609132D01*
X139260594Y-82584830D01*
X139177280Y-82576624D01*
X138808530Y-82578680D01*
X138702280Y-82684930D01*
X138452280Y-82684930D01*
X138346030Y-82578680D01*
X137977280Y-82576624D01*
X137893966Y-82584830D01*
X137813853Y-82609132D01*
X137740020Y-82648596D01*
X137675306Y-82701706D01*
X137622196Y-82766420D01*
X137582732Y-82840253D01*
X137558430Y-82920366D01*
X137550224Y-83003680D01*
X136741493Y-83003680D01*
X136694518Y-82946442D01*
X136553669Y-82830850D01*
X136392975Y-82744957D01*
X136218612Y-82692065D01*
X136037280Y-82674205D01*
X135855949Y-82692065D01*
X135681586Y-82744957D01*
X135520892Y-82830850D01*
X135380043Y-82946442D01*
X135264451Y-83087291D01*
X135178558Y-83247985D01*
X135125666Y-83422348D01*
X135112280Y-83558245D01*
X134422280Y-83558245D01*
X134408895Y-83422348D01*
X134356003Y-83247985D01*
X134270110Y-83087291D01*
X134154518Y-82946442D01*
X134013669Y-82830850D01*
X133852975Y-82744957D01*
X133678612Y-82692065D01*
X133497280Y-82674205D01*
X133315949Y-82692065D01*
X133141586Y-82744957D01*
X132980892Y-82830850D01*
X132840043Y-82946442D01*
X132724451Y-83087291D01*
X132638558Y-83247985D01*
X132585666Y-83422348D01*
X132572280Y-83558245D01*
X131882280Y-83558245D01*
X131868895Y-83422348D01*
X131816003Y-83247985D01*
X131730110Y-83087291D01*
X131614518Y-82946442D01*
X131473669Y-82830850D01*
X131312975Y-82744957D01*
X131138612Y-82692065D01*
X130957280Y-82674205D01*
X130775949Y-82692065D01*
X130601586Y-82744957D01*
X130440892Y-82830850D01*
X130300043Y-82946442D01*
X130184451Y-83087291D01*
X130098558Y-83247985D01*
X130045666Y-83422348D01*
X130032280Y-83558245D01*
X129342280Y-83558245D01*
X129328895Y-83422348D01*
X129276003Y-83247985D01*
X129190110Y-83087291D01*
X129074518Y-82946442D01*
X128933669Y-82830850D01*
X128772975Y-82744957D01*
X128598612Y-82692065D01*
X128417280Y-82674205D01*
X128235949Y-82692065D01*
X128061586Y-82744957D01*
X127900892Y-82830850D01*
X127760043Y-82946442D01*
X127644451Y-83087291D01*
X127558558Y-83247985D01*
X127505666Y-83422348D01*
X127492280Y-83558245D01*
X126802280Y-83558245D01*
X126788895Y-83422348D01*
X126736003Y-83247985D01*
X126650110Y-83087291D01*
X126534518Y-82946442D01*
X126393669Y-82830850D01*
X126232975Y-82744957D01*
X126058612Y-82692065D01*
X125877280Y-82674205D01*
X125695949Y-82692065D01*
X125521586Y-82744957D01*
X125360892Y-82830850D01*
X125220043Y-82946442D01*
X125104451Y-83087291D01*
X125018558Y-83247985D01*
X124965666Y-83422348D01*
X124952280Y-83558245D01*
X124350000Y-83558245D01*
X124350000Y-76810404D01*
X127075000Y-76810404D01*
X127075000Y-77189596D01*
X127148977Y-77561502D01*
X127294087Y-77911829D01*
X127504755Y-78227116D01*
X127772884Y-78495245D01*
X128088171Y-78705913D01*
X128438498Y-78851023D01*
X128810404Y-78925000D01*
X129189596Y-78925000D01*
X129561502Y-78851023D01*
X129911829Y-78705913D01*
X130227116Y-78495245D01*
X130495245Y-78227116D01*
X130705913Y-77911829D01*
X130825022Y-77624273D01*
X140265000Y-77624273D01*
X140265000Y-77855727D01*
X140310155Y-78082735D01*
X140398729Y-78296571D01*
X140527318Y-78489019D01*
X140690981Y-78652682D01*
X140883429Y-78781271D01*
X141097265Y-78869845D01*
X141324273Y-78915000D01*
X141555727Y-78915000D01*
X141782735Y-78869845D01*
X141996571Y-78781271D01*
X142189019Y-78652682D01*
X142352682Y-78489019D01*
X142481271Y-78296571D01*
X142569845Y-78082735D01*
X142615000Y-77855727D01*
X142615000Y-77624273D01*
X142569845Y-77397265D01*
X142481271Y-77183429D01*
X142352682Y-76990981D01*
X142189019Y-76827318D01*
X141996571Y-76698729D01*
X141782735Y-76610155D01*
X141555727Y-76565000D01*
X141324273Y-76565000D01*
X141097265Y-76610155D01*
X140883429Y-76698729D01*
X140690981Y-76827318D01*
X140527318Y-76990981D01*
X140398729Y-77183429D01*
X140310155Y-77397265D01*
X140265000Y-77624273D01*
X130825022Y-77624273D01*
X130851023Y-77561502D01*
X130925000Y-77189596D01*
X130925000Y-76810404D01*
X130851023Y-76438498D01*
X130705913Y-76088171D01*
X130495245Y-75772884D01*
X130244316Y-75521955D01*
X140206313Y-75521955D01*
X140292828Y-75756449D01*
X140423428Y-75969559D01*
X140593095Y-76153095D01*
X140795308Y-76300005D01*
X141022296Y-76404642D01*
X141118046Y-76433682D01*
X141315000Y-76362046D01*
X141315000Y-75325000D01*
X141565000Y-75325000D01*
X141565000Y-76362046D01*
X141761954Y-76433682D01*
X141857704Y-76404642D01*
X142084692Y-76300005D01*
X142286905Y-76153095D01*
X142456572Y-75969559D01*
X142587172Y-75756449D01*
X142673687Y-75521955D01*
X142746313Y-75521955D01*
X142832828Y-75756449D01*
X142963428Y-75969559D01*
X143133095Y-76153095D01*
X143335308Y-76300005D01*
X143562296Y-76404642D01*
X143658046Y-76433682D01*
X143855000Y-76362046D01*
X143855000Y-75325000D01*
X144105000Y-75325000D01*
X144105000Y-76362046D01*
X144301954Y-76433682D01*
X144397704Y-76404642D01*
X144624692Y-76300005D01*
X144826905Y-76153095D01*
X144996572Y-75969559D01*
X145127172Y-75756449D01*
X145213687Y-75521955D01*
X145286313Y-75521955D01*
X145372828Y-75756449D01*
X145503428Y-75969559D01*
X145673095Y-76153095D01*
X145875308Y-76300005D01*
X146102296Y-76404642D01*
X146198046Y-76433682D01*
X146395000Y-76362046D01*
X146395000Y-75325000D01*
X146645000Y-75325000D01*
X146645000Y-76362046D01*
X146841954Y-76433682D01*
X146937704Y-76404642D01*
X147164692Y-76300005D01*
X147366905Y-76153095D01*
X147536572Y-75969559D01*
X147667172Y-75756449D01*
X147753687Y-75521955D01*
X147826313Y-75521955D01*
X147912828Y-75756449D01*
X148043428Y-75969559D01*
X148213095Y-76153095D01*
X148415308Y-76300005D01*
X148642296Y-76404642D01*
X148738046Y-76433682D01*
X148935000Y-76362046D01*
X148935000Y-75325000D01*
X149185000Y-75325000D01*
X149185000Y-76362046D01*
X149381954Y-76433682D01*
X149477704Y-76404642D01*
X149704692Y-76300005D01*
X149906905Y-76153095D01*
X150002209Y-76050000D01*
X150322944Y-76050000D01*
X150331150Y-76133314D01*
X150355452Y-76213427D01*
X150394916Y-76287260D01*
X150448026Y-76351974D01*
X150512740Y-76405084D01*
X150586573Y-76444548D01*
X150666686Y-76468850D01*
X150750000Y-76477056D01*
X151368750Y-76475000D01*
X151475000Y-76368750D01*
X151475000Y-75325000D01*
X151725000Y-75325000D01*
X151725000Y-76368750D01*
X151831250Y-76475000D01*
X152450000Y-76477056D01*
X152533314Y-76468850D01*
X152613427Y-76444548D01*
X152687260Y-76405084D01*
X152751974Y-76351974D01*
X152805084Y-76287260D01*
X152844548Y-76213427D01*
X152868850Y-76133314D01*
X152877056Y-76050000D01*
X152875000Y-75431250D01*
X152768750Y-75325000D01*
X151725000Y-75325000D01*
X151475000Y-75325000D01*
X150431250Y-75325000D01*
X150325000Y-75431250D01*
X150322944Y-76050000D01*
X150002209Y-76050000D01*
X150076572Y-75969559D01*
X150207172Y-75756449D01*
X150293687Y-75521955D01*
X150222613Y-75325000D01*
X149185000Y-75325000D01*
X148935000Y-75325000D01*
X147897387Y-75325000D01*
X147826313Y-75521955D01*
X147753687Y-75521955D01*
X147682613Y-75325000D01*
X146645000Y-75325000D01*
X146395000Y-75325000D01*
X145357387Y-75325000D01*
X145286313Y-75521955D01*
X145213687Y-75521955D01*
X145142613Y-75325000D01*
X144105000Y-75325000D01*
X143855000Y-75325000D01*
X142817387Y-75325000D01*
X142746313Y-75521955D01*
X142673687Y-75521955D01*
X142602613Y-75325000D01*
X141565000Y-75325000D01*
X141315000Y-75325000D01*
X140277387Y-75325000D01*
X140206313Y-75521955D01*
X130244316Y-75521955D01*
X130227116Y-75504755D01*
X129911829Y-75294087D01*
X129561502Y-75148977D01*
X129236215Y-75084273D01*
X165285000Y-75084273D01*
X165285000Y-75315727D01*
X165330155Y-75542735D01*
X165418729Y-75756571D01*
X165547318Y-75949019D01*
X165710981Y-76112682D01*
X165903429Y-76241271D01*
X166117265Y-76329845D01*
X166344273Y-76375000D01*
X166575727Y-76375000D01*
X166802735Y-76329845D01*
X167016571Y-76241271D01*
X167209019Y-76112682D01*
X167271701Y-76050000D01*
X167722944Y-76050000D01*
X167731150Y-76133314D01*
X167755452Y-76213427D01*
X167794916Y-76287260D01*
X167848026Y-76351974D01*
X167912740Y-76405084D01*
X167986573Y-76444548D01*
X168066686Y-76468850D01*
X168150000Y-76477056D01*
X168768750Y-76475000D01*
X168875000Y-76368750D01*
X168875000Y-75325000D01*
X169125000Y-75325000D01*
X169125000Y-76368750D01*
X169231250Y-76475000D01*
X169850000Y-76477056D01*
X169933314Y-76468850D01*
X170013427Y-76444548D01*
X170087260Y-76405084D01*
X170151974Y-76351974D01*
X170205084Y-76287260D01*
X170244548Y-76213427D01*
X170268850Y-76133314D01*
X170277056Y-76050000D01*
X170275000Y-75431250D01*
X170168750Y-75325000D01*
X169125000Y-75325000D01*
X168875000Y-75325000D01*
X167831250Y-75325000D01*
X167725000Y-75431250D01*
X167722944Y-76050000D01*
X167271701Y-76050000D01*
X167372682Y-75949019D01*
X167501271Y-75756571D01*
X167589845Y-75542735D01*
X167635000Y-75315727D01*
X167635000Y-75084273D01*
X167589845Y-74857265D01*
X167501271Y-74643429D01*
X167372682Y-74450981D01*
X167271701Y-74350000D01*
X167722944Y-74350000D01*
X167725000Y-74968750D01*
X167831250Y-75075000D01*
X168875000Y-75075000D01*
X168875000Y-74031250D01*
X169125000Y-74031250D01*
X169125000Y-75075000D01*
X170168750Y-75075000D01*
X170275000Y-74968750D01*
X170277056Y-74350000D01*
X170268850Y-74266686D01*
X170244548Y-74186573D01*
X170205084Y-74112740D01*
X170151974Y-74048026D01*
X170087260Y-73994916D01*
X170013427Y-73955452D01*
X169933314Y-73931150D01*
X169850000Y-73922944D01*
X169231250Y-73925000D01*
X169125000Y-74031250D01*
X168875000Y-74031250D01*
X168768750Y-73925000D01*
X168150000Y-73922944D01*
X168066686Y-73931150D01*
X167986573Y-73955452D01*
X167912740Y-73994916D01*
X167848026Y-74048026D01*
X167794916Y-74112740D01*
X167755452Y-74186573D01*
X167731150Y-74266686D01*
X167722944Y-74350000D01*
X167271701Y-74350000D01*
X167209019Y-74287318D01*
X167016571Y-74158729D01*
X166802735Y-74070155D01*
X166575727Y-74025000D01*
X166344273Y-74025000D01*
X166117265Y-74070155D01*
X165903429Y-74158729D01*
X165710981Y-74287318D01*
X165547318Y-74450981D01*
X165418729Y-74643429D01*
X165330155Y-74857265D01*
X165285000Y-75084273D01*
X129236215Y-75084273D01*
X129189596Y-75075000D01*
X128810404Y-75075000D01*
X128438498Y-75148977D01*
X128088171Y-75294087D01*
X127772884Y-75504755D01*
X127504755Y-75772884D01*
X127294087Y-76088171D01*
X127148977Y-76438498D01*
X127075000Y-76810404D01*
X124350000Y-76810404D01*
X124350000Y-74878045D01*
X140206313Y-74878045D01*
X140277387Y-75075000D01*
X141315000Y-75075000D01*
X141315000Y-74037954D01*
X141565000Y-74037954D01*
X141565000Y-75075000D01*
X142602613Y-75075000D01*
X142673687Y-74878045D01*
X142746313Y-74878045D01*
X142817387Y-75075000D01*
X143855000Y-75075000D01*
X143855000Y-74037954D01*
X144105000Y-74037954D01*
X144105000Y-75075000D01*
X145142613Y-75075000D01*
X145213687Y-74878045D01*
X145286313Y-74878045D01*
X145357387Y-75075000D01*
X146395000Y-75075000D01*
X146395000Y-74037954D01*
X146645000Y-74037954D01*
X146645000Y-75075000D01*
X147682613Y-75075000D01*
X147753687Y-74878045D01*
X147826313Y-74878045D01*
X147897387Y-75075000D01*
X148935000Y-75075000D01*
X148935000Y-74037954D01*
X149185000Y-74037954D01*
X149185000Y-75075000D01*
X150222613Y-75075000D01*
X150293687Y-74878045D01*
X150207172Y-74643551D01*
X150076572Y-74430441D01*
X150002210Y-74350000D01*
X150322944Y-74350000D01*
X150325000Y-74968750D01*
X150431250Y-75075000D01*
X151475000Y-75075000D01*
X151475000Y-74031250D01*
X151725000Y-74031250D01*
X151725000Y-75075000D01*
X152768750Y-75075000D01*
X152875000Y-74968750D01*
X152877056Y-74350000D01*
X152868850Y-74266686D01*
X152844548Y-74186573D01*
X152805084Y-74112740D01*
X152751974Y-74048026D01*
X152687260Y-73994916D01*
X152613427Y-73955452D01*
X152533314Y-73931150D01*
X152450000Y-73922944D01*
X151831250Y-73925000D01*
X151725000Y-74031250D01*
X151475000Y-74031250D01*
X151368750Y-73925000D01*
X150750000Y-73922944D01*
X150666686Y-73931150D01*
X150586573Y-73955452D01*
X150512740Y-73994916D01*
X150448026Y-74048026D01*
X150394916Y-74112740D01*
X150355452Y-74186573D01*
X150331150Y-74266686D01*
X150322944Y-74350000D01*
X150002210Y-74350000D01*
X149906905Y-74246905D01*
X149704692Y-74099995D01*
X149477704Y-73995358D01*
X149381954Y-73966318D01*
X149185000Y-74037954D01*
X148935000Y-74037954D01*
X148738046Y-73966318D01*
X148642296Y-73995358D01*
X148415308Y-74099995D01*
X148213095Y-74246905D01*
X148043428Y-74430441D01*
X147912828Y-74643551D01*
X147826313Y-74878045D01*
X147753687Y-74878045D01*
X147667172Y-74643551D01*
X147536572Y-74430441D01*
X147366905Y-74246905D01*
X147164692Y-74099995D01*
X146937704Y-73995358D01*
X146841954Y-73966318D01*
X146645000Y-74037954D01*
X146395000Y-74037954D01*
X146198046Y-73966318D01*
X146102296Y-73995358D01*
X145875308Y-74099995D01*
X145673095Y-74246905D01*
X145503428Y-74430441D01*
X145372828Y-74643551D01*
X145286313Y-74878045D01*
X145213687Y-74878045D01*
X145127172Y-74643551D01*
X144996572Y-74430441D01*
X144826905Y-74246905D01*
X144624692Y-74099995D01*
X144397704Y-73995358D01*
X144301954Y-73966318D01*
X144105000Y-74037954D01*
X143855000Y-74037954D01*
X143658046Y-73966318D01*
X143562296Y-73995358D01*
X143335308Y-74099995D01*
X143133095Y-74246905D01*
X142963428Y-74430441D01*
X142832828Y-74643551D01*
X142746313Y-74878045D01*
X142673687Y-74878045D01*
X142587172Y-74643551D01*
X142456572Y-74430441D01*
X142286905Y-74246905D01*
X142084692Y-74099995D01*
X141857704Y-73995358D01*
X141761954Y-73966318D01*
X141565000Y-74037954D01*
X141315000Y-74037954D01*
X141118046Y-73966318D01*
X141022296Y-73995358D01*
X140795308Y-74099995D01*
X140593095Y-74246905D01*
X140423428Y-74430441D01*
X140292828Y-74643551D01*
X140206313Y-74878045D01*
X124350000Y-74878045D01*
X124350000Y-72350000D01*
X216875000Y-72350000D01*
X216875000Y-121650000D01*
G04 #@! TA.AperFunction,Conductor*
D21*
G36*
X216875000Y-121650000D02*
G01*
X124350000Y-121650000D01*
X124350000Y-118984273D01*
X143645000Y-118984273D01*
X143645000Y-119215727D01*
X143690155Y-119442735D01*
X143778729Y-119656571D01*
X143907318Y-119849019D01*
X144070981Y-120012682D01*
X144263429Y-120141271D01*
X144477265Y-120229845D01*
X144704273Y-120275000D01*
X144935727Y-120275000D01*
X145162735Y-120229845D01*
X145376571Y-120141271D01*
X145569019Y-120012682D01*
X145732682Y-119849019D01*
X145861271Y-119656571D01*
X145949845Y-119442735D01*
X145995000Y-119215727D01*
X145995000Y-118984273D01*
X146185000Y-118984273D01*
X146185000Y-119215727D01*
X146230155Y-119442735D01*
X146318729Y-119656571D01*
X146447318Y-119849019D01*
X146610981Y-120012682D01*
X146803429Y-120141271D01*
X147017265Y-120229845D01*
X147244273Y-120275000D01*
X147475727Y-120275000D01*
X147702735Y-120229845D01*
X147916571Y-120141271D01*
X148109019Y-120012682D01*
X148272682Y-119849019D01*
X148401271Y-119656571D01*
X148489845Y-119442735D01*
X148535000Y-119215727D01*
X148535000Y-118984273D01*
X148725000Y-118984273D01*
X148725000Y-119215727D01*
X148770155Y-119442735D01*
X148858729Y-119656571D01*
X148987318Y-119849019D01*
X149150981Y-120012682D01*
X149343429Y-120141271D01*
X149557265Y-120229845D01*
X149784273Y-120275000D01*
X150015727Y-120275000D01*
X150242735Y-120229845D01*
X150456571Y-120141271D01*
X150646347Y-120014467D01*
X151702310Y-120014467D01*
X151791668Y-120205016D01*
X152019704Y-120310266D01*
X152263890Y-120369007D01*
X152514844Y-120378981D01*
X152762923Y-120339804D01*
X152998592Y-120252983D01*
X153088332Y-120205016D01*
X153177690Y-120014467D01*
X152440000Y-119276777D01*
X151702310Y-120014467D01*
X150646347Y-120014467D01*
X150649019Y-120012682D01*
X150812682Y-119849019D01*
X150941271Y-119656571D01*
X151029845Y-119442735D01*
X151075000Y-119215727D01*
X151075000Y-119174844D01*
X151161019Y-119174844D01*
X151200196Y-119422923D01*
X151287017Y-119658592D01*
X151334984Y-119748332D01*
X151525533Y-119837690D01*
X152263223Y-119100000D01*
X152616777Y-119100000D01*
X153354467Y-119837690D01*
X153545016Y-119748332D01*
X153650266Y-119520296D01*
X153709007Y-119276110D01*
X153718981Y-119025156D01*
X153679804Y-118777077D01*
X153592983Y-118541408D01*
X153545016Y-118451668D01*
X153354467Y-118362310D01*
X152616777Y-119100000D01*
X152263223Y-119100000D01*
X151525533Y-118362310D01*
X151334984Y-118451668D01*
X151229734Y-118679704D01*
X151170993Y-118923890D01*
X151161019Y-119174844D01*
X151075000Y-119174844D01*
X151075000Y-118984273D01*
X151029845Y-118757265D01*
X150941271Y-118543429D01*
X150812682Y-118350981D01*
X150649019Y-118187318D01*
X150646348Y-118185533D01*
X151702310Y-118185533D01*
X152440000Y-118923223D01*
X153177690Y-118185533D01*
X153088332Y-117994984D01*
X152860296Y-117889734D01*
X152616110Y-117830993D01*
X152365156Y-117821019D01*
X152117077Y-117860196D01*
X151881408Y-117947017D01*
X151791668Y-117994984D01*
X151702310Y-118185533D01*
X150646348Y-118185533D01*
X150456571Y-118058729D01*
X150242735Y-117970155D01*
X150015727Y-117925000D01*
X149784273Y-117925000D01*
X149557265Y-117970155D01*
X149343429Y-118058729D01*
X149150981Y-118187318D01*
X148987318Y-118350981D01*
X148858729Y-118543429D01*
X148770155Y-118757265D01*
X148725000Y-118984273D01*
X148535000Y-118984273D01*
X148489845Y-118757265D01*
X148401271Y-118543429D01*
X148272682Y-118350981D01*
X148109019Y-118187318D01*
X147916571Y-118058729D01*
X147702735Y-117970155D01*
X147475727Y-117925000D01*
X147244273Y-117925000D01*
X147017265Y-117970155D01*
X146803429Y-118058729D01*
X146610981Y-118187318D01*
X146447318Y-118350981D01*
X146318729Y-118543429D01*
X146230155Y-118757265D01*
X146185000Y-118984273D01*
X145995000Y-118984273D01*
X145949845Y-118757265D01*
X145861271Y-118543429D01*
X145732682Y-118350981D01*
X145569019Y-118187318D01*
X145376571Y-118058729D01*
X145162735Y-117970155D01*
X144935727Y-117925000D01*
X144704273Y-117925000D01*
X144477265Y-117970155D01*
X144263429Y-118058729D01*
X144070981Y-118187318D01*
X143907318Y-118350981D01*
X143778729Y-118543429D01*
X143690155Y-118757265D01*
X143645000Y-118984273D01*
X124350000Y-118984273D01*
X124350000Y-116810404D01*
X127075000Y-116810404D01*
X127075000Y-117189596D01*
X127148977Y-117561502D01*
X127294087Y-117911829D01*
X127504755Y-118227116D01*
X127772884Y-118495245D01*
X128088171Y-118705913D01*
X128438498Y-118851023D01*
X128810404Y-118925000D01*
X129189596Y-118925000D01*
X129561502Y-118851023D01*
X129911829Y-118705913D01*
X130227116Y-118495245D01*
X130495245Y-118227116D01*
X130705913Y-117911829D01*
X130851023Y-117561502D01*
X130925000Y-117189596D01*
X130925000Y-116810404D01*
X130851023Y-116438498D01*
X130705913Y-116088171D01*
X130495245Y-115772884D01*
X130227116Y-115504755D01*
X129911829Y-115294087D01*
X129561502Y-115148977D01*
X129189596Y-115075000D01*
X128810404Y-115075000D01*
X128438498Y-115148977D01*
X128088171Y-115294087D01*
X127772884Y-115504755D01*
X127504755Y-115772884D01*
X127294087Y-116088171D01*
X127148977Y-116438498D01*
X127075000Y-116810404D01*
X124350000Y-116810404D01*
X124350000Y-108954565D01*
X124955000Y-108954565D01*
X124955000Y-109845434D01*
X124968385Y-109981331D01*
X125021277Y-110155694D01*
X125107170Y-110316388D01*
X125222762Y-110457238D01*
X125363611Y-110572830D01*
X125524305Y-110658723D01*
X125698668Y-110711615D01*
X125880000Y-110729475D01*
X126061331Y-110711615D01*
X126235694Y-110658723D01*
X126396388Y-110572830D01*
X126537238Y-110457238D01*
X126652830Y-110316389D01*
X126738723Y-110155695D01*
X126791615Y-109981332D01*
X126805000Y-109845435D01*
X126805000Y-108954565D01*
X127495000Y-108954565D01*
X127495000Y-109845434D01*
X127508385Y-109981331D01*
X127561277Y-110155694D01*
X127647170Y-110316388D01*
X127762762Y-110457238D01*
X127903611Y-110572830D01*
X128064305Y-110658723D01*
X128238668Y-110711615D01*
X128420000Y-110729475D01*
X128601331Y-110711615D01*
X128775694Y-110658723D01*
X128936388Y-110572830D01*
X129077238Y-110457238D01*
X129192830Y-110316389D01*
X129278723Y-110155695D01*
X129331615Y-109981332D01*
X129345000Y-109845435D01*
X129345000Y-108958245D01*
X130032280Y-108958245D01*
X130032280Y-109849114D01*
X130045665Y-109985011D01*
X130098557Y-110159374D01*
X130184450Y-110320068D01*
X130300042Y-110460918D01*
X130440891Y-110576510D01*
X130601585Y-110662403D01*
X130775948Y-110715295D01*
X130957280Y-110733155D01*
X131138611Y-110715295D01*
X131312974Y-110662403D01*
X131473668Y-110576510D01*
X131614518Y-110460918D01*
X131730110Y-110320069D01*
X131816003Y-110159375D01*
X131868895Y-109985012D01*
X131882280Y-109849115D01*
X131882280Y-108958245D01*
X132572280Y-108958245D01*
X132572280Y-109849114D01*
X132585665Y-109985011D01*
X132638557Y-110159374D01*
X132724450Y-110320068D01*
X132840042Y-110460918D01*
X132980891Y-110576510D01*
X133141585Y-110662403D01*
X133315948Y-110715295D01*
X133497280Y-110733155D01*
X133678611Y-110715295D01*
X133852974Y-110662403D01*
X134013668Y-110576510D01*
X134154518Y-110460918D01*
X134270110Y-110320069D01*
X134356003Y-110159375D01*
X134408895Y-109985012D01*
X134422280Y-109849115D01*
X134422280Y-108958245D01*
X135112280Y-108958245D01*
X135112280Y-109849114D01*
X135125665Y-109985011D01*
X135178557Y-110159374D01*
X135264450Y-110320068D01*
X135380042Y-110460918D01*
X135520891Y-110576510D01*
X135681585Y-110662403D01*
X135855948Y-110715295D01*
X136037280Y-110733155D01*
X136218611Y-110715295D01*
X136392974Y-110662403D01*
X136553668Y-110576510D01*
X136694518Y-110460918D01*
X136810110Y-110320069D01*
X136896003Y-110159375D01*
X136948895Y-109985012D01*
X136962280Y-109849115D01*
X136962280Y-108958245D01*
X137652280Y-108958245D01*
X137652280Y-109849114D01*
X137665665Y-109985011D01*
X137718557Y-110159374D01*
X137804450Y-110320068D01*
X137920042Y-110460918D01*
X138060891Y-110576510D01*
X138221585Y-110662403D01*
X138395948Y-110715295D01*
X138577280Y-110733155D01*
X138758611Y-110715295D01*
X138932974Y-110662403D01*
X139093668Y-110576510D01*
X139234518Y-110460918D01*
X139350110Y-110320069D01*
X139436003Y-110159375D01*
X139488895Y-109985012D01*
X139502280Y-109849115D01*
X139502280Y-108958245D01*
X140192280Y-108958245D01*
X140192280Y-109849114D01*
X140205665Y-109985011D01*
X140258557Y-110159374D01*
X140344450Y-110320068D01*
X140460042Y-110460918D01*
X140600891Y-110576510D01*
X140761585Y-110662403D01*
X140935948Y-110715295D01*
X141117280Y-110733155D01*
X141298611Y-110715295D01*
X141472974Y-110662403D01*
X141633668Y-110576510D01*
X141774518Y-110460918D01*
X141890110Y-110320069D01*
X141976003Y-110159375D01*
X142028895Y-109985012D01*
X142042280Y-109849115D01*
X142042280Y-108958245D01*
X142732280Y-108958245D01*
X142732280Y-109849114D01*
X142745665Y-109985011D01*
X142798557Y-110159374D01*
X142884450Y-110320068D01*
X143000042Y-110460918D01*
X143140891Y-110576510D01*
X143301585Y-110662403D01*
X143475948Y-110715295D01*
X143657280Y-110733155D01*
X143838611Y-110715295D01*
X144012974Y-110662403D01*
X144173668Y-110576510D01*
X144314518Y-110460918D01*
X144430110Y-110320069D01*
X144516003Y-110159375D01*
X144568895Y-109985012D01*
X144582280Y-109849115D01*
X144582280Y-108958245D01*
X145272280Y-108958245D01*
X145272280Y-109849114D01*
X145285665Y-109985011D01*
X145338557Y-110159374D01*
X145424450Y-110320068D01*
X145540042Y-110460918D01*
X145680891Y-110576510D01*
X145841585Y-110662403D01*
X146015948Y-110715295D01*
X146197280Y-110733155D01*
X146378611Y-110715295D01*
X146552974Y-110662403D01*
X146713668Y-110576510D01*
X146854518Y-110460918D01*
X146970110Y-110320069D01*
X147056003Y-110159375D01*
X147108895Y-109985012D01*
X147122280Y-109849115D01*
X147122280Y-108958245D01*
X147812280Y-108958245D01*
X147812280Y-109849114D01*
X147825665Y-109985011D01*
X147878557Y-110159374D01*
X147964450Y-110320068D01*
X148080042Y-110460918D01*
X148220891Y-110576510D01*
X148381585Y-110662403D01*
X148555948Y-110715295D01*
X148737280Y-110733155D01*
X148918611Y-110715295D01*
X149092974Y-110662403D01*
X149253668Y-110576510D01*
X149394518Y-110460918D01*
X149510110Y-110320069D01*
X149596003Y-110159375D01*
X149648895Y-109985012D01*
X149662280Y-109849115D01*
X149662280Y-108958245D01*
X150352280Y-108958245D01*
X150352280Y-109849114D01*
X150365665Y-109985011D01*
X150418557Y-110159374D01*
X150504450Y-110320068D01*
X150620042Y-110460918D01*
X150760891Y-110576510D01*
X150921585Y-110662403D01*
X151095948Y-110715295D01*
X151277280Y-110733155D01*
X151458611Y-110715295D01*
X151632974Y-110662403D01*
X151793668Y-110576510D01*
X151934518Y-110460918D01*
X152050110Y-110320069D01*
X152136003Y-110159375D01*
X152188895Y-109985012D01*
X152202280Y-109849115D01*
X152202280Y-108958245D01*
X152892280Y-108958245D01*
X152892280Y-109849114D01*
X152905665Y-109985011D01*
X152958557Y-110159374D01*
X153044450Y-110320068D01*
X153160042Y-110460918D01*
X153300891Y-110576510D01*
X153461585Y-110662403D01*
X153635948Y-110715295D01*
X153817280Y-110733155D01*
X153998611Y-110715295D01*
X154172974Y-110662403D01*
X154333668Y-110576510D01*
X154474518Y-110460918D01*
X154590110Y-110320069D01*
X154676003Y-110159375D01*
X154728895Y-109985012D01*
X154742280Y-109849115D01*
X154742280Y-109528680D01*
X155332280Y-109528680D01*
X155332280Y-109928680D01*
X155376361Y-110126246D01*
X155458139Y-110311416D01*
X155574470Y-110477074D01*
X155720884Y-110616854D01*
X155891755Y-110725384D01*
X156074671Y-110788949D01*
X156232280Y-110713887D01*
X156232280Y-109528680D01*
X156482280Y-109528680D01*
X156482280Y-110713887D01*
X156639889Y-110788949D01*
X156822805Y-110725384D01*
X156993676Y-110616854D01*
X157140090Y-110477074D01*
X157256421Y-110311416D01*
X157338199Y-110126246D01*
X157382280Y-109928680D01*
X157382280Y-109528680D01*
X156482280Y-109528680D01*
X156232280Y-109528680D01*
X155332280Y-109528680D01*
X154742280Y-109528680D01*
X154742280Y-108958245D01*
X154734444Y-108878680D01*
X155332280Y-108878680D01*
X155332280Y-109278680D01*
X156232280Y-109278680D01*
X156232280Y-108093473D01*
X156482280Y-108093473D01*
X156482280Y-109278680D01*
X157382280Y-109278680D01*
X157382280Y-108958245D01*
X157972280Y-108958245D01*
X157972280Y-109849114D01*
X157985665Y-109985011D01*
X158038557Y-110159374D01*
X158124450Y-110320068D01*
X158240042Y-110460918D01*
X158380891Y-110576510D01*
X158541585Y-110662403D01*
X158715948Y-110715295D01*
X158897280Y-110733155D01*
X159078611Y-110715295D01*
X159252974Y-110662403D01*
X159413668Y-110576510D01*
X159554518Y-110460918D01*
X159670110Y-110320069D01*
X159756003Y-110159375D01*
X159808895Y-109985012D01*
X159822280Y-109849115D01*
X159822280Y-108958245D01*
X160512280Y-108958245D01*
X160512280Y-109849114D01*
X160525665Y-109985011D01*
X160578557Y-110159374D01*
X160664450Y-110320068D01*
X160780042Y-110460918D01*
X160920891Y-110576510D01*
X161081585Y-110662403D01*
X161255948Y-110715295D01*
X161437280Y-110733155D01*
X161618611Y-110715295D01*
X161792974Y-110662403D01*
X161953668Y-110576510D01*
X162094518Y-110460918D01*
X162210110Y-110320069D01*
X162296003Y-110159375D01*
X162348895Y-109985012D01*
X162362280Y-109849115D01*
X162362280Y-108958245D01*
X163052280Y-108958245D01*
X163052280Y-109849114D01*
X163065665Y-109985011D01*
X163118557Y-110159374D01*
X163204450Y-110320068D01*
X163320042Y-110460918D01*
X163460891Y-110576510D01*
X163621585Y-110662403D01*
X163795948Y-110715295D01*
X163977280Y-110733155D01*
X164158611Y-110715295D01*
X164332974Y-110662403D01*
X164493668Y-110576510D01*
X164634518Y-110460918D01*
X164750110Y-110320069D01*
X164836003Y-110159375D01*
X164888895Y-109985012D01*
X164902280Y-109849115D01*
X164902280Y-108958245D01*
X165592280Y-108958245D01*
X165592280Y-109849114D01*
X165605665Y-109985011D01*
X165658557Y-110159374D01*
X165744450Y-110320068D01*
X165860042Y-110460918D01*
X166000891Y-110576510D01*
X166161585Y-110662403D01*
X166335948Y-110715295D01*
X166517280Y-110733155D01*
X166698611Y-110715295D01*
X166872974Y-110662403D01*
X167033668Y-110576510D01*
X167174518Y-110460918D01*
X167290110Y-110320069D01*
X167376003Y-110159375D01*
X167428895Y-109985012D01*
X167442280Y-109849115D01*
X167442280Y-108958245D01*
X168132280Y-108958245D01*
X168132280Y-109849114D01*
X168145665Y-109985011D01*
X168198557Y-110159374D01*
X168284450Y-110320068D01*
X168400042Y-110460918D01*
X168540891Y-110576510D01*
X168701585Y-110662403D01*
X168875948Y-110715295D01*
X169057280Y-110733155D01*
X169238611Y-110715295D01*
X169412974Y-110662403D01*
X169573668Y-110576510D01*
X169714518Y-110460918D01*
X169761492Y-110403680D01*
X170570224Y-110403680D01*
X170578430Y-110486994D01*
X170602732Y-110567107D01*
X170642196Y-110640940D01*
X170695306Y-110705654D01*
X170760020Y-110758764D01*
X170833853Y-110798228D01*
X170913966Y-110822530D01*
X170997280Y-110830736D01*
X171366030Y-110828680D01*
X171472280Y-110722430D01*
X171472280Y-109528680D01*
X171722280Y-109528680D01*
X171722280Y-110722430D01*
X171828530Y-110828680D01*
X172197280Y-110830736D01*
X172280594Y-110822530D01*
X172360707Y-110798228D01*
X172434540Y-110758764D01*
X172499254Y-110705654D01*
X172552364Y-110640940D01*
X172591828Y-110567107D01*
X172616130Y-110486994D01*
X172624336Y-110403680D01*
X172622280Y-109634930D01*
X172516030Y-109528680D01*
X171722280Y-109528680D01*
X171472280Y-109528680D01*
X170678530Y-109528680D01*
X170572280Y-109634930D01*
X170570224Y-110403680D01*
X169761492Y-110403680D01*
X169830110Y-110320069D01*
X169916003Y-110159375D01*
X169968895Y-109985012D01*
X169982280Y-109849115D01*
X169982280Y-108958245D01*
X169968895Y-108822348D01*
X169916003Y-108647985D01*
X169830110Y-108487291D01*
X169761493Y-108403680D01*
X170570224Y-108403680D01*
X170572280Y-109172430D01*
X170678530Y-109278680D01*
X171472280Y-109278680D01*
X171472280Y-108084930D01*
X171722280Y-108084930D01*
X171722280Y-109278680D01*
X172516030Y-109278680D01*
X172622280Y-109172430D01*
X172624336Y-108403680D01*
X172616130Y-108320366D01*
X172591828Y-108240253D01*
X172552364Y-108166420D01*
X172499254Y-108101706D01*
X172434540Y-108048596D01*
X172360707Y-108009132D01*
X172280594Y-107984830D01*
X172197280Y-107976624D01*
X171828530Y-107978680D01*
X171722280Y-108084930D01*
X171472280Y-108084930D01*
X171366030Y-107978680D01*
X170997280Y-107976624D01*
X170913966Y-107984830D01*
X170833853Y-108009132D01*
X170760020Y-108048596D01*
X170695306Y-108101706D01*
X170642196Y-108166420D01*
X170602732Y-108240253D01*
X170578430Y-108320366D01*
X170570224Y-108403680D01*
X169761493Y-108403680D01*
X169714518Y-108346442D01*
X169573669Y-108230850D01*
X169412975Y-108144957D01*
X169238612Y-108092065D01*
X169057280Y-108074205D01*
X168875949Y-108092065D01*
X168701586Y-108144957D01*
X168540892Y-108230850D01*
X168400043Y-108346442D01*
X168284451Y-108487291D01*
X168198558Y-108647985D01*
X168145666Y-108822348D01*
X168132280Y-108958245D01*
X167442280Y-108958245D01*
X167428895Y-108822348D01*
X167376003Y-108647985D01*
X167290110Y-108487291D01*
X167174518Y-108346442D01*
X167033669Y-108230850D01*
X166872975Y-108144957D01*
X166698612Y-108092065D01*
X166517280Y-108074205D01*
X166335949Y-108092065D01*
X166161586Y-108144957D01*
X166000892Y-108230850D01*
X165860043Y-108346442D01*
X165744451Y-108487291D01*
X165658558Y-108647985D01*
X165605666Y-108822348D01*
X165592280Y-108958245D01*
X164902280Y-108958245D01*
X164888895Y-108822348D01*
X164836003Y-108647985D01*
X164750110Y-108487291D01*
X164634518Y-108346442D01*
X164493669Y-108230850D01*
X164332975Y-108144957D01*
X164158612Y-108092065D01*
X163977280Y-108074205D01*
X163795949Y-108092065D01*
X163621586Y-108144957D01*
X163460892Y-108230850D01*
X163320043Y-108346442D01*
X163204451Y-108487291D01*
X163118558Y-108647985D01*
X163065666Y-108822348D01*
X163052280Y-108958245D01*
X162362280Y-108958245D01*
X162348895Y-108822348D01*
X162296003Y-108647985D01*
X162210110Y-108487291D01*
X162094518Y-108346442D01*
X161953669Y-108230850D01*
X161792975Y-108144957D01*
X161618612Y-108092065D01*
X161437280Y-108074205D01*
X161255949Y-108092065D01*
X161081586Y-108144957D01*
X160920892Y-108230850D01*
X160780043Y-108346442D01*
X160664451Y-108487291D01*
X160578558Y-108647985D01*
X160525666Y-108822348D01*
X160512280Y-108958245D01*
X159822280Y-108958245D01*
X159808895Y-108822348D01*
X159756003Y-108647985D01*
X159670110Y-108487291D01*
X159554518Y-108346442D01*
X159413669Y-108230850D01*
X159252975Y-108144957D01*
X159078612Y-108092065D01*
X158897280Y-108074205D01*
X158715949Y-108092065D01*
X158541586Y-108144957D01*
X158380892Y-108230850D01*
X158240043Y-108346442D01*
X158124451Y-108487291D01*
X158038558Y-108647985D01*
X157985666Y-108822348D01*
X157972280Y-108958245D01*
X157382280Y-108958245D01*
X157382280Y-108878680D01*
X157338199Y-108681114D01*
X157256421Y-108495944D01*
X157140090Y-108330286D01*
X156993676Y-108190506D01*
X156822805Y-108081976D01*
X156639889Y-108018411D01*
X156482280Y-108093473D01*
X156232280Y-108093473D01*
X156074671Y-108018411D01*
X155891755Y-108081976D01*
X155720884Y-108190506D01*
X155574470Y-108330286D01*
X155458139Y-108495944D01*
X155376361Y-108681114D01*
X155332280Y-108878680D01*
X154734444Y-108878680D01*
X154728895Y-108822348D01*
X154676003Y-108647985D01*
X154590110Y-108487291D01*
X154474518Y-108346442D01*
X154333669Y-108230850D01*
X154172975Y-108144957D01*
X153998612Y-108092065D01*
X153817280Y-108074205D01*
X153635949Y-108092065D01*
X153461586Y-108144957D01*
X153300892Y-108230850D01*
X153160043Y-108346442D01*
X153044451Y-108487291D01*
X152958558Y-108647985D01*
X152905666Y-108822348D01*
X152892280Y-108958245D01*
X152202280Y-108958245D01*
X152188895Y-108822348D01*
X152136003Y-108647985D01*
X152050110Y-108487291D01*
X151934518Y-108346442D01*
X151793669Y-108230850D01*
X151632975Y-108144957D01*
X151458612Y-108092065D01*
X151277280Y-108074205D01*
X151095949Y-108092065D01*
X150921586Y-108144957D01*
X150760892Y-108230850D01*
X150620043Y-108346442D01*
X150504451Y-108487291D01*
X150418558Y-108647985D01*
X150365666Y-108822348D01*
X150352280Y-108958245D01*
X149662280Y-108958245D01*
X149648895Y-108822348D01*
X149596003Y-108647985D01*
X149510110Y-108487291D01*
X149394518Y-108346442D01*
X149253669Y-108230850D01*
X149092975Y-108144957D01*
X148918612Y-108092065D01*
X148737280Y-108074205D01*
X148555949Y-108092065D01*
X148381586Y-108144957D01*
X148220892Y-108230850D01*
X148080043Y-108346442D01*
X147964451Y-108487291D01*
X147878558Y-108647985D01*
X147825666Y-108822348D01*
X147812280Y-108958245D01*
X147122280Y-108958245D01*
X147108895Y-108822348D01*
X147056003Y-108647985D01*
X146970110Y-108487291D01*
X146854518Y-108346442D01*
X146713669Y-108230850D01*
X146552975Y-108144957D01*
X146378612Y-108092065D01*
X146197280Y-108074205D01*
X146015949Y-108092065D01*
X145841586Y-108144957D01*
X145680892Y-108230850D01*
X145540043Y-108346442D01*
X145424451Y-108487291D01*
X145338558Y-108647985D01*
X145285666Y-108822348D01*
X145272280Y-108958245D01*
X144582280Y-108958245D01*
X144568895Y-108822348D01*
X144516003Y-108647985D01*
X144430110Y-108487291D01*
X144314518Y-108346442D01*
X144173669Y-108230850D01*
X144012975Y-108144957D01*
X143838612Y-108092065D01*
X143657280Y-108074205D01*
X143475949Y-108092065D01*
X143301586Y-108144957D01*
X143140892Y-108230850D01*
X143000043Y-108346442D01*
X142884451Y-108487291D01*
X142798558Y-108647985D01*
X142745666Y-108822348D01*
X142732280Y-108958245D01*
X142042280Y-108958245D01*
X142028895Y-108822348D01*
X141976003Y-108647985D01*
X141890110Y-108487291D01*
X141774518Y-108346442D01*
X141633669Y-108230850D01*
X141472975Y-108144957D01*
X141298612Y-108092065D01*
X141117280Y-108074205D01*
X140935949Y-108092065D01*
X140761586Y-108144957D01*
X140600892Y-108230850D01*
X140460043Y-108346442D01*
X140344451Y-108487291D01*
X140258558Y-108647985D01*
X140205666Y-108822348D01*
X140192280Y-108958245D01*
X139502280Y-108958245D01*
X139488895Y-108822348D01*
X139436003Y-108647985D01*
X139350110Y-108487291D01*
X139234518Y-108346442D01*
X139093669Y-108230850D01*
X138932975Y-108144957D01*
X138758612Y-108092065D01*
X138577280Y-108074205D01*
X138395949Y-108092065D01*
X138221586Y-108144957D01*
X138060892Y-108230850D01*
X137920043Y-108346442D01*
X137804451Y-108487291D01*
X137718558Y-108647985D01*
X137665666Y-108822348D01*
X137652280Y-108958245D01*
X136962280Y-108958245D01*
X136948895Y-108822348D01*
X136896003Y-108647985D01*
X136810110Y-108487291D01*
X136694518Y-108346442D01*
X136553669Y-108230850D01*
X136392975Y-108144957D01*
X136218612Y-108092065D01*
X136037280Y-108074205D01*
X135855949Y-108092065D01*
X135681586Y-108144957D01*
X135520892Y-108230850D01*
X135380043Y-108346442D01*
X135264451Y-108487291D01*
X135178558Y-108647985D01*
X135125666Y-108822348D01*
X135112280Y-108958245D01*
X134422280Y-108958245D01*
X134408895Y-108822348D01*
X134356003Y-108647985D01*
X134270110Y-108487291D01*
X134154518Y-108346442D01*
X134013669Y-108230850D01*
X133852975Y-108144957D01*
X133678612Y-108092065D01*
X133497280Y-108074205D01*
X133315949Y-108092065D01*
X133141586Y-108144957D01*
X132980892Y-108230850D01*
X132840043Y-108346442D01*
X132724451Y-108487291D01*
X132638558Y-108647985D01*
X132585666Y-108822348D01*
X132572280Y-108958245D01*
X131882280Y-108958245D01*
X131868895Y-108822348D01*
X131816003Y-108647985D01*
X131730110Y-108487291D01*
X131614518Y-108346442D01*
X131473669Y-108230850D01*
X131312975Y-108144957D01*
X131138612Y-108092065D01*
X130957280Y-108074205D01*
X130775949Y-108092065D01*
X130601586Y-108144957D01*
X130440892Y-108230850D01*
X130300043Y-108346442D01*
X130184451Y-108487291D01*
X130098558Y-108647985D01*
X130045666Y-108822348D01*
X130032280Y-108958245D01*
X129345000Y-108958245D01*
X129345000Y-108954565D01*
X129331615Y-108818668D01*
X129278723Y-108644305D01*
X129192830Y-108483611D01*
X129077238Y-108342762D01*
X128936389Y-108227170D01*
X128775695Y-108141277D01*
X128601332Y-108088385D01*
X128420000Y-108070525D01*
X128238669Y-108088385D01*
X128064306Y-108141277D01*
X127903612Y-108227170D01*
X127762763Y-108342762D01*
X127647171Y-108483611D01*
X127561278Y-108644305D01*
X127508386Y-108818668D01*
X127495000Y-108954565D01*
X126805000Y-108954565D01*
X126791615Y-108818668D01*
X126738723Y-108644305D01*
X126652830Y-108483611D01*
X126537238Y-108342762D01*
X126396389Y-108227170D01*
X126235695Y-108141277D01*
X126061332Y-108088385D01*
X125880000Y-108070525D01*
X125698669Y-108088385D01*
X125524306Y-108141277D01*
X125363612Y-108227170D01*
X125222763Y-108342762D01*
X125107171Y-108483611D01*
X125021278Y-108644305D01*
X124968386Y-108818668D01*
X124955000Y-108954565D01*
X124350000Y-108954565D01*
X124350000Y-83558245D01*
X124952280Y-83558245D01*
X124952280Y-84449114D01*
X124965665Y-84585011D01*
X125018557Y-84759374D01*
X125052280Y-84822465D01*
X125052281Y-93136757D01*
X125048290Y-93177280D01*
X125064218Y-93339008D01*
X125111393Y-93494521D01*
X125188000Y-93637843D01*
X125291096Y-93763465D01*
X125322571Y-93789296D01*
X131987984Y-100454710D01*
X132013815Y-100486185D01*
X132139437Y-100589281D01*
X132232836Y-100639203D01*
X132282758Y-100665888D01*
X132438272Y-100713062D01*
X132559479Y-100725000D01*
X132559487Y-100725000D01*
X132600000Y-100728990D01*
X132640513Y-100725000D01*
X172758275Y-100725000D01*
X177575001Y-105541727D01*
X177575000Y-114158274D01*
X173458275Y-118275000D01*
X156156572Y-118275000D01*
X156156572Y-118250000D01*
X156150297Y-118186289D01*
X156131713Y-118125026D01*
X156101535Y-118068566D01*
X156060921Y-118019079D01*
X156011434Y-117978465D01*
X155954974Y-117948287D01*
X155893711Y-117929703D01*
X155830000Y-117923428D01*
X154130000Y-117923428D01*
X154066289Y-117929703D01*
X154005026Y-117948287D01*
X153948566Y-117978465D01*
X153899079Y-118019079D01*
X153858465Y-118068566D01*
X153828287Y-118125026D01*
X153809703Y-118186289D01*
X153803428Y-118250000D01*
X153803428Y-119950000D01*
X153809703Y-120013711D01*
X153828287Y-120074974D01*
X153858465Y-120131434D01*
X153899079Y-120180921D01*
X153948566Y-120221535D01*
X154005026Y-120251713D01*
X154066289Y-120270297D01*
X154130000Y-120276572D01*
X155830000Y-120276572D01*
X155893711Y-120270297D01*
X155954974Y-120251713D01*
X156011434Y-120221535D01*
X156060921Y-120180921D01*
X156101535Y-120131434D01*
X156131713Y-120074974D01*
X156150297Y-120013711D01*
X156156572Y-119950000D01*
X156156572Y-119925000D01*
X173759487Y-119925000D01*
X173800000Y-119928990D01*
X173840513Y-119925000D01*
X173840521Y-119925000D01*
X173961728Y-119913062D01*
X174117241Y-119865888D01*
X174260563Y-119789281D01*
X174386185Y-119686185D01*
X174412021Y-119654704D01*
X177256321Y-116810404D01*
X209075000Y-116810404D01*
X209075000Y-117189596D01*
X209148977Y-117561502D01*
X209294087Y-117911829D01*
X209504755Y-118227116D01*
X209772884Y-118495245D01*
X210088171Y-118705913D01*
X210438498Y-118851023D01*
X210810404Y-118925000D01*
X211189596Y-118925000D01*
X211561502Y-118851023D01*
X211911829Y-118705913D01*
X212227116Y-118495245D01*
X212495245Y-118227116D01*
X212705913Y-117911829D01*
X212851023Y-117561502D01*
X212925000Y-117189596D01*
X212925000Y-116810404D01*
X212851023Y-116438498D01*
X212705913Y-116088171D01*
X212495245Y-115772884D01*
X212227116Y-115504755D01*
X211911829Y-115294087D01*
X211561502Y-115148977D01*
X211189596Y-115075000D01*
X210810404Y-115075000D01*
X210438498Y-115148977D01*
X210088171Y-115294087D01*
X209772884Y-115504755D01*
X209504755Y-115772884D01*
X209294087Y-116088171D01*
X209148977Y-116438498D01*
X209075000Y-116810404D01*
X177256321Y-116810404D01*
X178954711Y-115112015D01*
X178986185Y-115086185D01*
X179089281Y-114960563D01*
X179165888Y-114817241D01*
X179213062Y-114661728D01*
X179225000Y-114540521D01*
X179225000Y-114540514D01*
X179228990Y-114500001D01*
X179225000Y-114459488D01*
X179225000Y-111294273D01*
X203825000Y-111294273D01*
X203825000Y-111525727D01*
X203870155Y-111752735D01*
X203958729Y-111966571D01*
X204087318Y-112159019D01*
X204250981Y-112322682D01*
X204443429Y-112451271D01*
X204657265Y-112539845D01*
X204884273Y-112585000D01*
X205115727Y-112585000D01*
X205342735Y-112539845D01*
X205556571Y-112451271D01*
X205749019Y-112322682D01*
X205912682Y-112159019D01*
X206041271Y-111966571D01*
X206129845Y-111752735D01*
X206175000Y-111525727D01*
X206175000Y-111294273D01*
X206129845Y-111067265D01*
X206041271Y-110853429D01*
X205912682Y-110660981D01*
X205749019Y-110497318D01*
X205556571Y-110368729D01*
X205342735Y-110280155D01*
X205115727Y-110235000D01*
X204884273Y-110235000D01*
X204657265Y-110280155D01*
X204443429Y-110368729D01*
X204250981Y-110497318D01*
X204087318Y-110660981D01*
X203958729Y-110853429D01*
X203870155Y-111067265D01*
X203825000Y-111294273D01*
X179225000Y-111294273D01*
X179225000Y-108754273D01*
X203825000Y-108754273D01*
X203825000Y-108985727D01*
X203870155Y-109212735D01*
X203958729Y-109426571D01*
X204087318Y-109619019D01*
X204250981Y-109782682D01*
X204443429Y-109911271D01*
X204657265Y-109999845D01*
X204884273Y-110045000D01*
X205115727Y-110045000D01*
X205342735Y-109999845D01*
X205556571Y-109911271D01*
X205749019Y-109782682D01*
X205912682Y-109619019D01*
X206041271Y-109426571D01*
X206129845Y-109212735D01*
X206175000Y-108985727D01*
X206175000Y-108754273D01*
X206129845Y-108527265D01*
X206041271Y-108313429D01*
X205912682Y-108120981D01*
X205749019Y-107957318D01*
X205556571Y-107828729D01*
X205342735Y-107740155D01*
X205115727Y-107695000D01*
X204884273Y-107695000D01*
X204657265Y-107740155D01*
X204443429Y-107828729D01*
X204250981Y-107957318D01*
X204087318Y-108120981D01*
X203958729Y-108313429D01*
X203870155Y-108527265D01*
X203825000Y-108754273D01*
X179225000Y-108754273D01*
X179225000Y-107244467D01*
X204262310Y-107244467D01*
X204351668Y-107435016D01*
X204579704Y-107540266D01*
X204823890Y-107599007D01*
X205074844Y-107608981D01*
X205322923Y-107569804D01*
X205558592Y-107482983D01*
X205648332Y-107435016D01*
X205737690Y-107244467D01*
X205000000Y-106506777D01*
X204262310Y-107244467D01*
X179225000Y-107244467D01*
X179225000Y-106404844D01*
X203721019Y-106404844D01*
X203760196Y-106652923D01*
X203847017Y-106888592D01*
X203894984Y-106978332D01*
X204085533Y-107067690D01*
X204823223Y-106330000D01*
X205176777Y-106330000D01*
X205914467Y-107067690D01*
X206105016Y-106978332D01*
X206210266Y-106750296D01*
X206269007Y-106506110D01*
X206278981Y-106255156D01*
X206239804Y-106007077D01*
X206152983Y-105771408D01*
X206105016Y-105681668D01*
X205914467Y-105592310D01*
X205176777Y-106330000D01*
X204823223Y-106330000D01*
X204085533Y-105592310D01*
X203894984Y-105681668D01*
X203789734Y-105909704D01*
X203730993Y-106153890D01*
X203721019Y-106404844D01*
X179225000Y-106404844D01*
X179225000Y-105541725D01*
X179351192Y-105415533D01*
X204262310Y-105415533D01*
X205000000Y-106153223D01*
X205737690Y-105415533D01*
X205648332Y-105224984D01*
X205420296Y-105119734D01*
X205176110Y-105060993D01*
X204925156Y-105051019D01*
X204677077Y-105090196D01*
X204441408Y-105177017D01*
X204351668Y-105224984D01*
X204262310Y-105415533D01*
X179351192Y-105415533D01*
X180151726Y-104615000D01*
X203911428Y-104615000D01*
X203911428Y-104640000D01*
X203917703Y-104703711D01*
X203936287Y-104764974D01*
X203966465Y-104821434D01*
X204007079Y-104870921D01*
X204056566Y-104911535D01*
X204113026Y-104941713D01*
X204174289Y-104960297D01*
X204238000Y-104966572D01*
X205762000Y-104966572D01*
X205825711Y-104960297D01*
X205886974Y-104941713D01*
X205943434Y-104911535D01*
X205992921Y-104870921D01*
X206033535Y-104821434D01*
X206063713Y-104764974D01*
X206082297Y-104703711D01*
X206088572Y-104640000D01*
X206088572Y-102940000D01*
X206082297Y-102876289D01*
X206063713Y-102815026D01*
X206033535Y-102758566D01*
X205992921Y-102709079D01*
X205943434Y-102668465D01*
X205886974Y-102638287D01*
X205825711Y-102619703D01*
X205762000Y-102613428D01*
X204238000Y-102613428D01*
X204174289Y-102619703D01*
X204113026Y-102638287D01*
X204056566Y-102668465D01*
X204007079Y-102709079D01*
X203966465Y-102758566D01*
X203936287Y-102815026D01*
X203917703Y-102876289D01*
X203911428Y-102940000D01*
X203911428Y-102965000D01*
X179850512Y-102965000D01*
X179809999Y-102961010D01*
X179769486Y-102965000D01*
X179769479Y-102965000D01*
X179663870Y-102975402D01*
X179648271Y-102976938D01*
X179601097Y-102991248D01*
X179492759Y-103024112D01*
X179349437Y-103100719D01*
X179223815Y-103203815D01*
X179197984Y-103235290D01*
X178400000Y-104033274D01*
X173712021Y-99345296D01*
X173686185Y-99313815D01*
X173560563Y-99210719D01*
X173417241Y-99134112D01*
X173261728Y-99086938D01*
X173140521Y-99075000D01*
X173140513Y-99075000D01*
X173100000Y-99071010D01*
X173059487Y-99075000D01*
X132941726Y-99075000D01*
X126702280Y-92835555D01*
X126702280Y-89853614D01*
X176474063Y-89853614D01*
X176474063Y-89996426D01*
X176501924Y-90136495D01*
X176556576Y-90268436D01*
X176635919Y-90387181D01*
X176736902Y-90488164D01*
X176855647Y-90567507D01*
X176987588Y-90622159D01*
X177127657Y-90650020D01*
X177270469Y-90650020D01*
X177410538Y-90622159D01*
X177542479Y-90567507D01*
X177661224Y-90488164D01*
X177699065Y-90450324D01*
X177736905Y-90488164D01*
X177855650Y-90567507D01*
X177987591Y-90622159D01*
X178127660Y-90650020D01*
X178270472Y-90650020D01*
X178410541Y-90622159D01*
X178542482Y-90567507D01*
X178661227Y-90488164D01*
X178699533Y-90449858D01*
X178737839Y-90488164D01*
X178856584Y-90567507D01*
X178988525Y-90622159D01*
X179128594Y-90650020D01*
X179271406Y-90650020D01*
X179411475Y-90622159D01*
X179543416Y-90567507D01*
X179662161Y-90488164D01*
X179700002Y-90450324D01*
X179750493Y-90500815D01*
X179869238Y-90580158D01*
X180001179Y-90634810D01*
X180141248Y-90662671D01*
X180284060Y-90662671D01*
X180424129Y-90634810D01*
X180556070Y-90580158D01*
X180674815Y-90500815D01*
X180718940Y-90456690D01*
X180750414Y-90488164D01*
X180869159Y-90567507D01*
X181001100Y-90622159D01*
X181141169Y-90650020D01*
X181283981Y-90650020D01*
X181424050Y-90622159D01*
X181555991Y-90567507D01*
X181674736Y-90488164D01*
X181712577Y-90450324D01*
X181750417Y-90488164D01*
X181869162Y-90567507D01*
X182001103Y-90622159D01*
X182141172Y-90650020D01*
X182283984Y-90650020D01*
X182424053Y-90622159D01*
X182555994Y-90567507D01*
X182674739Y-90488164D01*
X182775722Y-90387181D01*
X182855065Y-90268436D01*
X182909717Y-90136495D01*
X182937578Y-89996426D01*
X182937578Y-89853614D01*
X182928487Y-89807909D01*
X182986396Y-89750000D01*
X187128730Y-89750000D01*
X187136856Y-89762161D01*
X187237839Y-89863144D01*
X187356584Y-89942487D01*
X187488525Y-89997139D01*
X187628594Y-90025000D01*
X187771406Y-90025000D01*
X187911475Y-89997139D01*
X188043416Y-89942487D01*
X188162161Y-89863144D01*
X188263144Y-89762161D01*
X188300000Y-89707002D01*
X188336856Y-89762161D01*
X188437839Y-89863144D01*
X188556584Y-89942487D01*
X188688525Y-89997139D01*
X188828594Y-90025000D01*
X188971406Y-90025000D01*
X189111475Y-89997139D01*
X189243416Y-89942487D01*
X189362161Y-89863144D01*
X189463144Y-89762161D01*
X189542487Y-89643416D01*
X189597139Y-89511475D01*
X189625000Y-89371406D01*
X189625000Y-89334397D01*
X190718175Y-90427573D01*
X190732262Y-90444738D01*
X190749427Y-90458825D01*
X190749431Y-90458829D01*
X190800782Y-90500972D01*
X190878958Y-90542758D01*
X190963784Y-90568490D01*
X191029894Y-90575001D01*
X191029904Y-90575001D01*
X191051999Y-90577177D01*
X191074093Y-90575001D01*
X191952905Y-90575001D01*
X191974999Y-90577177D01*
X191997093Y-90575001D01*
X191997104Y-90575001D01*
X192063214Y-90568490D01*
X192148040Y-90542758D01*
X192226215Y-90500972D01*
X192294736Y-90444738D01*
X192308827Y-90427568D01*
X192614249Y-90122147D01*
X192628594Y-90125000D01*
X192771406Y-90125000D01*
X192911475Y-90097139D01*
X193043416Y-90042487D01*
X193162161Y-89963144D01*
X193263144Y-89862161D01*
X193342487Y-89743416D01*
X193397139Y-89611475D01*
X193425000Y-89471406D01*
X193425000Y-89328594D01*
X193397139Y-89188525D01*
X193342487Y-89056584D01*
X193263144Y-88937839D01*
X193162161Y-88836856D01*
X193043416Y-88757513D01*
X192911475Y-88702861D01*
X192771406Y-88675000D01*
X192628594Y-88675000D01*
X192488525Y-88702861D01*
X192356584Y-88757513D01*
X192237839Y-88836856D01*
X192136856Y-88937839D01*
X192057513Y-89056584D01*
X192050000Y-89074722D01*
X192042487Y-89056584D01*
X191963144Y-88937839D01*
X191862161Y-88836856D01*
X191743416Y-88757513D01*
X191611475Y-88702861D01*
X191471406Y-88675000D01*
X191328594Y-88675000D01*
X191188525Y-88702861D01*
X191056584Y-88757513D01*
X190997078Y-88797274D01*
X190022224Y-87822421D01*
X190008134Y-87805252D01*
X189939613Y-87749018D01*
X189861438Y-87707232D01*
X189776612Y-87681500D01*
X189710502Y-87674989D01*
X189710491Y-87674989D01*
X189688397Y-87672813D01*
X189666303Y-87674989D01*
X189184205Y-87674989D01*
X188881622Y-87372407D01*
X188867535Y-87355242D01*
X188850370Y-87341155D01*
X188850366Y-87341151D01*
X188799015Y-87299008D01*
X188720839Y-87257222D01*
X188714381Y-87255263D01*
X188636013Y-87231490D01*
X188569903Y-87224979D01*
X188569893Y-87224979D01*
X188547799Y-87222803D01*
X188525704Y-87224979D01*
X187001302Y-87224981D01*
X186979198Y-87222804D01*
X186890983Y-87231492D01*
X186806157Y-87257223D01*
X186727981Y-87299009D01*
X186676631Y-87341152D01*
X186676626Y-87341157D01*
X186659461Y-87355244D01*
X186645374Y-87372409D01*
X186517813Y-87499970D01*
X181863909Y-87499972D01*
X181841805Y-87497795D01*
X181753590Y-87506483D01*
X181668764Y-87532214D01*
X181590588Y-87574000D01*
X181539237Y-87616143D01*
X181539228Y-87616152D01*
X181522068Y-87630235D01*
X181507985Y-87647395D01*
X180855372Y-88300009D01*
X180397103Y-88300009D01*
X180375008Y-88297833D01*
X180352914Y-88300009D01*
X180352904Y-88300009D01*
X180286794Y-88306520D01*
X180201968Y-88332252D01*
X180123792Y-88374038D01*
X180089771Y-88401959D01*
X180055272Y-88430272D01*
X180041181Y-88447442D01*
X179809947Y-88678676D01*
X179809941Y-88678681D01*
X179285750Y-89202873D01*
X179271406Y-89200020D01*
X179128594Y-89200020D01*
X178988525Y-89227881D01*
X178856584Y-89282533D01*
X178737839Y-89361876D01*
X178699533Y-89400182D01*
X178661227Y-89361876D01*
X178542482Y-89282533D01*
X178500010Y-89264940D01*
X178500010Y-87773090D01*
X178513561Y-87767477D01*
X178632306Y-87688134D01*
X178733289Y-87587151D01*
X178812632Y-87468406D01*
X178867284Y-87336465D01*
X178895145Y-87196396D01*
X178895145Y-87053584D01*
X178867284Y-86913515D01*
X178812632Y-86781574D01*
X178733289Y-86662829D01*
X178632306Y-86561846D01*
X178513561Y-86482503D01*
X178381620Y-86427851D01*
X178241551Y-86399990D01*
X178098739Y-86399990D01*
X177958670Y-86427851D01*
X177826729Y-86482503D01*
X177707984Y-86561846D01*
X177607001Y-86662829D01*
X177527658Y-86781574D01*
X177476601Y-86904837D01*
X177411475Y-86877861D01*
X177271406Y-86850000D01*
X177128594Y-86850000D01*
X176988525Y-86877861D01*
X176856584Y-86932513D01*
X176737839Y-87011856D01*
X176636856Y-87112839D01*
X176557513Y-87231584D01*
X176502861Y-87363525D01*
X176475000Y-87503594D01*
X176475000Y-87646406D01*
X176502861Y-87786475D01*
X176557513Y-87918416D01*
X176636856Y-88037161D01*
X176737839Y-88138144D01*
X176856584Y-88217487D01*
X176988525Y-88272139D01*
X177128594Y-88300000D01*
X177150000Y-88300000D01*
X177150001Y-89200020D01*
X177127657Y-89200020D01*
X176987588Y-89227881D01*
X176855647Y-89282533D01*
X176736902Y-89361876D01*
X176635919Y-89462859D01*
X176556576Y-89581604D01*
X176501924Y-89713545D01*
X176474063Y-89853614D01*
X126702280Y-89853614D01*
X126702280Y-84822466D01*
X126736003Y-84759375D01*
X126788895Y-84585012D01*
X126802280Y-84449115D01*
X126802280Y-83558245D01*
X127492280Y-83558245D01*
X127492280Y-84449114D01*
X127505665Y-84585011D01*
X127558557Y-84759374D01*
X127644450Y-84920068D01*
X127760042Y-85060918D01*
X127900891Y-85176510D01*
X128061585Y-85262403D01*
X128235948Y-85315295D01*
X128417280Y-85333155D01*
X128598611Y-85315295D01*
X128772974Y-85262403D01*
X128933668Y-85176510D01*
X129074518Y-85060918D01*
X129190110Y-84920069D01*
X129276003Y-84759375D01*
X129328895Y-84585012D01*
X129342280Y-84449115D01*
X129342280Y-83558245D01*
X130032280Y-83558245D01*
X130032280Y-84449114D01*
X130045665Y-84585011D01*
X130098557Y-84759374D01*
X130184450Y-84920068D01*
X130300042Y-85060918D01*
X130440891Y-85176510D01*
X130601585Y-85262403D01*
X130775948Y-85315295D01*
X130957280Y-85333155D01*
X131138611Y-85315295D01*
X131312974Y-85262403D01*
X131473668Y-85176510D01*
X131614518Y-85060918D01*
X131730110Y-84920069D01*
X131816003Y-84759375D01*
X131868895Y-84585012D01*
X131882280Y-84449115D01*
X131882280Y-83558245D01*
X132572280Y-83558245D01*
X132572280Y-84449114D01*
X132585665Y-84585011D01*
X132638557Y-84759374D01*
X132724450Y-84920068D01*
X132840042Y-85060918D01*
X132980891Y-85176510D01*
X133141585Y-85262403D01*
X133315948Y-85315295D01*
X133497280Y-85333155D01*
X133678611Y-85315295D01*
X133852974Y-85262403D01*
X134013668Y-85176510D01*
X134154518Y-85060918D01*
X134270110Y-84920069D01*
X134356003Y-84759375D01*
X134408895Y-84585012D01*
X134422280Y-84449115D01*
X134422280Y-83558245D01*
X135112280Y-83558245D01*
X135112280Y-84449114D01*
X135125665Y-84585011D01*
X135178557Y-84759374D01*
X135264450Y-84920068D01*
X135380042Y-85060918D01*
X135520891Y-85176510D01*
X135681585Y-85262403D01*
X135855948Y-85315295D01*
X136037280Y-85333155D01*
X136218611Y-85315295D01*
X136392974Y-85262403D01*
X136553668Y-85176510D01*
X136694518Y-85060918D01*
X136741492Y-85003680D01*
X137550224Y-85003680D01*
X137558430Y-85086994D01*
X137582732Y-85167107D01*
X137622196Y-85240940D01*
X137675306Y-85305654D01*
X137740020Y-85358764D01*
X137813853Y-85398228D01*
X137893966Y-85422530D01*
X137977280Y-85430736D01*
X138346030Y-85428680D01*
X138452280Y-85322430D01*
X138452280Y-84128680D01*
X138702280Y-84128680D01*
X138702280Y-85322430D01*
X138808530Y-85428680D01*
X139177280Y-85430736D01*
X139260594Y-85422530D01*
X139340707Y-85398228D01*
X139414540Y-85358764D01*
X139479254Y-85305654D01*
X139532364Y-85240940D01*
X139571828Y-85167107D01*
X139596130Y-85086994D01*
X139604336Y-85003680D01*
X139602280Y-84234930D01*
X139496030Y-84128680D01*
X138702280Y-84128680D01*
X138452280Y-84128680D01*
X137658530Y-84128680D01*
X137552280Y-84234930D01*
X137550224Y-85003680D01*
X136741492Y-85003680D01*
X136810110Y-84920069D01*
X136896003Y-84759375D01*
X136948895Y-84585012D01*
X136962280Y-84449115D01*
X136962280Y-83558245D01*
X136948895Y-83422348D01*
X136896003Y-83247985D01*
X136810110Y-83087291D01*
X136741493Y-83003680D01*
X137550224Y-83003680D01*
X137552280Y-83772430D01*
X137658530Y-83878680D01*
X138452280Y-83878680D01*
X138452280Y-82684930D01*
X138702280Y-82684930D01*
X138702280Y-83878680D01*
X139496030Y-83878680D01*
X139602280Y-83772430D01*
X139602852Y-83558245D01*
X140192280Y-83558245D01*
X140192280Y-84449114D01*
X140205665Y-84585011D01*
X140258557Y-84759374D01*
X140344450Y-84920068D01*
X140460042Y-85060918D01*
X140600891Y-85176510D01*
X140761585Y-85262403D01*
X140935948Y-85315295D01*
X141117280Y-85333155D01*
X141298611Y-85315295D01*
X141472974Y-85262403D01*
X141633668Y-85176510D01*
X141774518Y-85060918D01*
X141890110Y-84920069D01*
X141976003Y-84759375D01*
X142028895Y-84585012D01*
X142042280Y-84449115D01*
X142042280Y-83558245D01*
X142732280Y-83558245D01*
X142732280Y-84449114D01*
X142745665Y-84585011D01*
X142798557Y-84759374D01*
X142884450Y-84920068D01*
X143000042Y-85060918D01*
X143140891Y-85176510D01*
X143301585Y-85262403D01*
X143475948Y-85315295D01*
X143657280Y-85333155D01*
X143838611Y-85315295D01*
X144012974Y-85262403D01*
X144173668Y-85176510D01*
X144314518Y-85060918D01*
X144430110Y-84920069D01*
X144516003Y-84759375D01*
X144568895Y-84585012D01*
X144582280Y-84449115D01*
X144582280Y-83558245D01*
X145272280Y-83558245D01*
X145272280Y-84449114D01*
X145285665Y-84585011D01*
X145338557Y-84759374D01*
X145424450Y-84920068D01*
X145540042Y-85060918D01*
X145680891Y-85176510D01*
X145841585Y-85262403D01*
X146015948Y-85315295D01*
X146197280Y-85333155D01*
X146378611Y-85315295D01*
X146552974Y-85262403D01*
X146713668Y-85176510D01*
X146854518Y-85060918D01*
X146970110Y-84920069D01*
X147056003Y-84759375D01*
X147108895Y-84585012D01*
X147122280Y-84449115D01*
X147122280Y-83558245D01*
X147812280Y-83558245D01*
X147812280Y-84449114D01*
X147825665Y-84585011D01*
X147878557Y-84759374D01*
X147964450Y-84920068D01*
X148080042Y-85060918D01*
X148220891Y-85176510D01*
X148381585Y-85262403D01*
X148555948Y-85315295D01*
X148737280Y-85333155D01*
X148918611Y-85315295D01*
X149092974Y-85262403D01*
X149253668Y-85176510D01*
X149394518Y-85060918D01*
X149510110Y-84920069D01*
X149596003Y-84759375D01*
X149648895Y-84585012D01*
X149662280Y-84449115D01*
X149662280Y-83558245D01*
X150352280Y-83558245D01*
X150352280Y-84449114D01*
X150365665Y-84585011D01*
X150418557Y-84759374D01*
X150504450Y-84920068D01*
X150620042Y-85060918D01*
X150760891Y-85176510D01*
X150921585Y-85262403D01*
X151095948Y-85315295D01*
X151277280Y-85333155D01*
X151458611Y-85315295D01*
X151632974Y-85262403D01*
X151793668Y-85176510D01*
X151934518Y-85060918D01*
X152050110Y-84920069D01*
X152136003Y-84759375D01*
X152188895Y-84585012D01*
X152202280Y-84449115D01*
X152202280Y-83558245D01*
X152892280Y-83558245D01*
X152892280Y-84449114D01*
X152905665Y-84585011D01*
X152958557Y-84759374D01*
X153044450Y-84920068D01*
X153160042Y-85060918D01*
X153300891Y-85176510D01*
X153461585Y-85262403D01*
X153635948Y-85315295D01*
X153817280Y-85333155D01*
X153998611Y-85315295D01*
X154172974Y-85262403D01*
X154333668Y-85176510D01*
X154474518Y-85060918D01*
X154590110Y-84920069D01*
X154676003Y-84759375D01*
X154728895Y-84585012D01*
X154742280Y-84449115D01*
X154742280Y-83558245D01*
X155432280Y-83558245D01*
X155432280Y-84449114D01*
X155445665Y-84585011D01*
X155498557Y-84759374D01*
X155584450Y-84920068D01*
X155700042Y-85060918D01*
X155840891Y-85176510D01*
X156001585Y-85262403D01*
X156175948Y-85315295D01*
X156357280Y-85333155D01*
X156538611Y-85315295D01*
X156712974Y-85262403D01*
X156873668Y-85176510D01*
X157014518Y-85060918D01*
X157130110Y-84920069D01*
X157216003Y-84759375D01*
X157268895Y-84585012D01*
X157282280Y-84449115D01*
X157282280Y-83558245D01*
X157972280Y-83558245D01*
X157972280Y-84449114D01*
X157985665Y-84585011D01*
X158038557Y-84759374D01*
X158124450Y-84920068D01*
X158240042Y-85060918D01*
X158380891Y-85176510D01*
X158541585Y-85262403D01*
X158715948Y-85315295D01*
X158897280Y-85333155D01*
X159078611Y-85315295D01*
X159252974Y-85262403D01*
X159413668Y-85176510D01*
X159554518Y-85060918D01*
X159670110Y-84920069D01*
X159756003Y-84759375D01*
X159808895Y-84585012D01*
X159822280Y-84449115D01*
X159822280Y-83558245D01*
X160512280Y-83558245D01*
X160512280Y-84449114D01*
X160525665Y-84585011D01*
X160578557Y-84759374D01*
X160664450Y-84920068D01*
X160780042Y-85060918D01*
X160920891Y-85176510D01*
X161081585Y-85262403D01*
X161255948Y-85315295D01*
X161437280Y-85333155D01*
X161618611Y-85315295D01*
X161792974Y-85262403D01*
X161953668Y-85176510D01*
X162094518Y-85060918D01*
X162210110Y-84920069D01*
X162296003Y-84759375D01*
X162348895Y-84585012D01*
X162362280Y-84449115D01*
X162362280Y-83558245D01*
X163052280Y-83558245D01*
X163052280Y-84449114D01*
X163065665Y-84585011D01*
X163118557Y-84759374D01*
X163204450Y-84920068D01*
X163320042Y-85060918D01*
X163460891Y-85176510D01*
X163621585Y-85262403D01*
X163795948Y-85315295D01*
X163977280Y-85333155D01*
X164158611Y-85315295D01*
X164332974Y-85262403D01*
X164493668Y-85176510D01*
X164634518Y-85060918D01*
X164750110Y-84920069D01*
X164836003Y-84759375D01*
X164888895Y-84585012D01*
X164902280Y-84449115D01*
X164902280Y-83558245D01*
X165592280Y-83558245D01*
X165592280Y-84449114D01*
X165605665Y-84585011D01*
X165658557Y-84759374D01*
X165744450Y-84920068D01*
X165860042Y-85060918D01*
X166000891Y-85176510D01*
X166161585Y-85262403D01*
X166335948Y-85315295D01*
X166517280Y-85333155D01*
X166698611Y-85315295D01*
X166872974Y-85262403D01*
X167033668Y-85176510D01*
X167174518Y-85060918D01*
X167290110Y-84920069D01*
X167376003Y-84759375D01*
X167428895Y-84585012D01*
X167442280Y-84449115D01*
X167442280Y-83558245D01*
X168132280Y-83558245D01*
X168132280Y-84449114D01*
X168145665Y-84585011D01*
X168198557Y-84759374D01*
X168284450Y-84920068D01*
X168400042Y-85060918D01*
X168540891Y-85176510D01*
X168701585Y-85262403D01*
X168875948Y-85315295D01*
X169057280Y-85333155D01*
X169238611Y-85315295D01*
X169412974Y-85262403D01*
X169573668Y-85176510D01*
X169714518Y-85060918D01*
X169830110Y-84920069D01*
X169916003Y-84759375D01*
X169968895Y-84585012D01*
X169982280Y-84449115D01*
X169982280Y-83558245D01*
X170672280Y-83558245D01*
X170672280Y-84449114D01*
X170685665Y-84585011D01*
X170738557Y-84759374D01*
X170824450Y-84920068D01*
X170940042Y-85060918D01*
X171080891Y-85176510D01*
X171241585Y-85262403D01*
X171415948Y-85315295D01*
X171597280Y-85333155D01*
X171778611Y-85315295D01*
X171952974Y-85262403D01*
X172113668Y-85176510D01*
X172254518Y-85060918D01*
X172370110Y-84920069D01*
X172418959Y-84828680D01*
X183455807Y-84828680D01*
X183496320Y-84832670D01*
X183536833Y-84828680D01*
X183536841Y-84828680D01*
X183658048Y-84816742D01*
X183813561Y-84769568D01*
X183956883Y-84692961D01*
X184082505Y-84589865D01*
X184108341Y-84558384D01*
X186954716Y-81712011D01*
X186986185Y-81686185D01*
X187012012Y-81654715D01*
X187012016Y-81654711D01*
X187045949Y-81613362D01*
X187089281Y-81560563D01*
X187139203Y-81467164D01*
X187165888Y-81417242D01*
X187213062Y-81261728D01*
X187228991Y-81100000D01*
X187225000Y-81059479D01*
X187225000Y-78859479D01*
X187213062Y-78738272D01*
X187165888Y-78582759D01*
X187089281Y-78439437D01*
X186986185Y-78313815D01*
X186860563Y-78210719D01*
X186717241Y-78134112D01*
X186561728Y-78086938D01*
X186400000Y-78071009D01*
X186238273Y-78086938D01*
X186082760Y-78134112D01*
X185939438Y-78210719D01*
X185813816Y-78313815D01*
X185710720Y-78439437D01*
X185634113Y-78582759D01*
X185586939Y-78738272D01*
X185575000Y-78859479D01*
X185575000Y-79740520D01*
X185575001Y-79740530D01*
X185575000Y-80758273D01*
X183154595Y-83178680D01*
X172418959Y-83178680D01*
X172370110Y-83087291D01*
X172254518Y-82946442D01*
X172113669Y-82830850D01*
X171952975Y-82744957D01*
X171778612Y-82692065D01*
X171597280Y-82674205D01*
X171415949Y-82692065D01*
X171241586Y-82744957D01*
X171080892Y-82830850D01*
X170940043Y-82946442D01*
X170824451Y-83087291D01*
X170738558Y-83247985D01*
X170685666Y-83422348D01*
X170672280Y-83558245D01*
X169982280Y-83558245D01*
X169968895Y-83422348D01*
X169916003Y-83247985D01*
X169830110Y-83087291D01*
X169714518Y-82946442D01*
X169573669Y-82830850D01*
X169412975Y-82744957D01*
X169238612Y-82692065D01*
X169057280Y-82674205D01*
X168875949Y-82692065D01*
X168701586Y-82744957D01*
X168540892Y-82830850D01*
X168400043Y-82946442D01*
X168284451Y-83087291D01*
X168198558Y-83247985D01*
X168145666Y-83422348D01*
X168132280Y-83558245D01*
X167442280Y-83558245D01*
X167428895Y-83422348D01*
X167376003Y-83247985D01*
X167290110Y-83087291D01*
X167174518Y-82946442D01*
X167033669Y-82830850D01*
X166872975Y-82744957D01*
X166698612Y-82692065D01*
X166517280Y-82674205D01*
X166335949Y-82692065D01*
X166161586Y-82744957D01*
X166000892Y-82830850D01*
X165860043Y-82946442D01*
X165744451Y-83087291D01*
X165658558Y-83247985D01*
X165605666Y-83422348D01*
X165592280Y-83558245D01*
X164902280Y-83558245D01*
X164888895Y-83422348D01*
X164836003Y-83247985D01*
X164750110Y-83087291D01*
X164634518Y-82946442D01*
X164493669Y-82830850D01*
X164332975Y-82744957D01*
X164158612Y-82692065D01*
X163977280Y-82674205D01*
X163795949Y-82692065D01*
X163621586Y-82744957D01*
X163460892Y-82830850D01*
X163320043Y-82946442D01*
X163204451Y-83087291D01*
X163118558Y-83247985D01*
X163065666Y-83422348D01*
X163052280Y-83558245D01*
X162362280Y-83558245D01*
X162348895Y-83422348D01*
X162296003Y-83247985D01*
X162210110Y-83087291D01*
X162094518Y-82946442D01*
X161953669Y-82830850D01*
X161792975Y-82744957D01*
X161618612Y-82692065D01*
X161437280Y-82674205D01*
X161255949Y-82692065D01*
X161081586Y-82744957D01*
X160920892Y-82830850D01*
X160780043Y-82946442D01*
X160664451Y-83087291D01*
X160578558Y-83247985D01*
X160525666Y-83422348D01*
X160512280Y-83558245D01*
X159822280Y-83558245D01*
X159808895Y-83422348D01*
X159756003Y-83247985D01*
X159670110Y-83087291D01*
X159554518Y-82946442D01*
X159413669Y-82830850D01*
X159252975Y-82744957D01*
X159078612Y-82692065D01*
X158897280Y-82674205D01*
X158715949Y-82692065D01*
X158541586Y-82744957D01*
X158380892Y-82830850D01*
X158240043Y-82946442D01*
X158124451Y-83087291D01*
X158038558Y-83247985D01*
X157985666Y-83422348D01*
X157972280Y-83558245D01*
X157282280Y-83558245D01*
X157268895Y-83422348D01*
X157216003Y-83247985D01*
X157130110Y-83087291D01*
X157014518Y-82946442D01*
X156873669Y-82830850D01*
X156712975Y-82744957D01*
X156538612Y-82692065D01*
X156357280Y-82674205D01*
X156175949Y-82692065D01*
X156001586Y-82744957D01*
X155840892Y-82830850D01*
X155700043Y-82946442D01*
X155584451Y-83087291D01*
X155498558Y-83247985D01*
X155445666Y-83422348D01*
X155432280Y-83558245D01*
X154742280Y-83558245D01*
X154728895Y-83422348D01*
X154676003Y-83247985D01*
X154590110Y-83087291D01*
X154474518Y-82946442D01*
X154333669Y-82830850D01*
X154172975Y-82744957D01*
X153998612Y-82692065D01*
X153817280Y-82674205D01*
X153635949Y-82692065D01*
X153461586Y-82744957D01*
X153300892Y-82830850D01*
X153160043Y-82946442D01*
X153044451Y-83087291D01*
X152958558Y-83247985D01*
X152905666Y-83422348D01*
X152892280Y-83558245D01*
X152202280Y-83558245D01*
X152188895Y-83422348D01*
X152136003Y-83247985D01*
X152050110Y-83087291D01*
X151934518Y-82946442D01*
X151793669Y-82830850D01*
X151632975Y-82744957D01*
X151458612Y-82692065D01*
X151277280Y-82674205D01*
X151095949Y-82692065D01*
X150921586Y-82744957D01*
X150760892Y-82830850D01*
X150620043Y-82946442D01*
X150504451Y-83087291D01*
X150418558Y-83247985D01*
X150365666Y-83422348D01*
X150352280Y-83558245D01*
X149662280Y-83558245D01*
X149648895Y-83422348D01*
X149596003Y-83247985D01*
X149510110Y-83087291D01*
X149394518Y-82946442D01*
X149253669Y-82830850D01*
X149092975Y-82744957D01*
X148918612Y-82692065D01*
X148737280Y-82674205D01*
X148555949Y-82692065D01*
X148381586Y-82744957D01*
X148220892Y-82830850D01*
X148080043Y-82946442D01*
X147964451Y-83087291D01*
X147878558Y-83247985D01*
X147825666Y-83422348D01*
X147812280Y-83558245D01*
X147122280Y-83558245D01*
X147108895Y-83422348D01*
X147056003Y-83247985D01*
X146970110Y-83087291D01*
X146854518Y-82946442D01*
X146713669Y-82830850D01*
X146552975Y-82744957D01*
X146378612Y-82692065D01*
X146197280Y-82674205D01*
X146015949Y-82692065D01*
X145841586Y-82744957D01*
X145680892Y-82830850D01*
X145540043Y-82946442D01*
X145424451Y-83087291D01*
X145338558Y-83247985D01*
X145285666Y-83422348D01*
X145272280Y-83558245D01*
X144582280Y-83558245D01*
X144568895Y-83422348D01*
X144516003Y-83247985D01*
X144430110Y-83087291D01*
X144314518Y-82946442D01*
X144173669Y-82830850D01*
X144012975Y-82744957D01*
X143838612Y-82692065D01*
X143657280Y-82674205D01*
X143475949Y-82692065D01*
X143301586Y-82744957D01*
X143140892Y-82830850D01*
X143000043Y-82946442D01*
X142884451Y-83087291D01*
X142798558Y-83247985D01*
X142745666Y-83422348D01*
X142732280Y-83558245D01*
X142042280Y-83558245D01*
X142028895Y-83422348D01*
X141976003Y-83247985D01*
X141890110Y-83087291D01*
X141774518Y-82946442D01*
X141633669Y-82830850D01*
X141615341Y-82821054D01*
X144102573Y-80333823D01*
X144119737Y-80319737D01*
X144133824Y-80302572D01*
X144133828Y-80302568D01*
X144175971Y-80251217D01*
X144217757Y-80173041D01*
X144221542Y-80160563D01*
X144243489Y-80088215D01*
X144250000Y-80022105D01*
X144250000Y-80022095D01*
X144252176Y-80000001D01*
X144250000Y-79977906D01*
X144250000Y-78884313D01*
X144322735Y-78869845D01*
X144536571Y-78781271D01*
X144729019Y-78652682D01*
X144892682Y-78489019D01*
X145021271Y-78296571D01*
X145109845Y-78082735D01*
X145155000Y-77855727D01*
X145155000Y-77624273D01*
X145345000Y-77624273D01*
X145345000Y-77855727D01*
X145390155Y-78082735D01*
X145478729Y-78296571D01*
X145607318Y-78489019D01*
X145770981Y-78652682D01*
X145963429Y-78781271D01*
X146177265Y-78869845D01*
X146404273Y-78915000D01*
X146635727Y-78915000D01*
X146862735Y-78869845D01*
X147076571Y-78781271D01*
X147269019Y-78652682D01*
X147432682Y-78489019D01*
X147561271Y-78296571D01*
X147649845Y-78082735D01*
X147695000Y-77855727D01*
X147695000Y-77624273D01*
X147885000Y-77624273D01*
X147885000Y-77855727D01*
X147930155Y-78082735D01*
X148018729Y-78296571D01*
X148147318Y-78489019D01*
X148310981Y-78652682D01*
X148503429Y-78781271D01*
X148717265Y-78869845D01*
X148944273Y-78915000D01*
X149175727Y-78915000D01*
X149402735Y-78869845D01*
X149616571Y-78781271D01*
X149809019Y-78652682D01*
X149972682Y-78489019D01*
X150101271Y-78296571D01*
X150189845Y-78082735D01*
X150235000Y-77855727D01*
X150235000Y-77624273D01*
X150425000Y-77624273D01*
X150425000Y-77855727D01*
X150470155Y-78082735D01*
X150558729Y-78296571D01*
X150687318Y-78489019D01*
X150850981Y-78652682D01*
X151043429Y-78781271D01*
X151257265Y-78869845D01*
X151484273Y-78915000D01*
X151715727Y-78915000D01*
X151942735Y-78869845D01*
X152156571Y-78781271D01*
X152349019Y-78652682D01*
X152512682Y-78489019D01*
X152641271Y-78296571D01*
X152729845Y-78082735D01*
X152775000Y-77855727D01*
X152775000Y-77624273D01*
X152729845Y-77397265D01*
X152641271Y-77183429D01*
X152512682Y-76990981D01*
X152349019Y-76827318D01*
X152323706Y-76810404D01*
X209075000Y-76810404D01*
X209075000Y-77189596D01*
X209148977Y-77561502D01*
X209294087Y-77911829D01*
X209504755Y-78227116D01*
X209772884Y-78495245D01*
X210088171Y-78705913D01*
X210438498Y-78851023D01*
X210810404Y-78925000D01*
X211189596Y-78925000D01*
X211561502Y-78851023D01*
X211911829Y-78705913D01*
X212227116Y-78495245D01*
X212495245Y-78227116D01*
X212705913Y-77911829D01*
X212851023Y-77561502D01*
X212925000Y-77189596D01*
X212925000Y-76810404D01*
X212851023Y-76438498D01*
X212705913Y-76088171D01*
X212495245Y-75772884D01*
X212227116Y-75504755D01*
X211911829Y-75294087D01*
X211561502Y-75148977D01*
X211189596Y-75075000D01*
X210810404Y-75075000D01*
X210438498Y-75148977D01*
X210088171Y-75294087D01*
X209772884Y-75504755D01*
X209504755Y-75772884D01*
X209294087Y-76088171D01*
X209148977Y-76438498D01*
X209075000Y-76810404D01*
X152323706Y-76810404D01*
X152156571Y-76698729D01*
X151942735Y-76610155D01*
X151715727Y-76565000D01*
X151484273Y-76565000D01*
X151257265Y-76610155D01*
X151043429Y-76698729D01*
X150850981Y-76827318D01*
X150687318Y-76990981D01*
X150558729Y-77183429D01*
X150470155Y-77397265D01*
X150425000Y-77624273D01*
X150235000Y-77624273D01*
X150189845Y-77397265D01*
X150101271Y-77183429D01*
X149972682Y-76990981D01*
X149809019Y-76827318D01*
X149616571Y-76698729D01*
X149402735Y-76610155D01*
X149175727Y-76565000D01*
X148944273Y-76565000D01*
X148717265Y-76610155D01*
X148503429Y-76698729D01*
X148310981Y-76827318D01*
X148147318Y-76990981D01*
X148018729Y-77183429D01*
X147930155Y-77397265D01*
X147885000Y-77624273D01*
X147695000Y-77624273D01*
X147649845Y-77397265D01*
X147561271Y-77183429D01*
X147432682Y-76990981D01*
X147269019Y-76827318D01*
X147076571Y-76698729D01*
X146862735Y-76610155D01*
X146635727Y-76565000D01*
X146404273Y-76565000D01*
X146177265Y-76610155D01*
X145963429Y-76698729D01*
X145770981Y-76827318D01*
X145607318Y-76990981D01*
X145478729Y-77183429D01*
X145390155Y-77397265D01*
X145345000Y-77624273D01*
X145155000Y-77624273D01*
X145109845Y-77397265D01*
X145021271Y-77183429D01*
X144892682Y-76990981D01*
X144729019Y-76827318D01*
X144536571Y-76698729D01*
X144322735Y-76610155D01*
X144095727Y-76565000D01*
X143864273Y-76565000D01*
X143637265Y-76610155D01*
X143423429Y-76698729D01*
X143230981Y-76827318D01*
X143067318Y-76990981D01*
X142938729Y-77183429D01*
X142850155Y-77397265D01*
X142805000Y-77624273D01*
X142805000Y-77855727D01*
X142850155Y-78082735D01*
X142938729Y-78296571D01*
X143067318Y-78489019D01*
X143230981Y-78652682D01*
X143350001Y-78732208D01*
X143350000Y-79813604D01*
X140814709Y-82348896D01*
X140797544Y-82362983D01*
X140783457Y-82380148D01*
X140783452Y-82380153D01*
X140741309Y-82431504D01*
X140699523Y-82509680D01*
X140673792Y-82594505D01*
X140665104Y-82682720D01*
X140667281Y-82704824D01*
X140667281Y-82795364D01*
X140600892Y-82830850D01*
X140460043Y-82946442D01*
X140344451Y-83087291D01*
X140258558Y-83247985D01*
X140205666Y-83422348D01*
X140192280Y-83558245D01*
X139602852Y-83558245D01*
X139604336Y-83003680D01*
X139596130Y-82920366D01*
X139571828Y-82840253D01*
X139532364Y-82766420D01*
X139479254Y-82701706D01*
X139414540Y-82648596D01*
X139340707Y-82609132D01*
X139260594Y-82584830D01*
X139177280Y-82576624D01*
X138808530Y-82578680D01*
X138702280Y-82684930D01*
X138452280Y-82684930D01*
X138346030Y-82578680D01*
X137977280Y-82576624D01*
X137893966Y-82584830D01*
X137813853Y-82609132D01*
X137740020Y-82648596D01*
X137675306Y-82701706D01*
X137622196Y-82766420D01*
X137582732Y-82840253D01*
X137558430Y-82920366D01*
X137550224Y-83003680D01*
X136741493Y-83003680D01*
X136694518Y-82946442D01*
X136553669Y-82830850D01*
X136392975Y-82744957D01*
X136218612Y-82692065D01*
X136037280Y-82674205D01*
X135855949Y-82692065D01*
X135681586Y-82744957D01*
X135520892Y-82830850D01*
X135380043Y-82946442D01*
X135264451Y-83087291D01*
X135178558Y-83247985D01*
X135125666Y-83422348D01*
X135112280Y-83558245D01*
X134422280Y-83558245D01*
X134408895Y-83422348D01*
X134356003Y-83247985D01*
X134270110Y-83087291D01*
X134154518Y-82946442D01*
X134013669Y-82830850D01*
X133852975Y-82744957D01*
X133678612Y-82692065D01*
X133497280Y-82674205D01*
X133315949Y-82692065D01*
X133141586Y-82744957D01*
X132980892Y-82830850D01*
X132840043Y-82946442D01*
X132724451Y-83087291D01*
X132638558Y-83247985D01*
X132585666Y-83422348D01*
X132572280Y-83558245D01*
X131882280Y-83558245D01*
X131868895Y-83422348D01*
X131816003Y-83247985D01*
X131730110Y-83087291D01*
X131614518Y-82946442D01*
X131473669Y-82830850D01*
X131312975Y-82744957D01*
X131138612Y-82692065D01*
X130957280Y-82674205D01*
X130775949Y-82692065D01*
X130601586Y-82744957D01*
X130440892Y-82830850D01*
X130300043Y-82946442D01*
X130184451Y-83087291D01*
X130098558Y-83247985D01*
X130045666Y-83422348D01*
X130032280Y-83558245D01*
X129342280Y-83558245D01*
X129328895Y-83422348D01*
X129276003Y-83247985D01*
X129190110Y-83087291D01*
X129074518Y-82946442D01*
X128933669Y-82830850D01*
X128772975Y-82744957D01*
X128598612Y-82692065D01*
X128417280Y-82674205D01*
X128235949Y-82692065D01*
X128061586Y-82744957D01*
X127900892Y-82830850D01*
X127760043Y-82946442D01*
X127644451Y-83087291D01*
X127558558Y-83247985D01*
X127505666Y-83422348D01*
X127492280Y-83558245D01*
X126802280Y-83558245D01*
X126788895Y-83422348D01*
X126736003Y-83247985D01*
X126650110Y-83087291D01*
X126534518Y-82946442D01*
X126393669Y-82830850D01*
X126232975Y-82744957D01*
X126058612Y-82692065D01*
X125877280Y-82674205D01*
X125695949Y-82692065D01*
X125521586Y-82744957D01*
X125360892Y-82830850D01*
X125220043Y-82946442D01*
X125104451Y-83087291D01*
X125018558Y-83247985D01*
X124965666Y-83422348D01*
X124952280Y-83558245D01*
X124350000Y-83558245D01*
X124350000Y-76810404D01*
X127075000Y-76810404D01*
X127075000Y-77189596D01*
X127148977Y-77561502D01*
X127294087Y-77911829D01*
X127504755Y-78227116D01*
X127772884Y-78495245D01*
X128088171Y-78705913D01*
X128438498Y-78851023D01*
X128810404Y-78925000D01*
X129189596Y-78925000D01*
X129561502Y-78851023D01*
X129911829Y-78705913D01*
X130227116Y-78495245D01*
X130495245Y-78227116D01*
X130705913Y-77911829D01*
X130825022Y-77624273D01*
X140265000Y-77624273D01*
X140265000Y-77855727D01*
X140310155Y-78082735D01*
X140398729Y-78296571D01*
X140527318Y-78489019D01*
X140690981Y-78652682D01*
X140883429Y-78781271D01*
X141097265Y-78869845D01*
X141324273Y-78915000D01*
X141555727Y-78915000D01*
X141782735Y-78869845D01*
X141996571Y-78781271D01*
X142189019Y-78652682D01*
X142352682Y-78489019D01*
X142481271Y-78296571D01*
X142569845Y-78082735D01*
X142615000Y-77855727D01*
X142615000Y-77624273D01*
X142569845Y-77397265D01*
X142481271Y-77183429D01*
X142352682Y-76990981D01*
X142189019Y-76827318D01*
X141996571Y-76698729D01*
X141782735Y-76610155D01*
X141555727Y-76565000D01*
X141324273Y-76565000D01*
X141097265Y-76610155D01*
X140883429Y-76698729D01*
X140690981Y-76827318D01*
X140527318Y-76990981D01*
X140398729Y-77183429D01*
X140310155Y-77397265D01*
X140265000Y-77624273D01*
X130825022Y-77624273D01*
X130851023Y-77561502D01*
X130925000Y-77189596D01*
X130925000Y-76810404D01*
X130851023Y-76438498D01*
X130705913Y-76088171D01*
X130495245Y-75772884D01*
X130244316Y-75521955D01*
X140206313Y-75521955D01*
X140292828Y-75756449D01*
X140423428Y-75969559D01*
X140593095Y-76153095D01*
X140795308Y-76300005D01*
X141022296Y-76404642D01*
X141118046Y-76433682D01*
X141315000Y-76362046D01*
X141315000Y-75325000D01*
X141565000Y-75325000D01*
X141565000Y-76362046D01*
X141761954Y-76433682D01*
X141857704Y-76404642D01*
X142084692Y-76300005D01*
X142286905Y-76153095D01*
X142456572Y-75969559D01*
X142587172Y-75756449D01*
X142673687Y-75521955D01*
X142746313Y-75521955D01*
X142832828Y-75756449D01*
X142963428Y-75969559D01*
X143133095Y-76153095D01*
X143335308Y-76300005D01*
X143562296Y-76404642D01*
X143658046Y-76433682D01*
X143855000Y-76362046D01*
X143855000Y-75325000D01*
X144105000Y-75325000D01*
X144105000Y-76362046D01*
X144301954Y-76433682D01*
X144397704Y-76404642D01*
X144624692Y-76300005D01*
X144826905Y-76153095D01*
X144996572Y-75969559D01*
X145127172Y-75756449D01*
X145213687Y-75521955D01*
X145286313Y-75521955D01*
X145372828Y-75756449D01*
X145503428Y-75969559D01*
X145673095Y-76153095D01*
X145875308Y-76300005D01*
X146102296Y-76404642D01*
X146198046Y-76433682D01*
X146395000Y-76362046D01*
X146395000Y-75325000D01*
X146645000Y-75325000D01*
X146645000Y-76362046D01*
X146841954Y-76433682D01*
X146937704Y-76404642D01*
X147164692Y-76300005D01*
X147366905Y-76153095D01*
X147536572Y-75969559D01*
X147667172Y-75756449D01*
X147753687Y-75521955D01*
X147826313Y-75521955D01*
X147912828Y-75756449D01*
X148043428Y-75969559D01*
X148213095Y-76153095D01*
X148415308Y-76300005D01*
X148642296Y-76404642D01*
X148738046Y-76433682D01*
X148935000Y-76362046D01*
X148935000Y-75325000D01*
X149185000Y-75325000D01*
X149185000Y-76362046D01*
X149381954Y-76433682D01*
X149477704Y-76404642D01*
X149704692Y-76300005D01*
X149906905Y-76153095D01*
X150002209Y-76050000D01*
X150322944Y-76050000D01*
X150331150Y-76133314D01*
X150355452Y-76213427D01*
X150394916Y-76287260D01*
X150448026Y-76351974D01*
X150512740Y-76405084D01*
X150586573Y-76444548D01*
X150666686Y-76468850D01*
X150750000Y-76477056D01*
X151368750Y-76475000D01*
X151475000Y-76368750D01*
X151475000Y-75325000D01*
X151725000Y-75325000D01*
X151725000Y-76368750D01*
X151831250Y-76475000D01*
X152450000Y-76477056D01*
X152533314Y-76468850D01*
X152613427Y-76444548D01*
X152687260Y-76405084D01*
X152751974Y-76351974D01*
X152805084Y-76287260D01*
X152844548Y-76213427D01*
X152868850Y-76133314D01*
X152877056Y-76050000D01*
X152875000Y-75431250D01*
X152768750Y-75325000D01*
X151725000Y-75325000D01*
X151475000Y-75325000D01*
X150431250Y-75325000D01*
X150325000Y-75431250D01*
X150322944Y-76050000D01*
X150002209Y-76050000D01*
X150076572Y-75969559D01*
X150207172Y-75756449D01*
X150293687Y-75521955D01*
X150222613Y-75325000D01*
X149185000Y-75325000D01*
X148935000Y-75325000D01*
X147897387Y-75325000D01*
X147826313Y-75521955D01*
X147753687Y-75521955D01*
X147682613Y-75325000D01*
X146645000Y-75325000D01*
X146395000Y-75325000D01*
X145357387Y-75325000D01*
X145286313Y-75521955D01*
X145213687Y-75521955D01*
X145142613Y-75325000D01*
X144105000Y-75325000D01*
X143855000Y-75325000D01*
X142817387Y-75325000D01*
X142746313Y-75521955D01*
X142673687Y-75521955D01*
X142602613Y-75325000D01*
X141565000Y-75325000D01*
X141315000Y-75325000D01*
X140277387Y-75325000D01*
X140206313Y-75521955D01*
X130244316Y-75521955D01*
X130227116Y-75504755D01*
X129911829Y-75294087D01*
X129561502Y-75148977D01*
X129236215Y-75084273D01*
X165285000Y-75084273D01*
X165285000Y-75315727D01*
X165330155Y-75542735D01*
X165418729Y-75756571D01*
X165547318Y-75949019D01*
X165710981Y-76112682D01*
X165903429Y-76241271D01*
X166117265Y-76329845D01*
X166344273Y-76375000D01*
X166575727Y-76375000D01*
X166802735Y-76329845D01*
X167016571Y-76241271D01*
X167209019Y-76112682D01*
X167271701Y-76050000D01*
X167722944Y-76050000D01*
X167731150Y-76133314D01*
X167755452Y-76213427D01*
X167794916Y-76287260D01*
X167848026Y-76351974D01*
X167912740Y-76405084D01*
X167986573Y-76444548D01*
X168066686Y-76468850D01*
X168150000Y-76477056D01*
X168768750Y-76475000D01*
X168875000Y-76368750D01*
X168875000Y-75325000D01*
X169125000Y-75325000D01*
X169125000Y-76368750D01*
X169231250Y-76475000D01*
X169850000Y-76477056D01*
X169933314Y-76468850D01*
X170013427Y-76444548D01*
X170087260Y-76405084D01*
X170151974Y-76351974D01*
X170205084Y-76287260D01*
X170244548Y-76213427D01*
X170268850Y-76133314D01*
X170277056Y-76050000D01*
X170275000Y-75431250D01*
X170168750Y-75325000D01*
X169125000Y-75325000D01*
X168875000Y-75325000D01*
X167831250Y-75325000D01*
X167725000Y-75431250D01*
X167722944Y-76050000D01*
X167271701Y-76050000D01*
X167372682Y-75949019D01*
X167501271Y-75756571D01*
X167589845Y-75542735D01*
X167635000Y-75315727D01*
X167635000Y-75084273D01*
X167589845Y-74857265D01*
X167501271Y-74643429D01*
X167372682Y-74450981D01*
X167271701Y-74350000D01*
X167722944Y-74350000D01*
X167725000Y-74968750D01*
X167831250Y-75075000D01*
X168875000Y-75075000D01*
X168875000Y-74031250D01*
X169125000Y-74031250D01*
X169125000Y-75075000D01*
X170168750Y-75075000D01*
X170275000Y-74968750D01*
X170277056Y-74350000D01*
X170268850Y-74266686D01*
X170244548Y-74186573D01*
X170205084Y-74112740D01*
X170151974Y-74048026D01*
X170087260Y-73994916D01*
X170013427Y-73955452D01*
X169933314Y-73931150D01*
X169850000Y-73922944D01*
X169231250Y-73925000D01*
X169125000Y-74031250D01*
X168875000Y-74031250D01*
X168768750Y-73925000D01*
X168150000Y-73922944D01*
X168066686Y-73931150D01*
X167986573Y-73955452D01*
X167912740Y-73994916D01*
X167848026Y-74048026D01*
X167794916Y-74112740D01*
X167755452Y-74186573D01*
X167731150Y-74266686D01*
X167722944Y-74350000D01*
X167271701Y-74350000D01*
X167209019Y-74287318D01*
X167016571Y-74158729D01*
X166802735Y-74070155D01*
X166575727Y-74025000D01*
X166344273Y-74025000D01*
X166117265Y-74070155D01*
X165903429Y-74158729D01*
X165710981Y-74287318D01*
X165547318Y-74450981D01*
X165418729Y-74643429D01*
X165330155Y-74857265D01*
X165285000Y-75084273D01*
X129236215Y-75084273D01*
X129189596Y-75075000D01*
X128810404Y-75075000D01*
X128438498Y-75148977D01*
X128088171Y-75294087D01*
X127772884Y-75504755D01*
X127504755Y-75772884D01*
X127294087Y-76088171D01*
X127148977Y-76438498D01*
X127075000Y-76810404D01*
X124350000Y-76810404D01*
X124350000Y-74878045D01*
X140206313Y-74878045D01*
X140277387Y-75075000D01*
X141315000Y-75075000D01*
X141315000Y-74037954D01*
X141565000Y-74037954D01*
X141565000Y-75075000D01*
X142602613Y-75075000D01*
X142673687Y-74878045D01*
X142746313Y-74878045D01*
X142817387Y-75075000D01*
X143855000Y-75075000D01*
X143855000Y-74037954D01*
X144105000Y-74037954D01*
X144105000Y-75075000D01*
X145142613Y-75075000D01*
X145213687Y-74878045D01*
X145286313Y-74878045D01*
X145357387Y-75075000D01*
X146395000Y-75075000D01*
X146395000Y-74037954D01*
X146645000Y-74037954D01*
X146645000Y-75075000D01*
X147682613Y-75075000D01*
X147753687Y-74878045D01*
X147826313Y-74878045D01*
X147897387Y-75075000D01*
X148935000Y-75075000D01*
X148935000Y-74037954D01*
X149185000Y-74037954D01*
X149185000Y-75075000D01*
X150222613Y-75075000D01*
X150293687Y-74878045D01*
X150207172Y-74643551D01*
X150076572Y-74430441D01*
X150002210Y-74350000D01*
X150322944Y-74350000D01*
X150325000Y-74968750D01*
X150431250Y-75075000D01*
X151475000Y-75075000D01*
X151475000Y-74031250D01*
X151725000Y-74031250D01*
X151725000Y-75075000D01*
X152768750Y-75075000D01*
X152875000Y-74968750D01*
X152877056Y-74350000D01*
X152868850Y-74266686D01*
X152844548Y-74186573D01*
X152805084Y-74112740D01*
X152751974Y-74048026D01*
X152687260Y-73994916D01*
X152613427Y-73955452D01*
X152533314Y-73931150D01*
X152450000Y-73922944D01*
X151831250Y-73925000D01*
X151725000Y-74031250D01*
X151475000Y-74031250D01*
X151368750Y-73925000D01*
X150750000Y-73922944D01*
X150666686Y-73931150D01*
X150586573Y-73955452D01*
X150512740Y-73994916D01*
X150448026Y-74048026D01*
X150394916Y-74112740D01*
X150355452Y-74186573D01*
X150331150Y-74266686D01*
X150322944Y-74350000D01*
X150002210Y-74350000D01*
X149906905Y-74246905D01*
X149704692Y-74099995D01*
X149477704Y-73995358D01*
X149381954Y-73966318D01*
X149185000Y-74037954D01*
X148935000Y-74037954D01*
X148738046Y-73966318D01*
X148642296Y-73995358D01*
X148415308Y-74099995D01*
X148213095Y-74246905D01*
X148043428Y-74430441D01*
X147912828Y-74643551D01*
X147826313Y-74878045D01*
X147753687Y-74878045D01*
X147667172Y-74643551D01*
X147536572Y-74430441D01*
X147366905Y-74246905D01*
X147164692Y-74099995D01*
X146937704Y-73995358D01*
X146841954Y-73966318D01*
X146645000Y-74037954D01*
X146395000Y-74037954D01*
X146198046Y-73966318D01*
X146102296Y-73995358D01*
X145875308Y-74099995D01*
X145673095Y-74246905D01*
X145503428Y-74430441D01*
X145372828Y-74643551D01*
X145286313Y-74878045D01*
X145213687Y-74878045D01*
X145127172Y-74643551D01*
X144996572Y-74430441D01*
X144826905Y-74246905D01*
X144624692Y-74099995D01*
X144397704Y-73995358D01*
X144301954Y-73966318D01*
X144105000Y-74037954D01*
X143855000Y-74037954D01*
X143658046Y-73966318D01*
X143562296Y-73995358D01*
X143335308Y-74099995D01*
X143133095Y-74246905D01*
X142963428Y-74430441D01*
X142832828Y-74643551D01*
X142746313Y-74878045D01*
X142673687Y-74878045D01*
X142587172Y-74643551D01*
X142456572Y-74430441D01*
X142286905Y-74246905D01*
X142084692Y-74099995D01*
X141857704Y-73995358D01*
X141761954Y-73966318D01*
X141565000Y-74037954D01*
X141315000Y-74037954D01*
X141118046Y-73966318D01*
X141022296Y-73995358D01*
X140795308Y-74099995D01*
X140593095Y-74246905D01*
X140423428Y-74430441D01*
X140292828Y-74643551D01*
X140206313Y-74878045D01*
X124350000Y-74878045D01*
X124350000Y-72350000D01*
X216875000Y-72350000D01*
X216875000Y-121650000D01*
G37*
G04 #@! TD.AperFunction*
M02*
