G04 #@! TF.GenerationSoftware,KiCad,Pcbnew,5.1.10*
G04 #@! TF.CreationDate,2021-12-30T11:48:04+01:00*
G04 #@! TF.ProjectId,meshtastic_jtag,6d657368-7461-4737-9469-635f6a746167,1.1*
G04 #@! TF.SameCoordinates,Original*
G04 #@! TF.FileFunction,Soldermask,Bot*
G04 #@! TF.FilePolarity,Negative*
%FSLAX46Y46*%
G04 Gerber Fmt 4.6, Leading zero omitted, Abs format (unit mm)*
G04 Created by KiCad (PCBNEW 5.1.10) date 2021-12-30 11:48:04*
%MOMM*%
%LPD*%
G01*
G04 APERTURE LIST*
%ADD10C,1.700000*%
%ADD11R,1.524000X1.700000*%
%ADD12R,1.700000X1.700000*%
%ADD13O,1.200000X2.000000*%
%ADD14C,3.200000*%
%ADD15O,1.700000X1.700000*%
G04 APERTURE END LIST*
D10*
X167400000Y-108710000D03*
X167400000Y-106170000D03*
X167400000Y-103630000D03*
D11*
X167400000Y-101090000D03*
D10*
X107220000Y-116400000D03*
X109760000Y-116400000D03*
X112300000Y-116400000D03*
X114840000Y-116400000D03*
D12*
X117380000Y-116400000D03*
G36*
G01*
X134597280Y-106003680D02*
X134597280Y-107403680D01*
G75*
G02*
X134297280Y-107703680I-300000J0D01*
G01*
X133697280Y-107703680D01*
G75*
G02*
X133397280Y-107403680I0J300000D01*
G01*
X133397280Y-106003680D01*
G75*
G02*
X133697280Y-105703680I300000J0D01*
G01*
X134297280Y-105703680D01*
G75*
G02*
X134597280Y-106003680I0J-300000D01*
G01*
G37*
D13*
X131457280Y-106703680D03*
X128917280Y-106703680D03*
X126377280Y-106703680D03*
X123837280Y-106703680D03*
X121297280Y-106703680D03*
X118757280Y-106703680D03*
X116217280Y-106703680D03*
X113677280Y-106703680D03*
X111137280Y-106703680D03*
X108597280Y-106703680D03*
X106057280Y-106703680D03*
X103517280Y-106703680D03*
X100977280Y-106703680D03*
X98437280Y-106703680D03*
X95897280Y-106703680D03*
X93357280Y-106703680D03*
X90820000Y-106700000D03*
X88280000Y-106700000D03*
X88277280Y-81303680D03*
X90817280Y-81303680D03*
X93357280Y-81303680D03*
X95897280Y-81303680D03*
X98437280Y-81303680D03*
G36*
G01*
X101577280Y-80603680D02*
X101577280Y-82003680D01*
G75*
G02*
X101277280Y-82303680I-300000J0D01*
G01*
X100677280Y-82303680D01*
G75*
G02*
X100377280Y-82003680I0J300000D01*
G01*
X100377280Y-80603680D01*
G75*
G02*
X100677280Y-80303680I300000J0D01*
G01*
X101277280Y-80303680D01*
G75*
G02*
X101577280Y-80603680I0J-300000D01*
G01*
G37*
X103517280Y-81303680D03*
X106057280Y-81303680D03*
X108597280Y-81303680D03*
X111137280Y-81303680D03*
X113677280Y-81303680D03*
X116217280Y-81303680D03*
X118757280Y-81303680D03*
X121297280Y-81303680D03*
X123837280Y-81303680D03*
X126377280Y-81303680D03*
X128917280Y-81303680D03*
X131457280Y-81303680D03*
X133997280Y-81303680D03*
D14*
X91400000Y-74300000D03*
X173400000Y-74300000D03*
X173400000Y-114300000D03*
X91400000Y-114300000D03*
D15*
X103840000Y-75040000D03*
X103840000Y-72500000D03*
X106380000Y-75040000D03*
X106380000Y-72500000D03*
X108920000Y-75040000D03*
X108920000Y-72500000D03*
X111460000Y-75040000D03*
X111460000Y-72500000D03*
X114000000Y-75040000D03*
D12*
X114000000Y-72500000D03*
D15*
X128860000Y-72500000D03*
D12*
X131400000Y-72500000D03*
M02*
